<?xml version="1.0" encoding="utf-8"?>
<!-- Generator: Adobe Illustrator 25.3.0, SVG Export Plug-In . SVG Version: 6.00 Build 0)  -->
<svg version="1.1" id="Layer_1" xmlns="http://www.w3.org/2000/svg" xmlns:xlink="http://www.w3.org/1999/xlink" x="0px" y="0px"
	 viewBox="0 0 594 600" style="enable-background:new 0 0 594 600;" xml:space="preserve">
<style type="text/css">
	.st0{fill:none;stroke:#E42A29;stroke-width:0.5;stroke-linecap:round;stroke-linejoin:round;}
</style>
<path class="st0" d="M18.5,15c0,1.2-3,2.3-3.5,3.5c-1.3,3.1-0.1,10.1,0,13.4c0.2,5.2,1.1,15.6,1.7,20.8c0.2,2,0.3,6.1,1.3,7.8
	c1.3,2.3,7,4.4,7.8,6.9c0.8,2.5-1.4,7.8-2.2,10.4c-0.3,1.1-1.5,3.2-1.7,4.3c-0.3,1.6,0.4,4.9,0.4,6.5c0.1,2.9,0.6,8.8,0,11.7
	c-0.4,1.9-2.6,5.4-3,7.4c-0.3,1.5-0.8,4.8,0,6.1c1.8,2.6,8.7,3.7,11.7,4.8c3.7,1.3,11.4,3.4,15.1,4.8c5.4,1.9,16.4,5.1,21.2,8.2
	c3.1,2,7.8,7.8,10.4,10.4c4.3,4.2,13,12.3,17.3,16.4c5.9,5.7,17.7,17,23.4,22.9c3.7,4,11.3,11.9,14.3,16.4c3,4.5,6.9,14.7,9.5,19.5
	c1.2,2.2,3.4,6.9,5.2,8.6c1.3,1.3,5.2,2.5,6.5,3.9c1.5,1.7,2.6,6.2,3.5,8.2l0,0c1.6,3.4,4.2,10.5,6.5,13.4c2.1,2.7,7.4,7,10.4,8.6
	c2.6,1.4,8.3,3.2,11.2,3.5c3.5,0.3,10.4-1.3,13.8-1.7c4.1-0.5,12.3-1.4,16.4-1.7c4.1-0.3,12.3-0.5,16.4-0.9c2.4-0.2,6.1-1,8.6-1.4
	c0.3,0,0.6,0,1,0l0.3,0c0.2,0,0.3,0.1,0.5,0.2c2.2,1.4,6.6,3.6,8.4,5.3c1,0.9,3,3,3.5,4.3c0.4,1.1-0.4,3.5,0,4.5
	c0.5,1.7,2.8,4.5,4.1,5.6c1.8,1.5,6.3,3,8.4,3.9c1.8,0.8,5.7,1.9,7.4,3c2.3,1.5,5.9,5.8,7.8,7.8c3.1,3.2,9.2,9.9,12.3,13.2
	c4,4.1,12.8,11.6,16.2,16.2c2.8,3.7,6.3,12.2,8.9,16c1.8,2.6,5.6,7.5,8,9.5c2.2,1.8,7.2,4.7,9.9,5.6c1.6,0.5,5,0.6,6.7,0.9l0,0
	c2.2-0.3,6.6-1,8.9-1.3c3.4-0.5,10.2-2.1,13.6-1.7c2.9,0.3,8.5,2.7,11.2,3.7c3.8,1.4,11.4,4.4,15.1,6.1c3.5,1.6,10.4,5,13.6,7.1
	c2.5,1.7,7.5,5.3,9.5,7.6c1.5,1.6,3.6,5.5,4.8,7.4c1.5,2.5,4.6,7.6,5.6,10.4c0.6,1.7,1.4,5.3,1.5,7.1c0.2,2.6-0.3,7.8-0.4,10.4l0,0
	c-0.4,1.7-1.2,5.1-1.7,6.7c-0.5,1.5-1.7,4.6-2.4,6.1c-0.7,1.4-2.9,3.7-3,5.2c-0.1,2,2.2,5.5,3,7.4c1.3,2.9,4.4,8.6,5.8,11.5
	c1.7,3.2,5.1,9.6,6.7,12.8c1.3,2.6,3.9,7.8,5.2,10.4c1,1.9,2.8,5.8,3.9,7.6c0.5,0.7,1.9,2,2.2,2.8c0.5,1.8-0.6,5.7-0.9,7.6l0,0
	c0.2,0.9,0.5,2.6,0.6,3.5c0.4,2.1,1.4,6.2,1.9,8.2c0.3,1.3,1.5,3.7,1.5,5c0.1,1.3-1.3,3.7-1.1,5c0.3,1.9,2.8,5.2,3.7,6.9
	c1.1,2.1,3.2,6.5,4.5,8.4c1,1.4,3.4,4.1,4.8,5.2c2.3,1.8,7.7,4,10.2,5.4c2.8,1.6,8.2,5,11,6.5c2.7,1.4,8.4,3.6,11.2,4.8l0,0
	c2.4,0.8,7.3,2.2,9.7,3c4.1,1.3,12.3,4.3,16.4,5.6c2.9,0.9,8.9,2.4,11.9,3.2c2.7,0.8,8.1,2.6,10.8,3.5c2.9,0.9,8.6,2.9,11.5,3.9
	c2.7,0.9,8.2,2.3,10.8,3.5c1.3,0.6,4,1.7,4.8,2.8c1,1.5,0.3,5.4,0.9,7.1c0.4,1.3,1.7,3.8,2.8,4.5c1,0.7,3.4,0.6,4.5,0.9l0,0"/>
</svg>
