<?xml version="1.0" encoding="utf-8"?>
<!-- Generator: Adobe Illustrator 25.3.0, SVG Export Plug-In . SVG Version: 6.00 Build 0)  -->
<svg version="1.1" id="Layer_1" xmlns="http://www.w3.org/2000/svg" xmlns:xlink="http://www.w3.org/1999/xlink" x="0px" y="0px"
	 viewBox="0 0 370 600" style="enable-background:new 0 0 370 600;" xml:space="preserve">
<style type="text/css">
	.st0{fill:none;stroke:#E42A29;stroke-linecap:round;stroke-linejoin:round;stroke-miterlimit:10;}
</style>
<path class="st0" d="M361,42.1c0-6.1-14.3-11.4-18.5-15.7c-2-2-4.7-7.2-7.1-8.5c-4.4-2.5-15-3.5-19.9-2.9
	c-8.9,1.2-24,12.4-32.8,14.2c-8.4,1.7-25.7-0.8-34.2,0c-9,0.9-26.7,5.7-35.6,7.1c-2.8,0.5-8.5,1.2-11.4,1.4
	c-5.3,0.3-16.1,0.5-21.4,0c-5.4-0.5-16.3-6.1-21.4-4.3c-4.3,1.6-8.6,10.7-11.4,14.2c-4.7,6-14.1,18-18.5,24.2
	c-4.5,6.3-13,19.1-17.1,25.7c-3,4.9-10.5,14.3-11.4,19.9c-0.5,3.2,2.3,9.6,2.8,12.8c1,6,3.5,18.2,2.8,24.2c-1.1,9.4-9,27-12.8,35.6
	c-4.3,9.9-14.6,29-20,38.5c-3.7,6.5-12.3,18.9-15.7,25.6c-2.6,5.1-8.7,15.6-8.6,21.4c0.1,3.5,4.4,9.6,5.7,12.8
	c3.2,8.1,10,24.2,11.4,32.8c1.1,6.3,0.4,19.2,0,25.6c-0.5,8.6-2.8,25.7-4.3,34.2c-0.6,3.2-2.6,9.5-2.8,12.8
	c-0.3,4.3,1.1,12.8,1.4,17.1c0.4,5,0.9,15,1.4,20c0.6,5.7,2.2,17.1,2.9,22.8c0.8,7.1,3.2,21.3,2.8,28.5c-0.4,6.9-3.9,20.4-5.7,27.1
	c-2.1,7.6-5.8,23.2-10,29.9c-1.3,2.1-5.7,5-7.1,7.1c-2.1,3.2-3.7,10.9-5.7,14.2c-2.6,4.4-8.9,12.5-12.8,15.7
	c-3.7,3-12.8,6.4-17.1,8.5l0,0"/>
</svg>
