<?xml version="1.0" encoding="utf-8"?>
<!-- Generator: Adobe Illustrator 25.3.0, SVG Export Plug-In . SVG Version: 6.00 Build 0)  -->
<svg version="1.1" id="Layer_1" xmlns="http://www.w3.org/2000/svg" xmlns:xlink="http://www.w3.org/1999/xlink" x="0px" y="0px"
	 viewBox="0 0 339 600" style="enable-background:new 0 0 339 600;" xml:space="preserve">
<style type="text/css">
	.st0{fill:none;stroke:#E42A29;stroke-linecap:round;stroke-linejoin:round;}
</style>
<path class="st0" d="M8.4,585c0-2.2,5.5-3.5,7-5.1c1.3-1.3,3.9-4.1,4.3-5.8c0.9-3.5-2-10.8-2.3-14.4c-0.2-2.1-0.5-6.4-0.4-8.6
	c0.2-3.8,2.6-11.4,2.3-15.2c-0.3-3.8-4.8-10.6-4.7-14.4c0.1-3.1,4.7-8.5,4.7-11.7c-0.1-3.6-5.5-9.6-5.8-13.2
	c-0.5-4.7,3-13.7,3.9-18.3c1-5,1.3-15.6,3.5-20.3c1.7-3.6,7.9-9,10.5-12.1c2.3-2.7,8.1-7.5,9-10.9c0.5-1.9-1.2-5.8-1.6-7.8l0,0
	c-1.8-2-6.1-5.6-7-8.2c-1.1-3.2,0.3-10.3-0.4-13.6c-0.6-2.9-4.3-8-4.3-10.9c0-3.9,4.9-10.7,5.8-14.4c1-3.6,1.1-11.2,1.9-14.8
	c1-4.1,4.6-11.9,5.8-16c1.1-3.5,1.9-11.1,3.5-14.4c1.2-2.4,5.3-6.2,6.6-8.6c1.5-2.6,3.5-8.2,4.7-10.9c1-2.3,2.5-7.2,4.3-9
	c1-1,4.1-1.3,5.1-2.3c2.6-2.7,4.6-10.1,5.8-13.6c1.4-3.8,3.9-11.6,4.7-15.6c0.3-1.6,0.6-5,0.8-6.6l0,0c0.5-4.1,0.3-12.6,1.9-16.4
	c1.8-4,8.8-9.9,11.7-13.2l0,0"/>
<path class="st0" d="M271,15c0,3-0.2,9.1-0.4,12.1c-0.2,3.6-2.1,10.9-1.2,14.4c0.5,2,3.4,5.3,4.7,7c2.3,3,6.8,9.3,9.7,11.7
	c2.9,2.3,9.9,5,13.2,6.6c4.1,1.9,12.3,5.5,16.4,7.4c3,1.4,9.8,3.3,12.1,5.8c1.6,1.8,2.4,6.7,3.1,9c0.6,1.8,2.2,5.5,1.9,7.4
	c-0.4,2.8-4.2,7.4-5.8,9.7c-1.3,1.8-3.5,5.9-5.5,7c-3.1,1.7-10.5,1.3-14,1.6c-4.8,0.4-14.4,0.2-19.1,0.8c-5.6,0.7-16.7,3.5-22.2,4.7
	c-6.2,1.3-24.9,5.1-24.9,5.1l-23.4,2.3c0,0-25.1-0.2-33.5,0c-6.9,0.2-21.7-2-27.7,1.6c-3.2,1.9-6,9.5-7.8,12.9
	c-2,3.8-5.3,11.7-7,15.6c-1.3,2.9-3.8,8.8-5.1,11.7l0,0"/>
</svg>
