<?xml version="1.0" standalone="no"?><!DOCTYPE svg PUBLIC "-//W3C//DTD SVG 1.1//EN" "http://www.w3.org/Graphics/SVG/1.1/DTD/svg11.dtd"><svg width="316" height="600" version="1.1" xmlns="http://www.w3.org/2000/svg" xmlns:xlink="http://www.w3.org/1999/xlink"><path stroke-width="1" stroke="steelblue" fill="steelblue" d="M307.9703932083303,14.999999999996362L298.03330179131626,16.406192270116662L290.25237162161284,16.687430474165012L274.59676561590277,29.718144567690615L256.2225210883589,57.93573413124432L249.14468764833146,69.74774871030422L240.4731691432862,75.65375569259231L238.2232614104978,78.46614100966326L235.22338561668585,79.82545912717069L233.1140967929441,81.65350928138832L233.3953351571472,84.23152824418321L231.3797930919336,84.79400527951293L220.3646209147355,94.87171560504976L220.69273252167477,99.8871344736599L218.20845966742309,102.79326509561179L217.92722157627395,103.73072676411539L215.6773141165413,110.57419546784331L209.02133767670603,112.77723005162625L202.8575283742266,115.54274112270105L187.08473926167062,125.69076055655205L182.20993949252625,133.19045231657583L173.9602788068387,134.8778830700412L172.6478329251895,136.37782133356995L171.5228789222674,146.31491273989923L163.085726084797,152.12717365367462L158.77340331711457,157.37695766006436L155.7735267041371,157.93943469149417L149.58628105334537,162.6267417429408L144.71148155725496,162.8142342259198L131.77451352726348,172.5638333916304L130.83705194918184,174.06377170157612L127.08720618295774,174.62624835380848L126.71222160633624,172.93881790651903L123.14986799189865,176.1261867193989L122.0249142620305,174.43875616659352L117.33760719078055,176.1261867193989L116.77513018932223,177.8136174391493L104.77562373741239,182.5009246784357L99.90082396826983,193.56296976518752L100.08831639310665,195.43789266702333L101.21327012297297,197.12532340643156L100.08831639310665,203.5000612696058L99.52583939164651,206.12495325174132L97.6509165085372,207.81238396980916L93.9010707423131,210.06229140193136L87.71382509151954,210.06229140193136L83.77648717351622,207.99987627518203L81.71407186556644,207.81238396980916L80.77661056053876,208.937337704554L81.33908728894312,210.62476819669064L82.08905644218794,213.99962953002796L79.74540577364678,220.37436776078175L76.18305215920736,222.3430367128185L74.87060627755818,225.34291339516676L71.68323723974208,227.31158248578868L70.46453729745554,228.3427900594652L69.05834520338794,231.53015912752016L64.08979949487912,233.49882815536512L62.308622824186386,236.7799430653231L62.308622824186386,240.4360426608473L60.058715364455566,242.40471189497293L59.683730787834065,243.34217340005307L60.24620751623661,244.56087331080016L61.74614582272625,245.9670653125031L62.9648457650128,254.68545678918053L63.3398303416343,256.93536428649895L63.7148149182558,269.5910940012327L63.7148149182558,276.9032932097525L65.40224564958407,281.2156159698916L65.58973780136694,283.84050793379356L61.65239961030784,288.152830849529L33.71604851542725,305.7771060698851L31.466141055694607,315.9016896390349L37.090909705028025,323.401381190577L37.090909705028025,338.4007645842703L33.153572333132615,344.025533027263L33.71604933459457,356.0250396500487L38.21586425405985,358.08745459342754L39.34081798392617,360.5248544491333L38.96583340730467,364.4621927476619L36.903418099354894,371.774391959294L36.903418099354894,374.96176078108147L37.84087967743835,378.33662206256486L39.71580256054949,381.7114833853648L44.40310990485341,386.7737750277902L44.77809448147491,392.02355917721616L48.90292482432051,397.6483279561271L51.34032443583419,403.46058888430525L50.96533985921269,406.2729734343193L47.96546324623705,410.9602807378633L44.59060205663809,416.58504945686946L44.77809448147491,420.33489526934136L44.21561748001659,421.45984904800207L42.34069459690363,422.02232573253605L38.778340982466034,423.89724853978987L34.278526062998935,429.8970019560238L34.09103391121607,433.4593553932955L27.903788260422516,440.39657038515725L25.091403799231557,444.896385119775L22.46651176287378,452.9585536222585L21.34155803300746,462.7081527701648L21.34155803300746,467.95793678226437L20.96657345638596,471.33279802754805L19.46663514989632,472.83273639248L18.34168142003,475.457628415008L18.71666599665332,476.5825823053565L20.59158887976264,476.95756684171283L22.46651176287378,478.08252049314433L22.46651176287378,480.7074126590869L20.21660430314114,482.95732033078093L18.71666599665332,484.4572585175865L18.34168142003,486.3321815319032L19.09165057327482,487.0821506627344L20.96657345638596,487.45713500079546L23.2164809161186,487.0821506627344L25.091403799231557,486.3321815319032L27.341311258962378,486.3321815319032L29.966203295316518,488.95707330922414L30.34118787193802,491.5819656300755L26.59134210571756,495.33181120565496L25.091403799231557,496.4567651162779L24.716419222608238,499.0816571894338L23.966450069363418,502.45651827560687L20.029113516635334,506.25323824285806L18.716667361928558,510.7530530688273L18.716667361928558,513.565437510686L19.466636515173377,516.002837392427L19.841621091794877,518.2527447569646L19.654128940013834,521.4401136798278L19.091651938551877,523.12754415368L18.529175210145695,525.1899595017785L17.216729055442556,528.7523131165581L16.27926747735728,530.8147282288592L15.52929832411246,532.6896511838095L12.716914135975458,533.064635740955L10.841991252864318,533.439620372812L8.029606791669721,537.0019737374769L8.592083793131678,542.0642655513129L11.216975829485818,544.5016654910269L11.77945255789382,546.001603811841L12.52942171113682,550.6889109339063L12.52942171113682,553.5012952805755L12.341929559353957,556.3136796993804L14.216852442463278,563.0634021972637L14.966821595708097,564.0008636844068L14.40434459424614,566.4382632849465L15.52929832411246,568.5006787008169L14.02936001762464,571.8755399066995L12.52942171113682,575.4378933995849L13.27939086438164,584.9999999999964" /></svg>