<?xml version="1.0" encoding="utf-8"?>
<!-- Generator: Adobe Illustrator 25.3.0, SVG Export Plug-In . SVG Version: 6.00 Build 0)  -->
<svg version="1.1" id="Layer_1" xmlns="http://www.w3.org/2000/svg" xmlns:xlink="http://www.w3.org/1999/xlink" x="0px" y="0px"
	 viewBox="0 0 102 77" style="enable-background:new 0 0 102 77;" xml:space="preserve">
<style type="text/css">
	.st0{fill:none;stroke:#E42A29;stroke-width:0.5;stroke-linecap:round;stroke-linejoin:round;}
</style>
<path class="st0" d="M99.4,10.2c0-1-2.1-2-2.8-2.7c-1.3-1.2-4-3.4-5.5-4.5c-0.4-0.3-1.3-1.1-1.8-1.2c-1.1-0.2-3.4,0.8-4.5,1
	c-0.8,0.1-2.3-0.1-3,0.2c-0.5,0.2-1.2,1.2-1.6,1.6c-0.3,0.3-0.9,1-1.3,1.2c-0.8,0.3-2.6,0.1-3.4,0.2c-0.9,0.2-2.6,0.7-3.5,1
	c-1,0.3-3.1,1.1-4.1,1.3c-1.2,0.3-3.8,0.5-5,0.7c-0.8,0.2-2.4,0.5-3,0.9c-0.7,0.4-1.6,1.6-2.2,2.2c-0.7,0.7-2,2.2-2.8,2.8
	c-0.6,0.4-1.9,1.1-2.6,1.3c-1.7,0.7-5.3,1.4-7.1,1.9c-1.4,0.4-4.2,1.5-5.6,1.9c-0.6,0.2-2,0.5-2.6,0.9c-0.8,0.5-1.7,2.2-2.4,2.7
	c-1,0.7-3.5,1.3-4.6,1.7c-1,0.4-3.2,1.1-4.1,1.7c-1,0.6-2.8,2.2-3.4,3.2c-0.3,0.4-0.4,1.5-0.6,1.9c-0.4,0.7-1.5,2-1.9,2.7
	c-0.4,0.5-0.9,1.6-1.5,1.9c-0.3,0.2-1,0.1-1.3,0.2c-0.6,0.2-1.5,1-1.9,1.5c-0.5,0.5-1.1,1.9-1.7,2.3c-0.5,0.3-1.9,0-2.3,0.4
	c-0.4,0.4-0.5,1.7-0.4,2.2c0.1,0.3,0.8,0.7,0.9,1c0.1,0.7-1,1.9-1.5,2.4c-0.4,0.5-1.9,1-2.1,1.7C8,49,8.8,49.7,8.9,50.1
	c0.1,0.6-0.2,1.7-0.5,2.2c-0.3,0.4-1.3,0.6-1.6,1c-0.4,0.6-0.3,2.3-0.4,3c0,0.4,0.1,1.3-0.1,1.6c-0.3,0.5-1.6,0.7-2.2,1l0,0
	c-0.3,0.5-1,1.5-1.2,2.1c-0.2,0.7-0.6,2.2-0.4,2.9c0.2,0.6,1.3,1.2,1.7,1.7c0.4,0.6,1,1.9,1.3,2.6c0.8,1.7,2.1,5.3,2.8,7.1l0,0"/>
</svg>
