<?xml version="1.0" encoding="utf-8"?>
<!-- Generator: Adobe Illustrator 25.3.0, SVG Export Plug-In . SVG Version: 6.00 Build 0)  -->
<svg version="1.1" id="Layer_1" xmlns="http://www.w3.org/2000/svg" xmlns:xlink="http://www.w3.org/1999/xlink" x="0px" y="0px"
	 viewBox="0 0 80 77" style="enable-background:new 0 0 80 77;" xml:space="preserve">
<style type="text/css">
	.st0{fill:none;stroke:#E42A29;}
</style>
<path class="st0" d="M77.9,1.9l-0.7,1.7L76.4,5l-1.6,0.1l-1.9,0.6L70.6,7l-1.2,1.7l-1,1.5l-0.1,1.4l0.7,1.6l0.6,0.9l-0.1,2.2
	l-1.7,1.5L64.7,20l-1.2,0.7l-1.1,1.9l-0.9,0.1l-2.2,0.3l-1.3,1.7l-1.5,2.2l-1.3,1.1l-1.7,1.7L51,31.1l-3.4,1.6l-2.1,0.9l0,0
	l-1.6,1.2l-1.8,3.5l-2.4,4.7l-3.1,5.6l-2.5,5l-2.4,3.5l-2.4,3.8L26.6,65L23,67.5l-3.9,2.3l0,0l-2.6,1.7l-6.1,1.6l-7.6,2l0,0"/>
<path class="st0" d="M36.7,18.3l-1.9,2l-3.1,2.2L28,25.5l-4.2,4L20,32.8l-2.3,2.1l-1.3,3.2l-2.6,5.6l-1.7,4l-2.2,5.3l-1.3,2.7l0,0
	l-1.4,3.5l-2,5.8l-1.2,3.3l-2,5.6l0,0"/>
<path class="st0" d="M38.2,19.2l1.2,2.8l1.4,3.4l1.4,2.6l0,0"/>
</svg>
