<?xml version="1.0" encoding="utf-8"?>
<!-- Generator: Adobe Illustrator 25.3.0, SVG Export Plug-In . SVG Version: 6.00 Build 0)  -->
<svg version="1.1" id="Layer_1" xmlns="http://www.w3.org/2000/svg" xmlns:xlink="http://www.w3.org/1999/xlink" x="0px" y="0px"
	 viewBox="0 0 500 500" style="enable-background:new 0 0 500 500;" xml:space="preserve">
<style type="text/css">
	.st0{fill:none;stroke:#E42A29;stroke-width:0.5;stroke-linecap:round;stroke-linejoin:round;}
</style>
<path class="st0" d="M389.5,35.8c0-0.9-2.5-0.6-3.3-0.9c-0.9-0.3-2.9-0.6-3.5-1.3c-1.2-1.4-0.9-5.5-1.3-7.3
	c-0.6-3.2,0-10.5-2.4-12.8c-1.2-1.1-4.8-0.6-6.4-0.7c-1.2-0.1-3.7-0.6-4.9-0.4c-1.4,0.3-3.8,1.8-5.1,2.4c-2.3,1-6.7,3.4-9.1,4
	c-2.1,0.5-6.4,0.3-8.6,0.4c-2.9,0.1-8.8-0.3-11.7,0c-2.5,0.3-7.5,1.7-10,2.2c-3.7,0.8-11,2.8-14.8,2.9c-2.7,0.1-7.9-1.2-10.6-1.6
	c-2.9-0.4-9-2.8-11.7-1.6c-2,0.9-3.9,5.4-5.1,7.3c-2.1,3.2-6,9.7-8,12.9c-1.7,2.7-5.2,8.1-6.9,10.7c-2.1,3.2-7.7,9-8.6,12.8
	c-0.5,2,0.8,6.2,1.1,8.2c0.4,2.9,2.3,8.7,2,11.7c-0.2,2.2-2.4,6.2-3.3,8.2c-1.4,3.3-4,9.9-5.6,13.1c-1.4,2.8-4.6,8.1-6.2,10.7
	c-0.9,1.4-2.9,4-3.6,5.5c-1.3,2.5-3.2,7.8-4.4,10.4c-1.6,3.5-6.4,10.2-6.6,14c-0.1,1.8,1.8,5.1,2.4,6.7c1.5,4.2,5.1,12.4,5.8,16.8
	c0.3,1.9,0,5.7,0,7.7c0,2.7,0,8.1-0.2,10.7c-0.2,2.2-1,6.4-1.3,8.6c-0.4,3.1-1.3,9.3-1.5,12.4c-0.1,3.2,0.3,9.7,0.5,12.9
	c0.3,3.9,1.6,15.5,1.6,15.5s0.3,7.4,0.5,9.8c0.2,1.7,1.1,5.2,0.9,6.9c-0.1,1.4-1.5,4.1-1.8,5.5c-0.8,3.2-1.5,9.8-2.6,12.9
	c-0.7,1.9-2.9,5.4-3.8,7.3c-0.5,0.9-1.2,3-1.8,3.8c-0.4,0.5-1.7,1.2-2,1.8c-0.3,0.8,0.4,2.8,0.2,3.6c-0.3,1.3-2.1,3.3-2.9,4.4
	c-0.8,1.1-2.4,3.2-3.3,4.2c-1.2,1.3-3.6,3.8-5.1,4.7c-2.2,1.4-7.9,1.8-9.5,3.8c-1,1.2-0.7,4.6-0.9,6.2c-0.3,2.3-0.8,7-1.3,9.3
	c-0.4,2.1-2,6.2-2,8.4c0,0.7,0.5,1.9,0.5,2.6c0,1.7-0.9,4.9-1.3,6.6c-0.3,1.2-1.2,3.7-1.5,4.9c-0.3,1.8-0.5,5.5-0.5,7.3
	c-0.1,2.2,0.2,6.6-0.2,8.7c-0.3,1.4-1.6,4.1-2,5.5c-0.9,3.2-1,10-2.6,12.9c-0.6,1.1-2.6,2.6-3.5,3.5c-0.8,0.8-2.5,2.3-3.1,3.3
	c-1,1.4-2.4,4.5-2.9,6.2c-0.2,0.8,0,2.5-0.4,3.3c-0.3,0.7-1.3,2-2,2.4c-0.4,0.2-1.4,0.2-1.8,0.4c-0.8,0.3-2,1.5-2.7,1.8
	c-0.6,0.2-1.9,0.2-2.4,0.5c-0.5,0.4-0.5,2.1-1.1,2.6c-0.8,0.6-2.9,0.5-3.8,0.5c-0.7,0-2.1-0.5-2.7-0.2c-1.1,0.5-1.5,3.5-2.6,4
	c-0.5,0.2-1.5-0.2-2-0.2c-1.4,0.2-4.5,0.8-5.5,1.8c-0.7,0.7-0.6,2.9-0.9,3.8c-0.3,0.8-0.7,2.6-1.5,2.9c-0.7,0.3-2.4-0.6-2.9-1.1
	c-0.6-0.6-0.8-2.4-1.3-3.1c-1.1-1.5-3.7-4.2-5.5-4.7c-0.8-0.2-2.7,0.1-3.5,0.5c-0.8,0.5-1.9,2.1-2.4,2.9c-0.4,0.6-1.1,2-1.3,2.7
	c-0.3,1.1-0.7,3.3-0.7,4.4c0,0.5,0.4,1.6,0.1,2c-0.1,0.2-0.5,0.3-0.6,0.4c-0.1,0.1-0.2,0.4-0.1,0.5c0.1,0.2,0.9,0.1,1.1,0.3
	c0.1,0.1,0.2,0.3,0.2,0.4c0,0.2-0.2,0.7-0.4,0.8c-0.1,0.2-0.6,0.3-0.8,0.5c-0.1,0.1-0.2,0.4-0.1,0.5c0.1,0.1,0.5,0.2,0.6,0.2
	c0.3,0,0.9-0.3,1.1-0.2c0.2,0.1,0.6,0.5,0.8,0.7c0.1,0.2,0.3,0.5,0.3,0.7c-0.1,0.3-0.7,0.5-0.9,0.7c-0.1,0.1-0.5,0.4-0.5,0.5
	c0,0.1,0.3,0.4,0.2,0.5c0,0.1-0.3,0.3-0.3,0.4c-0.1,0.1-0.1,0.5-0.1,0.6c-0.1,0.1-0.4,0.2-0.5,0.4c-0.3,0.4-0.5,1.3-0.5,1.8
	c-0.1,0.7,0.5,2.2,0.4,3c-0.1,0.5-0.5,1.3-0.9,1.7c-0.4,0.4-1.6,0.5-1.9,1c-0.3,0.6,0.1,2,0.1,2.6l0,0c0.2,0.4,0.5,1.2,0.6,1.6
	c0.1,0.6,0.2,1.8,0.3,2.4c0.1,0.5,0.6,1.6,0.5,2.1c0,0.7-0.9,2-1,2.7c-0.1,0.4,0.1,1.3,0,1.7c-0.2,0.7-1,2-1.3,2.7
	c-0.2,0.5-0.5,1.7-0.9,2.1c-0.7,0.6-2.9,0.6-3.4,1.4c-0.2,0.4,0.5,1.5,0.4,2c-0.1,0.4-1.1,0.6-1.3,1c-0.1,0.3,0.3,1.1,0.2,1.5
	c-0.2,0.3-1,0.5-1.2,0.7c-0.4,0.5-0.5,1.7-0.6,2.3c-0.2,0.7-0.6,2.2-0.8,2.9c-0.2,0.6-0.5,1.9-0.9,2.5c-0.4,0.5-1.5,1-1.9,1.5
	c-0.5,0.5-1.4,1.6-1.6,2.3c-0.2,0.6,0,1.8,0.1,2.4c0.1,0.6,0.8,1.7,0.6,2.2c-0.3,0.9-2.4,1.4-3.2,1.9c-0.5,0.4-1.5,1.2-2.1,1.5
	c-0.4,0.2-1.3,0.4-1.6,0.7c-0.6,0.5-1.3,2-1.8,2.6c-0.8,0.8-2.5,2.1-3.5,2.7c-0.5,0.3-1.9,0.6-2.1,1.2c-0.2,0.4,0.4,1.2,0.5,1.6l0,0
	"/>
</svg>
