<?xml version="1.0" encoding="utf-8"?>
<!-- Generator: Adobe Illustrator 25.3.0, SVG Export Plug-In . SVG Version: 6.00 Build 0)  -->
<svg version="1.1" id="Layer_1" xmlns="http://www.w3.org/2000/svg" xmlns:xlink="http://www.w3.org/1999/xlink" x="0px" y="0px"
	 viewBox="0 0 54 54" style="enable-background:new 0 0 54 54;" xml:space="preserve">
<style type="text/css">
	.st0{fill:none;stroke:#E42A29;stroke-width:0.5;stroke-linecap:round;stroke-linejoin:round;}
</style>
<path class="st0" d="M1.6,8c0,0.2,0,0.7,0,1c0,0.4-0.3,1.3-0.2,1.8c0,0.4,0.4,1,0.5,1.4c0.1,0.3,0.4,1,0.6,1.3
	c0.2,0.3,0.7,1,0.9,1.3c0.1,0.2,0.3,0.5,0.4,0.7c0.1,0.3-0.1,0.8,0,1.1c0.1,0.2,0.3,0.7,0.5,0.9c0.2,0.3,0.6,0.9,0.9,1.1
	c0.1,0.1,0.5,0.1,0.7,0.2c0.2,0.2,0.5,0.7,0.6,0.9c0.3,0.4,0.7,1.2,0.9,1.6l0,0c0.3,0.2,1,0.7,1.3,0.9c0.4,0.3,1.2,0.7,1.6,1
	c0.4,0.3,0.9,0.9,1.3,1.2c0.3,0.2,1.2,0.3,1.5,0.5c0.3,0.2,0.9,0.6,1.2,0.8c0.3,0.2,1.1,0.5,1.4,0.7c0.2,0.2,0.5,0.6,0.7,0.8
	c0.2,0.2,0.7,0.6,0.9,0.8c0.2,0.2,0.7,0.6,0.8,0.8c0,0.1,0,0.4,0,0.5c0,0.2-0.3,1-0.3,1v0.7l-0.3,0.8c0,0-0.2,1.1-0.1,1.5
	c0,0.3,0.1,0.8,0.2,1.1c0.2,0.4,0.7,1.1,0.9,1.4l0,0c0,0.2,0.2,0.4,0.2,0.6c0,0.1-0.2,0.4-0.1,0.6c0,0.4,0.6,1,0.6,1.3
	c0,0.1-0.1,0.4,0,0.6c0,0.2,0.3,0.5,0.2,0.7c0,0.1-0.3,0.2-0.3,0.3c0,0.1,0.2,0.3,0.2,0.5c0,0.2-0.2,0.7-0.3,0.9
	c-0.1,0.6,0.1,1.8,0,2.4c-0.1,0.3-0.3,0.9-0.4,1.1c-0.1,0.3-0.5,0.9-0.6,1.3c0,0.1-0.1,0.5-0.1,0.6c-0.1,0.3-0.4,1-0.6,1.3
	c-0.1,0.2-0.2,0.5-0.3,0.6c-0.1,0.2-0.4,0.5-0.6,0.6c-0.1,0.1-0.4,0.2-0.5,0.1c-0.1,0-0.2-0.3-0.3-0.5c-0.1-0.3,0-0.9-0.2-1.1
	c-0.1-0.2-0.7-0.5-0.8-0.7c-0.2-0.3-0.1-1.1-0.4-1.3c-0.3-0.2-1,0.4-1.4,0.3c-0.2,0-0.4-0.3-0.5-0.4c-0.2-0.1-0.8-0.1-1,0
	c-0.1,0-0.4,0.2-0.5,0.3c-0.1,0.1,0,0.5,0.1,0.6c0.1,0.2,0.4,0.4,0.5,0.5c0,0.1,0.1,0.2,0.1,0.3c0,0.2-0.4,0.6-0.5,0.8
	c0,0.2,0,0.5,0,0.7c0.1,0.3,0.5,0.6,0.7,0.8c0.1,0.2,0.3,0.6,0.2,0.8c0,0.2-0.5,0.5-0.6,0.7c-0.1,0.2-0.1,0.6-0.1,0.8
	c0,0.2,0,0.6,0,0.8l0,0"/>
<path class="st0" d="M28.5,42.9c0-0.3-0.8-0.1-1.1-0.1c-0.3-0.1-1-0.2-1.3-0.3c-0.3-0.1-0.8-0.5-1-0.6c-0.2-0.1-0.7-0.2-0.9-0.4
	c-0.2-0.1-0.5-0.5-0.7-0.7c-0.1-0.1-0.3-0.4-0.5-0.6c-0.2-0.2-0.8-0.5-1.1-0.6c-0.2-0.1-0.7-0.2-0.8-0.4c-0.2-0.2-0.3-0.7-0.4-1
	c-0.1-0.2-0.1-0.6-0.1-0.8c0-0.2,0.1-0.6,0.1-0.8c0-0.1-0.2-0.5-0.3-0.5s-0.5-0.1-0.6,0c-0.1,0-0.1,0.2-0.2,0.2
	c-0.2,0.1-0.5-0.1-0.7-0.1l0,0"/>
<path class="st0" d="M52.7,1.3c0,0.6-0.8,1.5-1.1,2c-0.4,0.7-1.2,2.2-1.6,3c-0.2,0.3-0.6,1-0.7,1.4C49,8,48.7,8.7,48.5,9
	c-0.2,0.5-0.7,1.4-0.9,1.8c-0.3,0.5-0.9,1.4-1.2,1.8c-0.3,0.5-0.9,1.5-1.2,2c-0.3,0.5-0.8,1.6-1.2,2.1c-0.5,0.5-1.7,1.1-2.3,1.4
	c-0.6,0.3-1.7,1-2.3,1.3c-0.3,0.2-0.9,0.5-1.2,0.6c-0.5,0.2-2.1,0.7-2.1,0.7L33,21.7l-3.1,0.7l-3,0.9c0,0-1.8,0.8-2.4,1.1
	c-0.7,0.3-2,1.2-2.7,1.4c-0.6,0.2-2,0-2.4,0.5c-0.3,0.3,0,1.3,0,1.7c0,0.3,0,1,0,1.3c0,0.5,0.1,1.6,0.1,2.1c0,0.4-0.1,1.2-0.1,1.6
	l0,0"/>
</svg>
