<?xml version="1.0" standalone="no"?><!DOCTYPE svg PUBLIC "-//W3C//DTD SVG 1.1//EN" "http://www.w3.org/Graphics/SVG/1.1/DTD/svg11.dtd"><svg width="600" height="268" version="1.1" xmlns="http://www.w3.org/2000/svg" xmlns:xlink="http://www.w3.org/1999/xlink"><path stroke-width="1" stroke="steelblue" fill="steelblue" d="M15,203.8345240292083L16.441213793859788,208.98171563824872L20.353079398830232,218.04077284286086L22.41195603302549,225.24684137813983L24.059057340381514,231.4234711234576L25.706158647738448,236.36477509785072L26.735596964836077,240.6884162291044L31.471013373407914,240.6884162291044L36.82409262231613,241.92374237525564L45.059599309020086,242.33551742246073L48.55968958715221,240.89430395257114L53.29510584580112,239.45309013322458L57.61874692753372,239.0413148350117L63.17771383986201,239.0413148350117L68.11901776193008,238.21776424940526L73.06032183392108,235.54122459395148L78.41340108282839,233.68823549572062L86.23713244269402,234.51178617999085L96.32562810017407,235.95299990378044L107.64944958824799,237.39421338498596L120.20859720676253,239.45309013322458L131.9441941715977,241.5119668708012L141.41502683882027,243.36495580650717L152.1211854865578,245.83560796862184L164.06267011481305,248.71803508430548L174.1511657722931,250.36513643676335L178.47480475510656,253.45345113499752L182.79844568691624,256.33587841290864L188.35741274916654,260.2477441132851L190.4162893833627,261.2771823190524L193.09282900781545,259.83596892854894L197.82824526646527,258.3947549257118L202.15188634819788,257.1594291893007L204.62253830923328,257.98297959758384L208.12262858736358,259.42419330699795L212.03449419233584,258.18886746865974L218.4170119082628,255.92410297247352L225.82896779136718,253.24756329069987L229.9467212096797,251.8063497900057L232.82914849755343,248.3062594936L235.91746344884723,243.7767309107121L238.3881154098808,241.7178543102964L246.00595910632546,239.65897741392018L254.85912878328872,236.77655017663346L266.3888379347836,231.423470949273L276.47733359226186,227.51160518279994L285.9481662594826,223.5997397502033L297.27198789748036,218.45254800773546L313.331225794127,222.1585257824081L329.1845760273536,225.45272867601398L344.0084879434826,229.15870671114317L359.45006299979195,233.07057236815217L365.6781656053272,233.53381930750766L371.90626821086335,233.9970664207931L375.7151899091641,234.20295404829267L384.46541567945496,234.1000103742881L390.4361580685436,234.1000103742881L395.274518233864,231.93818960321732L401.75997970654043,228.0263238782718L404.53946308774357,226.58511047348384L410.71609314025136,226.0703913370944L417.2015546129287,225.45272815326734L421.6281394514108,222.15852543384517L427.495937933827,218.04077214555946L432.4372418558969,214.64362588569566L434.70200615351223,208.15816426979018L436.1432197974482,202.90802907940906L435.6285007138604,198.8932193193341L434.9078938169305,194.56957839280494L440.4668608791808,192.61364575231164L448.0847044257025,189.52533035692977L448.0847044257025,189.52533035692977L449.7318036341394,186.48848793882462L453.12895000560184,181.85601551497257L457.7614225075022,178.25298136110723L464.76160321368843,172.59107040834442L470.5264577894368,168.98803631824194L473.61477274072786,167.34093496867354L475.673649374924,168.57626096054628L479.37962746639823,168.16448576238326L481.9532231841813,171.66457593209088L489.1592915537876,173.31167724285933L496.0565283533033,182.47367851935542L502.43904606923115,192.0474549612527L507.68918141146787,198.94469177705196L511.3951595029421,202.03300671697343L513.9687552207242,201.93006278542362L516.4394073316817,199.66529850824645L519.7336099463946,195.85637669928747L522.3072058140997,191.3268480271472L527.4543973995878,183.4001729053216L534.7634095259427,182.16484689722074L539.4988257845916,182.37073457982297L545.7783998936948,181.4442396244467L550.6167600590152,177.01765490248908L550.4108723955951,169.39981131141303L552.057973702952,161.5760799720947L551.852086039532,155.29650612001205L556.8963338682715,153.0317418853947L560.0875927262359,147.88455015352338L562.0435256036835,143.869740614874L562.5067731837034,138.96704057853913L562.9700207637243,134.06434068041926L562.1464701100458,128.29948599375166L560.705256466108,120.26986706816479L562.352357773465,114.4020685473215L563.999459080821,108.5342700903966L565.2347850613387,98.85754969217669L566.4701111917793,92.37208821721924L567.7054371722961,85.88662686237876L569.3525384796521,79.9158845278589L567.0877741820377,72.50392862636272L565.8524482015191,66.53318619455149L567.0877741820377,56.032915331258664L568.117211449674,50.988665793977816L569.5584250936117,43.57670994790442L572.6467400449046,33.89998953998747L571.2055264009678,27.105696718756917L571.2055264009678,22.98794333600199L575.7350551461204,20.929066673898888L581.499909721867,20.105516047225137L584.3823370097398,18.870189961165124L585,16.605425743551677L585,13.722998274668498L582.7352357023838,12.693560052517569L577.1762687900573,11.870009442325681L575.5291674827013,8.575806799884049L570.7937510741294,6.72281768094399L564.2053458447035,8.781694454910394L556.3816144848388,11.252346451764424L548.3519956114769,12.693560052517569L547.1166694810372,13.105335352355723L543.8224668663252,15.781874990938377L540.9400395784523,18.458414664374686L535.9987356563825,20.105516047225137L528.586779623357,22.37028038718654L526.1161276623225,23.60560634497324L521.998374393932,27.105696718756917L518.0865086390386,28.135134894600014L515.2040813511649,28.958685684719057L514.7923060243265,31.63522523221127L513.9687553706481,34.51765267022256L510.0568897656767,36.7824169017058L506.76268700104174,38.841293563430554L506.3509116742016,42.13549619100104L503.880259713168,45.22381123024206L503.880259713168,47.076800240382L502.6449337326503,49.75333993041568L502.6449337326503,52.018104120396856L502.2331584058102,53.87109326284917L499.7625064447775,54.07698090028225L499.55661878135834,56.547632886351494L500.17428177161673,60.0477231095183L501.82138307897367,61.28304919820857L500.79194476187513,64.57725177437351L499.96839410819666,68.28322987405318L499.96839410819666,68.28322987405318" /></svg>