<?xml version="1.0" encoding="utf-8"?>
<!-- Generator: Adobe Illustrator 25.3.0, SVG Export Plug-In . SVG Version: 6.00 Build 0)  -->
<svg version="1.1" id="Layer_1" xmlns="http://www.w3.org/2000/svg" xmlns:xlink="http://www.w3.org/1999/xlink" x="0px" y="0px"
	 viewBox="0 0 220 237" style="enable-background:new 0 0 220 237;" xml:space="preserve">
<style type="text/css">
	.st0{fill:none;stroke:#E42A29;stroke-width:0.5;stroke-linecap:round;stroke-linejoin:round;}
</style>
<path class="st0" d="M5.7,231.1c0-2,2.7-5.4,3.5-7.2c1.3-2.9,3.6-9,5.1-11.8c1.3-2.4,4.3-6.9,5.9-9.1c1.3-1.8,5.1-4.8,5.6-7
	c0.2-0.9-0.6-2.6-0.8-3.5c-0.3-1.1-1.5-3.4-1.3-4.6c0.1-0.7,0.9-1.9,1.3-2.4c1.2-1.2,4.3-2.6,5.9-3.2c1.3-0.5,4-1.6,5.4-1.6
	c0.9,0,2.6,0.8,3.5,1.1c0.7,0.2,2.2,1.1,2.9,0.8c1.4-0.5,2.5-3.7,3.5-4.8c1.5-1.8,4.3-6.5,6.7-6.7c1.3-0.1,3.4,2.3,4.6,2.9
	c1.6,0.9,4.8,2.4,6.4,3.2c1.1,0.5,3.1,2.2,4.3,2.1c1.4-0.1,3.4-2.2,4.6-2.9c1.7-1.1,5.3-2.9,6.7-4.3c1-1,2.2-3.6,2.9-4.8
	c0.5-0.8,1.5-2.3,2.1-2.9c0.9-0.9,3.2-2.1,4.3-2.7c0.7-0.4,2.1-1.2,2.9-1.3c1-0.1,3,0.5,4,0.8c1,0.3,3,1.2,4,1.3
	c1.6,0.3,4.8-0.1,6.4,0c0.7,0,2.1-0.1,2.7,0.3c0.9,0.5,1.5,2.7,2.1,3.5c0.5,0.7,2.1,2.3,2.9,2.1c0.8-0.2,1.2-2,1.6-2.7
	c0.8-1.2,2.6-3.7,3.5-4.8c0.8-1,2-3.4,3.2-3.8c0.7-0.2,2,0.7,2.7,0.8c0.8,0.2,2.6,0.8,3.2,0.3c0.9-0.8,0.2-3.7,0.5-4.8
	c0.6-2,2.4-5.7,3.5-7.5c0.7-1.2,2.2-3.6,3.2-4.6c0.9-0.9,3.5-1.7,4.3-2.7c0.6-0.7,1-2.6,1.1-3.5c0.1-1.1-0.4-3.2-0.3-4.3
	c0.1-0.9,0.7-2.6,1.1-3.5c0.8-2,3-5.6,4-7.5l0,0c0.4-1.9,1.3-5.8,1.6-7.8c0.4-2.5,0.9-7.4,1.1-9.9c0.1-1.5-0.6-4.5,0-5.9
	c0.6-1.5,3.4-3.5,4.6-4.6c1-1,3.7-2.5,4.3-3.8c0.5-1.2-0.1-3.8,0-5.1c0.1-2,0.6-5.8,0.8-7.8c0.2-2.1,0-6.5,0.5-8.6
	c0.4-1.7,1.8-4.9,2.7-6.4c1-1.9,3.6-5.2,4.8-7c0.9-1.3,3-3.6,3.5-5.1c0.4-1.1-0.1-3.5,0.3-4.6c0.3-0.9,1.5-2.5,2.1-3.2
	c0.9-1.2,2.8-3.4,4-4.3c0.7-0.5,2.6-1,3.2-1.6c1.2-1.2,2.2-4.7,3.2-6.2c0.9-1.3,2.8-3.6,4-4.6c1.2-0.9,4.2-1.7,5.4-2.7
	c2.2-1.8,5.8-6.4,7.2-8.8c0.8-1.4,0.9-5.5,2.4-6.2c1.2-0.5,3.6,1.2,4.8,1.6c2,0.7,7.1,1,8,2.9c0.6,1.3-1.3,4.3-1.9,5.6
	c-0.9,2.1-3.8,5.7-4.6,7.8c-0.4,1.1-0.4,3.7-0.8,4.8c-0.3,1.1-1.8,2.9-1.9,4c-0.1,1.5,1.5,4.4,1.6,5.9c0.1,1.8-0.7,5.5-1.1,7.2
	c-0.5,2-1.7,5.9-2.4,7.8c-0.6,1.5-2.3,4.3-2.7,5.9c-0.3,1.4,0.1,4.2,0,5.6c-0.1,2-0.9,5.8-1.1,7.8c-0.1,1.2-0.4,3.6-0.3,4.8
	c0.2,1.5,1.4,4.4,1.9,5.9l0,0"/>
</svg>
