<?xml version="1.0" encoding="utf-8"?>
<!-- Generator: Adobe Illustrator 25.3.0, SVG Export Plug-In . SVG Version: 6.00 Build 0)  -->
<svg version="1.1" id="Layer_1" xmlns="http://www.w3.org/2000/svg" xmlns:xlink="http://www.w3.org/1999/xlink" x="0px" y="0px"
	 viewBox="0 0 261 151" style="enable-background:new 0 0 261 151;" xml:space="preserve">
<style type="text/css">
	.st0{fill:none;stroke:#E42A29;stroke-linecap:round;stroke-linejoin:round;stroke-dasharray:12;}
</style>
<path class="st0" d="M233.6,143.6c0-2.5,2-7.1,2.6-9.5s2-7.1,2.6-9.5s2-7.1,2.6-9.5c0.7-2.4,2-7.1,2.6-9.5c0.7-2.4,2-7.1,2.6-9.5
	s2-7.1,2.6-9.5s2-7.1,2.6-9.5s3-7.1,2.6-9.5c-0.5-2.6-4.6-6.6-6.2-8.7c-0.8-1-2.4-2.9-3.3-3.9c-0.8-1-2.3-3.1-3.3-3.9
	c-1.4-1.1-4.8-2.4-6.4-3.2s-4.8-2.4-6.4-3.2s-4.8-2.4-6.4-3.2s-4.8-2.4-6.4-3.2s-4.8-2.4-6.4-3.2s-4.8-2.4-6.4-3.2
	c-1.6-0.8-4.8-2.4-6.4-3.2c-1.6-0.8-4.8-2.4-6.4-3.2l0,0c-2-0.8-5.9-2.4-7.9-3.3s-5.9-2.4-7.9-3.3s-5.9-2.4-7.9-3.3
	c-2-0.8-5.9-2.7-7.9-3.3c-1.7-0.4-6.8-0.9-6.8-0.9l-6.8-0.9c0,0-5.1-0.6-6.8-0.9s-5.1-0.6-6.8-0.9s-5.1-0.6-6.8-0.9
	c-1.7-0.2-5.1-0.6-6.8-0.9s-5.1-0.6-6.8-0.9s-5.1-0.7-6.8-0.9c-2.1-0.2-6.2-0.5-8.2-0.6S89.5,4,87.4,3.9c-3.5,0-10.4,0.6-13.8,0.8
	S63.1,4.9,59.7,5.5c-1.7,0.3-5,1.6-6.7,2.1s-5,1.6-6.7,2.1s-5,1.6-6.7,2.1s-5.1,1.3-6.7,2.1c-1.5,0.7-4,2.9-5.3,3.9s-4,2.9-5.3,3.9
	s-4,2.9-5.3,3.9s-4.4,2.5-5.3,3.9c-0.8,1.3-1,4.4-1.3,5.9s-1,4.4-1.3,5.9s-1,4.4-1.3,5.9s-1.3,4.4-1.3,5.9c0,1.4,1,4,1.2,5.3
	c0.3,1.7,0.5,5,0.8,6.7c0.2,1.5,0.8,4.5,1,6s0.7,4.5,1,6c0.5,2.1,2,6.2,2.6,8.2c0.7,2.1,1.4,6.5,2.6,8.2c1.1,1.5,4.4,3.3,5.9,4.4
	s4.4,3.3,5.9,4.4c1.5,1.1,4.5,3.3,6.1,4.4s4.2,4,6.1,4.4c2,0.4,5.8-1.5,7.8-2s5.9-1.4,7.8-2c1.1-0.4,3.3-1.3,4.4-1.7
	s3.3-1.3,4.4-1.7c1.1-0.4,3.3-1.3,4.4-1.7c1.1-0.4,3.4-1,4.4-1.7c0.9-0.7,2.1-2.8,2.8-3.7s2.1-2.8,2.8-3.7c1.4-1.9,4.1-5.6,5.6-7.5
	c1-1.3,3.3-3.8,4.4-5.1s3.1-4,4.4-5.1c0.9-0.9,3.1-2.2,4.1-3s3.1-2.2,4.1-3s3.1-2.2,4.1-3s3.2-2.1,4.1-3c1.7-1.4,4.2-5.2,6.2-6.2
	c1.7-0.9,5.7-0.8,7.6-1s5.7-0.8,7.6-1s5.7-0.8,7.6-1s7.6-1,7.6-1l6.8,0.3c0,0,5.1,0.2,6.8,0.3c1.7,0.1,5.1,0.2,6.8,0.3
	c1.7,0.1,5.1,0.1,6.8,0.3c1.2,0.2,3.6,0.8,4.8,1s3.6,0.8,4.8,1s3.6,0.8,4.8,1c1.2,0.3,3.8,0.3,4.8,1c1.1,0.8,2.1,3.5,2.8,4.7
	s2.2,3.4,2.8,4.7c1.2,2.7,2.8,8.5,3.7,11.4c0.9,2.8,2.8,8.5,3.7,11.4l0,0c0.6,2,1.9,6.1,2.5,8.1s1.7,6.1,2.5,8.1
	c1.3,3.3,4.7,9.6,6.2,12.8c1.6,3.2,4.6,9.6,6.2,12.8c2.1,3.9,6.5,11.4,8.7,15.2l0,0"/>
</svg>
