<?xml version="1.0" encoding="utf-8"?>
<!-- Generator: Adobe Illustrator 25.3.0, SVG Export Plug-In . SVG Version: 6.00 Build 0)  -->
<svg version="1.1" id="Layer_1" xmlns="http://www.w3.org/2000/svg" xmlns:xlink="http://www.w3.org/1999/xlink" x="0px" y="0px"
	 viewBox="0 0 152 151" style="enable-background:new 0 0 152 151;" xml:space="preserve">
<style type="text/css">
	.st0{fill:none;stroke:#E42A29;stroke-width:0.7;stroke-linecap:round;stroke-linejoin:round;}
</style>
<path class="st0" d="M3.7,144.4c0-0.7,1.4-1.7,1.9-2.3c0.6-0.8,1.6-2.6,2.3-3.3c0.6-0.6,1.9-1.4,2.6-1.9c0.8-0.5,2.5-1.7,3.4-2
	c0.8-0.2,2.4-0.2,3.1-0.3c1.3-0.1,3.9-0.1,5.1-0.1c1.1,0,3.4,0.1,4.6,0c0.8-0.1,2.4-0.3,3.1-0.6c1.2-0.4,3.6-1.5,4.6-2.3
	c0.7-0.6,1.8-2.3,2.3-3.1c0.3-0.5,0.7-1.5,1-2c0.5-0.9,1.4-2.8,2-3.6c0.3-0.4,1.1-1.2,1.6-1.4c1-0.4,3.2-0.3,4.3-0.1
	c0.8,0.1,2.4,0.7,3.1,0.9c1,0.3,3.1,0.9,4.1,1c0.6,0.1,1.9,0.1,2.6,0c0.9-0.2,2.3-1.2,3.1-1.6c1.3-0.6,4.1-1.3,5.3-2.1
	c0.6-0.4,1.5-1.8,2.1-2.3c0.6-0.5,1.9-1.3,2.6-1.6c0.5-0.2,1.6-0.2,2.1-0.1c0.7,0.1,2.1,0.8,2.7,1.1c1,0.5,2.8,1.7,3.7,2.3
	c1,0.6,3.2,1.6,4.1,2.3c0.8,0.5,2.4,1.8,3.1,2.4c0.9,0.8,2.4,2.7,3.4,3.3c1,0.5,3.2,0.9,4.3,1.1c1,0.2,3,0.7,4,0.7
	c1.4,0.1,5.7-0.4,5.7-0.4s2.4-0.3,3,0.1c0.8,0.6,1,2.9,1.3,3.9c0.3,1,0.5,3,0.7,4c0.3,1.2,1.1,3.6,1.7,4.7c0.5,0.9,1.7,2.6,2.4,3.3
	c0.8,0.7,2.6,2,3.6,2.4c0.4,0.2,1.4,0.4,1.9,0.4c1,0,2.9-0.5,3.9-0.7c1.2-0.3,3.6-0.8,4.6-1.4c0.8-0.5,2.1-2,2.6-2.9
	c0.3-0.5,0.6-1.5,0.7-2c0.2-0.7,0.7-2,0.6-2.7c-0.2-1.1-2.1-2.6-2.7-3.6c-0.4-0.6-1.2-2-1.4-2.7c-0.1-0.6-0.2-1.9,0-2.4
	c0.1-0.3,0.7-0.8,1-1c0.5-0.4,2-0.5,2.4-1c0.2-0.3-0.1-1.1,0.1-1.4c0.7-1,3.4-1.5,4.6-1.9c0.5-0.1,1.5-0.1,1.9-0.4
	c0.6-0.7,0.2-2.6,0.3-3.4c0-0.6,0.1-1.7,0.1-2.3l0,0c0.5,0.3,1.5,1.5,2.1,1.3c0.2-0.1,0.4-0.6,0.4-0.9c0.2-0.9-0.8-3.1-0.1-3.9
	c0.7-0.8,3.4,0,4.4-0.3c0.6-0.2,2.2-0.5,2.4-1.1c0.2-0.6-0.5-2-1-2.4c-0.5-0.5-2-0.9-2.7-1.1c-0.6-0.3-2.4-0.3-2.6-1
	c-0.1-0.2,0.5-0.6,0.6-0.9c0.2-0.9-0.5-2.8-0.9-3.7c-0.4-1-1.6-2.9-1.9-4c-0.2-1-0.1-3-0.1-4c0-2-0.1-5.9,0-7.9c0.1-2,0.6-6,0.9-8
	l0,0c0.2-1.4,0.7-4.1,0.9-5.4c0.1-1.6-0.3-5,0-6.6c0.1-0.7,0.8-2.1,1.1-2.7c0.5-1,1.8-3,2.4-4c0.7-1.2,2.3-3.4,3-4.6
	c0.6-1,2-3,2.6-4c0.5-0.8,1.7-2.4,1.7-3.3c0-0.4-0.4-1.2-0.7-1.4c-0.6-0.5-2.4-0.2-2.9-0.7c-0.5-0.5-0.3-2.1-0.4-2.9
	c-0.1-0.9-1-2.9-0.6-3.7c0.2-0.5,1.3-0.9,1.7-1.1c0.5-0.3,1.7-0.8,2-1.3c0.2-0.4,0.2-1.5,0-1.9c-0.4-0.6-2-1-2.7-1.3
	c-0.4-0.2-1.5-0.3-1.7-0.7c-0.2-0.3-0.2-1.1,0-1.4c0.3-0.6,1.7-1.1,2.1-1.6c0.5-0.5,1.3-1.7,1.4-2.4c0.2-1.2-0.8-3.5-1-4.7
	c-0.2-1.1,0-3.5-0.6-4.4c-0.6-1-2.8-2-3.7-2.7l0,0c-0.8-0.8-2.3-2.7-3.3-3.3c-0.8-0.5-2.8-0.6-3.7-0.9c-1.2-0.3-3.6-0.7-4.6-1.4
	c-0.8-0.6-1.8-2.6-2.4-3.4c-0.7-1-2-2.9-2.7-3.9l0,0"/>
</svg>
