<?xml version="1.0" encoding="utf-8"?>
<!-- Generator: Adobe Illustrator 25.3.0, SVG Export Plug-In . SVG Version: 6.00 Build 0)  -->
<svg version="1.1" id="Layer_1" xmlns="http://www.w3.org/2000/svg" xmlns:xlink="http://www.w3.org/1999/xlink" x="0px" y="0px"
	 viewBox="0 0 324 600" style="enable-background:new 0 0 324 600;" xml:space="preserve">
<style type="text/css">
	.st0{fill:none;stroke:#E42A29;stroke-width:0.7;stroke-linecap:round;stroke-linejoin:round;}
	.st1{fill:none;stroke:#007AFF;stroke-width:0.7;stroke-linecap:round;stroke-linejoin:round;}
</style>
<path class="st0" d="M123.8,585c0-4.7,2.1-14,2.5-18.7c0.5-6,0.1-18.1,0.5-24.2c0.4-7.5,0.4-23,3-30.1c1-2.7,5-6.9,6.4-9.4
	c2-3.5,4.9-11.3,6.9-14.8c1.5-2.6,5-7.5,6.9-9.9c4.6-5.6,20.6-13.5,20.2-20.7c-0.1-1.9-6.3-3-5.9-4.9c0.7-3.7,11.1-2.5,14.3-4.4
	c0.9-0.5,3-1.9,3-3c-0.1-1.8-4.9-2.9-5.9-4.4c-1.4-2-1.2-7.3-2.5-9.4c-2.6-4.4-10.4-11.6-14.8-14.3c-1.2-0.8-4.6-0.8-5.4-2
	c-1.6-2.5-0.7-9.1,0.5-11.8c0.5-1.1,2.9-2.3,3.5-3.5c1.7-3.6,1.1-11.8,1.5-15.8c0.1-1.6,0.8-4.8,0.5-6.4c-0.6-3.1-4.4-8.6-5.9-11.3
	c-0.4-0.6-0.9-2-1.5-2.5c-1.2-1-4.8-0.9-5.9-2c-0.8-0.8-1.9-3.3-1.5-4.4c0.2-0.7,1.8-1.3,2.5-1.5c1.7-0.3,5.4,1.9,6.9,1
	c1.2-0.7,0.8-4.6,2-5.4c0.6-0.4,2.3,0.3,3,0c3.5-1.7,6.7-9.6,9.4-12.3c1.7-1.7,6.3-3.8,7.4-5.9c1.1-2.1,1.8-7.4,0.5-9.4
	c-1.7-2.5-8.6-2.7-11.3-3.9c-3.5-1.6-10-5.6-13.3-7.4l0,0c-2.1-0.5-7.4-0.1-8.4-2c-1.6-3.1,4.7-9.4,5.4-12.8
	c1-4.8-1.2-15.1,0.5-19.7c0.9-2.4,5.1-5.7,6.4-7.9c1.9-3,4.8-9.5,5.9-12.8c0.8-2.5,1.4-7.8,2-10.4c1.3-6.3,2.1-19.7,5.4-25.2
	c1-1.6,4.3-3.4,5.7-4.6c2.5-2.1,7.1-6.6,9.6-8.8c3.1-2.7,9.3-8.2,12.8-10.3c2.6-1.5,8.5-3.2,11.3-4.4c1.9-0.8,5.7-2.3,7.4-3.5
	c2.4-1.6,6.4-5.8,8.4-7.9c2.6-2.7,7.3-8.6,9.9-11.3c1.5-1.7,5.2-4.5,6.4-6.4c1.4-2.3,2.6-7.8,3.5-10.4c1-3.2,4-9.5,3.9-12.8
	c0-3.2-2.8-9.3-3.9-12.3c-1.8-4.7-6.7-13.5-8.4-18.3c-0.3-1-0.9-2.9-1-3.9c-0.1-1.6,0.8-4.8,1-6.4c0.3-2.7,1.9-8.3,1-10.9
	c-1-2.6-6.1-5.8-7.9-7.9c-1.4-1.6-3.8-5.1-4.9-6.9c-1.5-2.5-4.4-7.6-5.4-10.4c-1.3-3.3-2.6-10.4-3.5-13.8l0,0
	c-0.4-3.2-1-9.6-1.7-12.7c-1.3-5.7-5.2-16.8-6.9-22.4l0,0"/>
<path class="st1" d="M8.3,432c0,7.3,19.6,10.1,26.6,12.3c5.4,1.7,16.9,2,22.2,3.9c5.9,2.1,15.5,11.9,21.7,12.3
	c3.7,0.3,10.4-4.1,13.8-5.4c7.9-3,23.2-11.2,31.6-11.8c2.5-0.2,7.4,1.9,9.9,2c5.3,0.1,15.5-3.5,20.7-3.5c3.1,0.1,9.3,1.8,12.3,2.5
	c5.4,1.2,16.5,3.1,21.7,4.9c5,1.8,14.9,6.2,19.2,9.4c4.9,3.6,12.8,13.1,16.8,17.8c2.6,3.1,8.1,9.2,9.9,12.8c1.5,3,2.2,9.8,3.5,12.8
	c1.5,3.7,6.6,10.1,7.9,13.8c2,5.8,3.1,18.1,3.5,24.2c0.3,4.6-0.6,13.7-0.5,18.3c0.1,3.2,0.7,9.6,1,12.8l0,0"/>
<path class="st1" d="M315.7,474c0,3-8.9,0.3-11.8,0.5c-5.8,0.4-17.4,1.3-23.2,2c-3.3,0.4-10,2.7-13.3,2c-4.5-1-11.6-7.6-15.3-10.4
	c-4.6-3.3-12.6-11.7-17.8-13.8c-4.8-2-15.5-2-20.7-2.5c-6.9-0.6-20.7-1.1-27.6-1.5l0,0"/>
</svg>
