<?xml version="1.0" standalone="no"?><!DOCTYPE svg PUBLIC "-//W3C//DTD SVG 1.1//EN" "http://www.w3.org/Graphics/SVG/1.1/DTD/svg11.dtd"><svg width="119" height="44" version="1.1" xmlns="http://www.w3.org/2000/svg" xmlns:xlink="http://www.w3.org/1999/xlink"><path stroke-width="1" stroke="#4682b4" fill="steelblue" d="M116.02499999999782,42.89832759473211L116.02499999999782,42.89832759473211L110.05404964687477,38.32059899697924L104.08309871402162,33.74286994988506L100.89859170443378,27.373855899913906L97.71408469484231,21.004841689107707L92.73829234741788,13.839700636424823L87.76250000000073,6.674559954506549L80.39832739538178,10.65519392463466L73.03415479077012,14.635827213649463L61.39080096448015,18.01936592104903L49.74744713819018,21.402904934649996L38.10409331189658,24.78644358744714L26.460739485610247,28.169982577521296L14.717870032669452,16.42711255163158L8.846435306193598,10.555677561573248L2.974999999998545,4.684242706061923L13.324647781177191,1.101672405267891L17.10624971013749,1.101672405267891L23.47526372932407,1.6987678607656562L26.858802571947308,3.0919897065214172L30.043309581542417,5.679401352568675L33.02878475810576,8.863908751194685L37.208450353125954,10.456161723705009L48.35422488670156,13.441637324263866L55.121302571948036,13.839700636424823L59.101936333936465,14.635827213649463L63.2816019289603,15.033891161368956L69.84964778117501,12.844542070524767L73.03415479077012,14.635827213649463L73.03415479077012,14.635827213649463" /></svg>