<?xml version="1.0" encoding="utf-8"?>
<!-- Generator: Adobe Illustrator 25.3.0, SVG Export Plug-In . SVG Version: 6.00 Build 0)  -->
<svg version="1.1" id="Layer_1" xmlns="http://www.w3.org/2000/svg" xmlns:xlink="http://www.w3.org/1999/xlink" x="0px" y="0px"
	 viewBox="0 0 80 156" style="enable-background:new 0 0 80 156;" xml:space="preserve">
<style type="text/css">
	.st0{fill:none;stroke:#EE2632;}
</style>
<path class="st0" d="M2.1,18.6l2.6,2.1l1.5,0.9L8.5,21l2.4-1.4l2.7-2.7l1.3-2.2l1.3-4.6l2-3.1l2.5-1.6l5.6-0.6l3-0.5L31.1,5l2.8-1.1
	l1.3,0.9l2,3.2l2.7,1.7l3.1,1.7l5.2,2.1l1.8,1.6l2,2.9l4,4.5l4.8,4.5l0.9,2.1l-0.3,3.2l1,1.2l0,0l3.5,4.5l2.8,1.8l2,0.9l1.1,1.3
	l0.7,2.5l1.7,2.6l1.5,1.9l1.1,1.6l1.1,2.2L77,54.3l-2.2,2.6l-1,1.2v2.6l0.2,4.6l0.1,4.5L73.8,72l-2.6,2.7l-2.7,2.6l-3,2.7l-1.4,1.5
	l-1.6,2.5l0,0L60,87.6l-1.2,3.2l-0.4,2.8v2.5l0.5,1.7l1.8,3.3l1.3,2.2l1.2,2.6l1.6,2.2l0.4,2.7l0.1,3.1v3.7l-0.2,5.1l-0.5,4.9
	l-1.1,3.4l-0.6,4.6l0.6,2.8l1.9,3l1.9,1.2l2,0.9l1.5,1.1l1.6,3.7l1.6,3.7l0,0"/>
</svg>
