<?xml version="1.0" encoding="utf-8"?>
<!-- Generator: Adobe Illustrator 25.3.0, SVG Export Plug-In . SVG Version: 6.00 Build 0)  -->
<svg version="1.1" id="Layer_1" xmlns="http://www.w3.org/2000/svg" xmlns:xlink="http://www.w3.org/1999/xlink" x="0px" y="0px"
	 viewBox="0 0 125 476" style="enable-background:new 0 0 125 476;" xml:space="preserve">
<style type="text/css">
	.st0{fill:none;stroke:#4682B4;}
</style>
<path class="st0" d="M33.1,13.7h2.7h1.8H40h2.1l1.5,0.3l0.9,0.6l1.2,0.4v0.6v0.6l0.5,0.4l1.2,0.9l0.9,0.3l0.4-0.2l0.4-0.5l0.5-0.2
	l0.7,0l0.6,0.3l0.3,0.6l0,0.9l0,0.3l0.6,0.9l1.4,0.9L54,21l0.9,0l1.3-0.5l1.7-0.6l1.1-0.3l0.7-0.9l0-1l1-1.3l1-0.3l1.1-1l0.9-2.1
	l0.7-0.9l1.2,0.1l1,2.4l0.1,1l0.4,0.3l0.9,0.1h1.6l1.7,0.4l0.7,0.3l0.7,0.1l0,0l2.5,0.6l1.2,0l1.2,0.4l1.3,0.6l0.8-0.1l0.3,0.1
	l0.3,1.1l0,0.8l-0.6,1.2l-0.2,1.5l-0.6,1.3l-0.1,1.1l0.9,0.9l1.2,0.7l0.2,0.3l0.2,0.5l0.1,1l0,1.3L81,31.1l-0.3,1l0.1,0.9l0.4,0.7
	l0.1,1.2l0,0.4l0.2,0.9l0.5,0.7l0.6,0.6l0.6,0.9l0.7,1l0.1,0.5l0.1,1.4v2.1v1.5l0.1,1.5l0,0l-0.1,2.8l-0.3,1.8l-0.4,2.2l-0.4,1.5
	L82.6,57l-0.4,1.5l-0.1,1.7l0.7,2.5l1.3,2l1.1,1.2l1.1,0.1l2.2-0.4l2.2-0.4l2.5-0.4l2.9-0.1l3.7-0.1l4.5-0.3l4-0.1h1l0,0"/>
<path class="st0" d="M49.4,133.8l-1.3-3.3l-1.3-1.6l-1.2-1.5l-0.1-0.9v-2.2v-1.8l-0.6-1.9l-1.2-2.1l-0.4-3l-0.6-3.3l0.7-1.8l0.1-1.3
	l-0.9-0.3l-1.2-0.7l-1-2.4l-0.3-1.8l0.4-0.6l1.2-1.8l0.9-0.1l0.9-1.6l0.1-2.1l0.6-2.7l0.1-2.1l0.9-0.7l0.7-1.3L45.6,90L44,89.8
	l-2.5-0.1l-2.5-0.1h-4h-4l-3.1-0.4l-2.2-0.7l-2.1-1.6l-3-2.4l-1.2-1.5l-1.8-0.6h-1.9l-3.7,0.4l-4,0.6L5,84.3l-1.5-0.1l-0.3-1.6V81
	l0.4-1.5l1.4-2.2l0,0l1-2.2l0.3-2.4l0.9-2.5l0.3-0.7l1.5-2.1l0.7-1.5l0.6-2.1l0.4-2.4l0.4-1.9l0.9-2.7l1.6-1.9l1.4-2.3l1.3-1.3
	l1.2-1.2l0.3-0.9l0.1-1.5l0.4-1l0.9-0.9l0.7-1.3v-2.2l0.6-1.8l1.2-1.5l1.8-0.7l1.3-0.9l0.3-0.9l0.4-2.4l0.6-1.6l-0.1-1.5l2.1-1.9
	l1.6-2.7l1.3-2.1l0.7-2.2l0.3-3l0,0"/>
<path class="st0" d="M75.5,162.4l-0.6,2.2l-0.6,3.1l-0.9,1.8l-1.9,3.7l-0.9,1.2v1.3l0.6,1.5v1.2l0.1,1.6l-0.3,2.5l-0.3,1.6v1.8v2.2
	l0.7,1.8l0.3,0.6l0.9,1l-0.7,0.9l0.4,0.9v1.3l-1.3,1l-1,0.6l-0.9,1.2l-1.5,1.5l-0.9,1.6l-1.3,2.5l0,0"/>
<path class="st0" d="M121,82.4l-1.2,1.2l-1,1.8l-1.3,1l1.6,1.8v0.6l-0.6,1.5l-0.4,1.5l0.1,0.6l1.5,0.6l1.2-0.1l0.9-0.1l-0.9,1.9
	l-0.6,1.2l-0.1,1.6l-0.9,1.5l-1.6,2.2l-1.6,0.9l-1.2,0.7l-1.9,0.4l-2.7-0.4l-1.3,0.1l-1.3,0.4l-0.3-0.7l0.4-1.5l0.3-1.3l-1.9-0.7
	l-1.3-0.6h-0.6l-0.6-1l-1-0.1h-1.8h-1.2l-1.6,1.3l-2.2,1.6l-1.8,1.3l-1.5,0.9l-1.8,0.7h-2.8h-3.1h-2.5h-2.7l-1.9,1.5l-0.4,0.9
	l-0.4,3v1.3l0.3,1.6v0.7l-0.4,1.8l-0.3,1.5l0.4,2.5l0.4,1.2l0.3,1.8v0.9v2.1l-0.3,3.6l0.6,4.8l0.3,3.7l0.4,1.8l-0.1,4.8l-0.1,2.5
	l-0.1,4l-0.1,2.2L77,154h-0.1"/>
<path class="st0" d="M118.5,68.6l0.4,2.4l0.3,2.1l0.3,2.5l0.7,2.7l0.3,1.6l0,0"/>
<path class="st0" d="M61.4,464.1l-1.8-3.6l-0.9-1.3l-1.8-1.5l-1-0.7l-1.5-1.8l-1-1.6l-0.3-2.5l0.1-2.7l0.4-0.9l0.7-1.2l0.3-3v-3.6
	v-3.1l-0.1-4.2l-1.2-2.5l-1.2-2.7l-1.5-2.5l-0.6-1.8v-1.3l0.9-2.4l1.6-3.3l0.9-3l3.1-2.5l1.3-1.5l1.9-1.3l0.6-1.2l0.4-2.1l-0.1-3.9
	l-0.1-1.9l-0.1-1.5l0.7-1.9l1-0.7l0,0l2.8-4.6l1.5-3.3l2.1-4l1.8-4.8l0.9-3.7l0.7-1.9l0.1-3l0.1-2.4l1.2-4.8l-0.7-4.5v-2.5l-0.4-2.2
	l-0.9-2.4l-0.6-1.3v-2.5l0.1-2.2l-0.1-1.6l-1.2-1.5l0.1-1.3l0.4-0.7l-1.2-3v-1.9l-1.5-1.9l-2.1-1.8l-2.5-1.5l-1.6-1.3l-0.3-1.2
	l-0.4-5.4l-1.5-4.8l-1.2-4.3l0.6-3l1-3.1l1.3-4.5l0.6-2.3l2.6-4l0,0l1.2-1l0.9-1.3l0.7-1.8l0.9-1.3l1-0.6l0.4-1l0.3-3.4l0.4-2.4
	l1-1.5l0.9-1.8l0.1-1.8l-0.4-3.7l-0.3-3.1l0.1-2.2l0.9-1.9l0.9-1.6l0.4-1.2v-2.5v-1.9l0.7-1.2l1.3-1.6l1-1l0.7-1.2l1.2-3l0.4-2.1
	l0.1-2.8l0.6-2.2v-1.5l-1.6-1l-0.9-0.9l-1.2-2.2l-0.3-3.9v-2.5l-1.2-3l-1.8-2.5l-1.5-1.8l-0.9-2.1l-0.4-3.3l-1.2-2.1l-2.1-1.9
	l-1.8-2.5l-0.9-1.8l-0.4-2.1l-1.5-2.7l-1.8-2.5l-1.8-2.4l-1.9-1.8l-1.3-1.5v-0.1l-0.1-2.5l0.5-1.1l0.7-0.8l0.1-1.9l-0.9-1.3l-0.3-1
	l1.5-3l1.2-1.2l0.7-0.7l1-0.7l0.6-2.4l-0.3-2.5l-0.7-1l-0.4-1.5l-0.4-3l-0.9-3.4l-1-1.8l-1.5-0.9l-1.2-0.1l-1.5,0.1l-1.6,0.7h-1.8
	l-1.3-1l-0.1-1.9l0.6-1.9l0.6-1.9l0.4-2.8l0.7-3.1L51,149l0.7-0.7l1.3-0.3l0.7-1.6l-0.7-1.6l-1.3-0.9l-0.7-1.3l-0.4-2.7l-0.6-1.9
	l-0.6-1.8l0,0"/>
</svg>
