<?xml version="1.0" encoding="utf-8"?>
<!-- Generator: Adobe Illustrator 25.3.0, SVG Export Plug-In . SVG Version: 6.00 Build 0)  -->
<svg version="1.1" id="Layer_1" xmlns="http://www.w3.org/2000/svg" xmlns:xlink="http://www.w3.org/1999/xlink" x="0px" y="0px"
	 viewBox="0 0 191 196" style="enable-background:new 0 0 191 196;" xml:space="preserve">
<style type="text/css">
	.st0{fill:none;stroke:#4682B4;}
</style>
<path class="st0" d="M4.8,4.9l1.7,2.2l1.2,2l1.5,1.6l1.2,0.7l1.6,0.2l1.4,0.5l1.7,1.1l2.1,0.9l3.2,0.6l2.6,0.4l2.2,0.6l1.6,0.9
	l1.2,1.2l0.6,2l0.5,0.6l1,0.4l1.1,0.6l1,1l0.7,1.5l1.4,0.6l2.1,0.1h1.5l1.4,0.1l1.7,0.5l1.6,0.5h0.2"/>
<path class="st0" d="M44.9,16.1l0.7,1.2l0.9,1.1l0.1,0.9l-0.2,1.1l-1,0.9l-0.6,1.1l-0.1,3.1l-0.1,2.6v3l0.1,4.2v2.9l0.1,2.2l0.9,1.2
	l2.6,2.1l1.2,2.7v1.2v1.4l1.4,0.4l1.5,0.1l2.4,0.4l0,0"/>
<path class="st0" d="M56.9,49.1l-0.4-6.9l0,0"/>
<path class="st0" d="M57.6,49.2l0.7-1.4l2.7-1.3l2-0.6l1.2-1.2l-0.2-1.2l-1.2-3.1v-0.1"/>
<path class="st0" d="M56.1,49.3l-0.8-1.8L54,46.6l-1.9-1l-1.3-1.1L50.4,43l-0.1-0.9l0.6-1.1l0.9-1.7l0,0"/>
<path class="st0" d="M76,52.7L74,47.5l-1.2-3.3l-1.7-4L69,37.8l-1.7-1.2L65.7,36l-3-0.1l0,0"/>
<path class="st0" d="M92.7,86.1l2.2,1.7l1.5,1.5l1,1.4l0.5,1.9l0.1,2.4l0.1,2.7v2.4l0.2,2.9l1.4,3.7l1.4,4l1.6,4.4l1,2.7l0.6,2.4
	l0.2,3.4l-0.2,1.7l-0.1,0.1"/>
<path class="st0" d="M83,86.5l1.6,0.9l1.7,0.7l1.7,2.5l1.1,2.7l0.1,2.6l0.3,1.9l0.9,2.1v3.7l0.4,1.6l1.3,3.6l0.4,2.9l-0.6,4.4
	l-0.6,3.2l0.1,2l0,0l-1.1,4.2l-1.4,2.9l-1.2,4.5l0.2,5.1l0.2,2.4l0.2,1.6l0,0"/>
<path class="st0" d="M77.3,53.3l2.7,2.2l1.9,1.6l1,1.7l0.2,1.5l-0.4,3.4l-1.1,2.5l-0.7,2.5l-1,4l0.5,3.7l1.2,4.7l0.4,2l0.4,1.5
	l1.2,0.5l2.7,1l1.6,0.1l1.6,0.3l0,0"/>
<path class="st0" d="M26.9,123.6l1.7-1.7l2-1l2.5-1.2l2-0.5h1.7h2.2l2,0.7l1.7,0.7h1.7l2-2l1-1.7l0.5-3l0.5-2l1.5-1.2l1.7-0.2l1-0.5
	l1.5-1l-0.2-2l1-1.7l1.5-2.5l1.5-3.5v-2.7l-0.7-2l-2-2.5l-1.2-2.5l-0.2-0.7l-0.5-2.2l-2-2l-1.2-2l-1-2.5l-0.2-3.7l0.2-1.2l0.7-1.5
	l0.5-2v-2.2l-1-1.5l-1.5-0.7l-1.2-1l-0.2-2.2l-0.2-2.5v-2.2l1-2.2l2.7-2.7l1.7-1.5l1.5-1.2l0.7-0.5l0,0"/>
<path class="st0" d="M105.8,125.1l3.4,0.1l2.6,0.1h1.9l2.9,0.5l1.5,1.9l1.1,2.4l0.5,3.1l0.1,2.4l1.2,3.7l1.9,4.2l1.4,3.2l5,6
	l5.1,4.6l5.7,3.2l5.2,1.6l2.9,0.7l4.4,4.5l3.1,3.4l3.2,3.3l6.6,6l7,3l0,0l4.4,2.6l3.1,1.8l6.3,3.7l0,0"/>
<path class="st0" d="M39.7,147.2v1.5l-1.2,1.2l-1,0.7l-0.7,1.5v1l1.5,0.5h1.7l1-0.7h0.7l1.7,1.7l2,2.5l2.5,0.2l3.7,0.5l2.5,0.7
	l1.5,1l3.7,0.5h5.2h2.7l3,0.2H73l2.2-1.7l2.2-3.7l2-1.5l2.5-3.2l2.2-1.5l1.2-1.2l1.5-0.7l2-2l0,0"/>
<path class="st0" d="M69.3,18.1l-2.1,2.1l-2.6,1.5l-3.9,0.6l-7,1.5L50.6,24l-1.7,0.7l-3,1.7l0,0"/>
</svg>
