<?xml version="1.0" encoding="utf-8"?>
<!-- Generator: Adobe Illustrator 25.3.0, SVG Export Plug-In . SVG Version: 6.00 Build 0)  -->
<svg version="1.1" id="Layer_1" xmlns="http://www.w3.org/2000/svg" xmlns:xlink="http://www.w3.org/1999/xlink" x="0px" y="0px"
	 viewBox="0 0 97 166" style="enable-background:new 0 0 97 166;" xml:space="preserve">
<style type="text/css">
	.st0{fill:none;stroke:#4682B4;}
</style>
<path class="st0" d="M2.4,161.7V154l3-5.1v-3.3l0.6-2.1l0.1-3.1l0,0l2.2-3.6l-0.1-2.7l-2.1-5.7l0.2-6.4l-0.5-4.9l-0.3-3.5l2.4-1.8
	l2-3.9l1-3.2l0,0l0.7-1.3l-1.4-4.5l0.6-4.2l2.3-2.5v-0.9l1.7-1.4l-0.5-3.2l2.3-1l1-1.9l-0.6-1.7l-3-1.7L12.2,81h-1.7l-0.8-1.3
	l0.6-1.6l2.2-1.2l0.5-1.7l-1.2-1l-1.3-0.1l-1.3-1.3l2.7-1.9l0.3-5.7l0.5-6.7l0.6-4l4.4-5.7l0,0l2.1-3.6l1.2-1.7l0.4-3.2l1-2.1
	l1.6-0.9l3.5-0.9v-3.6l2.1-3.5l1.8-2.6l0.8-2.5l4.3-4.7l6.5-4l5.8-4.7l4.7-4.2l2.2-1.8l6,1.9l3.4,1.4l5.7,0.5l9.9-0.9l0,0l3.1-1
	l2.9-0.8h3.5l4.4-1.6l0,0"/>
<path class="st0" d="M20.7,109.4l-2.7,4l-1.8,5.5l-3,3.1l-0.4,2.3l1.4,1.4l-0.1,4.5l-2.5,6.4l-1.4,1.2H8l0,0"/>
</svg>
