<?xml version="1.0" encoding="utf-8"?>
<!-- Generator: Adobe Illustrator 25.3.0, SVG Export Plug-In . SVG Version: 6.00 Build 0)  -->
<svg version="1.1" id="Layer_1" xmlns="http://www.w3.org/2000/svg" xmlns:xlink="http://www.w3.org/1999/xlink" x="0px" y="0px"
	 viewBox="0 0 33 36" style="enable-background:new 0 0 33 36;" xml:space="preserve">
<style type="text/css">
	.st0{fill:none;stroke:#4682B4;stroke-miterlimit:10;}
</style>
<path class="st0" d="M20.9,0.9h-3.1L14.3,1l-2,0.2l-0.8,0.4l-0.6,1.6l-0.6,0.9L10,5.5L9.1,7.7L8.5,9.1L8,12.5l-0.7,2.5L7,17.7
	l-1.6,3.1l-0.5,2.7l-1.2,2.8l-2.3,2.5L0.9,30l2.1,1l2.9,1.5l1.7,0.9l4.8,1.1l2.8,0.7v-1.6l0.1-3.2l0.5-2.3l1.5-0.9l1.2-0.3l1.3,0.1
	l0.6,1.7l1.4,1.4l1.7,1.3l1.6-1.1l1.5-1.8l1.5-1l2.6-0.5l1.6-1"/>
</svg>
