<?xml version="1.0" encoding="utf-8"?>
<!-- Generator: Adobe Illustrator 25.3.0, SVG Export Plug-In . SVG Version: 6.00 Build 0)  -->
<svg version="1.1" id="Layer_1" xmlns="http://www.w3.org/2000/svg" xmlns:xlink="http://www.w3.org/1999/xlink" x="0px" y="0px"
	 viewBox="0 0 51 46" style="enable-background:new 0 0 51 46;" xml:space="preserve">
<style type="text/css">
	.st0{fill:none;stroke:#4682B4;stroke-width:0.5;}
</style>
<path class="st0" d="M49.7,44.8l-1-0.1l-0.7-0.2l-0.5-0.9l-0.6-0.9L46.3,42L45,41.2h-0.6l-0.5-0.2l-0.4,0.3h-0.3l-0.6,0.7l-1.2-0.4
	l-0.9-0.3h-1.3l-2.2,0.2h-0.5l-1.7-0.9l-1.7-1.4l-2-1.6l-1.2-0.8h-0.6l-1-0.6l-0.8,0.2L26,36.1L25.6,35l-1.2-0.9L23,33.3l-1.6-2
	l-2-2.2l-1.3-1.7l-1.3-2l-0.9-2l-1.1-2.6l-0.9-1l-1.5-0.5l-0.7,0.1l-1.2-0.6l0,0L9,18l-1.3-2.1l0,0"/>
<path class="st0" d="M1.3,11l0.1,0.4l0.2,0.5l0.7,0.4l0.7,0.5L4,13l1.3,0.1l0.5,0l0.5,0.7l0.5,0.7l0,0"/>
<path class="st0" d="M22.7,1.1l0.1,0.8l0,0.7l0.6,0.5v0.4l0.5,0.6l-0.1,1.1l-0.1,0.3h-0.8l-0.2,0.3l0,0.7l-0.4,1L22,7.9h-1.1
	l-0.6,0.1L20,8.3h-0.7l-0.7-0.2l-0.4,0.5l-0.5,0.5h-0.3l-0.2-0.3L16,9.4L14.4,10l-1.5,0.4l-1,0.2l-0.7,0.1L10.6,11l-0.3,0.4
	l-0.8,0.7H8.7l-1.5,0.1l-0.7,0l-0.2-0.9L6,10.6l-0.4-0.4h-1l-1.3,0.5l-1,0.3l0,0"/>
</svg>
