<?xml version="1.0" encoding="utf-8"?>
<!-- Generator: Adobe Illustrator 25.3.0, SVG Export Plug-In . SVG Version: 6.00 Build 0)  -->
<svg version="1.1" id="Layer_1" xmlns="http://www.w3.org/2000/svg" xmlns:xlink="http://www.w3.org/1999/xlink" x="0px" y="0px"
	 viewBox="0 0 47 46" style="enable-background:new 0 0 47 46;" xml:space="preserve">
<style type="text/css">
	.st0{fill:none;stroke:#4682B4;stroke-miterlimit:10;}
</style>
<path class="st0" d="M1,1.1l0.4,3.1l4.2,1.3l1.3,1.8l2.7,6.3l2.5,5.3l1.6,3.4l3.4,4l4.5,5.4l2.9,3.4l3.4,2.4l3.4,2l0.7,3.1l2.7,0.7
	l1.5-0.2l2.2,0.9l2.7,0.7l0,0"/>
<path class="st0" d="M43.7,24l-1.8,0.3L39,24.1l-1.5,1.4l-0.4,0.9l-1-0.1l-2.7,1.9l-2.2,2.2L30.1,31l-2.4-1.1l-1.5-0.7h-0.9
	l-1.8,1.7l-0.8-0.3l-0.8-0.5l-0.2-1.2l-0.5-0.4l-2,0.1l0,0"/>
<path class="st0" d="M45.7,23.2v1.5l-0.7,2.3l-0.4,2.3l1.1,1.7l-0.4,2.8l-0.1,3.4L46,41l-0.5,2.8l0,0"/>
</svg>
