<?xml version="1.0" encoding="utf-8"?>
<!-- Generator: Adobe Illustrator 25.3.0, SVG Export Plug-In . SVG Version: 6.00 Build 0)  -->
<svg version="1.1" id="Layer_1" xmlns="http://www.w3.org/2000/svg" xmlns:xlink="http://www.w3.org/1999/xlink" x="0px" y="0px"
	 viewBox="0 0 34 46" style="enable-background:new 0 0 34 46;" xml:space="preserve">
<style type="text/css">
	.st0{fill:none;stroke:#4682B4;}
</style>
<path class="st0" d="M13.3,1.1L13,2.3l-0.9,1.2l-1,1.5l-0.6,1.5L10,7.4L9.5,8.1l-0.9,2.2l-0.4,1.5V14v1.8L8.1,18l-0.4,2.4l-1.2,2.1
	l-1.9,1.9l-1.7,1l0,0"/>
<path class="st0" d="M32.9,18.7l-0.7-1.2l-0.9-2l-0.8-2l-0.8-2.2l-1.4-0.8h-2.6l-1.6-0.9L22.6,9l-1.1-2.1L20.1,5l-0.8-1.6l-0.8-0.7
	l-1.5,0H16l-1-0.4l0,0"/>
<path class="st0" d="M1.8,26.6l-0.3,1l-0.4,2.2l0,2.2l0.8,1.7l1.3,2.3L4,38.3l0.1,2.8l-0.6,2.8l-0.1,1l0,0"/>
</svg>
