<?xml version="1.0" encoding="utf-8"?>
<!-- Generator: Adobe Illustrator 25.3.0, SVG Export Plug-In . SVG Version: 6.00 Build 0)  -->
<svg version="1.1" id="Layer_1" xmlns="http://www.w3.org/2000/svg" xmlns:xlink="http://www.w3.org/1999/xlink" x="0px" y="0px"
	 viewBox="0 0 600 588" style="enable-background:new 0 0 600 588;" xml:space="preserve">
<style type="text/css">
	.st0{fill:none;stroke:#4682B4;}
</style>
<path class="st0" d="M15,563.5h8.3l16.7,0.8l8.3,2l15.1,4.8l7.9,2.4l9.9-0.4l10.7-5.2l9.5-4.4l11.9-0.4h14.3l8.3-0.8l8.3-7.6
	l7.9-7.9l6.8-8.3l8.7,1.6l8.7,2.8l8.3-6.8l10.3-7.2l11.9-4.8l0.8-4.4l2-5.2l9.1-10.3l6-7.9l4.4-0.4l4-3.2l8.7-4.4l8.3-0.8l4-2.4
	l-0.4-3.2l0,0"/>
<path class="st0" d="M255.9,467.3l-2.4-10.7l-2.4-13.1l1.6-9.5l5.2-11.9l3.2-9.1l0.8-5.6l4.4-4.4l4.4-1.6l2-6l-0.8-7.2l9.9-8.7
	l-4-8.7l7.6-7.9l5.2-4.8l9.9-5.2l11.1-2.4l5.6-2.8l2-8.3l2.8-11.9l4.4-14.7l2.4-7.9l-2.4-8.3l2-8.3l-4.4-6.4l-4.4-7.6v-7.6
	l-1.2-10.3l-3.2-3.6l-6.4-0.8l0,0"/>
<path class="st0" d="M585,20.1l-9.5-5.6h-14.3l-5.6,7.2l-3.2,13.5l-5.6,19.1l-6.4,22.3l-4.8,25.4l-2.4,23.1l-0.8,20.7l-2.4,6.4v17.5
	v16.7l4.8,9.5l-5.6,11.9l-9.5,15.9l-13.5,7.2l-19.9,8.7l-12.7,1.6l-15.9-4.8l-8.7-0.8l-27,0.8h-18.3l-15.1-4.8l-10.3-4.8l-12.7-0.8
	l-15.1,4l-5.6,4.8l2.4,4.8l-0.8,4.8l-5.6,1.6l-8.7-1.6h-10.3l-7.9,1.6l0,0"/>
<path class="st0" d="M329.4,266.2l-1.2-7.8l-0.2-3.8l5.4-4.4l1-2.6h-0.8"/>
</svg>
