<?xml version="1.0" encoding="utf-8"?>
<!-- Generator: Adobe Illustrator 25.3.0, SVG Export Plug-In . SVG Version: 6.00 Build 0)  -->
<svg version="1.1" id="Path" xmlns="http://www.w3.org/2000/svg" xmlns:xlink="http://www.w3.org/1999/xlink" x="0px" y="0px"
	 viewBox="0 0 313 597" style="enable-background:new 0 0 313 597;" xml:space="preserve">
<style type="text/css">
	.st0{fill:none;stroke:#DD2424;}
</style>
<g id="Path_1_">
	<path class="st0" d="M196.7,14.9h3.9l4.4,0.5l3.4,3.2l-1,3.4l-2.2,5.8l-0.5,8l0.2,11.7l-2.7,6.3l-0.2,6.3l-0.7,7.1l-2.2,7.3
		l-0.2,4.9l-2.9,7.1l-4.9,8.5l-5.4,3.7l-3.7-0.5l-1.9,5.6l-1.9,10.2l-3.7,4.9l-3.4,4.4l-1.9,3.4v5.8l-2.2,3.2l-1,8.3l1.7,5.6
		l0.2,5.6l-2.4,5.8l-2.4,10l-5.6,7.8l-5.8,10.5l0,0l-3.9,12.5l-2.4,6.3l1.9,8.3l1,6.3l-6.3,6.8l-9.3,7.3l-7.3,6.3l-10.7,6.8
		l-8.8,8.3l-4.4,7.3l-4.9,6.3l-1.9,5.4v3.9l-6.3,3.4l-3.9,1.5l-1,6.3l-1.9,6.3l-6.3,6.8l-4.9,6.8L67,321l-1,11.7l-1.5,12.7l0,0
		l-0.6,2.3l-2.2,2.1l-0.4,2.3l1.1,2.4l2.7,0.1l1.8,0.6l0.2,2.6l-2.7,1.8l-2.4,2.1l-0.5,3.9l2.2,1.7l3.7-1.7l4.4,0.2l4,3.8l0.2,3.7
		l-5.1,2.7l-1.1,5.2l-3.5,6.8l0,0l-4.3,6.6l-0.5,3.9l1.1,2.1L61,406l0,0"/>
	<path class="st0" d="M60.4,410.5l1.5,4.6l0.2,3.4l-2.2,3.7l-5.4,4.9l-1.5,3.9l0.7,3.7l0.5,5.1v6.8l-1,7.5l1.9,6.8l1.7,5.8l0.7,5.8
		l-1.9,4.1l-2.7,2.4l1.2,7.3l0,0"/>
	<path class="st0" d="M53.8,494.9l-2.2,4.6l-1.7,7.5v7.5l-4.6,2.4l-7.8,2.7L31,522l-2.9,4.1l-3.7,2.9l0.7,3.9v2.9l-3.2,2.7l-1.7,1
		v4.4v3.9l-0.2,0.5l-3.2,1.7l-2.9,1.7l-0.5,4.9l-0.5,2.7l-2.2,3.7l-1.5,4.9l-1.5,5.6l1,3.4l0.5,5.4l0,0"/>
	<path class="st0" d="M55.5,491.1l4.4-1.2l4.4-1.9l6.6-1.7l4.9-4.4l5.8-5.6l7.5-2.9l9.7-3.2l11.4-3.2l7.8-4.6l6.3-5.8l5.1-3.7
		l7.3-0.2l10.7-0.7l5.6-2.4l6.3-3.7l6.1-1.2l7.8,0.2l4.1-5.1l2.9-7.8l0.5-9l-2.4-6.8l-0.2-12.4l0.5-10l2.2-5.6v-1l-0.5-7.8l1.2-11.4
		l2.9-13.9l2.4-13.9l4.6-11.7l1.2-8v-5.4l4.9-4.4l4.5,1l4.5,1l0,0"/>
	<path class="st0" d="M305.2,410.7l-5.4-3.7l-6.3-5.1l-2.4-4.1l-5.8-4.4l-3.2-4.9l-5.6-6.6l-6.3-5.1l0.7-8.5l-0.5-8.5l-0.2-3.4
		l2.4-3.7l3.9-8.8v-11.4l-2.9-3.9l-0.2-7.8l2.2-1.7v-1.9l-1.5-2.4l2.4-1.9l3.2-2.2V309l-5.6-5.6l-8.5-1.7l0,0l-8.3-0.5l-1.9,1.2
		h-2.2l-2.4-1.5l-3.2-0.2l-4.1,1.9l-6.6,2.9h-3.7l-8.3,5.1l-3.4,2.2l0,0"/>
	<path class="st0" d="M247,171.9l-4.1,2.2l-4.9,1.9l-6.8,0.5l-8-1.2l-9,1.2l-7.5,3.2l-9.7,1l-3.8,2"/>
	<path class="st0" d="M189.5,156l-1.5,5.8l-1,4.9l0.5,5.8l-1,8.3l-0.5,8.8l-0.5,3.4l-1.5,3.4V209l-1.9,4.4l0.5,7.3l-2.4,3.9
		l-0.5,6.8l-1,7.3v3.4l2.9,2.9l-1,5.4l-0.5,9.7l0,0l0.7,5.5l1.9,7.8l3.2,7.5l3.2,8.3l4.1,7.1l0.7,7.3l-0.2,3.2l0.5,2.7l3.4-0.2
		l4.4,1l0,0"/>
</g>
</svg>
