<?xml version="1.0" encoding="utf-8"?>
<!-- Generator: Adobe Illustrator 25.3.0, SVG Export Plug-In . SVG Version: 6.00 Build 0)  -->
<svg version="1.1" id="Layer_1" xmlns="http://www.w3.org/2000/svg" xmlns:xlink="http://www.w3.org/1999/xlink" x="0px" y="0px"
	 viewBox="0 0 46 77" style="enable-background:new 0 0 46 77;" xml:space="preserve">
<style type="text/css">
	.st0{fill:none;stroke:#E51A1A;}
</style>
<path class="st0" d="M36.7,67.7l0.7-0.2l0.7-0.2l0.5-0.2l0.5-0.2l0.5-0.3l0.5-0.3l0.5-0.5l0.5-0.5l0-0.6l0-0.6l0.1-0.3l-0.1-0.5
	l-0.3-0.2l-0.1-0.5L40.3,62L40,61.5l-0.3-0.5l0,0l-0.2-0.7l-0.2-0.7l-0.1-0.7L39,58.3l-0.3-0.6l-0.3-0.6l-0.3-0.6l0-0.5l0-0.5
	l-0.3-0.2L37.6,55l0-0.3l0-0.3l-0.2-0.2l-0.1-0.5l-0.5-0.3l0-0.5l0-0.5l0,0l0-0.4l-0.1-0.3l0-0.3l0.2-0.2l0.2-0.3l-0.1-0.3l-0.2-0.1
	v-0.1l0.1-0.1v-0.2l0.2-0.1l0.1-0.2l-0.1-0.4l0-0.6l0.2-0.6l0-0.2l0.1-0.1l0-0.3l0-0.3l0-0.4l-0.2,0l0,0l0-0.4l0-0.4l0.2-0.1
	L37,45.9l0-0.2l0.2-0.1l0.3-0.1l0-0.2l0.2-0.2l0-0.1l0.2-0.2H38l0.1-0.3l0-0.3L38,43.9l-0.1-0.4l0.1-0.2v-0.5l0.4-0.1l0.2-0.1
	l0.1-0.3l0-0.4l0-0.4l0.1-0.4l-0.2-0.4v-0.4l0.2-0.3l0.3-0.5l0.1-0.1l0.3,0l0-0.4l0.1-0.2l-0.1-0.3l0-0.4l0-0.4l0.1-0.3l0.1-0.3
	L40,37l0.2-0.5l0.1-0.2l0.4-0.5l0.2-0.5l0.1-0.4l0.1-0.4l0.2-0.4l0.2-0.4l0.4-0.2l0.3-0.1l0.3-0.1l0.2-0.4l0.3,0l0.3-0.3l0,0
	l0.3-0.2l0.3-0.6l0.1-0.4l0.1-0.4l0.1-0.4l0.1-0.4l0.1-0.5l-0.1-0.4l0.1-0.3l0.1-0.3l0.2-0.5l0.2-0.5l0.1-0.4l-0.2-0.4l-0.2-0.4
	l-0.1-0.4l-0.1-0.4L44,25.3l-0.2-0.2l-0.5-0.4l-0.5-0.4l0,0L42.5,24l-0.4-0.3l-0.5-0.3l-0.5-0.3l-0.6-0.3l-0.3-0.2l-0.3-0.2
	l-0.4-0.2l-0.4-0.2l-0.3-0.3l-0.3-0.3L38,21.5l-0.3-0.1l-0.3-0.1L37,21.2l-0.4-0.1l-0.1-0.4l-0.1-0.4v-0.5l0.1-0.4l0.2-0.3l-0.1-0.5
	l-0.1-0.4L36.5,18l-0.1-0.6l-0.2-0.3l-0.2-0.3l-0.3-0.5L35.7,16l-0.1-0.4l-0.3-0.5L35,14.7v-0.3v-0.3v-0.6l-0.4-0.4l0-0.4h-0.2
	L34,13l-0.6-0.2l0,0l-0.1,0.1h-0.2l0-0.2l0.1-0.1v-0.1l-0.5-0.3l-0.3,0L32.2,12l0,0l-0.6-0.5l-0.4,0l-0.4,0l-0.4,0l-0.4,0l-0.3-0.1
	l-0.3-0.1l0,0l0-0.4l0-0.4l0-0.4l0-0.4l0.2-0.3l0.2-0.3l0.2-0.3l0.2-0.3l0.1-0.5l0.1-0.5l0,0l0.1-0.3l0.1-0.3l-0.1-0.3l-0.1-0.3
	l0-0.3L30.6,6l-0.1-0.5l-0.1-0.4l-0.3-0.3l0-0.3L30,4.3l0.1-0.2V3.7l-0.3-0.2l0-0.5L30,2.8l-0.5-0.3l-0.1-0.2l-0.1,0.2l-0.5-0.2
	l-0.1,0.1l-0.3-0.2V2l-0.1,0l-0.2,0.2l0,0.2l-0.3,0.2l-0.1,0.2L27.4,3l-0.3,0l-0.3,0l-0.3-0.2l-0.1-0.3h-0.1l-0.2,0.1l-0.3-0.2
	l-0.2-0.3l-0.4,0l-0.4,0l-0.1,0.1l-0.3,0l-0.1,0.3l-0.1,0.3l-0.1,0.3l-0.1,0.3l-0.3,0.3l-0.3,0.3l-0.1,0.3l-0.1,0.3L23.2,5l-0.3,0.2
	l0,0.3l0,0.3l-0.2,0.2l-0.1,0.3l-0.4,0.4L22,7.2l-0.2,0.4l0,0l-0.1,0.5l-0.3,0.5L21.2,9l-0.1,0.4l-0.2,0.4l-0.2,0.4l-0.1,0.3
	l-0.1,0.3l-0.2,0.3v0.3l0.1,0.3l0.1,0.3L20.3,13l0,0l-0.1,0.3l-0.1,0.3L19.8,14l-0.2,0.3l-0.1,0.4l-0.1,0.2h-0.3L18.9,15l-0.2,0.4
	l-0.2,0.4l-0.3,0.4l-0.4,0.2l-0.4,0.2l-0.2,0.4l0.1,0.3l0.1,0.3l-0.1,0.3l-0.1,0.3l0,0v0.3v0.3l0,0.4l0,0.4l-0.1,0.4l-0.1,0.4
	L17,20.5v0.3v0.3v0.3v0.3l0,0.4l0,0.4v0.5v0.5l0.1,0.4l0.1,0.3l0,0l0,0.4l0,0.4L17,25.5l-0.1,0.3l-0.1,0.3l-0.1,0.4L16.6,27
	l-0.1,0.4l-0.1,0.4l0.2,0.2l0.2,0.2l0.2,0.2l0.2,0.2l0.1,0.4l0.1,0.4l0.1,0.4l0.1,0.4l0.1,0.3l0.1,0.3l0.1,0.3l0.1,0.3l0.1,0.4
	l0.2,0.2l0.2,0.2l0.3,0.3l0.3,0.3l0.2,0.1l0.2,0.1l0.1,0.3l0,0.3l-0.2,0.2l-0.1,0.2l-0.1,0.2l-0.1,0.2l-0.1,0.2l-0.2,0.3L18.2,35
	l-0.2,0l-0.2,0.2l-0.2,0.2l-0.3,0.1l-0.3,0.1l-0.4,0.1l-0.4,0.1l-0.4,0.3l-0.4,0.3l0,0.4l0,0.4l0,0l-0.1,0.5L15.1,38L15,38.7v0.7
	l-0.1,0.3l0,0.5l-0.2,0.6l0,0.3l0,0.3v0.4v0.4l-0.2,0.4l-0.1,0.2L14.3,43l-0.1,0.2l-0.1,0.2l0,0l-0.1,0.2L14,44l-0.1,0.2l-0.1,0.2
	l-0.2,0.4l-0.3,0.4l0,0.4l0,0.4l0,0.4l0,0.4L13.4,47l-0.1,0.3l-0.2,0.2l-0.2,0.2l-0.1,0.4l-0.1,0.4l0,0.4l0,0.4l0.1,0.4l0.1,0.4
	l0.3,0.4l0.3,0.4l0,0.3l0,0.3l0,0.3l0,0.3L13,52.6l-0.4,0.2l-0.4,0.2l-0.4,0.2l-0.1,0.3l-0.1,0.3L11.2,54l-0.3,0.1l-0.2,0.2
	l-0.2,0.2l-0.2,0.2L10,55.1l-0.2,0.3l-0.2,0.3l-0.2,0.3l-0.2,0.3l-0.1,0.3l-0.1,0.3l-0.3,0.4l-0.3,0.4v0.3L8.4,58l0.1,0.2l0.1,0.2
	l0.1,0.2v0.5l-0.2,0.3l-0.2,0.3L8,60l-0.3,0.3l-0.4,0.3l-0.4,0.2L6.4,61l-0.3,0.1l-0.3,0.1l-0.3,0.1l-0.3,0.1l-0.4,0.1l-0.4,0.1
	L4,61.7l-0.2,0.6l-0.2,0.6l-0.2,0.4l-0.2,0.5l0,0l-0.3,0.6L2.5,65l-0.3,0.4L2,65.8l-0.5,0.5l-0.3,0.3L1.1,67l0.2,0.3l0.2,0.3
	l0.2,0.3L2,68.2l0.4,0.3l0.4,0.3L3.2,69l0.4,0.3l0.2,0.3l0.2,0.3l0.1,0.5l0.1,0.5L4.4,71l0.1,0.3l0.2,0.2l0.2,0.2L5.2,72l0.2,0.2
	l0.3,0l0.3,0l0.4,0.1l0.1,0.4l0.2,0.4l0.2,0.4l0.4,0.4l0.4,0.4l0.5,0.3l0.5,0.3l0.3-0.2l0.3-0.2l0.3-0.2l0.3-0.2l0.2-0.2l0.2-0.2
	l0.3-0.1l0.3-0.1l0.4-0.3l0.4-0.3l0.2-0.3l0.2-0.3l0.3-0.3l0.2-0.4l0.3,0l0.5-0.1l0.1-0.1l0.2-0.3l0.3-0.3l0.4-0.1l0-0.3l0.3-0.2
	l0.3-0.2l0.1-0.3l0.1-0.3l-0.2-0.3l-0.2-0.3v-0.2v-0.2l0.3-0.5l0.3-0.5l0.5-0.2l0.5-0.2l0,0l0.2-0.2l0.2-0.2l0.1-0.3l0.1-0.3
	l-0.1-0.4L17,65.3l0.1-0.5l0.1-0.5l0.1-0.3l0.1-0.3l0-0.3l0.5-0.3l0-0.3l0-0.3l0.2-0.2l0.2-0.2L18.3,62l-0.1-0.3l0.3-0.2l0.3-0.4
	l0.5-0.2l0.3-0.1l0.3-0.1l0.2-0.1l0.1-0.3l0.1-0.3l0.1-0.3l0.1-0.3l0.1-0.3l0.1-0.3l0.3-0.1l0.3-0.1l0.4-0.2l0.4-0.1l0.3-0.3
	l0.3-0.3l0.4-0.1l0.4-0.1l0.3-0.1l0.3-0.1l0.3-0.1l0.5-0.2l0.3-0.2l0.3-0.2l0.5-0.4l0.3-0.1l0.3-0.1l0.7-0.1l0.7-0.1l0.2-0.2
	l0.2-0.2l0.5-0.1h0.4h0.4l0.2,0.2l0.2,0.2l0.2,0.4l0.2,0.4l0.3,0.7l0.2,0.3l0.2,0.3l0.5,0.2l0.5,0.2l0.7,0.2l0.7,0.2l0.5,0.5
	l0.5,0.5l0.3,0.4l0.3,0.4l0.1,0.5l-0.1,0.5L35.2,62l-0.1,0.2l-0.2,0.2l0,0.5l0,0.5l-0.1,0.3l0.2,0.2l0.2,0.2l0.4,0.1l0.4,0.1l0,0.3
	l-0.2,0.2L35.4,65l-0.2,0.2l-0.2,0l0,0.2l-0.3,0l0,0.1l0.3,0.2l0.2,0.3l0.2,0.3l0.2,0.3l0.2,0.3l0.2,0.3l0.2,0.3l0.2,0.3l0.2,0.3
	L36.7,67.7"/>
</svg>
