<?xml version="1.0" encoding="utf-8"?>
<!-- Generator: Adobe Illustrator 25.3.0, SVG Export Plug-In . SVG Version: 6.00 Build 0)  -->
<svg version="1.1" id="Layer_1" xmlns="http://www.w3.org/2000/svg" xmlns:xlink="http://www.w3.org/1999/xlink" x="0px" y="0px"
	 viewBox="0 0 271 600" style="enable-background:new 0 0 271 600;" xml:space="preserve">
<style type="text/css">
	.st0{fill:none;stroke:#4682B4;stroke-width:0.5;stroke-linecap:round;stroke-linejoin:round;}
</style>
<path class="st0" d="M108.2,585c0-1.4-1.3-4.1-1.3-5.5c0-1.1,0.9-3.3,1-4.5c0.1-1,0.5-3.1,0-3.9c-0.5-0.9-2.7-1.7-3.5-2.2
	s-2.6-1.7-3.5-2.2c-1.3-0.7-4-2-5.4-2.6c-1.3-0.7-4-2-5.4-2.6c-0.9-0.4-2.9-1.3-3.8-1.7s-2.8-1.4-3.8-1.7c-1.7-0.5-5.2-0.6-6.8-1
	c-1.8-0.5-5.2-2.5-7.1-2.6c-1.5-0.1-4.3,1.1-5.8,1.3c-1.8,0.3-5.5,1-7.3,0.8c-1-0.1-3-0.9-3.9-1.2c-1-0.3-3-0.8-3.9-1.2
	c-1-0.4-3.1-1.3-3.9-2.1c-0.8-0.8-1.6-3.1-2.4-3.9c-0.6-0.6-2.3-1.2-2.9-1.8c-1.2-1.3-2.4-4.5-3.1-6s-2.2-4.6-3.1-6
	c-0.9-1.3-3.2-3.5-4.3-4.7s-3-3.8-4.3-4.7c-1.3-0.9-4.5-1.6-6-2.1l0,0"/>
<path class="st0" d="M15.8,520.2c0-3.6-6-8.9-7.1-12.3c-0.2-0.7-0.1-2.2-0.3-2.9c-0.3-1.2-1.8-3.3-1.8-4.5
	c-0.1-3.1,3.1-8.8,4.1-11.7c1-2.9,3.1-8.8,4.1-11.7c1-2.9,3.1-8.8,4.1-11.7c1-2.9,4.1-11.7,4.1-11.7l4.7-16.4l4.7-16.4l0,0
	c0,0,1.4-6.5,1.9-8.7s1.4-6.5,1.9-8.7s1.4-6.5,1.9-8.7s1.4-6.5,1.9-8.7c0.7-3.1,2.2-9.2,2.6-12.3c0.6-3.7,1-11.2,1.3-15
	c0.2-1.9,0.5-5.6,0.7-7.5s0.4-5.6,0.7-7.5c0.2-1.4,0.3-4.3,1-5.5c0.9-1.5,4-3.1,5.4-4.2c1.3-1,4-3.1,5.4-4.2s4-3.1,5.4-4.2
	c1.3-1,4-3.1,5.4-4.2l0,0c0.5-2.6,1.5-7.8,2-10.4s1.5-7.8,2-10.4s1.5-7.8,2-10.4s1.1-7.9,2-10.4c1-2.8,4.2-8,5.6-10.6
	c0.7-1.3,2.1-4,2.8-5.3s2.2-3.9,2.8-5.3c1.1-2.4,2.7-7.3,3.5-9.7s2.7-7.3,3.5-9.7s2.7-7.3,3.5-9.7s2.7-7.3,3.5-9.7l0,0
	c0.9-2.5,2.7-7.5,3.5-10s2.4-7.6,3.5-10c1.4-3,5.2-8.4,6.8-11.3c1.1-1.8,3.1-5.5,4.2-7.3s3.3-5.5,4.2-7.3c0.8-1.6,2.2-5.1,2.9-6.8
	s2.2-5.1,2.9-6.8s2.2-5.1,2.9-6.8s2.2-5.1,2.9-6.8c0.8-2.1,2.4-6.4,3.1-8.5s2.5-6.3,3.1-8.5c0.5-1.8,1.1-5.5,1.6-7.3
	s1.5-5.5,1.6-7.3c0.1-2.1-0.7-6.4-0.9-8.5c-0.2-2.1-1.2-6.4-0.9-8.5c0.3-2.2,2.6-6.1,3.4-8.1l0,0c1.9-1.2,5.8-3.7,7.6-5
	c1.8-1.3,5.2-4,7-5.4s5.4-3.8,7-5.4c1.4-1.4,3.6-4.5,4.9-6s3.6-4.5,4.9-6s3.6-4.5,4.9-6s3.6-4.5,4.9-6l0,0"/>
<path class="st0" d="M264.4,15c0,1.3-3.3,1.9-4.5,2.5c-1.1,0.6-4.3,1.2-4.5,2.5c-0.1,0.8,2.3,1.6,2.2,2.4c0,0.5-1.2,1.2-1.7,1.3
	c-0.6,0.1-1.9-0.3-2.5-0.5c-0.5-0.2-1.3-1-1.8-0.9c-0.6,0-1.3,1.1-1.8,1.3c-0.5,0.2-1.8,0.4-2.2,0c-0.3-0.3,0.1-1.3-0.3-1.6
	c-1-0.8-3.8,0.2-5,0.5c-0.6,0.2-2,0.6-2.4,1.2c-0.3,0.5-0.1,1.9,0.1,2.5c0.3,0.6,1.3,1.5,1.8,1.7c0.4,0.1,1.2-0.1,1.6,0
	c0.2,0.1,0.8,0.4,0.8,0.7c0.1,0.7-1.9,1.5-1.8,2.2c0.1,0.7,2.4,1,2.5,1.7c0.1,0.6-1.1,1.5-1.7,1.7c-0.8,0.3-2.5-0.6-3.3-0.4
	c-1.3,0.4-2.9,3.8-4.3,3.5c-1-0.2-1.1-3.1-2.1-3.3c-1.2-0.2-3.5,2.1-3.8,3.3c-0.1,0.4,0.5,1.1,0.5,1.4c0,0.7-0.9,1.9-1.2,2.6
	s-1.1,1.9-1.2,2.6c-0.2,0.7,0.1,2.3-0.3,3c-0.4,0.7-1.6,1.9-2.4,2c-0.9,0.1-2.1-1.7-3-1.8c-1-0.1-3,0.6-3.8,1.2
	c-0.3,0.2-0.5,0.8-0.8,0.9c-0.6,0.3-1.9,0.3-2.6,0.4s-2,0.1-2.6,0.4c-0.8,0.4-1.9,2-2.8,2.4c-0.9,0.4-2.8,0.7-3.8,0.7
	c-1.2-0.1-3.6-0.9-4.7-1.3c-1.4-0.5-4.2-1.9-5.6-2.4c-1.4-0.4-4.4-0.8-5.9-1l0,0"/>
</svg>
