<?xml version="1.0" encoding="utf-8"?>
<!-- Generator: Adobe Illustrator 25.3.0, SVG Export Plug-In . SVG Version: 6.00 Build 0)  -->
<svg version="1.1" id="Layer_1" xmlns="http://www.w3.org/2000/svg" xmlns:xlink="http://www.w3.org/1999/xlink" x="0px" y="0px"
	 viewBox="0 0 13 77" style="enable-background:new 0 0 13 77;" xml:space="preserve">
<style type="text/css">
	.st0{fill:none;stroke:#4682B4;}
</style>
<path class="st0" d="M12.4,75.1l-0.1-0.9l0.5-0.6l-0.2-0.3v-0.9l-1-0.5l-1.5-0.7l-1.4-0.6l-0.9-0.5l-0.5-0.5H6.7l-0.6-0.2l-0.4,0.1
	l-1.4-0.5l-0.6-0.3L3.4,68l-0.8-0.7l-0.7-0.9l-0.5-1l0.2-0.9v-1.2l-0.9-1.6l-0.5-1.2l0.1-1.7l0.6-1L1.5,57l-0.3-1.9l0.1-0.9l0.6-1
	l0.8-1.6l0.8-2l0,0v-1.3l-0.1-0.8l0.3-0.9l-0.1-0.9l0.3-0.6l-0.1-1.9l0.6-0.6L4.6,42l0.1-1.1l0.5-0.6l0.6-0.5l1.1-0.3l0.8-0.2
	l0.7-0.7l0.4-0.2l1-1.1l0.5-0.8l0.5-0.2v-0.9l-0.3-0.3l-0.9-0.5l-0.8-0.9l-0.3-0.6v-0.4l-0.7-1.6l-0.3-1L7,28.5l-0.6-0.8L6,27.2
	l0.2-1l0.5-1.7L7.3,23l-0.1-1.4L7,21l0.2-1.4L7,17.9l-0.1-1.1l0.3-1.6l0.3-2l-0.1-1l0.3-0.8l-0.3-1l0.3-0.7l0.7-0.5L8.9,9l0.5-0.7
	L10,7.1h0.7L11,6.4l0.5-0.7l0.7-1.5"/>
<path class="st0" d="M12.1,1.9l0.3,0.8l0,0.6l0,0"/>
</svg>
