<?xml version="1.0" encoding="utf-8"?>
<!-- Generator: Adobe Illustrator 25.3.0, SVG Export Plug-In . SVG Version: 6.00 Build 0)  -->
<svg version="1.1" id="Layer_1" xmlns="http://www.w3.org/2000/svg" xmlns:xlink="http://www.w3.org/1999/xlink" x="0px" y="0px"
	 viewBox="0 0 12 21" style="enable-background:new 0 0 12 21;" xml:space="preserve">
<style type="text/css">
	.st0{fill:none;stroke:#4682B4;stroke-miterlimit:10;}
</style>
<path class="st0" d="M6.9,20.5l0.7-0.5l0.5-0.9l0.5-0.7l-0.1-0.5l0-0.5l0-1l0.1-0.5l0.3-0.4l0.3-0.4l-0.3-0.3l-0.1-0.3l0.1-0.2v-0.2
	l-0.3-0.3l0-0.7l-0.2-0.6l0.1-0.6L8,11.3l0-0.7L7.7,9.7L7.6,8.9L8,8.2L8.7,8l0.6-0.3l0.3-0.4L10,6.9l0.1-0.6l0.1-0.6l0,0L9.9,4.9
	L9.6,4.3l0.1-1.1l0.5-0.4l0.2-0.5l0.4-0.5l-0.2-0.4L11.2,1l0.5-0.4l0,0"/>
<path class="st0" d="M1.2,0.5L1.3,1L0.9,1.5L0.5,1.9l0.1,0.8v0.9L0.4,4.8v0.5l0.2,0.6l0.5,0.7L1.3,7v0.5l0,0.8l0.4,0.5L2,9.2v0.5
	v0.7l0.4,0.3L3,11l0.4,0.3l0.9,0.3l0.5-0.1l0.3-0.2l0.7,0.2l0.8,0.4L7.2,12"/>
</svg>
