<?xml version="1.0" encoding="utf-8"?>
<!-- Generator: Adobe Illustrator 25.3.0, SVG Export Plug-In . SVG Version: 6.00 Build 0)  -->
<svg version="1.1" id="Layer_1" xmlns="http://www.w3.org/2000/svg" xmlns:xlink="http://www.w3.org/1999/xlink" x="0px" y="0px"
	 viewBox="0 0 12 12" style="enable-background:new 0 0 12 12;" xml:space="preserve">
<style type="text/css">
	.st0{fill:none;stroke:#4682B4;stroke-width:0.5;}
</style>
<path class="st0" d="M11.1,5.9L11,5.7L11,5.5l0.1-0.2V5.3l-0.1-0.1l0-0.1L11,4.8l0-0.2V4.2L11,4l0.2-0.1l0.1-0.2l0-0.2l0.1-0.1
	l-0.1-0.2l0-0.2l0.1-0.2l0.1,0l0-0.1l0.1-0.1V2.5l0.2-0.2l-0.2-0.2l-0.2,0h-0.1V2l0.1-0.1l0-0.1l-0.2-0.1l0-0.1l0.1-0.1l0-0.3l0-0.5
	l0.1-0.3l0.1-0.2l0,0"/>
<path class="st0" d="M0.3,11.9l0.2-0.1l0.3-0.2l0.3-0.3l0.2-0.3l0.2-0.2l0.2-0.3l0.2-0.3l0.2-0.3l0.3-0.2l0.4-0.4l0.3-0.3l0.3-0.3
	l0.3-0.3l0.2-0.2l0.3-0.6l0.2-0.5L4.6,7l0.1-0.3l0.3-0.5l0.2-0.5l0.2-0.3l0.2-0.3l0.1-0.2l0-0.3l0.1-0.2l0,0L5.9,4l0-0.3l0.1-0.2
	l0-0.3l0-0.4V2.6l0.2-0.2l0.3-0.2l0.2-0.1l0.3,0l0.3,0h0.2l0.1-0.2L8,1.7l0-0.2l0.1-0.1l0.1-0.2V1.1V0.9l0.1-0.1l0.1,0l0.1,0
	l0.2-0.1h0.2L9,0.7h0.2l0.1,0l0.1,0.1l0.2,0L10,0.6l0.1-0.1l0.2-0.2l0.3-0.2L11,0.1h0.3l0.2,0.1l0.1,0"/>
</svg>
