<?xml version="1.0" encoding="utf-8"?>
<!-- Generator: Adobe Illustrator 25.3.0, SVG Export Plug-In . SVG Version: 6.00 Build 0)  -->
<svg version="1.1" id="Layer_1" xmlns="http://www.w3.org/2000/svg" xmlns:xlink="http://www.w3.org/1999/xlink" x="0px" y="0px"
	 viewBox="0 0 165 600" style="enable-background:new 0 0 165 600;" xml:space="preserve">
<style type="text/css">
	.st0{fill:none;stroke:#4682B4;}
</style>
<path class="st0" d="M160.8,15l-3.7,2.7l-5.7,4.2l-9.2-0.7h-8.7l-2.2,1.5l-0.2,8.2l-1.5,5.5l-0.5,4.7l1.5,2.2l0.2,5.2l-0.5,11.2
	l2.2,10.2v13.2v7.7l-1.2,11.4l-2.7,3l-2,1l-1.2,2l1,1.2v3.2l2,2.5l0.2,4.5l-2.7,7.2l-5,8.2l-0.2,4.2l1,2.7l0.2,3.5l-1,2.2v6.7
	l-5.7,3.2l-4.7,0.7h-5.2l-5.2-2.5l-3.2,0.7l-0.7,2.2l1.5,1.2l0,0l-0.2,4.7l-2.7,4.5l1,1.2l-5.7,4.2l-1,3l-3.2,2.7l-4,1.2v3.2
	l-3.2,2.5h-3.7l-2.2,2.7l-1,2.5l0.5,4.7l-3.2,2l-0.7,2.2l1.2,1.5l2,2.2v6.2v5.7l1.7,4v8.2v8.2l0.2,6.7v3l2,2.7l0.5,3l-1.2,2.2
	l-2.2,2l-5.2,6l-8.5,4.5l-5.7,2.7l-6.5,5.2l-7.5,5l-5,2l-1,4l-1.2,7.2l-0.5,2.2l2.5,3.7l4.2,3.7l0.7,3.7l0.5,7.5l0,0l0.2,9L36,328
	l-2.7,4.2L33,340l0.2,7l0,0l1,3l4.2,0.7l3.2,4l-1,4.7l-1.5,6.5l-2,5.7l1.5,5.7l3.5,7.2l4.7,3.7l1.2,4.7l0.5,3.2l3.2,4.5l3.2,5.2
	l1.5,4.2v4.2l-1.7,3.2l-3.7,5l-2.2,4l-1.5,2.2l0.2,5.5l-1.7,1.7h-4l-4.2,2.7l-2.5,4.7l0.2,4.2l-2.2,4.2l-4,3l-2,4.2l-3.9,5.3l0,0
	l-3,3.5l-3,17.2l-0.7,17.2l-4,3l1.2,2.2l4.2,0.5l0.7,4.5l-2.5,2.7l-2.7,1.7l0.2,3.5l1.2,0.7l3.5-0.2l2-1.2h1.7l3,2l2.7,3l0.2,3.7
	l-3.7,2.5l-2.2,1.5l-0.2,2.7l1.2,2l-4.2,3.2l0.2,2.5l-2.2,1.7l0,0l-2.5,4.5l-1,7.5l3.7,7.2l-3.5,4l-0.5,5.2l-3,4.7v3.2l-3.7,2
	L4.2,585"/>
</svg>
