<?xml version="1.0" encoding="utf-8"?>
<!-- Generator: Adobe Illustrator 25.3.0, SVG Export Plug-In . SVG Version: 6.00 Build 0)  -->
<svg version="1.1" id="Layer_1" xmlns="http://www.w3.org/2000/svg" xmlns:xlink="http://www.w3.org/1999/xlink" x="0px" y="0px"
	 viewBox="0 0 34 55" style="enable-background:new 0 0 34 55;" xml:space="preserve">
<style type="text/css">
	.st0{fill:none;stroke:#4682B4;}
</style>
<path class="st0" d="M7.2,53.6l0.3-0.4l0.5-0.7l0.3-0.4l0.3-0.4l0.7-0.9l0.7-0.4l0.5-0.3l0.5-0.3l0.7-0.4l0.5-0.6l0.3-0.4l0.2-0.7
	l0.2-0.5l0.2-0.5l0.4,0l0.3-0.3l0.2-0.4l0.2-0.4l-0.4-0.6v-0.4l0.2-0.5l-0.2-0.7L13.6,43l0.4-0.4l0.4-0.6l0.6-0.5l0.1-0.3l-0.1-0.3
	L15,40.5l-0.2-0.4l-0.2-0.4l-0.2-0.4l0-0.3l0-0.3v-0.4v-0.4l0.3-0.5l0,0l0.3-0.5l0.1-0.3l0.1-0.3l0,0l0.5,0l0.6-0.2l0.7-0.2l0.7-0.1
	l0.7,0.1l0.8,0.1l0.3,0l0.5,0h0.6l0.1,0.1l0.8,0.1l0.2-0.1l0-0.4l-0.1-0.3l0,0"/>
<path class="st0" d="M7.3,30.1L8,30.6l0.7,0.5l0.7,0.5L10,32l0.3,0.4l0,0.7l0.2,0.6l0.4,0.4l0.6,0.5l0.4,0l0.4,0l0.1,0.4l0.1,0.4
	l0.3,0.4l0.3,0.4l0.3,0.2l0.3,0.2l0.7,0.2l0.8-0.1l0,0"/>
<path class="st0" d="M12.3,22l0.5,0.1l1.2,0.6l0.6-0.3l1.8-0.1l0.4-0.2l1.5,0.7l0.4-0.3l0.8,0.2l1.1-0.1l0.8-0.5l0.1-0.3l1.6-0.7V21
	l-0.8-0.3l-0.3,0l-0.2,0.1l-0.3-0.1L21,20.3l-0.5,0l-1,0.3L18.7,21l-0.2,0.3l-0.8-0.1h-0.6l-0.4,0.1l0.2,0.7l0,0"/>
<path class="st0" d="M0.7,36.3L1.4,36l0.9-0.6L3,34.8L3.6,34l0.5-0.5l0.4-0.8l0.4-0.7l0.5-0.4L6.4,31l0.8-0.7L8,29.4l0.8-0.7L9,28.3
	l0,0l0.3-0.5l0.4-1l0.4-0.9l0.1-0.6l0.6-1l0.6-1.1l0.2-0.4l0,0l0.5-0.6l0.5-0.8l0.1-0.8l0.1-0.3l0.4-0.7l0.1-0.8l0.4-0.5L13.4,18
	l0.1-1.1l0-0.3l0.4-0.3l0.3-0.6l0-1l0,0l0.1-0.6l0.3-0.8l0.2-0.4l0-0.6l0.3-0.7l0.1-1.1l0.3-0.2l0.1-0.2l0.2-1l0.3-0.9l0,0l0.4-0.7
	l0.6-1L17.6,6l0.6-0.2l0.5-0.4L19,5.3l0.2-0.2L19.5,5l0.2-0.1l0.5-0.4l0.7-0.1l0.3-0.2l0.3-0.3l0.2,0l0.4-0.5l0.4-0.5l0.3-0.2
	l0.1,0.2l0.1,0.3l0.2,0.3l0.2,0.3L23.5,4l0.3-0.4l0.4-0.5l0.5-0.6L25,2.4l0-0.4l0.5-0.3l0.6-0.3l0,0.3v0.6l0,0.6l0.3,0.3L27,3.6
	l0.8,0.3l1.3,0.4l0,0l0.4,0.1l0.2,0l0,0.3l-0.1,0.6l0,0.4l-0.2,0.4l0,0.4l0.2,0.7l0.1,0.4l0.2,0.3L30,8l0.2,0.2l0.1,0.3L30.4,9
	l0.1,0.1v0.3l0,0v0.4l0.2,0.6V11l0,0.7l-0.1,0.5H31l0.7-0.1h0.7l0.8,0l0.1,0.4l-0.6,0l-0.5,0L32.1,13l-0.2,0.7L31.8,14l-0.3,0.1
	L31,14.5l-0.6,0.2l-0.6-0.6l-0.5-0.5v-0.2l-0.4-0.3l-0.3-0.3v-0.4L28.2,12l-0.3-0.3l-0.2-0.3l-0.5-0.2l-0.4-0.2l-0.1-0.2h-0.3
	l-0.2-0.3l-0.4,0.2l-0.4,0.4l-0.1,0.4L25,11.8l-0.3,0.4l-0.4,0.4l-0.2,0.6l0,0.5l0,0.5l0,0.5l-0.2,0.2V15l0.4,0.2v0.1L24,15.6
	l-0.1,0.2l0.3,0.1l0.3-0.1l0.3,0.3l0,0.3l-0.3,0.3l0,0.4l-0.2,0.1l0,0.2L24,17.6l-0.1,0.3l0.1,0.3l0.1,0.2l-0.2,0.7l-0.3,0.4
	l-0.2,0.2l0.1,0.3l0,0.5L23.2,21l0.1,0.4v0.4v0.6l0.3,0.1l0.1,0.5l0,0"/>
</svg>
