<?xml version="1.0" encoding="utf-8"?>
<!-- Generator: Adobe Illustrator 25.3.0, SVG Export Plug-In . SVG Version: 6.00 Build 0)  -->
<svg version="1.1" id="Layer_1" xmlns="http://www.w3.org/2000/svg" xmlns:xlink="http://www.w3.org/1999/xlink" x="0px" y="0px"
	 viewBox="0 0 34 51" style="enable-background:new 0 0 34 51;" xml:space="preserve">
<style type="text/css">
	.st0{fill:none;stroke:#4682B4;}
</style>
<path class="st0" d="M11.3,36L11,36.4l-0.4,0.3l0,0.3l0,0.2l-0.2,0.2l-0.2,0.3l-0.3,0.5l-0.2,0.4l-0.1,0.7l0,0.7v0.5l-0.2,0.2l0,0.2
	l0.3,0.1L9.6,41l-0.2,0.2l-0.2,0.2l0,0l0,0.2l0.1,0.1h0.2l0.2-0.1l0.3,0.2l0.1,0.3L10,42.3l-0.2,0.1v0.3l-0.2,0.2l0,0.1l-0.4,0.3
	v0.3l0,0.3l0.1,0.3v0.2l-0.1,0.1l0,0.3l-0.2,0.2l0,0.3l-0.3,0.2l-0.7,0.3l0,0"/>
<path class="st0" d="M8.7,47.5l-0.2-0.1l-0.1-0.3l-0.1-0.3v-0.3l0.2-0.4l0.3-0.4l0.1-0.1l0,0"/>
<path class="st0" d="M0.9,45.5l-0.1-0.2L1,45.1l0.2-0.4l0.1-0.2l-0.1-0.3l0-0.3l0.1-0.3l0-0.3l0-0.5l0-0.7l-0.1-0.4l0-0.5v-0.5v-0.5
	l0.1-0.4l0.1-0.1l0.2-0.2L1.8,39l0.1-0.3l0.2-0.1l0.1-0.1l0.2,0.1l0.2,0.1l0.3-0.1l0.3-0.1l0.4-0.2h0.3l0.4,0.2h0.3l0.3,0h0.2
	l0.3,0.1l0.3,0l0.2,0L6,38.4l0.2,0l0.3,0L6.8,38l0.4-0.4l0.3-0.2l0.3,0H8l0.4-0.1l0.5-0.1l0.5,0l0.4,0.1l0.3,0.1l0.1,0.1l0,0"/>
<path class="st0" d="M8.8,49.8l-0.1-0.2v-0.4V49l0.1-0.1L9,48.5l0-0.2l0-0.1l-0.1-0.3l0,0"/>
<path class="st0" d="M9.5,47.1l0-0.1v-0.1l0.2-0.1l0.2-0.2l0-0.1l0-0.1l0,0"/>
<path class="st0" d="M9.3,43.8l0,0.1l0.1,0.2l0.1,0.1l0,0.1l-0.1,0.3L9.3,45l-0.1,0.3l0,0.3l0,0.2l0.2,0.1l0.1,0l0,0"/>
<path class="st0" d="M16.1,19.3l0.1-0.2L16,18.8l0.1-0.2L16,18.3l0.1-0.8L16,17.3l0.1-0.2l0.3-0.5l0.1-0.5l0.1-0.2l-0.1-0.2l0.1-0.2
	l0.2-0.6l0.1-0.5v-0.5V13l-0.1-0.2l0,0v-0.5l0-0.7l-0.1-0.6l0-0.5v-0.6l0.1-0.2l0-0.2L17,9.5l0.3-0.2h0.3h0.3l0.4,0l0.3,0l0.2-0.2
	L19,9l0-0.2l-0.3-0.1l-0.4-0.1l-0.5-0.1l-0.5-0.2L16.8,8l-0.3-0.1V7.6l0-0.3L16.4,7l0.1-0.3l0.3-0.3L17.2,6l0.4-0.1l0.6-0.2l0,0
	l0-0.3l0.3-0.4l0.1,0l0.1-0.2L19,4.8l0.5-0.6L19.6,4V3.9l0.6-0.6L20.7,3l0.1-0.3l0.3-0.2l0.5-0.7l0.2,0L22,1.7l0.3,0l0.1,0l0.6,0
	l0.5-0.1l0.5-0.2l0.7-0.1l1.1-0.1h1.1h0.9l0.7,0.1l0.6,0.5L29.4,2l0.1,0.3L30,2.4h0.6L31,2.6l0.6,0.1l0.7-0.1l0.8-0.1h0"/>
</svg>
