<?xml version="1.0" encoding="utf-8"?>
<!-- Generator: Adobe Illustrator 25.3.0, SVG Export Plug-In . SVG Version: 6.00 Build 0)  -->
<svg version="1.1" id="Layer_1" xmlns="http://www.w3.org/2000/svg" xmlns:xlink="http://www.w3.org/1999/xlink" x="0px" y="0px"
	 viewBox="0 0 120 600" style="enable-background:new 0 0 120 600;" xml:space="preserve">
<style type="text/css">
	.st0{fill:none;stroke:#4682B4;}
</style>
<path class="st0" d="M88.6,223.1l1.4,0.5l2.3,0.5l2.3,0.3l3.2,0.5l4.2,0.1l2.9,0.2l1.6,0.3h0.1"/>
<path class="st0" d="M104.4,15v4.1l-2.5,2.5l-1.6,2.5l-2.2,3.8l-0.5,3.6l-1.9,3.3l-1.4,4.9l-0.8,3.3l-1.6,2.7l-2.5,5.5l-2.5,3.3v2.5
	l1.4,2.7l0.5,4.7l-1.9,4.9L85,73.6l-3,4.7l-0.8,2.5l-3.3,1.1l-1.6,3l-1.6,3l-1.9,3l-3.6,1.6l-2.7,1.9l-0.8,2.5l0.8,3.8v3.3l-1.6,3
	l0.3,2.5l0.3,4.1l-1.4,6.8l-1.4,7.1l-0.3,3.6l1,2.1l-0.1,2.3l0.1,4.9l-1,2.7l0.6,2.9l0.4,3l-0.1,3.8l-0.7,4l-1.2,2.7l-1.3,2.8
	l-1.4,2.7l-2.3,0.9l-3.2,1.9l-0.8,1.2l-0.1,2.6l0.7,1.2l3.4,4.2l3.8,3.8l1.7,2.7l1.5,2.2l0.4,2.3l1,4.7l0.8,4.9l1.8,3.5l2.5,4.4
	l-0.1,2.1l1.9,2.6l2.4,2.8l2.9,1.9l4,2.8l0,0l1,1.1l-0.1,2.1l1.5,2.3l1.4,4.5l1.6,1.8l0.9,2.1l2.9,3.6l1.4,2.6l3.7,2.1l1.9,2.9
	l3.5,2.9l0,0l2.2,1.9l0.8,0.9l-0.1,1.4l-0.1,1.5l-1.5,1.4l-1.2,0.7l-2,0.1l-1.3,1.2l-1.7,1.2l-1.4,0.1l-2.8,0.2l-1.2,0.7l-0.6,0.7
	l-0.3,2.3l-0.6,2.3l-1.4,2.6l-0.8,1.3l0.3,3.4l-1.7,3.1l-1.3,2.5l0,0l0.8,2.5l0.1,2.1l-2.1,1.8l-2.9,2.7v1l1.1,2.5l0,0"/>
<path class="st0" d="M109.3,226.7l-2,0.7l0.1,2.9l0.1,3.2l-2.5,3.2l-1.2,1.9v3l-0.1,2.7l0.9,2.6l1,0.7l2,1.2l1.2,2.4l-0.6,2.2
	l-1.4,3.6l-0.3,3.4l1,3.3l0,0l0.8,1.6l2.6,2.6l1.1,2.5l0.7,2.9l1.8,2.5l1.5,2.5l1.1,2.7l-0.1,2l-0.9,2.2l-1.4,2.1l-1.4,1.4l-1.1,2.7
	l-0.1,2.3l-0.3,1.1l-1.4,0.5l-1.6,0.5l-1.3,0.7l-1.5,1.1l-0.5,1.5l-0.3,2.7l-0.7,1.7l0,0l-2,2l-0.5,1.2l-0.3,1.4l-1.5,1.6l-1.6,1.4
	l-0.8,2l-0.6,2.3l-0.8,4.3l-0.5,3.7l-0.3,3.4l-0.5,0.7l-0.1,0.7l0.5,0.5v2.1l-1.8,2.2l-0.1,1.2l1,0.5h1.2l1.1,1l0,0l-0.3,1.7l-3,2.6
	v1.4l1.4,1h1.6l1.8-1.2l1.8,1.4l1.8,2.1l-0.5,1.2l-3.1,2.9l0.4,1.5l-0.5,1.2l-1.1,2.6l-2.2,2.1l-1.1,3.6l0.4,1.6l1,3.7l0.1,1.1
	l-1,1.9l-0.4,2.3l-1.5,2.3l-0.7,2.3l-2.6,1.5l-0.3,1.8l0.3,2.1l0.7,2.6l-0.1,5.2l-0.7,3.7l1.1,1.4l0.3,2.2l1,1.8l-0.5,2.1l1.1,1.8
	l-1.8,3.7l-0.8,4.8l0.1,3.8l-1,3.4l0,0l-1.2,4.5l-0.4,4.8l-4.2,2.2l-5.6,1.4l-2.9,3l-1.6,1.6l0.8,1.8l0.3,2.1l-2.6,1.5v2.6l-0.5,3.1
	l-2.9,0.7l-0.8,4.1l-2.2,5.2l-0.5,4.1l0.4,3l0.7,4.9l-0.5,4l-1.4,3.6l-4,1l-4.7,2.6l-2.3,2.2l0,0l-2.1,2.6l-1,2.6l-0.3,2.9l1.1,2.3
	l0.8,2.5l0.4,2.1l-0.3,2.2l-3.8,2.1l-1.6,1.1l-0.3,1.5l-1.5,1.5h-1.6l-3.1,3.1l-1.9,2.2l-3.7,0.3l-1.9,0.8l-0.7,1.2l-0.5,1.4
	l-1.5,2.6l-2.3,2.1l-3.6,3.1l-1.5,1.2l-0.7,1.5l-3,0.5l-2.7,2.1l-2.2,1.6l-2.2,1.5"/>
<path class="st0" d="M6.4,533.1l1.1,1.9l1.5,1.8l0.5,1.1l0.1,2.3l-0.5,1.4L7,543.7L5.6,547l-0.3,4.5l0.3,5.7l0.4,3.6l0.7,2.7
	l2.3,2.7l1.4,2.5l0.7,2.7l1,2.7v1.9l-2.1,1.8l-3.3,2.7l-1.9,2.2L2.8,585l0,0"/>
</svg>
