<?xml version="1.0" encoding="utf-8"?>
<!-- Generator: Adobe Illustrator 25.3.0, SVG Export Plug-In . SVG Version: 6.00 Build 0)  -->
<svg version="1.1" id="Layer_1" xmlns="http://www.w3.org/2000/svg" xmlns:xlink="http://www.w3.org/1999/xlink" x="0px" y="0px"
	 viewBox="0 0 250 600" style="enable-background:new 0 0 250 600;" xml:space="preserve">
<style type="text/css">
	.st0{fill:none;stroke:#E42A29;stroke-linecap:round;stroke-linejoin:round;stroke-miterlimit:10;}
	.st1{fill:none;stroke:#2DAF4A;stroke-linecap:round;stroke-linejoin:round;stroke-miterlimit:10;}
</style>
<path class="st0" d="M6,585c0-1.1,2-2.6,2.5-3.6c0.8-1.5,2.5-6.1,2.5-6.1s2.6-4.8,3.6-6.3c0.9-1.4,3-3.9,4-5.3
	c1.1-1.5,4.2-4.1,4.2-5.9c0-1.1-2.4-2.7-2.5-3.8c-0.1-0.7,0.6-2.2,1.1-2.7c0.8-1.1,3.2-2.7,4.4-3.4c0.8-0.5,2.6-1.4,3.6-1.5
	c1.2-0.1,3.3,1.5,4.4,1.3c0.8-0.2,1.7-1.6,2.3-2.1c1.3-1.1,4.2-3.3,5.5-4.4c0.6-0.5,1.5-2.2,2.3-2.3c1.1-0.2,2.9,1.6,3.8,2.1
	c1.7,1,4.8,3.9,6.8,4.2c0.9,0.1,2.6-0.5,3.4-0.8c1.3-0.6,3.5-2.7,4.6-3.6c0.8-0.6,2.5-1.8,3.2-2.5c0.8-0.9,1.9-3.3,2.7-4.2
	c0.6-0.8,2.1-2.3,3-2.7c1.2-0.7,4.1-1.6,5.5-1.5c1,0.1,2.6,1.5,3.6,1.7c1.2,0.3,3.8,0.1,5.1,0.2c0.3,0,1,0.1,1.3,0.2
	c0.7,0.3,2,1.2,2.5,1.7c0.4,0.4,0.9,1.7,1.5,1.7c0.7,0,1.5-1.4,1.9-1.9c0.8-0.9,2.2-2.9,3-3.8c0.4-0.5,0.9-1.7,1.5-1.9
	c0.7-0.2,2,1,2.7,1.1c0.6,0.1,1.8-0.1,2.3-0.4c0.8-0.6,1.7-2.5,2.1-3.4c0.4-1,0.9-3,1.3-4c0.4-1.2,1.1-3.7,1.9-4.6
	c0.4-0.4,1.4-1,1.9-1.3c0.6-0.3,2.2-0.5,2.5-1.1c0.5-0.7,0-2.7,0-3.6c0.1-1,0.1-3.1,0.4-4c0.3-0.9,1.7-2.5,2.1-3.4
	c0.6-1.3,1.5-4.1,1.9-5.5c0.5-1.8,1.2-5.4,1.5-7.2c0.2-1.3,0.4-3.8,0.4-5.1c0-1,0-2.9,0-3.8l0,0c0.4-0.8,0.9-2.5,1.5-3.2
	c1-1.1,4.1-1.9,4.9-3.2c0.7-1.3,0.2-4.4,0.2-5.9c0.1-2.6,0.3-8,0.8-10.6c0.3-1.4,1.2-4,1.9-5.3c0.8-1.5,3.1-3.9,4-5.3
	c0.8-1.1,2.6-3.3,3-4.6c0.3-1.1-0.6-3.4-0.2-4.4c0.4-1.2,2.1-3.2,3.2-3.8c0.6-0.3,2,0.1,2.5-0.2c1.2-0.7,2.4-3.6,3.2-4.9
	s2-4,3.2-4.9c0.7-0.5,2.5-0.4,3.2-0.8c0.8-0.6,1.7-2.6,2.3-3.4c1.3-1.6,4.4-4.2,5.5-5.9c0.6-0.9,1.2-3,1.7-4c0.6-1.4,2-4.2,2.7-5.5
	c0.5-0.9,1.8-2.4,2.1-3.4c0.7-2,0.8-6.2,1.1-8.2c0.3-2,0.6-5.9,1.1-7.8c0.5-2.1,2-6.2,2.5-8.2c0.5-1.8,1.3-5.4,1.7-7.2l0,0
	c0.4-1.6,1.4-4.7,1.5-6.3c0.1-1.2-0.9-3.7-0.6-4.9c0.4-1.4,2.7-3.4,3.4-4.6c0.7-1.3,1.5-4.2,1.7-5.7c0.2-1.3-0.1-4,0-5.3
	c0.2-1.6,0.9-4.8,1.3-6.3c0.1-0.4,0.5-1.1,0.4-1.5c-0.3-0.8-2.3-1.2-2.5-1.9c-0.2-0.7,1-2.1,0.6-2.7c-0.2-0.4-1.4-0.3-1.7-0.6
	c-0.6-0.6-0.7-2.4-1.3-3c-0.8-0.8-3.4-1.1-4.2-1.9c-0.7-0.8-1.3-3-1.5-4c-0.2-1.5,0.4-4.5,0.6-5.9c0.2-1.2,1-3.5,1.3-4.6l0,0
	c0-1.6,0.1-4.9,0-6.6c-0.1-1.6-1-4.9-0.8-6.6c0.1-1.6,1.7-4.5,1.9-6.1c0.2-1.6,0.2-5.1-0.6-6.6c-0.7-1.4-3.6-3-4.9-3.8
	c-0.8-0.5-2.9-0.9-3.4-1.7c-0.3-0.4,0.3-1.6,0-2.1c-0.3-0.6-2-0.9-2.3-1.5c-0.5-1,0.2-3.3,0.4-4.4c0.1-0.7,0.9-1.9,0.8-2.5
	c0-0.8-1-2-1.3-2.7c-0.6-1.5-1.4-4.7-1.7-6.3c-0.3-1.8-0.7-5.4-0.8-7.2c-0.2-1.7-1.3-5.2-0.6-6.8c0.2-0.4,1.3-0.7,1.5-1.1
	c0.2-0.5,0.2-1.6,0-2.1c-0.4-1-2.2-2.4-2.7-3.4c-0.7-1.2-0.7-4.3-1.7-5.3c-0.6-0.6-2.6-0.6-3.4-1.1c-0.3-0.2-1-0.7-1.1-1.1
	c-0.1-0.6,1-1.7,0.8-2.3c-0.2-1.1-2.2-2.8-3.2-3.4c-1-0.7-3.5-1.1-4.6-1.5c-1.2-0.4-3.9-0.9-4.6-1.9c-0.7-0.9-0.6-3.3-0.6-4.4
	c-0.1-1.3,0.6-4,0-5.1c-0.4-0.6-2.2-0.8-2.5-1.5c-0.4-0.8,0.2-2.7,0.2-3.6l0,0c-0.6-1.3-2.1-3.7-2.5-5.1c-0.3-1.1-0.5-3.5-0.6-4.6
	c-0.2-1.5-0.2-4.5-0.6-5.9c-0.2-0.7-1.1-2.1-1.5-2.7c-0.5-0.8-1.8-2.3-2.1-3.2c-0.2-0.6-0.4-2.1,0-2.5c0.5-0.5,2.1-0.1,2.7-0.2
	c0.6-0.1,1.7-0.5,2.1-0.8c0.6-0.5,1.7-2.5,1.7-2.5s1.5-2.5,1.5-3.4c0-0.8-0.9-2.2-1.3-3c-0.1-0.2-0.4-0.6-0.4-0.8
	c-0.2-0.9-0.1-2.9,0-3.8c0.1-1,0.5-2.8,0.4-3.8c-0.1-1.4-1.1-4.1-1.5-5.5c-0.2-0.7-0.7-2-0.6-2.7c0.1-1.1,0.8-3.2,1.5-4
	c0.4-0.5,1.8-0.8,2.3-1.3c0.9-0.8,2.2-2.9,3-3.8c0.5-0.7,1.7-2,2.1-2.7c0.4-0.9,1.1-2.8,1.1-3.8c-0.1-1.3-1.6-3.5-2.1-4.6
	c-0.6-1.5-2-4.4-2.3-5.9c-0.3-1.7-0.2-5.1-0.2-6.8l0,0c-0.3-2.6-0.8-7.8-1.1-10.4l0,0"/>
<path class="st1" d="M244,15c0,1.2-0.8,3.4-1.3,4.4c-0.6,1.2-2.3,3.2-3.2,4.2c-0.7,0.8-2.2,2.3-2.7,3.2c-0.6,1-1.3,3.3-1.7,4.4
	c-0.7,1.8-1.9,5.6-2.7,7.4c-0.7,1.6-2.8,4.6-3.4,6.3c-0.3,1.1-0.7,3.3-0.6,4.4c0.1,1.3,2,3.6,1.7,4.9c-0.2,0.7-1.7,1.5-2.1,2.1
	c-0.5,0.8-0.9,2.7-1.1,3.6c-0.3,1.3-0.6,3.8-0.6,5.1c-0.1,1.7,0.3,5.1,0.4,6.8c0.1,0.8,0.4,2.4,0.2,3.2c-0.2,1.1-1.8,2.8-2.1,3.8
	c-0.2,0.7-0.2,2.2-0.2,3c-0.1,1.3-0.4,3.8-0.4,5.1c0,1.6,0.3,4.9,0.4,6.6c0.2,1.7,0.9,5.1,0.8,6.8c-0.1,1.4-0.9,4-1.3,5.3
	c-0.1,0.4-0.6,1.2-0.6,1.7c-0.1,0.5,0.1,1.4,0,1.9c-0.2,1.1-1.2,3-1.5,4c-0.3,0.8-0.8,2.5-0.8,3.4c-0.1,1.3,0.3,4,0.4,5.3
	c0.1,1.4,0.2,4.3,0.6,5.7c0.5,1.7,2.5,4.6,3.2,6.1c0.4,0.8,1,2.4,1.3,3.2c0.4,1.3,1.2,4.1,1.1,5.5c-0.2,1.2-1.4,3.3-2.1,4.2
	c-0.6,0.8-2.4,1.8-3,2.5c-1,1.3-2.3,4.4-3,5.9c-0.2,0.5-0.4,1.5-0.6,1.9c-0.6,1-2.6,2.5-3.4,3.4c-0.8,0.9-2.8,2.5-3.2,3.6
	c-0.3,1,0.8,3.2,0.4,4.2c-0.4,1.1-2.5,2.4-3.2,3.4s-1.5,3.1-1.9,4.2c-0.3,0.9-0.6,2.9-0.8,3.8c-0.3,1-1,2.8-1.3,3.8
	c-0.3,1.2-0.9,3.6-1.1,4.9c-0.2,0.9-0.3,2.9-0.4,3.8c-0.2,1-0.6,3-0.8,4c-0.3,1.2-1,3.5-1.3,4.6c-0.5,2.6-1,7.9-1.5,10.6
	c-0.4,2-0.8,6-1.7,7.8c-0.4,0.8-2.1,1.9-2.5,2.7c-0.4,0.9-0.5,2.9-0.6,3.8c-0.3,1.8-1,5.5-1.3,7.4c-0.2,1.9-0.5,5.7-0.6,7.6
	c-0.1,1.2-0.4,3.6-0.4,4.9c0,0.8,0.2,2.4,0,3.2c-0.3,1-1.6,2.7-2.1,3.6c-0.3,0.6-0.9,1.9-1.1,2.5c-0.5,2.4-0.5,7.3,0,9.7
	c0.3,1.5,2.6,4.1,2.5,5.7c-0.1,1.2-1.8,3-2.3,4c-0.9,1.7-2.7,5-3.2,6.8c-0.6,2.2-0.5,6.8-0.6,9.1c-0.1,3-0.1,8.9-0.2,11.8
	c-0.1,1.2-0.7,3.7-0.4,4.9c0.3,1.3,2.7,3.1,3,4.4c0.3,1.4-0.3,4.2-0.8,5.5c-0.8,2.1-3.1,5.9-4.2,7.8c-1.2,2.2-3.8,6.6-5.1,8.9
	c-0.3,0.5-0.8,1.4-1.1,1.9l0,0"/>
</svg>
