<?xml version="1.0" encoding="utf-8"?>
<!-- Generator: Adobe Illustrator 25.3.0, SVG Export Plug-In . SVG Version: 6.00 Build 0)  -->
<svg version="1.1" id="Layer_1" xmlns="http://www.w3.org/2000/svg" xmlns:xlink="http://www.w3.org/1999/xlink" x="0px" y="0px"
	 viewBox="0 0 83 600" style="enable-background:new 0 0 83 600;" xml:space="preserve">
<style type="text/css">
	.st0{fill:none;stroke:#4682B4;}
</style>
<path class="st0" d="M5.8,585l-0.5-9.6l0.5-8.1l1-8.1l5.6-7.6l7.6-7.1l10.6-5.1l7.1-6.6l-1-6.6l2.5-5.6l7.1-2l-5.1-8.6l-2-9.1
	l-0.5-14.7v-6.6l5.6-3.5l6.1-5.1v-10.6l1-12.2l-5.6-10.6l-2.5-6.6l-11.7-3l-9.1-3l-9.6-9.1l-1-10.1l4.1-15.7l3-15.2V366l0,0l0-12.7
	l-2.5-12.7l-8.1-20.8l-6.1-12.2l1.5-8.1l7.6-13.2l4.6-8.6l8.1-7.1l7.6-8.6l6.1-9.1v-14.7l1-12.2l2-5.1l8.6-8.6l0.5-12.2l6.1-10.1
	l9.1-19.3l0,0l8.1-19.3l4.1-11.7l1.5-18.3l2-8.1v-13.2l-2-17.2l-2-10.6l-3-8.1V53.2V43l-5.1-7.1l-1-10.1L72.2,15"/>
</svg>
