<?xml version="1.0" encoding="utf-8"?>
<!-- Generator: Adobe Illustrator 25.3.0, SVG Export Plug-In . SVG Version: 6.00 Build 0)  -->
<svg version="1.1" id="Layer_1" xmlns="http://www.w3.org/2000/svg" xmlns:xlink="http://www.w3.org/1999/xlink" x="0px" y="0px"
	 viewBox="0 0 83 121" style="enable-background:new 0 0 83 121;" xml:space="preserve">
<style type="text/css">
	.st0{fill:none;stroke:#4682B4;}
</style>
<path class="st0" d="M80.9,2.8l-1.5,0.9L78.2,5L77,6.1l-1,1.5l-1,1.5l-1,1.5l-0.4,0.3L73.2,12l-0.5,0.9l-1.1,1.5l-0.7,1.3l-0.6,1.2
	l-0.6,0.7l-0.7,0.3l-0.8,0.5l-0.7,0.6l-1.2,0.9l-0.8,0.8l0.1,0.5l-0.6,0.6l-1.3,1.1l-1.1,1.4L62,24.9v0.6v0.3l0,0l-0.6,0.5l-0.3,1
	l-0.4,1.1L59.4,29l-1.9,0.7l-1.4,0.6l-1.5,1l-1.8,1.1l-0.3,0.8l-0.4,0.8L51,35.1l-0.8,1l-0.1,0.8l0.3,2.2l0.6,2.1l0,0l0.1,1.1
	l0.5,1.9l-0.2,1.8l-0.6,1.8l0.3,1.4l0.1,1.2l0.7,1.4l0.8,1.2l-0.3,1.3l-0.6,2.4l-0.5,1.6L50,60.4l-0.7,0.9l-2.4,2.1l-2.5,1.4l0,0
	l-1.2,0.8l0,0l-0.8,0.9l-0.8,0.7l-0.9,0.5l-1.3,0.6l-0.8,0.8l-0.5,1.1l-0.6,2.3l-0.3,1.4l0.2,0.6l0.3,0.5l-0.2,0.6l-0.8,0.1
	l-0.3-0.4l-0.6,0.1l-0.2,0.6L34.9,78l-0.1,1.9l-0.5,2l0,0l-0.4,1.4l-0.2,2.6l-0.1,2.9l-0.2,1l0.2,1.5l-0.2,0.9l-0.6,0.5h-0.8
	l-0.5-0.2h-1.3l-2.6-0.2l-0.9-0.1L26.1,93l-0.4,1.5l-0.5,1.6l-0.5,1.1V98l0.6,1.7l0.1,0.9l-0.7,1l-1.8,1.4l-1.8,1.5l-2.5,1.8l-2,1.4
	l-1,1.7l-1,1.5l-0.9,1.2l0,0v0.8l-1,1.3l-0.9,0.8l-0.8,0.5v0.8v0.5l-0.6,0.8l-0.5,0.6l-1.2-0.4l-1.2-0.4l-1.8-0.7L4,115.9l-1.6-1.3
	L2.1,114l0.1-0.7l0,0"/>
<path class="st0" d="M2.6,113.1l0.2,0.5l0.1,0.5l0.2,0.4l0.7,0.5l0.8,0.5l0.3,0.1l0,0"/>
<path class="st0" d="M40.4,69.3L40,69.7l-0.8,0l-0.8,0"/>
<path class="st0" d="M39.3,67.1l-0.5,0.3l-0.2,1.1l-0.2,1.1l0,0"/>
</svg>
