<?xml version="1.0" encoding="utf-8"?>
<!-- Generator: Adobe Illustrator 25.3.0, SVG Export Plug-In . SVG Version: 6.00 Build 0)  -->
<svg version="1.1" id="Layer_1" xmlns="http://www.w3.org/2000/svg" xmlns:xlink="http://www.w3.org/1999/xlink" x="0px" y="0px"
	 viewBox="0 0 326 600" style="enable-background:new 0 0 326 600;" xml:space="preserve">
<style type="text/css">
	.st0{fill:none;stroke:#4682B4;}
</style>
<path class="st0" d="M317.1,15l0.6,1.9l-0.2,2.3l-1.3,3.1l-2.1,4.2l-2.5,5l-2.9,6.3l-1.7,6.9l-0.4,8.4l-1,7.5l-1.3,3.6l-2.9,5.7
	l-1.1,8.6l-1.1,7.1l-1.7,10.7l-0.8,10.5l1.7,4.4l1.7,4l-1.5,6.3l0,0l-1.5,5l-1.7,6.1l-2.3,7.5l-2.3,6.9l-1.9,5.9l-1.3,4.2l-0.6,4.2
	l0.4,8.4l-0.2,8.6l-0.6,5.9l-1.1,8.2l-1.1,10.7l-1.9,12.2l-0.8,8.6l-0.2,7.8l-0.4,6.3l-1.3,4l0,0l-1.1,6.1l-3.1,10.3l-1.9,7.3
	l-2.7,8.8l-0.4,4.2l0.4,4.2l-1.5,6.1l-1.9,5.4l-1.1,5.7l-1.5,4.2l-2.7,4.6l-6.1,3.1l-3.4,2.7l-2.7,2.7l-5.4,3.4l-3.4,1.5l-0.8,2.7
	l-1.9,3.8l-0.4,1.9l2.3,4.2l0,0"/>
<path class="st0" d="M20.5,585v-3.3l0.8-3.6l1.9-3.3l0.4-5.5l-1.1-4l-1.7-6.9l-0.2-4.6l1.1-6.9l-1.7-5.4l-0.2-3.1l3.1-2.5l2.5-3.3
	l2.7-7.1l1-3.6l-1.5-5.4l-0.4-4.6l1.7-3.6l2.1-2.5l0.6-2.3l2.5-2.7l-0.6-3.3l5.2-2.9l-0.6-2.9l-3.4-4.2l-2.9,0.6l-2.3,1l-2.9-1
	l0.6-2.5l3.8-3.1l0.2-2.7l-0.8-1l-2.3-0.2l-1.5-2l3-2.6l-0.1-5.6l0.9-12l1.5-7.1l3.4-6.5l1.1-3.6l-3.2-1.7l-4.4-1.8l-6-2l0,0
	l-4.6-2.3l-5.9-3.3l-2.5-2.7l0.4-3.4l0,0"/>
<path class="st0" d="M10.2,415.6l-1.4-4.3l-0.5-3.4l3-3.1l3-2.7l0.8-1.9l-0.7-2.3l-0.7-3.1l1.6-3.7l2-4l0.1-4.8l1.8-3.1l1.5-3.3
	l0.3-3.5l0,0l0.6-1.5l1.9-1.2l2.5-0.3l2.6-0.2l2.9-1.1l2.5-2.9l2.3-0.1l1.9-0.4l2.1-3.4l1.6-6.1l-1.1-3.7l0.4-3.9l0,0l0.4-4l2.7-3.6
	l2.5-4.2l2.9-5.7l2.7-3.8l3.8-0.8l3.1,0.2l4.2,0.8l4,2.1l4.2,0.6l2.3-0.2l4.6,1.7l5.7,3.1l6.9,3.4l5.7,2.7l3.6,2.1l2.9,1.9l1.7,2.7
	h5.5l5.2-0.2l5.4,0.8l3.4-0.2l1.5-2.9l2.3-1l3.4,0.4l3.4-1.1l4-0.8l0,0l5.2,0.8l6.7,1.5l4-1.3l3.1-3.4l4.8,0.2l3.8,0.2l3.4-1.3
	l4.2-2.7l4-3.4l3.6-4l1.9-1l1.9-0.4l2.5,1l1,0.4l2.3-1.1l2.1-0.4l4.2,1.5l2.5,1.5l3.8,1.3l3.1,2.5l2.9,1.7l5.7,3.4l6.1,1.7l4.6,0.4
	l5.2,0.2l4,0.6v0.2"/>
</svg>
