<?xml version="1.0" encoding="utf-8"?>
<!-- Generator: Adobe Illustrator 25.3.0, SVG Export Plug-In . SVG Version: 6.00 Build 0)  -->
<svg version="1.1" id="Path" xmlns="http://www.w3.org/2000/svg" xmlns:xlink="http://www.w3.org/1999/xlink" x="0px" y="0px"
	 viewBox="0 0 89 181" style="enable-background:new 0 0 89 181;" xml:space="preserve">
<style type="text/css">
	.st0{fill:none;stroke:#E42A29;stroke-width:0.5;stroke-linecap:round;stroke-linejoin:round;}
</style>
<path class="st0" d="M13.1,4.7l-0.6,0.8c0,0-0.5,1.5-0.3,1.9c0.1,0.4,0.9,0.9,1.3,1.1c0.4,0.3,1.2,0.9,1.6,1.1
	c0.5,0.3,1.5,1,2.1,1.3c0.5,0.2,1.5,0.6,2.1,0.8c0.4,0.1,1.2,0.2,1.6,0.3c0.4,0.1,1,0.6,1.3,0.8c0.3,0.2,1.1,0.4,1.3,0.6
	c0.2,0.2,0.3,0.9,0.2,1.1c-0.1,0.3-0.8,0.7-1,1c-0.2,0.3-0.6,0.9-0.8,1.3c-0.2,0.4-0.5,1.3-0.6,1.8c-0.1,0.6-0.3,1.7-0.3,2.2
	c-0.1,0.6-0.1,1.7-0.2,2.2c0,0.5-0.1,1.4-0.2,1.9c0,0.3,0,1,0,1.3c0,0.2,0.1,0.6,0,0.8c-0.1,0.2-0.3,0.6-0.5,0.8
	c-0.1,0.2-0.5,0.4-0.6,0.6c-0.1,0.1-0.2,0.5-0.2,0.6c0.1,0.3,0.8,0.6,1.1,0.6c0.1,0,0.4-0.1,0.5,0c0.2,0.1,0.4,0.6,0.5,0.8
	c0,0.2,0.1,0.5,0,0.6c-0.1,0.3-0.7,0.6-1,0.8c-0.2,0.1-0.7,0.3-0.8,0.5c-0.1,0.2-0.2,0.9,0,1.1c0.2,0.3,0.8,0.5,1.1,0.5
	c0.4,0,1.1-0.5,1.4-0.5c0.4,0,1.1,0.4,1.4,0.6c0.2,0.2,0.6,0.6,0.6,0.8c0.1,0.2,0.1,0.6,0,0.8c-0.1,0.3-0.7,0.6-1,0.8
	c-0.3,0.2-0.8,0.6-1,1c-0.1,0.2,0.1,0.7,0,1c-0.1,0.3-0.4,0.7-0.5,1c-0.1,0.2-0.4,0.6-0.5,0.8c-0.2,0.3-0.8,0.9-1,1.3
	c-0.2,0.3-0.4,1.1-0.5,1.4c-0.1,0.5-0.4,1.4-0.3,1.9c0.1,0.4,0.7,1,0.8,1.4c0.1,0.4,0.1,1.2,0.2,1.6c0,0.3,0.1,1,0,1.3
	c-0.1,0.4-0.4,1.3-0.6,1.6c-0.3,0.4-1.3,1-1.8,1.3c-0.4,0.3-1.2,0.7-1.6,1c-0.4,0.3-1.1,1-1.3,1.4c-0.1,0.2,0,0.7,0,1l0,0
	c0.1,0.3,0.2,0.8,0.2,1.1c0.1,0.2,0.2,0.6,0.2,0.8c0.1,0.2,0.4,0.6,0.5,0.9c0,0.2,0,0.5,0,0.6c0,0.2-0.2,0.7-0.2,0.9
	c0.1,0.2,0.5,0.5,0.6,0.7c0.1,0.2,0.2,0.5,0.2,0.7c0,0.2,0,0.6,0,0.8c0,0.3,0,1,0.1,1.3c0,0.2,0.3,0.4,0.3,0.6c0.1,0.2,0,0.8,0.1,1
	c0.1,0.2,0.7,0.5,0.7,0.8c0.1,0.3-0.2,0.9-0.2,1.2c0,0.2-0.1,0.7,0,1c0.1,0.1,0.4,0.3,0.4,0.5c0,0.3-0.4,0.8-0.6,1
	c-0.2,0.3-0.5,1-0.6,1.4c-0.1,0.4-0.1,1.2-0.1,1.6c0,0.6-0.1,1.9-0.2,2.5c-0.1,0.5-0.2,1.6-0.3,2.2c-0.1,0.7-0.6,2-0.7,2.6
	c-0.1,0.6-0.3,1.7-0.4,2.3c-0.1,0.3-0.1,0.8-0.2,1c-0.3,0.4-1.4,0.6-1.9,0.8c-0.5,0.2-1.6,0.6-2.2,0.8c-0.3,0.1-1.1,0.1-1.4,0.3
	c-0.3,0.2-0.8,0.9-1,1.2c-0.3,0.3-0.9,0.7-1.2,1c-0.1,0.1-0.4,0.2-0.4,0.3c-0.1,0.3,0.3,0.8,0.4,1c0.1,0.3,0.2,0.9,0.1,1.2
	c-0.1,0.3-0.5,0.7-0.7,0.8C6.7,90.9,6.1,91,6.1,91l0,0l0,1.4v1.5l-0.9,0.8L4.3,95l-0.5,1.4l-0.5,2.1l-0.8,1.8l-0.3,1.2v1.6v1.7
	l0.4,1.4l0.6,1.4l-0.5,2l0.6,3.1l0.3,2l0.3,2.8l0.2,1.9v2.3l-0.3,2.4l-0.3,1.2l0,0l-0.6,2.1l0.8,2.7l0.6,1.8l0.3,0.8l-0.1,1.3
	l-0.3,0.9v1.3l0.5,0.9l1,1.1l0.2,3l-0.2,1.7L5,145l-0.5,1.1l-0.8,1.5l-0.2,1.6l0.4,0.8l1.5,1c0,0,1.3,0.7,1.8,0.8
	c0.4,0.1,1.1,0.1,1.4,0.2c0.4,0.1,1,0.7,1.4,0.9c0.3,0.2,0.9,0.4,1.2,0.6c0.2,0.1,0.5,0.5,0.6,0.7c0.3,0.5,0.6,1.5,0.8,2
	c0.2,0.7,0.6,2,0.9,2.6c0.3,0.7,1,2.2,1.4,2.9c0.4,0.9,1.1,2.8,1.6,3.7c0.4,0.6,1.3,1.7,1.8,2.3l0,0c0.2,0.3,0.6,0.9,0.9,1.2
	c0.6,0.5,2.1,1.2,2.8,1.6c0.6,0.3,1.7,0.9,2.3,1.2c0.8,0.4,2.6,1,3.4,1.2c0.8,0.2,2.5,0.6,3.3,0.7c0.7,0.1,2.2,0.1,3,0.2
	c1,0,2.9,0.1,3.9,0.1c0.8,0,2.5,0.1,3.3,0c0.7-0.1,2.1-0.3,2.7-0.6c0.7-0.2,2-0.9,2.6-1.2c0.6-0.3,1.6-1.1,2.2-1.4
	c0.4-0.3,1.2-0.8,1.4-1.2c0.4-0.5,0.8-1.7,1-2.2c0.3-0.6,0.8-1.7,1.1-2.2c0.3-0.5,0.9-1.6,1.1-2.1c0.2-0.4,0.7-1.3,0.9-1.8
	c0.2-0.4,0.6-1.3,0.8-1.7c0.2-0.3,0.5-1,0.7-1.2c0.2-0.1,0.6-0.3,0.8-0.3c0.2,0,0.7-0.1,0.9,0c0.3,0.1,0.9,0.6,1.2,0.8
	c0.4,0.3,1.1,0.9,1.4,1.3c0.4,0.5,1.1,1.5,1.4,2c0.5,0.7,1.6,2,2.1,2.6c0.3,0.4,1,1.2,1.3,1.6c0.5,0.6,1.5,1.7,2,2.2
	c0.3,0.4,0.9,1.3,1.3,1.7c0.2,0.2,0.8,0.6,1.1,0.7c0.3,0.1,1,0.2,1.4,0.1c0.4-0.1,1.1-0.4,1.3-0.7c0.5-0.8,0.2-2.7,0.2-3.6
	c0-0.5-0.1-1.6-0.1-2.2c0-0.8-0.1-2.3-0.1-3c0-0.5,0-1.6,0-2.2c0-0.8,0-2.5,0-3.4l0,0"/>
<path class="st0" d="M81.9,176.3c0-0.5,1.1-1.2,1.4-1.7c0.3-0.5,0.6-1.6,0.8-2.2c0.2-0.5,0.6-1.4,0.9-1.8c0.3-0.5,0.9-1.3,1.1-1.8
	c0.2-0.5,0.4-1.6,0.5-2.1c0.1-0.4,0.3-1.2,0.2-1.6c0-0.4-0.3-1.3-0.6-1.6c-0.2-0.3-0.9-0.8-1.2-1c-0.2-0.2-0.8-0.4-1-0.5
	c-0.5-0.2-1.6-0.4-2.2-0.6c-0.6-0.1-1.7-0.3-2.2-0.5c-0.4-0.1-1.3-0.3-1.8-0.5c-0.5-0.2-1.5-0.8-2-1c-0.4-0.2-1.2-0.5-1.4-0.8
	c-0.2-0.3-0.2-1-0.2-1.3s-0.2-1-0.2-1.3c0-0.1,0-0.2,0-0.2"/>
</svg>
