<?xml version="1.0" encoding="utf-8"?>
<!-- Generator: Adobe Illustrator 25.3.0, SVG Export Plug-In . SVG Version: 6.00 Build 0)  -->
<svg version="1.1" id="Layer_1" xmlns="http://www.w3.org/2000/svg" xmlns:xlink="http://www.w3.org/1999/xlink" x="0px" y="0px"
	 viewBox="0 0 89 119" style="enable-background:new 0 0 89 119;" xml:space="preserve">
<style type="text/css">
	.st0{fill:none;stroke:#A54D9D;stroke-width:0.5;stroke-linecap:round;stroke-linejoin:round;}
	.st1{fill:none;stroke:#E42A29;stroke-width:0.5;stroke-linecap:round;stroke-linejoin:round;}
</style>
<path class="st0" d="M86.8,2.7c0,0.3-0.8,0.3-1,0.4c-0.3,0.2-1,0.5-1.3,0.7c-0.3,0.2-0.8,0.8-1.2,1c-0.3,0.3-1.2,0.6-1.5,0.9
	c-0.3,0.3-0.6,1.2-0.9,1.5c-0.2,0.4-0.7,1-0.9,1.4c-0.3,0.4-0.7,1.2-1,1.6c-0.1,0.1-0.4,0.4-0.5,0.6c-0.2,0.2-0.6,0.5-0.7,0.8
	c-0.1,0.3-0.2,0.9-0.3,1.2c0,0.2-0.1,0.5-0.2,0.7c-0.1,0.2-0.4,0.4-0.6,0.5c-0.2,0.3-0.7,0.9-0.9,1.2c-0.2,0.3-0.7,0.8-0.8,1.1
	c-0.1,0.2,0,0.6-0.1,0.8c-0.1,0.3-0.6,0.7-0.8,0.9c-0.2,0.2-0.7,0.4-0.9,0.6c-0.3,0.2-0.9,0.6-1.2,0.8c-0.5,0.4-1.4,1.2-1.8,1.7
	c-0.2,0.2-0.5,0.5-0.6,0.7c-0.1,0.2,0,0.5-0.1,0.7c-0.2,0.3-0.8,0.6-1.1,0.8c-0.4,0.3-1.1,1.1-1.4,1.4c-0.2,0.2-0.6,0.5-0.8,0.7
	c-0.1,0.1-0.4,0.3-0.4,0.4c-0.1,0.3,0.1,0.8,0.1,1.1l0,0c-0.2,0.2-0.6,0.5-0.7,0.8c-0.1,0.2-0.2,0.7-0.2,1c0,0.2,0,0.7-0.2,0.9
	c-0.2,0.3-1.1,0.6-1.5,0.8c-0.4,0.2-1.2,0.5-1.5,0.7c-0.3,0.1-0.9,0.5-1.2,0.6c-0.2,0.1-0.7,0.3-0.9,0.4c-0.3,0.2-0.7,0.7-0.9,0.8
	c-0.4,0.3-1.4,0.7-1.8,0.9c-0.2,0.2-0.7,0.5-0.9,0.7c-0.1,0.2-0.1,0.7-0.2,0.9c-0.1,0.2-0.2,0.6-0.4,0.8c-0.2,0.2-0.7,0.6-1,0.8
	c-0.1,0.1-0.5,0.3-0.6,0.4c-0.1,0.1-0.4,0.4-0.4,0.6c-0.1,0.2,0,0.7,0,1c0,0.3,0.1,1,0.1,1.3c0.1,0.4,0.3,1.2,0.3,1.6
	c0.1,0.5,0.2,1.4,0.3,1.8c0.1,0.5,0.3,1.4,0.4,1.9c0.1,0.3,0.3,0.9,0.3,1.3c0,0.4-0.2,1.3-0.3,1.7c-0.1,0.4-0.4,1.1-0.4,1.5
	c-0.1,0.3-0.1,0.8-0.1,1c0,0.3,0.1,1,0.2,1.4c0,0.3,0.1,0.8,0.1,1l0,0c0.2,0.2,0.7,0.7,0.8,0.9c0.1,0.2,0.3,0.7,0.4,0.9
	c0.1,0.2,0.4,0.6,0.4,0.8c0,0.2-0.2,0.6-0.3,0.8c-0.1,0.4-0.5,1.2-0.6,1.6c-0.1,0.3-0.3,0.9-0.3,1.3c-0.1,0.3-0.1,0.9-0.2,1.2
	c-0.1,0.3-0.4,0.9-0.6,1.2c-0.3,0.5-0.7,1.7-1,2.2c-0.4,0.6-1.5,1.4-2,1.9c-0.5,0.4-1.6,1.3-2.2,1.7c-0.6,0.4-1.9,1-2.4,1.4
	c-0.2,0.1-0.6,0.4-0.7,0.6c-0.3,0.3-0.8,1-1,1.3l0,0c-0.4,0.2-1.2,0.6-1.5,0.8c-0.4,0.2-1.3,0.5-1.7,0.8c-0.3,0.2-0.5,0.9-0.7,1.3
	c-0.2,0.4-0.5,1.4-0.6,1.8c-0.1,0.3-0.1,0.8-0.1,1.1c-0.1,0.3-0.4,0.9-0.4,1.3c0,0.3,0.3,0.8,0.4,1c0,0.1,0.2,0.4,0.1,0.6
	c0,0.1-0.3,0.3-0.4,0.3c-0.2,0-0.6-0.3-0.8-0.4c-0.1,0-0.3,0-0.4,0.1c-0.1,0.1-0.2,0.3-0.3,0.4c-0.2,0.3-0.5,0.9-0.6,1.3
	c-0.2,0.5-0.2,1.7-0.3,2.3c-0.1,0.4-0.2,1.3-0.3,1.7c-0.1,0.5-0.5,1.6-0.7,2.2l0,0c-0.1,0.4-0.2,1.1-0.3,1.4
	c-0.1,0.6-0.1,1.9-0.1,2.5c0,0.3,0.1,1,0.1,1.3c0,0.3-0.3,0.9-0.3,1.3c0,0.3,0.1,1,0.2,1.4c0,0.3,0.1,1,0.1,1.3
	c0,0.3-0.1,0.9-0.2,1.2c-0.1,0.2-0.2,0.5-0.3,0.6c-0.2,0.1-0.8,0-1-0.1c-0.2-0.1-0.5-0.4-0.7-0.4c-0.1,0-0.3,0-0.4,0
	c-0.1,0-0.4,0.1-0.6,0.2c-0.2,0-0.7,0.1-1,0.1c-0.4,0-1.3-0.1-1.7-0.2c-0.2,0-0.6,0-0.8-0.2c-0.2-0.2-0.1-0.7-0.3-0.9
	c-0.2-0.2-0.7-0.2-0.9-0.3c-0.5-0.2-1.4-0.9-1.9-1.1c-0.5-0.2-1.5-0.6-2-0.8c-0.5-0.3-1.5-0.9-2.1-1.2c-0.2-0.1-0.7-0.2-1-0.2
	c-0.5-0.1-1.4-0.1-1.9-0.3c-0.3-0.1-0.9-0.6-1.3-0.7c-0.3-0.1-0.8-0.1-1-0.1c-0.3,0-0.8,0-1,0c-0.3,0-0.9,0.1-1.2,0.3
	c-0.3,0.2-0.9,0.9-1,1.2c-0.2,0.3-0.2,1.1-0.4,1.4c-0.2,0.4-0.8,1.2-1,1.5C12.3,96.5,12,96.8,12,97c-0.1,0.3-0.1,0.9-0.1,1.2
	c0,0.3-0.2,1-0.1,1.3c0,0.2,0.2,0.4,0.3,0.6c0.1,0.3,0,1-0.1,1.3c-0.1,0.3-0.4,0.9-0.6,1.2c-0.2,0.2-0.6,0.6-0.8,0.7
	c-0.2,0.1-0.6-0.1-0.7,0c-0.2,0.1-0.5,0.6-0.7,0.8c-0.2,0.2-0.5,0.4-0.7,0.6l0,0"/>
<path class="st1" d="M6.7,105.6c0,0.2-0.5,0.3-0.6,0.4c-0.2,0.2-0.4,0.6-0.5,0.9c-0.2,0.3-0.7,0.8-0.7,1.2c-0.1,0.2,0.1,0.7,0.1,1
	c0,0.3-0.1,0.9-0.2,1.2c-0.1,0.3-0.5,0.8-0.7,1c-0.1,0.1-0.3,0.3-0.4,0.5c0,0.2,0.3,0.5,0.3,0.7c0.1,0.2,0.1,0.7,0.1,0.9
	c0,0.1,0,0.3-0.1,0.4c-0.1,0.2-0.5,0.4-0.7,0.6c-0.2,0.2-0.5,0.6-0.7,0.8c-0.1,0.1-0.4,0.2-0.5,0.4c-0.1,0.2,0.1,0.6,0.2,0.8l0,0"/>
</svg>
