<?xml version="1.0" encoding="utf-8"?>
<!-- Generator: Adobe Illustrator 25.3.0, SVG Export Plug-In . SVG Version: 6.00 Build 0)  -->
<svg version="1.1" id="Layer_1" xmlns="http://www.w3.org/2000/svg" xmlns:xlink="http://www.w3.org/1999/xlink" x="0px" y="0px"
	 viewBox="0 0 294 600" style="enable-background:new 0 0 294 600;" xml:space="preserve">
<style type="text/css">
	.st0{fill:none;stroke:#4682B4;stroke-width:0.5;stroke-linecap:round;stroke-linejoin:round;}
</style>
<path class="st0" d="M126.6,581.8c0,1.2-3.2,1.6-4.3,1.9c-1.5,0.4-4.7,0.7-6.2,0.8c-2.1,0.2-6.3,0.6-8.4,0.5
	c-2.4-0.1-7.1-0.9-9.5-1.4c-2.6-0.5-7.8-1.6-10.3-2.7c-1.6-0.7-4.7-2.6-6-3.8c-1.4-1.4-3.6-4.8-4.6-6.5c-1.1-1.8-2.9-5.4-3.8-7.3
	c-0.9-2-2.7-6-3.5-8.1c-0.4-1.1-0.6-3.4-1.4-4.3c-1-1.2-4-2.3-5.4-3c-1.9-1-6.4-1.9-7.8-3.5c-0.5-0.6-1.1-2.2-1.1-3
	c0-0.9,1-2.4,1.4-3.2c0.4-1.1,1.3-3.4,1.6-4.6c0.4-1.5,1.2-4.6,1.4-6.2c0.1-0.7,0.3-2.3,0-3c-0.4-1-2.2-2.3-2.7-3.2
	c-0.2-0.4-0.6-1.4-0.5-1.9c0.1-1.1,1.9-2.7,1.9-3.8c0-0.8-1.3-2.2-1.6-3c-0.6-1.2-1.8-3.6-1.9-4.9c-0.1-1.4,1.1-4,1.4-5.4
	c0.3-2,0.7-6.1,0.8-8.1c0.1-1.8,0.3-5.3,0-7c-0.3-1.8-1.9-5.2-2.2-7c-0.3-2,0.4-6.1,0-8.1c-0.3-1.5-2-4.2-2.2-5.7
	c-0.2-1.7,0.4-5.1,0.8-6.8c0.3-1.2,1.5-3.3,1.9-4.5c0.3-0.9,0.5-3,1.2-3.7c0.6-0.6,2.7-0.4,3.2-1.1c0.9-1.1-0.4-4.4,0.3-5.7
	c0.4-0.8,2.6-1.2,2.8-2c0.3-0.9-1.7-2.6-1.5-3.5c0.3-1.5,3.3-3.3,4.6-4.1c2.2-1.3,8-1.6,9.6-3.5c1.5-1.8,1.2-6.8,1.6-9.1l0,0"/>
<path class="st0" d="M7.1,447.6c0-0.9,2.6-0.3,3.5-0.4c1-0.2,3.1-0.6,4.1-0.9c0.9-0.3,2.8-0.9,3.4-1.6c0.4-0.5,0.2-2,0.4-2.6
	c0.2-0.6,0.9-1.8,1.4-2.3c0.4-0.5,1.5-1.2,1.8-1.8c0.3-0.5,0.1-1.8,0.5-2.2c0.7-0.6,2.6-0.1,3.5-0.1c1,0,3,0.1,4.1,0
	c0.9-0.1,2.8-0.1,3.5-0.5c0.6-0.4,1-1.8,1.5-2.3c0.6-0.6,1.9-1.6,2.7-1.9c0.9-0.4,2.7-0.5,3.7-0.7c1-0.2,3.1-0.5,4.1-0.8
	c1.4-0.4,4.1-1.6,5.5-2c1.2-0.4,3.8-1.1,5-1.5c0.8-0.3,2.4-1.2,3.2-1.1c0.4,0.1,0.8,1,1.2,0.9c0.7,0,1.7-1.4,2.2-1.9
	c0.4-0.4,1-1.7,1.6-1.8c0.3-0.1,0.9,0.6,1.2,0.7c0.5,0.1,1.4-0.3,1.9-0.4c1.3-0.3,4-1,5.3-1.5c0.7-0.3,2-0.9,2.7-1.2l0,0"/>
<path class="st0" d="M77,416.6c0-0.7,0.1-2.1,0.1-2.8c0.1-0.9,0.2-2.6,0.5-3.4c0.4-0.9,1.9-2.3,2.2-3.2c0.1-0.3,0.1-0.9,0-1.2
	c-0.1-0.3-0.9-0.6-0.9-0.9c-0.1-0.5,0.6-1.4,0.5-1.9c-0.1-1-1.1-2.7-1.5-3.7c-0.3-0.8-1.3-2.4-1.4-3.2c-0.1-1,0.7-3,0.8-4.1
	c0.1-1.1,0.4-3.3,0.3-4.3c-0.1-0.6-0.6-1.7-0.7-2.3c-0.1-0.5-0.3-1.4-0.1-1.9c0.2-0.7,1.1-1.9,1.6-2.4c0.4-0.4,1.6-0.6,1.9-1.1
	c0.3-0.4-0.1-1.6,0.1-2c0.2-0.5,1.3-1.2,1.5-1.8c0.2-0.6-0.1-2,0.1-2.6c0.2-0.5,1.3-1.2,1.4-1.8c0.2-0.9-0.9-2.7-1.1-3.7
	c-0.2-0.7-0.5-2.2-0.5-3s0.2-2.3,0.5-3c0.4-0.7,2-1.3,2.3-2c0.2-0.4-0.2-1.4,0-1.8c0.3-0.5,1.6-0.6,1.8-1.1c0.3-0.7-0.7-2.4-0.4-3.1
	c0.5-1,3.2-1.4,3.7-2.4c0.2-0.4-0.2-1.4-0.3-1.9l0,0c-0.8-0.6-2.4-2.2-3.4-2.3c-0.5,0-1.4,0.8-1.9,0.8c-0.6,0-1.8-0.1-2.2-0.5
	c-0.4-0.4-0.6-1.8-0.3-2.3c0.2-0.3,1.3-0.2,1.6-0.4c0.6-0.4,1.9-1.7,1.9-2.4c0-0.4-0.6-1.2-0.9-1.5c-0.5-0.3-1.9-0.1-2.4-0.4
	c-0.2-0.2-0.7-0.7-0.7-0.9c0.1-0.8,2.1-1.5,2.4-2.3c0.4-0.8,0-2.7,0-3.7c0-1.5-0.1-4.4,0-5.8c0.1-1.5,0.5-4.5,0.9-6
	c0.3-1.1,1.4-3.1,1.9-4.1c0.4-0.8,1.5-2.1,1.8-3c0.1-0.5,0.3-1.5,0-1.9c-0.5-0.7-2.3-1.2-3.1-1.5c-1-0.4-3.2-1-4.2-1.4
	c-1.2-0.5-3.6-1.4-4.7-2c-1.2-0.6-3.6-2.1-4.6-3c-0.6-0.5-1.5-1.8-2-2.4l0,0"/>
<path class="st0" d="M71.2,299.1c0-2.2-3.5-6-3-8.1c0.5-1.9,5.4-3.1,5.8-5c0.3-1.2-2.1-3.1-2-4.3c0.1-1.4,2.8-3.3,3.2-4.6
	c0.3-1.1-0.3-3.4,0-4.5c0.3-0.9,1.7-2.3,2-3.2c0.4-1.1-0.1-3.5,0.4-4.5c0.2-0.5,1-1.2,1.5-1.4c1-0.4,3.2,0.6,4.2,0.2
	c0.8-0.3,2-1.7,2.6-2.3l0,0c0.6-0.1,2-0.1,2.6-0.4c0.7-0.3,1.7-1.3,2.2-1.9c0.7-0.9,1.5-3,1.6-4.1c0.1-1-0.5-3-0.5-4.1
	c0-1.1,0-3.3,0.3-4.3c0.1-0.4,0.6-1.2,0.8-1.6c0.4-0.7,1.4-2,1.8-2.7c0.4-0.8,1.1-2.4,1.5-3.2c0.5-1.1,1-3.5,1.8-4.5
	c0.5-0.6,2-1.5,2.8-1.8c0.8-0.2,2.3,0.1,3.1,0.1c0.8,0.1,2.5,0,3.2,0.3c0.7,0.2,1.8,1.4,2.6,1.6c1.3,0.4,4.2-0.1,5.5,0.3
	c1.1,0.3,2.9,1.4,3.9,1.9c1.1,0.5,3.4,1.5,4.5,2c1.2,0.6,3.7,1.9,4.9,2.7c0.4,0.3,1.1,1.2,1.6,1.5c1,0.5,3.5,0.5,4.3,1.2
	c0.5,0.4,0.7,1.9,1.2,2.3c0.9,0.7,3.3,0.6,4.5,0.7c1.4,0.2,4.4,0.4,5.8,0.4c1,0,3.3,0.5,4.2,0c0.6-0.3,0.9-2,1.5-2.3
	c0.6-0.3,2,0.3,2.7,0.3c1-0.1,2.9-0.7,3.8-0.9c0.7-0.2,1.9-0.9,2.6-0.9c0.9-0.1,2.5,0.4,3.4,0.5c1,0.2,2.9,0.7,3.9,0.8
	c0.8,0.1,2.4,0.2,3.1-0.1c0.8-0.3,2-1.8,2.7-2.4l0,0c0.8-0.1,2.3-0.2,3.1-0.3c1,0,3,0.2,3.9,0c1-0.2,3.7-1.9,3.7-1.9
	s3.3-2.3,4.3-3.2c1.1-1,2.5-4,3.9-4.2c0.8-0.1,2.1,1.3,2.8,1.5c0.3,0.1,0.9,0.2,1.2,0.1c0.6-0.2,1.2-1.4,1.8-1.5
	c1.2-0.2,3.6,1.3,4.7,1.8c1.1,0.5,3.4,1.4,4.5,2c1,0.6,2.9,2.2,3.9,2.8c1.5,0.9,4.7,2.6,6.5,3c1.4,0.3,4.3-0.2,5.7,0
	c1.3,0.2,3.8,1,5,1.4l0,0"/>
<path class="st0" d="M233.5,242.1c0-1.1-1.8-2.7-2.2-3.8c-0.2-0.7-0.4-2.2-0.3-3c0.2-1.1,0.9-3.5,1.6-4.3c0.6-0.6,2.3-1.1,3-1.6
	c1.8-1.2,4.7-4.4,6.5-5.7c1.3-0.9,4.6-2,5.7-3.2c1.1-1.2,2.2-4.4,2.7-6c0.8-2.4,2-7.3,2.4-9.7c0.3-1.8,0.2-5.5,0.5-7.3
	c0.3-1.8,1.7-5.3,2.2-7c0.9-3,2.4-8.9,3.2-11.9c0.5-1.6,1.7-4.8,1.9-6.5s-0.1-5.1,0-6.8c0.2-2.9,1.3-8.7,1.6-11.6
	c0.6-4.7,1.7-14,2.2-18.7c0.3-2.6,0.8-7.9,1.1-10.6l0,0c-0.1-1.4-0.2-4.3-0.3-5.7c-0.1-0.9-0.4-2.8-0.3-3.8c0.2-1.5,1.4-4.3,1.9-5.7
	c0.5-1.6,1.6-4.7,2.2-6.2c0.7-2.2,2-6.5,2.7-8.7c0.7-2.4,3.1-7,3-9.5c-0.1-1.2-1.5-3.2-1.9-4.3c-0.3-1-1-3-1.1-4.1
	c0-0.9,0.4-2.6,0.5-3.5c0.2-1.2,0.7-3.4,0.8-4.6c0.3-2,0.5-5.9,0.8-7.8c0.3-1.9,1.2-5.7,1.4-7.6c0-0.5-0.2-1.7,0-2.2
	c0.3-0.7,1.5-1.8,1.9-2.4c0.4-0.6,0.9-2,1.1-2.7c0.2-0.9,0.4-2.8,0.5-3.8l0,0c0.1-1.5,0.2-4.5,0.3-6c0.1-0.9,0.1-2.7,0.3-3.5
	c0.3-1.1,1.4-3.2,1.9-4.3c0.4-0.9,1.2-2.9,1.6-3.8c0.5-1.1,1.9-3,2.4-4.1c0.4-0.8,1.2-2.4,1.4-3.2c0.1-0.5-0.2-1.4-0.3-1.9l0,0"/>
</svg>
