<?xml version="1.0" encoding="utf-8"?>
<!-- Generator: Adobe Illustrator 25.3.0, SVG Export Plug-In . SVG Version: 6.00 Build 0)  -->
<svg version="1.1" id="Layer_1" xmlns="http://www.w3.org/2000/svg" xmlns:xlink="http://www.w3.org/1999/xlink" x="0px" y="0px"
	 viewBox="0 0 294 344" style="enable-background:new 0 0 294 344;" xml:space="preserve">
<style type="text/css">
	.st0{fill:none;stroke:#4682B4;stroke-width:0.5;stroke-linecap:round;stroke-linejoin:round;}
</style>
<path class="st0" d="M11.3,8.4c0,1.3,1.5,3.7,2.1,4.9c0.8,1.8,2.5,5.4,3.5,7c1,1.7,3.6,4.7,4.7,6.3c1.3,1.9,3.7,6,4.9,8
	c0.5,0.9,1.3,3.1,2.1,3.8c0.8,0.7,2.9,0.8,3.8,1.4c1.1,0.8,2.6,3.4,3.5,4.5c0.8,0.8,2.4,2.3,3.3,3.1c1.2,1,3.8,2.5,4.9,3.5
	c1.1,1.1,2.8,3.7,3.8,4.9l0,0"/>
<path class="st0" d="M134.7,89c0-1.1-1.4-3.1-2.1-4c-0.5-0.7-2.1-1.8-2.6-2.6c-0.5-0.8-0.8-2.8-0.9-3.8c-0.2-1.4-0.2-4.2-0.2-5.6
	c0-0.9,0-2.6,0-3.5c0-0.9,0-2.7,0.2-3.5c0.2-0.9,1.1-2.7,1.6-3.5c0.6-0.9,2.1-2.5,2.6-3.5c0.5-1,0.9-3.3,0.9-4.5
	c0.1-1.1-0.5-3.4-0.2-4.5c0.2-0.9,1.1-2.5,1.6-3.3c0.5-0.8,1.9-2,2.3-2.8c0.4-0.8,0.9-2.5,1.2-3.3l0,0"/>
<path class="st0" d="M24,335.6c0-1.5-1.4-4.4-1.4-5.9c0-1.3,0.7-3.9,1.2-5.2c0.4-1.2,1.9-3.5,2.3-4.7c0.4-0.9,1.3-2.8,1.2-3.8
	c0-0.3-0.6-0.7-0.7-0.9c-0.3-0.9,0.3-2.8,0.2-3.8c-0.2-1.8-1.3-5.3-1.9-7c-0.4-1-1.7-2.9-1.9-4c-0.3-1.3,0-4.1,0.2-5.4
	c0.2-1.5,1.3-4.4,1.4-5.9c0.1-1.5-0.3-4.6-0.7-6.1c-0.3-1.2-1.6-3.3-1.6-4.5c0-1.2,0.8-3.8,1.6-4.7c0.7-0.8,3.3-0.8,4-1.6
	c0.9-1.1,0.7-4.4,1.4-5.6c0.3-0.6,1.6-1.5,1.9-2.1c0.6-1.2,0.1-4.2,0.7-5.4c0.4-0.9,2.7-1.8,2.8-2.8c0.3-1.7-2.7-4.6-3.1-6.3
	c-0.3-1.4-0.3-4.3,0-5.6c0.3-1.5,1.3-4.5,2.3-5.6c0.6-0.6,2.5-0.9,3.1-1.6c0.6-0.8,0.1-3,0.7-3.8c0.3-0.4,1.6-0.5,1.9-0.9
	c0.6-1-0.5-3.6,0-4.7c0.6-1.4,3.9-2.7,4.7-4c0.5-0.9,1.2-3,0.9-4c-0.2-0.9-1.9-2-2.6-2.6c-0.7-0.6-2.1-2-3.1-2.1
	c-0.8-0.1-2.3,0.9-3.1,1.2l0,0c-1-0.1-3,0.1-4-0.2c-0.6-0.2-1.9-0.8-2.1-1.4c-0.2-0.6,0.6-1.6,0.9-2.1c0.8-1.1,3-2.8,4-3.8
	c0.5-0.5,1.8-1.2,1.9-1.9c0.1-0.9-0.9-2.6-1.6-3.1c-0.6-0.4-2.2,0.2-2.8,0c-0.8-0.3-2.8-1.2-2.8-2.1c0-0.6,1.2-1.3,1.6-1.6
	c0.5-0.4,2-0.6,2.3-1.2c1-1.6,0.4-5.6,0.5-7.5c0.1-2.4,0-7.2,0.2-9.6c0.2-1.7,0.9-4.9,1.2-6.6c0.3-1.7,0.5-5.2,0.9-6.8
	c0.5-1.6,2-4.7,2.8-6.1c0.6-1.1,2.7-2.8,3.1-4c0.2-0.7,0.3-2.2,0-2.8c-0.7-1.2-3.4-2.5-4.7-3.1c-2.1-0.9-6.7-1.5-8.9-2.1
	c-1.5-0.4-4.5-1.2-5.9-1.9c-2.1-1.1-5.6-4.4-7.5-5.6c-1.3-0.8-4.1-2.3-5.4-3.1l0,0c0.1-1.3,0.4-3.9,0.2-5.2c-0.2-1.1-1-3.2-1.4-4.2
	c-0.3-0.7-1.4-2-1.4-2.8c0-1,1.4-2.8,1.6-3.8c0.2-1,0.4-3.3,0-4.2c-0.3-0.6-2.1-1.2-2.1-1.9c0-1,2.5-1.9,3.3-2.6
	c1.3-1.1,3.7-3.6,4.7-4.9c0.4-0.5,1.3-1.7,1.4-2.3c0.1-0.6-0.3-2-0.5-2.6c-0.1-0.4-0.6-1.2-0.7-1.6c-0.2-0.8-0.6-2.5-0.5-3.3
	c0.3-1.4,2.4-3.7,3.1-4.9c0.6-1.1,1.8-3.3,2.1-4.5c0.3-1.3-0.2-3.9,0-5.2c0.1-0.9,0.8-2.7,1.2-3.5c0.4-0.9,1.8-2.4,2.1-3.3
	c0.4-0.9,0.5-3,0.7-4c0.2-1,0.6-3.1,1.2-4c0.2-0.3,0.8-0.8,1.2-0.9c1.3-0.5,4.2-0.2,5.6-0.5c0.9-0.2,2.7-0.5,3.5-0.9
	c1.2-0.7,2.6-3.1,3.8-3.8c1-0.5,3.4-0.6,4.5-0.9c0.6-0.2,1.9-0.7,2.3-1.2c1-1.1,2-4,2.3-5.4c0.6-2.1,0.8-6.5,0.9-8.7
	c0.1-1.5,0.2-4.6,0.2-6.1c0-1.4-0.5-4.3,0-5.6c0.4-1,2.2-2.3,2.8-3.1c0.5-0.6,1.6-1.8,1.9-2.6c0.3-0.9,0.4-2.8,0.5-3.8
	c0.1-1.1-0.2-3.4,0-4.5c0.1-0.6,0.6-1.7,0.9-2.1c0.5-0.6,2.1-1.5,2.8-1.9c0.4-0.2,1.2-0.4,1.6-0.5l0,0c0.9-0.5,2.8-1.5,3.8-1.9
	c1.2-0.4,3.7-1.3,4.9-1.2c0.7,0.1,1.7,1,2.3,1.2c0.8,0.1,2.3-0.4,3.1-0.2c0.8,0.1,2.3,1,3.1,1.4c0.8,0.4,2.4,1.5,3.3,1.9
	c0.7,0.3,2.3,0.6,3.1,0.7c1.1,0.1,3.4-0.1,4.5,0c1.1,0.1,3.2,0.6,4.2,0.9c1.8,0.6,5.2,2,6.8,2.8c1.2,0.6,3.5,2.1,4.7,2.8
	c1.4,0.8,4.2,2.3,5.6,3.1c1.7,0.9,5.3,2.7,7,3.5c1.3,0.6,3.9,1.5,5.2,2.1c0.5,0.3,1.5,0.8,1.9,1.2c0.8,0.8,1.8,3,2.8,3.5
	c1.1,0.6,3.7,0.4,4.9,0.5c2.2,0.1,6.7,0,8.9,0l0,0c1,0,3-0.2,4,0c0.4,0.1,1,0.6,1.4,0.7c1.1,0.4,3.6,1.2,4.7,0.7
	c1-0.5,1.3-3,2.1-3.8c0.5-0.5,1.9-1.3,2.6-1.4c0.9-0.2,2.6,0.5,3.5,0.5c0.8,0,2.5-0.5,3.3-0.7c1.3-0.4,3.8-1.9,5.2-2.1
	c0.7-0.1,2.1,0.1,2.8,0.2c1.5,0.2,4.4,1.1,5.9,1.4c1.6,0.4,4.9,1.2,6.6,1.4c1,0.1,3.1,0.4,4,0c0.8-0.3,1.9-1.8,2.6-2.3
	c0.5-0.5,1.5-1.5,2.1-1.9c0.7-0.4,2.2-1,3.1-1.2c1.3-0.2,4.1,0.1,5.4,0c1.2-0.1,3.5-0.4,4.7-0.7c1.3-0.3,3.9-1.3,5.2-1.9
	c1.4-0.7,4.1-2.5,5.4-3.5c1.3-1,3.6-3.1,4.7-4.2c1.3-1.3,3.2-5,4.9-5.4c0.8-0.2,2.3,0.8,3.1,1.2c0.7,0.3,1.8,1.4,2.6,1.4
	c0.9,0,2.2-1.4,3.1-1.6c0.7-0.2,2.1-0.3,2.8-0.2c1.9,0.2,5.5,1.9,7.3,2.6l0,0c1.2,0.5,3.7,1.5,4.9,2.1c0.7,0.3,2.2,0.9,2.8,1.4
	c1.1,0.8,2.5,3.2,3.5,4c1.5,1.1,4.9,2.3,6.6,3.1c1.4,0.6,4.2,2.1,5.6,2.6c1.9,0.6,5.8,1.2,7.8,1.4c1.2,0.1,3.7-0.1,4.9,0
	c1.8,0.1,5.3,0.9,7,1.2l0,0"/>
</svg>
