<?xml version="1.0" encoding="utf-8"?>
<!-- Generator: Adobe Illustrator 25.3.0, SVG Export Plug-In . SVG Version: 6.00 Build 0)  -->
<svg version="1.1" id="Layer_1" xmlns="http://www.w3.org/2000/svg" xmlns:xlink="http://www.w3.org/1999/xlink" x="0px" y="0px"
	 viewBox="0 0 176 310" style="enable-background:new 0 0 176 310;" xml:space="preserve">
<style type="text/css">
	.st0{fill:none;stroke:#4682B4;stroke-width:0.5;stroke-linecap:round;stroke-linejoin:round;}
</style>
<path class="st0" d="M92.2,293.9c0,0.4-0.9,0.7-1.2,1c-0.5,0.4-1.6,1.4-2.2,1.8c-0.6,0.4-1.8,0.9-2.4,1.2c-0.2,0.1-0.6,0.4-0.8,0.5
	c-0.8,0.3-2.6,0.2-3.5,0.2c-0.6,0-1.9-0.3-2.4,0c-0.4,0.2-0.7,1.2-1.1,1.5c-0.3,0.2-1.1,0.4-1.5,0.5c-0.7,0.1-2.1,0-2.8,0
	c-0.2,0-0.6,0.1-0.8,0c-0.3-0.1-0.8-0.7-1.1-0.8c-0.4-0.1-1.3-0.1-1.7-0.1c-0.5,0-1.4,0-1.9,0.1c-0.2,0.1-0.5,0.3-0.7,0.4
	c-0.3,0.1-0.9,0.4-1.2,0.5c-0.8,0.2-2.5,0-3.3,0c0,0-0.1,0-0.1,0c-0.3,0.2-0.6,0.9-0.8,1.2c-0.1,0.1-0.1,0.5-0.3,0.6
	c-0.7,0.4-2.4-0.5-3.2-0.5c-0.8,0-2.2,0.3-3,0.4c-0.6,0.1-1.9,0.2-2.6,0.1c-0.4-0.1-1.3-0.4-1.7-0.7c-0.3-0.2-1-0.7-1.1-1.1
	c-0.1-0.3,0-1.1,0.1-1.5c0.1-0.3,0.6-0.7,0.8-0.9c0.3-0.3,1.2-0.6,1.5-0.9c0.2-0.2,0.4-0.7,0.5-1c0.1-0.5-0.2-1.6-0.2-2.1
	c0-0.5,0-1.5,0.2-2c0.2-0.4,1.2-0.9,1.4-1.3c0.2-0.5,0.2-1.6,0.2-2.2c0-0.5-0.2-1.3-0.3-1.8c-0.1-0.3-0.3-1-0.3-1.4
	c0-0.7,0-2.1,0.2-2.8c0.1-0.4,0.7-1,0.9-1.4c0.1-0.3,0.3-0.8,0.4-1.1c0.1-0.5,0.1-1.6,0.3-2.1c0.2-0.5,0.8-1.3,1.1-1.7
	c0.4-0.6,1.1-1.9,1.5-2.6c0.1-0.2,0.5-0.6,0.6-0.9c0.1-0.3,0.2-0.9,0.3-1.2l0,0c0.2-0.7,0.7-2.1,0.7-2.9c0-0.7-0.1-2.1-0.4-2.7
	c-0.2-0.4-1.1-0.7-1.3-1.1c-0.3-0.6,0.1-1.9,0.1-2.5c0-0.7-0.1-2-0.3-2.7c-0.1-0.5-0.5-1.6-0.8-2.1c-0.3-0.5-1-1.5-1.4-1.9
	c-0.3-0.3-1.1-0.7-1.3-1.1c-0.3-0.4-0.4-1.5-0.5-2c-0.1-0.4-0.3-1.2-0.5-1.6c-0.2-0.3-0.6-0.9-0.8-1.2c-0.4-0.5-1.4-1.4-1.7-2
	c-0.3-0.5-0.7-1.7-0.9-2.3c-0.1-0.4-0.5-1-0.6-1.4c-0.1-0.4,0.1-1.1,0.1-1.5l0,0"/>
<path class="st0" d="M171.6,7.5c0,0.7-1.6,1.5-2.2,2c-0.6,0.5-1.8,1.5-2.4,2c-0.6,0.5-2.1,1.2-2.6,1.8c-0.7,0.8-1.2,2.9-1.8,3.8
	c-0.3,0.4-1.1,1.1-1.6,1.4c-0.6,0.4-1.9,0.7-2.6,1c-0.8,0.3-2.5,0.9-3.2,1.4c-0.6,0.4-1.7,1.6-2.2,2.2c-0.8,1.2-1.8,3.9-2.4,5.2
	c-0.2,0.5-0.3,1.9-0.8,2.2c-0.3,0.2-1.3-0.3-1.6,0c-0.9,0.8-0.3,3.6-0.4,4.8c-0.1,1.1-0.2,3.4-0.4,4.6c-0.1,0.9-0.4,2.6-0.8,3.4
	c-0.4,0.6-1.6,1.5-2.2,2c-0.9,0.8-3,2-4,2.8c-1.3,1-3.6,3.3-4.8,4.4c-0.9,0.9-2.7,2.7-3.6,3.6c-1.2,1.2-3.8,3.5-5,4.8
	c-1.1,1.2-3.4,3.5-4.4,4.8c-0.7,0.9-1.7,2.9-2.2,4c-0.9,1.9-2.1,5.9-3,7.7c-0.8,1.8-2.9,5.3-3.8,7.2c-0.8,1.7-1.9,5.2-2.8,6.8
	c-0.6,1.1-2.1,3-2.8,4c-0.8,1.1-2.2,3.4-3,4.6l0,0c-0.3,0.8-1,2.5-1.4,3.4c-0.2,0.5-0.7,1.5-1,2c-0.5,0.8-1.8,2.2-2.4,3
	c-0.9,1.2-2.6,3.5-3.4,4.8c-0.5,0.8-1.3,2.5-1.6,3.4c-0.3,1-1,3.1-0.8,4.2c0.1,0.6,0.9,1.5,1.2,2c0.3,0.5,0.9,1.6,0.8,2.2
	c0,0.4-0.5,1.1-0.8,1.2c-0.5,0.2-1.5-0.4-2-0.4c-0.7,0-2,0.2-2.6,0.4c-0.6,0.2-1.6,1-2,1.4c-0.7,0.6-1.6,2.3-2.2,3
	c-0.7,0.8-2.1,2.2-2.8,3c-1.1,1.2-3.5,3.4-4.6,4.6c-1,1.1-2.9,3.3-4,4.4c-0.8,0.8-2.3,2.3-3.2,3c-0.5,0.4-1.7,1.2-2.2,1.6
	c-0.3,0.3-0.9,0.9-1.2,1.2c-0.2,0.3-0.5,0.9-0.6,1.2c-0.1,0.5,0.7,1.7,0.4,2.2c-0.5,0.8-2.7,0.7-3.6,1c-0.7,0.2-2.6,1-2.6,1
	s-1.4,0.5-1.8,0.8c-0.5,0.4-1.2,1.3-1.6,1.8l0,0"/>
<path class="st0" d="M23.4,167c0-0.5,1.3-0.5,1.8-0.6c0.8-0.1,2.3,0.1,3.1,0.1c0.6,0,1.9,0,2.5,0c0.7,0,2.2,0,2.9,0
	c0.6,0,1.9,0.2,2.6,0.2c0.7,0,2.2,0,3,0c0.4,0,1.3,0.1,1.7,0c0.5-0.1,1.5-0.6,2.1-0.7c0.7-0.1,2.2-0.1,3,0c0.5,0.1,1.5,0.6,2,0.7
	c0.8,0.1,2.3,0,3.1,0c0.2,0,0.8,0.1,1,0c0.3-0.1,0.7-0.7,1-0.8c0.3-0.1,1-0.2,1.3-0.2c0.3,0,1,0,1.3,0.1c0.3,0.1,0.7,0.6,0.9,0.8
	l0,0"/>
<path class="st0" d="M63.5,174.1c0-0.4-1.2-0.5-1.6-0.6c-0.4-0.2-1.3-0.6-1.8-0.6c-0.3,0-0.9,0.4-1.2,0.4c-0.3,0-0.8-0.1-1-0.3
	c-0.2-0.3-0.2-1-0.1-1.4c0-0.3,0.2-0.8,0.4-1c0.2-0.2,0.9-0.4,1.1-0.6c0.1-0.1,0.3-0.5,0.3-0.7c0-0.3,0-0.9-0.2-1.1
	c-0.3-0.3-1.3-0.4-1.6-0.7c-0.1-0.2-0.3-0.6-0.3-0.8c0-0.4,0.4-1.3,0.5-1.7c0-0.3,0-1,0-1.4c0-0.5-0.1-1.4-0.1-1.9c0-0.3,0-1,0-1.3
	l0,0"/>
<path class="st0" d="M19.2,170.2c0,0.6,0,1.7-0.1,2.3c0,0.3-0.2,0.9-0.2,1.2c-0.1,0.7-0.3,2.2-0.3,2.9c0,0.3-0.1,1,0,1.3
	c0.1,0.6,0.5,1.7,0.9,2.1c0.2,0.2,0.6,0.2,0.8,0.4c0.4,0.4,0.8,1.4,0.9,1.9c0.1,0.5-0.6,1.5-0.5,2c0.1,0.4,0.7,0.9,1,1.2
	c0.5,0.4,1.4,1.4,2,1.6c0.6,0.2,1.8,0.3,2.4,0.2c0.4,0,1.3-0.3,1.7-0.5c1-0.4,2.7-1.6,3.6-2.1c0.6-0.4,1.8-1.3,2.5-1.4
	c0.7-0.1,2.2,0,2.8,0.4c0.5,0.4,0.6,1.6,0.8,2.2c0.1,0.4,0.3,1.1,0.4,1.5c0.2,0.7,1,1.9,1.2,2.6c0.1,0.3,0,1,0,1.4
	c0,0.5-0.1,1.4-0.1,1.9c0,0.4,0.1,1.2,0.4,1.5c0.4,0.3,1.6,0.3,2.1,0.3c0.5,0,1.3-0.4,1.8-0.4c0.5,0,1.4,0.5,1.9,0.6
	c0.9,0.2,2.6,0.6,3.5,0.8c0.7,0.1,2,0.3,2.7,0.4l0,0c0.6,0.2,1.7,0.6,2.3,0.8c0.6,0.2,1.9,0.7,2.6,0.9c0.6,0.2,1.7,0.3,2.3,0.5
	c0.2,0.1,0.7,0.3,0.9,0.5c0.4,0.4,0.9,1.4,1,1.9c0.1,0.8-0.4,2.5-0.5,3.4c-0.1,0.8-0.3,2.5-0.4,3.3c-0.1,0.9-0.5,2.6-0.7,3.5
	c-0.1,0.5-0.4,1.6-0.5,2.1c-0.1,0.7,0,2.2-0.1,3c-0.1,0.5-0.4,1.4-0.6,1.9c-0.3,0.7-1,2.2-1.5,2.8c-0.3,0.3-1.1,0.8-1.3,1.2
	c-0.1,0.3,0,0.8,0.1,1.1c0.1,0.5,0.7,1.2,0.8,1.7c0.2,0.6,0.4,1.9,0.4,2.5c0,0.6-0.5,1.9-0.5,2.5c0,1.2,0.8,3.6,0.8,4.8
	c0,0.3-0.2,0.9-0.3,1.2c-0.2,0.5-0.5,1.5-0.9,1.9c-0.2,0.2-1.1,0.1-1,0.4s1.1-0.1,1-0.4c-0.1-0.4-1.3,0.1-1.6,0.3
	c-0.5,0.5-0.7,2-1,2.6c-0.3,0.6-1,1.7-1.4,2.2c-0.2,0.2-0.6,0.5-0.8,0.6c-0.9,0.3-2.7-0.1-3.6-0.2c-0.6-0.1-1.8-0.5-2.4-0.6
	c-0.9-0.1-2.7,0-3.6,0c-0.8,0-2.4-0.1-3.2,0.2c-0.3,0.1-1,0.5-1.2,0.8c-0.3,0.4-0.7,1.5-0.8,2c0,0.3,0.2,1,0.2,1.4
	c0,0.4-0.1,1.2-0.4,1.4c-0.3,0.2-1.2-0.1-1.4,0.2c-0.2,0.3,0.4,1.1,0.6,1.4c0.2,0.3,1.1,0.5,1.2,0.8c0.1,0.3-0.4,1-0.4,1.4
	c0,0.4,0.4,1,0.4,1.4c0,0.2-0.1,0.5-0.2,0.6c-0.2,0.2-0.9,0.3-1.2,0.4c-0.2,0.1-0.7,0.1-1,0.2c-0.6,0.2-1.6,0.6-2.2,0.8
	c-0.5,0.2-1.5,0.6-2,0.8c-0.5,0.1-1.5,0.4-2,0.4c-0.7-0.1-2.1-0.8-2.8-1c-1-0.3-3-0.6-4-0.8c-1.1-0.2-3.3-0.7-4.4-0.6
	c-0.7,0.1-2,0.5-2.6,0.8c-0.4,0.2-1.2,0.9-1.6,1.2c-0.5,0.4-1.7,0.9-2.2,1.4c-0.5,0.5-1.2,1.6-1.6,2.2c-0.4,0.5-1.2,1.6-1.4,2.2
	c-0.3,0.7-0.4,2.2-0.4,3c0,1.1,0.3,3.4,0.4,4.6c0,0.7,0,2.1,0,2.8c0,1.1,0.2,3.3,0,4.4c-0.2,0.9-1,2.5-1.2,3.4
	c-0.1,0.5-0.2,1.7-0.4,2.2c-0.1,0.4-0.6,1.2-0.8,1.6l0,0"/>
</svg>
