<?xml version="1.0" encoding="utf-8"?>
<!-- Generator: Adobe Illustrator 25.3.0, SVG Export Plug-In . SVG Version: 6.00 Build 0)  -->
<svg version="1.1" id="Layer_1" xmlns="http://www.w3.org/2000/svg" xmlns:xlink="http://www.w3.org/1999/xlink" x="0px" y="0px"
	 viewBox="0 0 241 131" style="enable-background:new 0 0 241 131;" xml:space="preserve">
<style type="text/css">
	.st0{fill:none;stroke:#E42A29;stroke-width:0.7;stroke-linecap:round;stroke-linejoin:round;}
	.st1{fill:none;stroke:#A54D9D;stroke-width:0.7;stroke-linecap:round;stroke-linejoin:round;}
</style>
<path class="st0" d="M175.6,18.3c0,1,2.4,1.7,3.2,2.4c1,0.8,2.8,2.5,3.7,3.3c1.2,1,3.9,2.8,5.2,3.7c1.1,0.8,3.1,2.7,4.3,3.5
	c1.7,1.1,5.4,2.9,7.2,3.9c1.5,0.9,4.4,2.8,5.9,3.7c1.7,1.1,5.2,3.2,7,4.2c1.3,0.7,4.1,1.9,5.4,2.6c1.2,0.7,3.3,2.3,4.5,2.9
	c1.2,0.6,3.7,1.6,5,2.1c1.2,0.5,3.6,1.7,4.8,2.3c0.8,0.4,2.5,1.3,3.3,1.7l0,0"/>
<path class="st0" d="M6,127.6c0-0.9,0.8-2.7,1.1-3.6c0.4-1.2,1.4-3.6,1.8-4.8c0.5-1.5,1.2-4.6,1.6-6.1c0.4-1.6,1.4-4.7,1.8-6.3
	c0.3-1.3,0.8-3.9,1.2-5.1c0.4-1,1.4-2.7,1.9-3.6c0.6-1.1,1.7-3.4,2.3-4.5c0.7-1.3,2.2-3.9,2.9-5.2c0.8-1.6,2.4-4.9,3-6.5
	c0.8-1.8,2-5.6,2.7-7.4l0,0c0.3-0.6,1.1-1.7,1.4-2.4c0.2-0.6,0.2-2,0.3-2.6c0.2-1,0.7-3,1-3.9c0.4-1.3,1.4-3.7,1.8-5
	c0.4-1.1,1.1-3.4,1.5-4.5c0.5-1.5,1.6-4.5,2.1-6c0.6-1.6,1.9-4.8,2.6-6.4c0.3-0.6,0.8-1.9,1.1-2.5c0.7-1.2,2.2-3.5,2.9-4.6
	c0.6-1,1.8-3,2.5-3.9c0.6-0.9,2.2-2.6,2.6-3.6c0.3-1,0-3.2,0.1-4.3c0.1-1.1,0.5-3.4,0.6-4.5c0.1-0.9-0.2-2.7,0.1-3.5
	c0.3-0.7,1.4-1.8,1.9-2.4c0.7-0.9,2.1-2.5,2.8-3.4l0,0c0.6-0.7,1.6-2.5,2.5-2.9c0.9-0.4,2.9-0.3,3.8-0.3c1.3-0.1,3.9-0.2,5.2-0.2
	c2,0,6,0.2,8,0.1c1.1-0.1,3.4-0.4,4.5-0.6c1.3-0.2,3.8-0.5,5.1-0.7c1.6-0.2,4.8-0.5,6.4-0.7C89.2,5.4,93,5.2,94.9,5
	c1.9-0.2,5.8-0.6,7.8-0.8c1.6-0.2,4.8-0.7,6.4-0.8c1.4-0.1,4.2,0,5.6,0c0.9,0,2.7,0.1,3.6,0.2c1.1,0.1,3.3,0.7,4.4,0.9
	c1.8,0.3,5.5,0.8,7.3,1.1c1.6,0.3,4.9,1.1,6.5,1.5c1.7,0.3,5.4,0.5,7,1.2c0.7,0.3,1.8,1.5,2.5,1.9c1.1,0.8,3.5,2.3,4.7,2.8
	c0.9,0.4,3,0.7,3.9,0.9c1.3,0.3,4,0.7,5.3,0.9c1.5,0.3,4.5,0.9,6,1.2l0,0"/>
<path class="st1" d="M178.6,98c0,1-3,0-3.9,0c-0.8,0-2.5,0.3-3.4,0.2c-0.4,0-1.3-0.3-1.7-0.5c-0.8-0.3-2.3-1.1-2.9-1.6
	c-0.6-0.4-1.6-1.4-2-1.9c-0.5-0.7-1.1-2.2-1.6-2.9c-0.4-0.6-1.1-1.8-1.7-2.3c-0.7-0.6-2.5-1-3.2-1.6c-0.8-0.7-1.6-2.7-2.3-3.5
	c-0.5-0.6-1.7-1.8-2.4-2.3c-0.2-0.1-0.7-0.3-0.9-0.5c-0.3-0.3-0.3-1.2-0.6-1.5c-0.4-0.4-1.7-0.4-2.3-0.6c-0.3-0.1-1.1-0.3-1.4-0.6
	c-0.5-0.5-1.1-1.8-1.5-2.4c-0.5-0.6-1.3-2-2-2.4c-0.7-0.4-2.4-0.4-3.2-0.5c-0.8-0.1-2.5-0.3-3.4-0.3c-1,0-3,0-3.9,0.1
	c-0.8,0.1-2.2,0.5-2.9,0.9c-0.4,0.2-1,1.1-1.5,1.1c-0.5,0.1-1.5-0.6-2-0.8c-0.5-0.2-1.5-0.3-1.9-0.6c-0.9-0.6-1.8-2.6-2.5-3.5
	c-1-1.3-3-3.9-3.9-5.2c-1.1-1.5-3-4.8-4.2-6.2c-0.7-0.8-2.2-2.2-2.9-2.9l0,0c-1.1-0.8-3.3-2.5-4.4-3.3c-1-0.7-3-2.1-3.9-2.8
	c-1-0.7-3.1-2-3.9-2.9c-0.5-0.5-1-1.8-1.4-2.4c-0.3-0.4-0.9-1.3-1.2-1.6c-0.5-0.4-1.8-1-2.5-1.2c-0.3-0.1-0.8-0.4-1.1-0.5
	c-1-0.3-3.1-0.8-4.2-0.9c-0.4,0-1.2,0-1.6,0c-0.8,0.1-2.4,0.6-3.2,0.8c-1.4,0.3-4.3,0.7-5.6,1.1c-1,0.3-3,1.2-3.9,1.6
	c-1.7,0.6-5,1.9-6.7,2.5c-1.2,0.4-3.6,1.3-4.8,1.7c-0.8,0.2-2.3,0.6-3,0.9c-0.6,0.2-1.6,0.8-2.1,1.1c-0.3,0.2-0.9,0.6-1.1,0.8
	c-0.4,0.4-1.2,1.4-1.7,1.6c-0.6,0.3-2,0-2.6,0.1c-0.9,0.1-2.6,0.7-3.5,0.9c-1.1,0.2-3.3,0.5-4.4,0.7c-1.3,0.3-3.9,0.5-5,1.2
	c-0.4,0.2-0.9,1-1,1.4c-0.3,0.7-0.3,2.2-0.3,2.9c-0.1,0.9-0.3,2.8-0.3,3.7c-0.1,1,0.2,3-0.1,3.9c-0.2,0.6-1.2,1.6-1.6,2.1
	c-0.7,0.9-2.1,2.8-2.8,3.7l0,0c-0.2,0.4-0.6,1.3-0.9,1.7c-0.5,0.8-1.7,2.4-2.3,3.2c-0.6,0.9-2,2.6-2.6,3.5c-0.3,0.4-0.9,1.4-1.2,1.8
	c-0.3,0.3-0.8,0.9-1.1,1.1c-0.4,0.4-1.3,1.2-1.8,1.6c-0.4,0.3-1.1,0.9-1.5,1.1c-0.4,0.3-1.4,0.6-1.7,1c-0.3,0.3-0.6,1.3-0.8,1.7
	c-0.4,0.8-1.3,2.3-1.7,3c-0.5,0.9-1.5,2.7-1.9,3.6c-0.4,0.8-1.2,2.5-1.6,3.4c-0.2,0.4-0.7,1.2-0.9,1.7c-0.4,0.9-0.9,2.8-1.1,3.7
	c-0.2,0.9-0.6,2.7-0.9,3.6c-0.3,1.1-1.2,3.1-1.5,4.2c-0.2,0.7-0.6,2.3-0.7,3c-0.1,0.5-0.1,1.6-0.1,2.1c0,0.5,0.2,1.6,0.1,2.1
	c-0.1,0.5-0.4,1.4-0.6,1.9l0,0"/>
</svg>
