<?xml version="1.0" encoding="utf-8"?>
<!-- Generator: Adobe Illustrator 25.3.0, SVG Export Plug-In . SVG Version: 6.00 Build 0)  -->
<svg version="1.1" id="Layer_1" xmlns="http://www.w3.org/2000/svg" xmlns:xlink="http://www.w3.org/1999/xlink" x="0px" y="0px"
	 viewBox="0 0 96 212" style="enable-background:new 0 0 96 212;" xml:space="preserve">
<style type="text/css">
	.st0{fill:none;stroke:#4682B4;stroke-width:0.5;stroke-linecap:round;stroke-linejoin:round;}
</style>
<path class="st0" d="M84.9,5.3c0,0.6-0.1,1.7-0.2,2.3c-0.1,0.4-0.1,1.3-0.3,1.6c-0.1,0.3-0.7,0.5-0.8,0.8c-0.1,0.2,0.1,0.7,0.2,1
	c0.1,0.4,0.3,1.3,0.2,1.8c-0.1,0.4-0.6,1.1-0.8,1.5c-0.2,0.2-0.6,0.6-0.8,0.8c-0.2,0.2-0.8,0.5-1,0.8c-0.2,0.4-0.1,1.2,0,1.6
	c0.1,0.4,0.6,1.1,0.8,1.5c0.1,0.2,0.6,0.6,0.6,0.8c0.1,0.4-0.5,1.2-0.6,1.6c-0.1,0.3-0.3,0.8-0.3,1.1c0,0.4,0.1,1.3,0.3,1.6
	c0.3,0.5,1.2,1.3,1.6,1.6c0.4,0.3,1.2,0.9,1.6,1.1c0.5,0.3,1.7,0.8,2.3,1c0.6,0.2,1.7,0.2,2.3,0.3c0.4,0.1,1.1,0.4,1.5,0.6
	c0.5,0.3,1.6,1,1.9,1.5c0.1,0.1,0.2,0.4,0.2,0.5c0,0.3-0.5,0.6-0.6,0.8c-0.4,0.3-1.4,0.7-1.6,1.1c-0.3,0.5-0.2,1.7-0.3,2.3
	c-0.1,0.7-0.4,2.2-0.5,2.9c-0.1,0.8-0.1,2.3-0.2,3.1c-0.1,0.4-0.4,1.1-0.3,1.5c0,0.3,0.7,0.8,0.6,1.1c-0.1,0.3-0.8,0.3-1,0.5
	c-0.3,0.3-0.9,0.9-0.8,1.3c0,0.3,0.6,0.5,0.8,0.6c0.2,0.2,0.8,0.4,1,0.6c0.1,0.2,0.1,0.6,0,0.8c-0.2,0.3-1.2,0.3-1.5,0.6
	c-0.3,0.5-0.4,2,0,2.4c0.2,0.3,1.1,0.4,1.5,0.3c0.2,0,0.3-0.4,0.5-0.5c0.2-0.1,0.7-0.1,1,0c0.3,0.1,0.9,0.4,1.1,0.6
	c0.3,0.4,0.8,1.5,0.6,1.9c-0.1,0.4-1.2,0.6-1.5,1c-0.3,0.4-0.6,1.4-0.8,1.8c-0.2,0.4-0.9,1.2-1.1,1.6c-0.3,0.5-1,1.5-1.1,2.1
	c-0.1,0.5,0,1.5,0,1.9s-0.1,1.5,0,1.9c0.1,0.6,1,1.7,1,2.3c0,0.5-0.7,1.4-1,1.8c-0.3,0.4-1.1,1.1-1.5,1.5c-0.6,0.5-2.3,1.1-2.8,1.8
	c-0.3,0.4-0.2,1.5-0.2,1.9c0,0.8,0.5,2.3,0.6,3.1c0.2,0.8,0.8,2.4,1,3.2c0.3,1.1,0.4,3.3,0.8,4.4c0.2,0.5,0.7,1.3,1,1.8l0,0
	c-0.4,0.4-1.2,1.3-1.5,1.8c-0.3,0.5-0.6,1.7-0.6,2.3c0,0.4,0.1,1.3,0.2,1.8s0.4,1.4,0.2,1.8c-0.3,0.5-1.7,0.8-2.3,1
	c-0.7,0.2-2.1,0.5-2.8,0.6c-0.4,0.1-1.3,0.5-1.8,0.5c-0.3,0-0.9-0.2-1.1-0.2c-0.4,0.1-1,0.6-1.3,0.8c-0.5,0.3-1.4,0.8-1.9,1
	c-0.4,0.1-1.1,0.2-1.5,0.3c-0.6,0.2-1.8,0.6-2.4,0.8c-1.4,0.4-4.1,1.2-5.5,1.5c-0.6,0.1-2,0-2.6,0.2c-0.5,0.1-1.5,0.6-1.9,1
	c-0.6,0.5-1.1,2-1.8,2.4c-0.5,0.3-1.8,0.3-2.4,0.3c-0.8,0-2.5-0.5-3.2-0.3c-0.3,0.1-0.9,0.5-1.1,0.8c-0.4,0.5-0.8,2.4-0.8,2.4
	l-1,2.8c0,0-1.5,2.4-2.1,3.1c-0.6,0.7-1.8,2.2-2.6,2.8c-1.3,1-4.3,2.4-5.7,3.2c-1.1,0.7-3.3,2.1-4.4,2.9c-1,0.7-2.8,2.5-3.9,3.1
	c-1.1,0.5-3.6,0.8-4.8,1.1s-3.6,0.8-4.8,1.1c-1.2,0.3-3.5,1.4-4.7,1.6c-1.1,0.2-3.5-0.1-4.6-0.2S10.1,127,9,127
	c-1.7,0.1-5.1,0.5-6.8,0.6l0,0"/>
<path class="st0" d="M43.8,90.6l1.3,3.6l1.6,1.8l2.4,1.5l1.3,1.3l0.5,1.3c0,0,1.6,0.1,1.9,0.5s0.4,1.5,0.5,1.9l0,0"/>
<path class="st0" d="M8.3,106.3l3.4-1.6l3.7-1c0,0,2.6-1.1,3.6-1.3c0.9-0.2,2.8-0.4,3.7-0.6c0.7-0.2,2.1-0.7,2.8-1
	c0.6-0.3,1.9-0.7,2.4-1.1c0.4-0.3,0.9-1.2,1.3-1.5c0.3-0.3,1-0.8,1.5-0.8c0.5-0.1,1.5,0.4,1.9,0.5c1,0.2,2.9,0.6,3.9,0.8
	c1.1,0.2,3.3,0.7,4.4,1c0.6,0.1,1.7,0.6,2.3,0.6c1,0.1,3.9,0,3.9,0h2.1l1.5-0.3l0,0"/>
<path class="st0" d="M31,53.7c0,0.6,0,1.8,0,2.4c0,0.9,0.1,2.6,0.2,3.4c0.1,0.9,0.7,2.8,0.6,3.7c0,0.6-0.4,1.8-0.6,2.3
	c-0.3,0.5-1.2,1.2-1.5,1.6c-0.2,0.3-0.4,0.8-0.5,1.1c-0.2,0.7-0.5,2.2-0.5,2.9c0,0.6,0.3,1.7,0.2,2.3c-0.2,0.8-1.4,2-1.8,2.8
	c-0.4,0.7-1.1,2.3-1.3,3.1c-0.1,0.5-0.1,1.5-0.3,1.9c-0.2,0.4-0.8,1-1,1.5c-0.2,0.5-0.1,1.5-0.2,1.9c-0.1,0.3-0.3,1-0.5,1.3
	c-0.6,1.1-2.4,2.9-3.1,3.9c-0.3,0.5-1.2,1.5-1.1,2.1c0,0.4,0.7,0.9,1,1.1c0.4,0.3,1.2,0.9,1.6,1.1c0.4,0.2,1.3,0.6,1.8,0.8
	c0.7,0.3,2.1,0.6,2.8,0.8c0.2,0.1,0.7,0.2,1,0.3c0.7,0.3,1.9,0.8,2.6,1.1l0,0"/>
<path class="st0" d="M15,145.5c0,0.9,1.2,2.5,1.8,3.2c0.6,0.8,2.1,2.5,3.1,2.9c0.9,0.3,2.9-0.4,3.7,0c0.4,0.2,0.8,0.9,1,1.3
	c0.2,0.5,0.3,1.6,0.5,2.1c0.4,0.9,1.6,2.5,2.3,3.2c0.7,0.8,2.6,2,3.4,2.8c0.4,0.4,1.1,1.3,1.6,1.5c0.5,0.2,2.1-0.2,2.1-0.2
	s2.1-0.8,2.8-0.5c0.2,0.1,0.3,0.6,0.3,0.8c0.1,0.6,0.1,1.9,0,2.6c-0.1,0.8-0.4,2.3-0.5,3.1c-0.1,0.8,0,2.6,0,3.4
	c0,1.1,0.1,3.3,0.2,4.4c0,1.1-0.1,3.2,0.2,4.2c0.2,0.8,1.3,2,1.6,2.8c0.2,0.5,0.6,1.6,0.8,2.1l0,0"/>
<path class="st0" d="M78.6,206.7c0-0.5-1.6-0.1-2.1-0.2c-1-0.1-3.1-0.5-4-0.8c-1-0.3-2.8-1.1-3.7-1.6c-0.7-0.4-2.2-1-2.6-1.6
	c-0.3-0.5-0.1-1.6,0-2.1c0.1-0.4,0.3-1.2,0.5-1.6c0.3-0.6,1.3-1.6,1.6-2.3c0.3-0.5,1-1.7,0.8-2.3c-0.1-0.4-0.9-0.9-1.3-1.1
	c-0.6-0.5-2.1-1.1-2.8-1.6c-0.9-0.7-1.9-2.9-2.9-3.6c-0.8-0.5-3-0.8-3.6-1.6c-0.2-0.3-0.3-1.2-0.2-1.6c0.2-0.6,1.6-1,1.9-1.5
	c0.3-0.4,0.9-1.4,1-1.9c0-0.7-0.5-1.9-1-2.4c-0.4-0.5-1.9-0.7-2.3-1.1c-0.4-0.5-0.6-1.8-0.8-2.4c-0.2-0.6-0.6-1.8-1-2.3
	c-0.2-0.3-0.7-0.8-1-1c-0.6-0.2-1.9,0.2-2.4,0c-0.7-0.3-1.8-1.5-2.4-1.9c-0.8-0.5-2.4-1.5-3.2-1.9c-1-0.6-2.9-1.7-3.9-2.3
	c-0.9-0.6-2.5-1.9-3.4-2.4c-0.4-0.2-1.1-0.6-1.5-0.8c-0.3-0.2-1-0.6-1.3-0.8l0,0"/>
</svg>
