<?xml version="1.0" encoding="utf-8"?>
<!-- Generator: Adobe Illustrator 25.3.0, SVG Export Plug-In . SVG Version: 6.00 Build 0)  -->
<svg version="1.1" id="Layer_1" xmlns="http://www.w3.org/2000/svg" xmlns:xlink="http://www.w3.org/1999/xlink" x="0px" y="0px"
	 viewBox="0 0 241 122" style="enable-background:new 0 0 241 122;" xml:space="preserve">
<style type="text/css">
	.st0{fill:none;stroke:#E42A29;stroke-width:0.5;stroke-linecap:round;stroke-linejoin:round;}
</style>
<path class="st0" d="M6,119.1c0-0.5,0.2-1.5,0.3-2c0.1-0.6,0.2-1.7,0.3-2.2c0.1-1.2,0.3-3.6,0.3-4.8c0-0.8-0.1-2.5-0.3-3.4
	c0-0.3-0.3-0.7-0.3-1c0-0.9,0.8-2.5,1-3.4c0.2-0.8,0.6-2.4,0.7-3.2c0.1-0.9,0.2-2.7,0.3-3.6c0.1-0.5,0-1.5,0.3-2
	c0.3-0.5,1.3-1.2,1.8-1.5c0.5-0.3,1.8-0.7,2.2-1.1c0.4-0.4,1-1.4,1.1-2c0.1-0.6-0.4-1.9-0.1-2.5c0.1-0.4,0.8-0.9,1.1-1.1
	c0.9-0.6,3-1.2,3.9-1.8c0.8-0.5,2.3-1.9,3.1-2.5c0.9-0.8,2.8-2.5,3.6-3.4c1.1-1.1,3.4-3.3,4.5-4.5c0.9-0.9,2.5-2.8,3.4-3.8
	c0.9-1.1,2.7-3.4,3.6-4.5c0.7-0.9,2.5-2.4,3.1-3.4c0.4-0.7,0.7-2.3,1-3.1c0.4-0.9,1.4-2.7,1.7-3.6c0.3-0.9,0.8-2.7,0.8-3.6
	c0.1-1.2-0.2-3.5-0.3-4.6c-0.1-1.3-0.3-4-0.3-5.3c0-1.3,0-3.9,0.1-5.2c0.1-0.8,0.3-2.4,0.4-3.2l0,0c0.1-1.2,0.4-3.5,0.6-4.6
	c0.2-1.2,0.4-3.6,0.7-4.8c0.2-0.7,0.3-2.4,0.8-2.9c0.4-0.4,1.6-0.5,2.1-0.6c1-0.2,2.9-0.4,3.9-0.6c1.2-0.2,3.5-0.6,4.6-0.8
	c0.5-0.1,1.6-0.4,2.1-0.6c0.4-0.1,1.2-0.5,1.7-0.6c0.5-0.1,1.6-0.2,2.1-0.1c0.5,0,1.6,0.4,2.1,0.3c0.6-0.1,1.5-1,2-1.4
	c0.6-0.5,1.6-1.8,2.2-2.2c1.1-0.7,3.7-1.1,4.9-1.5c1.2-0.4,3.5-1.4,4.6-1.8c1.2-0.4,3.5-1.2,4.6-1.7c0.8-0.3,2.3-1,3.1-1.3
	C87,7,89.6,6.5,90.9,6.1c0.9-0.3,2.8-0.8,3.6-1.1c0.5-0.2,1.6-0.8,2.1-1c1.3-0.4,4-1,5.3-1.1c0.9-0.1,2.7,0,3.6,0
	c1.1,0,3.4-0.2,4.5,0c0.6,0.1,1.6,0.6,2.1,0.8c0.6,0.3,1.9,0.8,2.4,1.3c0.4,0.3,0.9,1.1,1.1,1.5c0.4,0.5,1.1,1.7,1.4,2.2
	c0.2,0.3,0.5,0.9,0.7,1.1c0.5,0.4,1.7,0.7,2.2,1c0.9,0.5,2.4,1.8,3.2,2.4c0.9,0.6,2.7,1.7,3.6,2.2c0.7,0.4,2.1,1.3,2.8,1.7
	c0.6,0.4,1.9,1.1,2.4,1.5c0.3,0.3,0.7,0.9,1,1.3c0.4,0.6,1.3,1.8,1.7,2.4c0.5,0.6,1.4,1.9,1.8,2.5c0.4,0.6,1.2,1.9,1.7,2.5
	c0.5,0.7,1.7,2,2.2,2.7c0.6,0.7,2,2.1,2.7,2.8c0.5,0.6,1.4,1.8,1.8,2.4c0.4,0.6,1.2,1.9,1.5,2.5c0.3,0.6,0.9,1.7,1.3,2.2
	c0.4,0.7,1.1,2.1,1.7,2.7c0.3,0.3,1.1,0.6,1.5,0.8c0.7,0.3,2,1.2,2.8,1.3c0.5,0,1.4-0.5,1.8-0.7c0.8-0.3,2.3-0.9,3.1-1.1
	c0.7-0.2,2.2-0.6,2.9-0.7c0.9-0.1,2.8-0.2,3.8-0.1c0.7,0.1,2.7,0.6,2.7,0.6l2.1,0.3l1.4-0.8l0.8,0.1l1.5,1.5l0,0l1.4,1.7l0.6,1.7
	l0.7,1.5l1.5,0.7l1.8,0.1l1.5,0.8l0.8,2.7l1.5,1l2.4,1.1l1.3,1.8l0.3,1.4l1.3,1.1l1.7,0.8l1.1,1l0.8,1.4l0.8,1.4l3.1,3.5l1.8,1.4
	l0.8,1.7l3.5,0.4l5.3,1.4l4.8,0.8l4.5,0.6l3.4,1l3.6,1.5l1.8,1.4l1.4,0.7l1.3,0.8l2.1,1.7l1.5,2.5l0.7,3.1l1,2.2l0.6,1.3l0,0"/>
</svg>
