<?xml version="1.0" encoding="utf-8"?>
<!-- Generator: Adobe Illustrator 25.3.0, SVG Export Plug-In . SVG Version: 6.00 Build 0)  -->
<svg version="1.1" id="Layer_1" xmlns="http://www.w3.org/2000/svg" xmlns:xlink="http://www.w3.org/1999/xlink" x="0px" y="0px"
	 viewBox="0 0 11 48" style="enable-background:new 0 0 11 48;" xml:space="preserve">
<style type="text/css">
	.st0{fill:none;stroke:#4682B4;stroke-width:0.5;stroke-linecap:round;stroke-linejoin:round;}
</style>
<path class="st0" d="M0.2,46.8l0.2-0.1l0.2-0.4l0-0.4l-0.2-0.3l-0.1-0.6l0.1-0.4l0.3-0.3l0.3-0.3l0.4-0.2l0.4-0.2l0.5-0.1l0.1-0.3
	l0.1-0.5l-0.1-0.7v-0.7l0.3-0.8l0.1-0.5l0.3-0.6l0.3,0.1l0-0.7l0.4-0.3l-0.1-0.6l0.4-0.5l0.6-0.3L5,37.2l0.5-0.6l0.2-1l0-0.8l0-0.8
	l0.1-0.1l-0.1-0.6l-0.1-0.8l0,0l0-0.5l-0.3-0.2l0,0"/>
<path class="st0" d="M5.8,30.3L6,30.1l0.2-0.3l0.2-0.4l0-0.5l-0.1-0.5l0-0.6l0.2-0.3l0.3-0.3l0.1-0.3l0-0.3l0.2-0.2l0.1-0.1l0-0.3
	l-0.2-0.2l-0.2-0.1l-0.3,0.1l-0.3-0.1l0-0.2l0.2-0.1l0.2-0.1l0-0.3l-0.1-0.1l-0.3-0.1l0-0.1l0.1-0.2l0.2-0.1l0-0.8l0,0V23v-0.8
	l0.2-0.4l0.4-0.4v-0.3l-0.4-0.2l-0.7-0.3l-0.5-0.1l-0.5-0.3l-0.5-0.4l0-0.3v-0.5v-0.4l-0.1-0.4l0-0.5l0.3-0.2l0.2-0.4L5,16.8L5,16.5
	l0.2-0.2v-0.6l0.3-0.6l0.2-0.4l0.3-0.4h0.4l0.3-0.3l0.3-0.1l0.3,0l0.3-0.4l0-0.6l-0.1-0.4l0.1-0.6l0.3-0.4l0.2-0.3l0-0.5V9.9
	L7.8,9.7L7.4,9.2V8.9l0,0l0.1-0.4l0.3-0.3L8.1,8l0.3-0.2l0.4-0.3L9,7.4l0.4-0.2l0.3-0.1l0.6-0.4l0.4-0.6V5.9l-0.1-0.3V4.9l0-1
	l-0.2-1.2V2.4l-0.1-0.2L10.5,2l0-0.3l0-0.3l0.3-0.2l0,0"/>
</svg>
