<?xml version="1.0" encoding="utf-8"?>
<!-- Generator: Adobe Illustrator 25.3.0, SVG Export Plug-In . SVG Version: 6.00 Build 0)  -->
<svg version="1.1" id="Layer_1" xmlns="http://www.w3.org/2000/svg" xmlns:xlink="http://www.w3.org/1999/xlink" x="0px" y="0px"
	 viewBox="0 0 11 16" style="enable-background:new 0 0 11 16;" xml:space="preserve">
<style type="text/css">
	.st0{fill:none;stroke:#4682B4;stroke-width:0.5;stroke-linecap:round;stroke-linejoin:round;}
</style>
<path class="st0" d="M10.7,0.3L10.7,0.3l-0.1,0.2l0,0.1l-0.1,0.1l-0.1,0.1l0,0l-0.1,0.1L10.2,1l0,0.1l0,0.2l0,0"/>
<path class="st0" d="M0.3,15.7l0.1-0.1l0.1-0.1l0.2-0.1l0.2-0.1l0.2-0.1l0.2-0.1l0.2-0.1L1.7,15l0.1-0.1l0.1-0.1L2,14.7l0.1-0.1
	l0.1-0.1l0.1-0.1l0.1-0.1l0.1-0.1L2.6,14l0.2-0.1l0.1-0.1L3,13.6l0.1-0.2l0.1-0.2l0-0.1l0,0L3.3,13l0.1-0.1l0-0.1l0.1-0.1l0.1-0.1
	l0.1,0l0.2-0.1l0.1-0.1l0.1-0.2l0.1-0.1L4.2,12l0,0l0-0.1l0.1-0.2l0-0.1l0-0.1l0-0.1v-0.2v-0.1l0-0.1l0-0.1l0,0l0-0.2l0-0.1l0,0
	l0-0.1l0-0.1l0.1-0.2l0.1-0.1l0-0.1l0-0.1l0-0.1l0-0.2l0-0.1l0,0l0-0.1l0-0.1v0L5,9.4l0.2,0l0.1-0.1l0.1-0.1l0-0.1l0.1,0l0,0"/>
<path class="st0" d="M5.5,9.2L5.5,9.2l0.1,0.1l0.1,0.1l0.1,0.1l0.1,0.1l0.1,0l0,0l0.1,0l0,0l0,0.1l0,0.1v0l0,0.1L6,9.9L6,10l0,0.1
	l0.1,0.1l0,0.1v0l0,0.1l0,0.1l0,0v0.1v0l-0.1,0l0,0l0,0l0,0.1l0,0l0,0.1l0,0l-0.1,0l0,0l0,0.1l0,0.1v0.1l0,0v0l0,0l0,0l0,0h0l0,0
	l0,0l0,0l0,0l0,0l0,0l0,0l0,0l0,0l0,0l0,0l0,0l-0.1,0l0,0l0,0.1l0,0l0,0l0,0l0,0.1l0,0.1l0,0v0l0,0.1l0,0l-0.1,0.1l0,0l0,0l0,0.1
	v0.1v0l0,0l0,0.1l0,0.1l0,0.1l0,0l0,0.1l0,0.1v0l0,0"/>
<path class="st0" d="M10,1.4L10,1.4L9.8,1.5L9.7,1.6l0,0.1l-0.1,0l-0.1,0L9.5,1.8L9.4,2l0,0l0,0.1l0,0.1l0,0.1l0,0L9.2,2.4L9.1,2.5
	L9,2.6L8.9,2.8L8.7,2.9L8.6,3L8.6,3.2L8.4,3.4L8.3,3.6l0,0L8.3,3.7L8.2,3.8L8.1,4l0,0.1L8,4.2l0,0.1l0,0.1v0.1l0,0.1l0,0l-0.1,0h0
	l0,0l0,0L7.7,4.7l-0.1,0L7.5,4.9L7.4,5L7.3,5.1L7.2,5.2l0,0.1l0,0l0,0l0,0L7,5.3l0,0L6.9,5.5l0,0.1l0,0.1l0,0.1l0,0.1v0.1l0,0.1
	l0,0.1l0,0.1l0,0.1v0.1l0,0.1l0,0.2l0,0.2l0,0.1l0,0.1l0,0l0,0l0,0l0,0.1l0,0.1L6.8,7.2l0,0l0,0l0,0.1l0,0.1l0,0l0,0.1l0,0l0,0
	L6.7,7.7l0,0.1l0,0l-0.1,0l-0.1,0l-0.1,0l-0.1,0l0,0.1l0,0l0,0l0,0l0,0v0.1l0,0.2l0,0.1l0,0.1l0,0L6.3,8.6L6.2,8.7l-0.1,0L6,8.8
	L5.9,8.8l-0.1,0L5.6,9l0,0"/>
</svg>
