<?xml version="1.0" encoding="utf-8"?>
<!-- Generator: Adobe Illustrator 25.3.0, SVG Export Plug-In . SVG Version: 6.00 Build 0)  -->
<svg version="1.1" id="Layer_1" xmlns="http://www.w3.org/2000/svg" xmlns:xlink="http://www.w3.org/1999/xlink" x="0px" y="0px"
	 viewBox="0 0 241 91" style="enable-background:new 0 0 241 91;" xml:space="preserve">
<style type="text/css">
	.st0{fill:none;stroke:#E42A29;stroke-width:0.5;stroke-linecap:round;stroke-linejoin:round;}
</style>
<path class="st0" d="M6,88.4c0-0.6,0.9-1.6,1.2-2.2c0.4-0.7,1.2-2,1.5-2.8c0.1-0.3,0.3-1,0.3-1.3c0-0.4-0.3-1.3-0.3-1.7
	c0-0.6,0-1.9,0.1-2.5c0.1-0.5,0.4-1.4,0.6-1.9c0.3-0.9,0.9-2.7,1.2-3.6c0.3-1,1.1-3.1,1.4-4.1c0.3-0.8,0.7-2.6,1-3.4
	c0.3-0.8,1.2-2.2,1.6-3c0.4-0.8,1.2-2.4,1.6-3.2c0.3-0.5,1-1.5,1.3-2.1c0.3-0.6,0.5-2.1,1-2.7c0.4-0.5,1.7-0.9,2.2-1.2
	c0.5-0.3,1.6-1.1,2.1-1.5c0.5-0.5,1.4-1.6,1.8-2.2c0.5-0.7,1.4-2,1.9-2.7c0.4-0.6,1.3-1.7,1.7-2.3c0.7-0.9,2.1-2.8,2.8-3.8l0,0
	c0.4-0.6,1.1-1.9,1.5-2.5c0.3-0.6,1.1-1.7,1.4-2.3c0.3-0.8,0.6-2.4,0.7-3.2c0.1-0.6,0-1.9,0-2.6c0-0.8,0-2.5,0-3.4
	c0-0.7-0.1-2.3-0.2-3c-0.1-0.6-0.5-1.8-0.7-2.4c-0.2-0.7-0.6-2-0.7-2.7c-0.1-0.5-0.3-1.6-0.2-2.1c0.1-0.6,0.5-1.7,0.7-2.2
	c0.3-0.6,1-1.6,1.3-2.2c0.5-0.9,1.5-2.6,2.1-3.4c0.4-0.6,1.3-1.8,1.7-2.4c0.2-0.2,0.4-0.7,0.6-0.9c0.5-0.6,1.7-1.6,2.3-2.1
	C41.6,3,42,2.4,42.3,2.3c0.6-0.2,1.9,0,2.5,0c0.9,0,2.7,0,3.6,0.1c0.8,0.1,2.3,0.4,3.1,0.6c0.7,0.2,2,0.6,2.6,0.9
	c0.5,0.3,1.4,0.9,1.9,1.3c0.4,0.3,1.1,0.9,1.5,1.3c0.4,0.4,1,1.2,1.4,1.6c0.3,0.4,1,1.1,1.4,1.4c0.4,0.3,1.2,1,1.6,1.3
	c0.3,0.2,1.1,0.5,1.5,0.6c0.4,0.1,1.2,0.1,1.6,0c0.6-0.1,1.6-0.5,2.2-0.7c0.7-0.3,2.1-0.8,2.8-1.1c0.7-0.3,2.1-0.9,2.8-1
	c0.4-0.1,1.2,0,1.6,0C75,8.6,76.4,9,77.1,9.2c1,0.2,2.9,0.8,3.8,1.1c0.6,0.2,1.8,0.9,2.4,1.1c0.7,0.2,2.1,0.4,2.7,0.7
	c0.4,0.2,1.1,1,1.4,1.4c0.2,0.3,0.6,0.8,0.9,1.1c0.3,0.3,1.1,0.9,1.5,1.2c0.2,0.1,0.7,0.3,0.9,0.5c0.5,0.4,1.1,1.4,1.5,1.9
	c0.6,0.7,1.9,2.2,2.6,2.9c0.6,0.6,1.8,1.6,2.3,2.2c0.4,0.5,1,1.8,1.4,2.4c0.4,0.7,1.4,2,1.9,2.7c0.5,0.7,1.5,2.1,2.1,2.8
	c0.5,0.7,1.7,1.9,2.2,2.6c0.4,0.6,1.2,1.8,1.6,2.4c0.5,0.8,2.3,3,2.3,3s1.2,1.6,1.7,2.1c0.4,0.3,1.3,0.9,1.8,1.1
	c0.3,0.1,1,0.2,1.4,0.2c0.4,0,1.2-0.2,1.6-0.3l0,0c0.4-0.1,1.1-0.4,1.5-0.5c0.9-0.2,2.8-0.4,3.8-0.4c0.8,0,2.4,0.1,3.2,0.1
	c0.7,0,2.2-0.1,2.9,0.1c0.3,0.1,0.9,0.4,1.1,0.6c0.4,0.4,1.1,1.4,1.4,1.9c0.2,0.3,0.2,1.2,0.5,1.5c0.3,0.3,1.1,0.6,1.5,0.8
	c0.6,0.3,2,0.4,2.5,0.8c0.3,0.2,0.5,0.9,0.7,1.2c0.3,0.4,1.1,0.9,1.4,1.2c0.3,0.3,0.9,1,1.1,1.4c0.2,0.3,0.4,0.9,0.6,1.2
	c0.3,0.3,1,0.7,1.3,1c0.6,0.5,1.9,1.4,2.5,2c0.3,0.3,1,1,1.3,1.4c0.2,0.3,0.6,1.1,0.8,1.4c0.3,0.4,1,1.3,1.3,1.7
	c0.4,0.4,1.1,1.3,1.5,1.6c0.5,0.4,1.6,0.9,2.2,1.1c0.4,0.1,1.3,0.2,1.7,0.2c0.6,0.1,1.8,0.2,2.4,0.2c0.7,0,2.1,0,2.8,0.1
	c0.7,0.1,1.9,0.5,2.6,0.7c0.8,0.2,2.5,0.8,3.3,1.1c1,0.3,3,0.8,4,1.2c0.6,0.2,1.7,0.8,2.3,1.1c0.5,0.3,1.5,1,2,1.3
	c0.8,0.5,2.6,1.5,3.4,2c0.6,0.4,1.7,1.2,2.3,1.6c0.9,0.6,2.6,1.6,3.5,2.2c0.6,0.4,1.7,1.3,2.3,1.7c0.6,0.4,1.8,1,2.4,1.3l0,0"/>
<path class="st0" d="M196.1,86c0,0.8,2.4,0.5,3.2,0.6c1.3,0.2,3.9,0.6,5.2,0.8c0.9,0.2,2.8,0.5,3.7,0.7c0.9,0.2,2.8,0.5,3.7,0.6
	c1,0.1,3.1,0,4.2,0c1.4,0,4.1,0,5.5,0c1.8,0,5.5-0.1,7.4-0.2c1.5-0.1,4.6-0.4,6.1-0.5l0,0"/>
</svg>
