<?xml version="1.0" encoding="utf-8"?>
<!-- Generator: Adobe Illustrator 25.3.0, SVG Export Plug-In . SVG Version: 6.00 Build 0)  -->
<svg version="1.1" id="Layer_1" xmlns="http://www.w3.org/2000/svg" xmlns:xlink="http://www.w3.org/1999/xlink" x="0px" y="0px"
	 viewBox="0 0 600 296" style="enable-background:new 0 0 600 296;" xml:space="preserve">
<style type="text/css">
	.st0{fill:none;stroke:#E42A29;stroke-width:0.75;stroke-linecap:round;stroke-linejoin:round;}
</style>
<path class="st0" d="M15,73.7c0-1.4,3.7-2,4.9-2.7c1.5-0.9,4.3-3.1,6-3.6c1-0.3,3.1-0.3,4.1-0.3c1.7,0,4.9,0.8,6.6,0.8
	c1.7,0,5.1-0.8,6.8-1.1c2.7-0.5,8.1-1.3,10.8-1.9c1-0.2,3.1-0.6,4.1-0.9c1.6-0.6,4.4-2.6,6-3c2-0.5,6.2-0.3,8.3-0.3
	c2.6,0,7.8,0.5,10.4,0.3c1.9-0.1,5.7-0.4,7.4-1.1c1.7-0.7,4.4-3.3,5.8-4.6c1.9-1.7,5.5-5.5,7.2-7.4c1.9-2.2,5.6-6.6,7.4-9
	c1-1.3,2.3-4.4,3.6-5.2c1.6-1,5.7-0.6,7.5-0.8c1.9-0.2,5.8-0.4,7.5-1.1c2.6-1,6.8-4.6,9.1-6.1c2.8-1.8,8.6-5.3,11.5-7.1l0,0
	c1.8-1.2,5.3-3.8,7.2-4.9c1.7-0.9,5.2-2.5,7.1-3c1.6-0.4,4.8-0.5,6.4-0.6c2.9-0.2,8.6-0.2,11.5-0.6c2-0.3,6-2.5,8-2
	c1,0.2,2.5,1.9,3.3,2.5c1.3,1,3.8,3.2,5,4.2c1.5,1.3,4.5,3.9,6,5.2c1.4,1.2,4.3,3.4,5.5,4.7c0.8,0.8,2.1,2.5,2.7,3.5
	c0.8,1.3,2,4.1,2.7,5.5c0.6,1.1,1.7,3.3,2.4,4.4c1.1,2,3.4,5.9,4.6,7.9l0,0c0.6,1.9,1.9,5.6,2.4,7.5c0.3,1.2,1,3.7,1.1,5
	c0,1-1,3.1-0.5,3.9c0.4,0.7,2.3,0.7,3,1.1c1.1,0.6,2.8,2.5,3.9,2.8c0.9,0.3,2.9,0,3.9,0c2.4,0,7.1,0.3,9.4,0c1-0.1,3-0.6,3.9-1.1
	c1.8-1,3.9-5.1,5.8-5.7c1.7-0.5,5.2,1,6.9,1.4c2.1,0.5,6.3,1.5,8.5,1.9c1.6,0.3,5-0.2,6.4,0.6c1.3,0.7,2.8,3.7,3.8,4.9
	c1.1,1.4,3.3,4.3,4.7,5.5c1.1,1,3.6,2.7,5,3.1c1.2,0.4,3.8,0.1,5,0.3c1.4,0.2,4,1.1,5.3,1.4c1.6,0.3,4.9,0.4,6.4,0.8
	c2.1,0.6,5.9,2.6,7.9,3.5c2.7,1.2,7.8,4.2,10.5,5.2c2.1,0.7,6.6,1.4,8.8,1.7c2.8,0.5,8.5,1.1,11.3,1.4c3.8,0.5,11.3,1.4,15.1,1.9
	c4.6,0.5,13.8,1.5,18.4,2l0,0c1.7,0.3,5,0.5,6.6,1.1c1.6,0.6,4.2,2.7,5.7,3.6c2.4,1.5,7.1,4.5,9.4,6c2.7,1.7,7.9,5.5,10.7,6.9
	c2.3,1.2,7.5,2.4,9.7,3.8c1.3,0.8,3.5,2.8,4.6,3.9c1.4,1.6,3.7,5.1,4.9,6.9c1.2,1.9,3.4,5.7,4.4,7.7c1.1,2,3.2,6.1,4.1,8.2
	c0.6,1.4,0.9,4.8,2,5.8c1.3,1.1,5,0.6,6.6,0.9c1.6,0.4,4.6,1.5,6.1,1.9c1.9,0.5,5.8,1,7.7,1.6c1.2,0.4,3.5,1.7,4.7,2.2l0,0
	c0.7,1,2.4,2.8,2.7,3.9c0.2,0.8-0.4,2.5-0.3,3.3c0.2,1.4,1.6,3.9,2.2,5.2c0.6,1.2,1.6,3.7,2.4,4.9c1.1,1.7,3.9,4.5,5.2,6
	c1.7,1.9,5.2,5.6,6.9,7.5c1.9,2.1,5.4,6.5,7.2,8.6c1.1,1.2,3.2,3.8,4.4,4.9c1.3,1.2,4.3,3.1,5.7,4.1c2.3,1.7,6.7,5.3,9.1,6.8
	c1.8,1.1,5.8,2.9,7.7,3.9c2.2,1.1,6.8,3.3,9,4.6c1.9,1.1,5.5,3.7,7.2,5c1.6,1.2,4.5,4,6,5.3c1.2,1.1,3.6,3.4,4.9,4.6
	c1.8,1.7,5.6,5,7.4,6.8c2.1,2,6.3,6.2,8.3,8.3c2.3,2.5,6.9,7.5,9.1,10.1c1.5,1.8,4.2,5.5,5.7,7.2c1,1.2,3.5,3.4,4.2,4.9
	c0.7,1.4,1,4.7,1.4,6.3c0.4,1.4,1.5,4,1.7,5.3c0.2,1.4,0.1,4.2,0.2,5.7l0,0"/>
</svg>
