<?xml version="1.0" encoding="utf-8"?>
<!-- Generator: Adobe Illustrator 25.3.0, SVG Export Plug-In . SVG Version: 6.00 Build 0)  -->
<svg version="1.1" id="Layer_1" xmlns="http://www.w3.org/2000/svg" xmlns:xlink="http://www.w3.org/1999/xlink" x="0px" y="0px"
	 viewBox="0 0 140 91" style="enable-background:new 0 0 140 91;" xml:space="preserve">
<style type="text/css">
	.st0{fill:none;stroke:#E42A29;stroke-width:0.5;stroke-linecap:round;stroke-linejoin:round;}
	.st1{fill:none;stroke:#3953A4;stroke-width:0.5;stroke-linecap:round;stroke-linejoin:round;}
</style>
<path class="st0" d="M136.5,13.3c0-0.4-1-0.5-1.4-0.7c-0.5-0.2-1.7-0.7-2.2-0.8c-0.3-0.1-1-0.1-1.3-0.3c-0.4-0.2-1.1-1-1.4-1.3
	c-0.6-0.6-1.5-2.2-2.2-2.7c-0.5-0.4-1.9-0.7-2.5-0.9c-1-0.4-2.9-1.5-3.9-2c-1.1-0.5-3.3-1.7-4.5-2c-0.7-0.2-2.2-0.2-2.9-0.2
	c-0.6,0-1.7-0.1-2.3,0c-0.4,0.1-1.3,0.3-1.7,0.5c-0.4,0.2-1.1,0.9-1.5,1.2c-0.3,0.3-0.9,1.1-1.3,1.4c-0.5,0.3-1.7,0.4-2.2,0.5
	c-1.3,0.3-3.8,1-5,1.4c-1.3,0.4-3.9,1.4-5.2,1.9c-1.1,0.4-3.2,1.2-4.2,1.6c-1.3,0.5-3.9,1.9-5.3,2.1c-0.8,0.1-2.6-0.1-3.4-0.2
	c-0.6-0.1-1.7-0.7-2.2-0.6c-0.3,0-0.8,0.6-1.1,0.5c-0.8-0.1-2-1.5-2.7-1.9c-1-0.5-3.2-1.3-4.2-1.7c-0.4-0.1-1.3-0.5-1.8-0.5
	c-0.3,0-1,0.2-1.2,0.4c-0.3,0.2-0.7,0.9-0.9,1.2l0,0c-0.7,0.1-2,0.4-2.6,0.5c-0.6,0.1-1.7,0.2-2.2,0.5c-0.4,0.2-1.1,0.9-1.5,1.2
	c-0.6,0.4-1.7,1.2-2.3,1.6c-0.6,0.4-1.8,1.4-2.4,1.8c-0.5,0.3-1.5,1.1-2.1,1.2c-0.5,0.1-1.6-0.1-2.2-0.1c-0.5,0-1.6,0-2.1-0.1
	c-0.4-0.1-1.2-0.4-1.5-0.5c-0.4-0.1-1.3-0.5-1.7-0.4c-0.3,0-0.8,0.5-1.1,0.6c-0.3,0.2-1,0.3-1.2,0.5c-0.3,0.3-0.4,1.2-0.6,1.6
	c-0.2,0.4-0.6,1.3-0.8,1.6c-0.3,0.4-1.1,0.9-1.5,1.2c-0.3,0.2-0.9,0.9-1.3,0.9c-0.2,0-0.7-0.3-0.9-0.3c0,0-0.1,0-0.1,0"/>
<path class="st1" d="M3.5,44.9c0-0.3,0.8-0.5,1.1-0.7c0.6-0.3,1.8-0.9,2.5-1.2c0.7-0.3,2.1-0.8,2.7-1.2c0.4-0.2,1-0.8,1.3-1.1
	c0.5-0.5,1.5-1.6,1.9-2.1c0.5-0.5,1.5-1.6,1.9-2.2c0.5-0.6,1.4-1.9,1.9-2.5c0.4-0.6,1.4-1.6,1.9-2.2c0.4-0.5,1.2-1.4,1.5-1.9
	c0.4-0.4,1.2-1.3,1.5-1.8c0.5-0.5,1.4-1.6,1.9-2.1c0.5-0.4,1.6-1.1,2.1-1.5c0.3-0.3,0.9-1,1.3-1.2c0.2-0.1,0.8-0.2,1.1-0.2
	c0.6-0.1,1.7-0.4,2.2-0.5c0.7-0.2,2-0.6,2.7-0.8l0,0"/>
<path class="st1" d="M19.6,88.7l-0.8-1.1L18,87.1l0.5-1.3L19,82l0.5-2.9l0.4-3.7l-0.2-2.7v-2.9l-0.2-2.9l-1-2.8L18,61.5l-1.2-3.2
	l-1.2-2.5c0,0-1.5-1.8-2.1-2.3c-0.4-0.4-1.2-1.3-1.7-1.6c-0.8-0.6-2.5-1.4-3.3-1.8c-0.4-0.2-1.2-0.5-1.5-0.7l0,0"/>
<path class="st0" d="M21.3,88l1-1.7l0.9-2.2l0.6-2.5l0.8-2.9l1.3-1.3l2.3-1.9l0,0"/>
</svg>
