<?xml version="1.0" standalone="no"?><!DOCTYPE svg PUBLIC "-//W3C//DTD SVG 1.1//EN" "http://www.w3.org/Graphics/SVG/1.1/DTD/svg11.dtd"><svg width="344" height="219" version="1.1" xmlns="http://www.w3.org/2000/svg" xmlns:xlink="http://www.w3.org/1999/xlink"><path stroke-width="1" stroke="steelblue" fill="steelblue" d="M325.439393425866,99.46742451769387L323.5393934871295,99.64015178141744L321.1212116097081,99.40984882623934L319.33636310110023,98.20075791501222L316.9181813075297,98.31590938562886L313.86666614514706,99.23712154691475L311.90909040749466,99.40984882623934L310.6424237537194,101.0219699753925L309.0878782730706,101.59772760418309L306.6696964795001,101.42500026877678L305.6909085687489,102.28863664522032L304.76969645691224,103.49772752746185L304.1939388870146,104.70681844437286L303.618181317117,106.89469729108532L302.12121163538313,108.79469725151694L299.3575752160241,110.63712153606048L295.61515096976336,110.63712153606048L293.1969691761933,109.48560641056974L289.109090387994,107.2401517843241L287.55454490734473,105.39772760069536L285.6545448847578,105.39772760069536L282.8333328341837,105.28257601830228L280.01212069976054,104.18863663448701L278.2848479062163,103.72803061227796L277.30606007931556,103.95833361503128L277.30606007931556,103.95833361503128" /><path stroke-width="1" stroke="steelblue" fill="steelblue" d="M8.715151919256186,212.66136371716993L11.939394310683383,212.7189394645111L17.5818185795315,213.00681819751662L22.993939820420565,213.0643939823526L28.809091318312312,213.46742429477172L32.78181859253209,212.7189394645111L37.61818226352352,211.7977272792932L41.53333373882742,212.89166674398803L44.93030344314866,213.52499999999873L51.896970164687446,212.83409097791855L55.63939441094726,212.37348487916006L55.63939441094726,212.37348487916006L58.05757645606991,212.37348478178228L63.58484912708764,212.54621214381177L68.82424313893262,211.45227270444684L74.12121278199129,210.53106057897776L76.30909163145361,207.53712119522243L78.95757645298272,203.73712120044956L80.39697041965246,201.8371212013294L80.51212193363199,197.518939342905L80.51212193363199,197.518939342905L80.22424352601183,194.8128788404656L80.05151629696729,193.14318185725278L81.26060715182666,190.72500001742992L83.21818288947952,186.11893938695766L85.63636476690044,186.4068181680518L89.03333447122259,186.52196970506293L91.85454660564619,183.58560605656885L96.23030413686865,179.32500000373875L98.93636475731273,176.3310605909055L98.93636475731273,176.3310605909055L100.95151679698483,173.2219699230841L103.71515313249347,168.21287904647625L107.80303192069277,168.09772750220327L112.98485013362279,167.86742445215623L114.48181981535663,167.23409113173602L116.09394101107,168.32803053839825L117.99394103365785,169.70984877214187L121.67878956485356,169.65227297868205L125.9393955820965,169.7674245037083L127.66666829178939,168.84621241220793L130.54545622512887,167.34924267827682L133.53939558859656,167.40681840736215L134.8060622423718,167.98257600338684L136.53333503591512,168.6159093573483L139.93030474023726,168.7886365702384L143.09697133274904,168.27045482343874L147.70303197578096,166.77348510400589L152.59697136183695,166.25530328023933L152.59697136183695,166.25530328023933L155.41818299315582,166.22651537724096L160.2545466641477,164.61439412414984L165.6666678211859,164.95984864674028L171.19394057605405,166.1113638544998L176.03030424704548,164.4992426404824L181.0969708621451,162.42651539127155L186.39394058905464,162.42651539127155L191.34545577402469,161.62045476195271L197.90909215470992,160.46893955858332L201.13333454613667,158.05075774279203L207.581819412841,156.66893961916685L212.99394065373053,156.0931820541523L218.75151643655772,155.28712143598068L225.4303042473707,152.9840911151059L232.56969819795313,149.0689395683862L240.6303043442217,145.61439409970444L247.65454669697374,141.58409106187128L251.68484977010803,136.28712141106416L256.40606192711994,130.06893958545788L261.5878800561991,124.08106074141915L264.9272726199929,120.97196969852394L270.22424226305156,116.59621214898198L272.6424241404725,113.2568181744L275.52121198996156,108.53560604519453L277.9393937835316,101.85681815660018L280.81818171687064,95.98409093316559L284.38787865023596,90.34166661526433L289.4545453491869,83.77803028568178L292.5636362266341,76.98409083846263L295.7878787019117,70.0750000134135L295.7878787019117,70.0750000134135L297.5151510762021,63.97196980293347L300.1636358977312,55.796212147467486L302.00606020525447,51.07500006313967L302.00606020525447,43.244697067430025L303.0424238310702,35.64469702817314L303.0424238310702,28.390151572434206L307.30302984831314,26.20227280827703L314.55757531287463,22.287121261995253L321.2363632075385,19.523484857417316L325.0363632527137,14.687121241549448L331.369696605439,11.578030332886556L335.0545450527843,9.390151564783082L335.28484808074336,5.4749999999989996L335.28484808074336,5.4749999999989996" /></svg>