<?xml version="1.0" encoding="utf-8"?>
<!-- Generator: Adobe Illustrator 25.3.0, SVG Export Plug-In . SVG Version: 6.00 Build 0)  -->
<svg version="1.1" id="Layer_1" xmlns="http://www.w3.org/2000/svg" xmlns:xlink="http://www.w3.org/1999/xlink" x="0px" y="0px"
	 viewBox="0 0 125 600" style="enable-background:new 0 0 125 600;" xml:space="preserve">
<style type="text/css">
	.st0{fill:none;stroke:#4682B4;stroke-linecap:round;stroke-linejoin:round;}
</style>
<path class="st0" d="M30.1,15c0,3.2,7.4,6.3,9.9,8.4c2.7,2.2,7.9,7,10.9,8.9c2,1.2,6.2,3.3,8.4,4c2.5,0.8,7.8,1.2,10.4,1.5
	c4.1,0.5,12.3,0.8,16.3,1.5c2.9,0.5,8.6,2,11.4,3c1.3,0.4,4.1,1,4.9,2c0.9,1.1,1.3,4,1.5,5.4c0.5,3.9,0.3,11.9,0,15.8
	c-0.4,6-2.6,17.8-3.5,23.7c-0.7,4.9-2.4,14.8-3,19.8c-0.7,6.4-1.6,19.3-2,25.7c-0.5,9.4-1.4,28.1-1.5,37.5c0,5.4-0.4,16.4,0.5,21.7
	c0.5,2.9,2.6,8.5,3.5,11.4l0,0c1,3.1,2.8,9.3,4,12.3c1.4,3.7,4.9,10.7,6.4,14.3c1.8,4.3,5.2,13,6.9,17.3c1.3,3.3,4.6,9.8,5.4,13.3
	c0.9,3.6,1.3,11.1,1.5,14.8c0.2,3.7,0.2,11.1,0,14.8c-0.2,5.9-0.7,17.9-2,23.7c-0.6,2.9-3,8.5-4,11.4c-2.1,6.6-6,20-7.9,26.7
	c-1.4,5-4.3,15.1-5.4,20.3c-1.6,7.2-4.1,21.9-5.4,29.1l0,0c-0.5,3.1-1.7,9.2-2,12.3c-0.3,4.1,0.1,12.2,0,16.3
	c-0.1,4.4,0.3,13.4-0.5,17.8c-0.5,3.2-3.6,9.1-4,12.3c-0.3,2.6,0.7,7.8,1,10.4c0.6,5.2,2.1,15.5,2.5,20.7c0.3,4.3,0.3,13,0.5,17.3
	c0.2,5.3,1.6,16,1,21.2c-0.4,3.3-1.6,10.1-3.5,12.8c-2.3,3.5-9.7,8.2-13.3,10.4c-4.6,2.8-14.8,6.7-19.8,8.9
	c-6.8,3-20.2,9.2-27.2,11.9c-7.2,2.7-21.9,7-29.1,9.4l0,0"/>
</svg>
