<?xml version="1.0" encoding="utf-8"?>
<!-- Generator: Adobe Illustrator 25.3.0, SVG Export Plug-In . SVG Version: 6.00 Build 0)  -->
<svg version="1.1" id="Layer_1" xmlns="http://www.w3.org/2000/svg" xmlns:xlink="http://www.w3.org/1999/xlink" x="0px" y="0px"
	 viewBox="0 0 29 345" style="enable-background:new 0 0 29 345;" xml:space="preserve">
<style type="text/css">
	.st0{fill:none;stroke:#4682B4;stroke-width:0.5;stroke-linecap:round;stroke-linejoin:round;}
</style>
<path class="st0" d="M24.8,336.4c0-0.8,2.8,0.4,3.3-0.3c0.2-0.3-0.1-1-0.3-1.2c-0.3-0.5-1.7-0.8-1.9-1.4c-0.1-0.5,0.7-1.4,0.6-1.9
	c-0.2-0.9-1.9-2-2.5-2.6c-0.5-0.6-1.2-1.9-1.9-2.3c-1.3-0.8-4.4-1.2-5.9-1.1c-0.7,0.1-2.3,0.5-2.8,1.1c-0.4,0.5,0.1,2-0.5,2.3
	c-0.5,0.3-1.7-0.4-2-0.8c-0.4-0.4-0.7-1.5-0.6-2c0.1-1,1.3-2.8,1.7-3.7c0.4-0.7,1.4-2.1,1.6-3c0.2-1.1-0.3-3.5-0.3-4.7
	c0-1.2-0.2-3.5,0-4.7c0.2-0.8,1.2-2.2,1.2-3c0.1-0.7-0.5-2-0.5-2.6c0.1-1.1,1.3-3,1.7-4c0.5-1.4,1.4-4.3,1.7-5.8
	c0.3-1.3,0.9-3.9,0.9-5.3c0.1-1.8-0.4-5.5-0.5-7.3c-0.1-2.3,0.2-7-0.2-9.3c-0.2-1.4-1.2-4.1-1.4-5.4c-0.1-0.7-0.2-2.2-0.2-3
	c0.1-1.3,1.7-3.7,1.4-4.9c-0.1-0.6-1.3-1.5-1.7-2l0,0c-0.3-0.6-0.9-1.8-1.1-2.4c-0.1-0.4-0.1-1.3-0.5-1.6c-0.8-0.6-2.9-0.1-3.8-0.1
	c-1,0.1-3,0.5-4,0.7l0,0"/>
<path class="st0" d="M4.8,8.6c0,0.7,1.8,1.4,2.2,2c0.3,0.5,0.4,1.6,0.5,2.2c0.1,0.4,0.1,1.3,0.3,1.7c0.4,0.7,1.7,1.7,2.2,2.3
	c0.6,0.8,1.5,2.5,1.9,3.4c0.3,0.9,0.6,2.8,0.6,3.7c0,0.7-0.3,2.1-0.2,2.8c0.2,1,1,3,1.6,3.9c0.2,0.4,0.7,1.1,1.1,1.4
	c0.3,0.2,1.1,0.3,1.2,0.6c0.5,0.9,0,3-0.2,4c-0.2,1.3-1.3,3.9-1.7,5.1c-0.4,1.1-1,3.6-1.7,4.5c-0.5,0.6-2.2,1.2-2.6,1.9
	c-0.5,0.8-0.3,2.9-0.3,3.9c0,0.5-0.1,1.4-0.2,1.9c-0.1,0.6-0.5,1.8-0.8,2.3c-0.3,0.5-1.4,1.3-1.6,1.9c-0.4,1.1,0,3.4,0.2,4.5
	c0.2,0.8,1,2.4,1.1,3.3c0.1,1.2,0.1,3.6-0.3,4.7c-0.3,0.7-1.7,1.6-2,2.3c-0.4,0.8-0.8,2.7-0.9,3.6c-0.1,0.7,0.5,2.3,0.2,3
	c-0.3,0.7-1.9,1.3-2.3,1.9c-0.3,0.4-0.7,1.5-0.9,2c-0.3,0.6-1.2,1.7-1.1,2.3C1,86.3,2,87.1,2.5,87.4c0.5,0.4,1.7,1.3,2.3,1.4
	c0.9,0.2,2.7-0.5,3.6-0.6c1-0.1,3-0.6,4-0.5c0.6,0.1,1.9,0.6,2.5,0.8l0,0"/>
</svg>
