<?xml version="1.0" encoding="utf-8"?>
<!-- Generator: Adobe Illustrator 25.3.0, SVG Export Plug-In . SVG Version: 6.00 Build 0)  -->
<svg version="1.1" id="Layer_1" xmlns="http://www.w3.org/2000/svg" xmlns:xlink="http://www.w3.org/1999/xlink" x="0px" y="0px"
	 viewBox="0 0 29 55" style="enable-background:new 0 0 29 55;" xml:space="preserve">
<style type="text/css">
	.st0{fill:none;stroke:#4682B4;stroke-linecap:round;stroke-linejoin:round;}
</style>
<path class="st0" d="M0.7,53.7c0-0.3,0.9-0.3,1.2-0.4c0.8-0.3,2.4-0.7,3.1-1.1c0.4-0.3,1.1-1,1.5-1.4c0.3-0.2,1-0.7,1.4-0.9
	c0.6-0.3,1.7-0.7,2.3-0.9c0.5-0.2,1.7-0.4,2.2-0.6c0.6-0.2,1.9-0.7,2.5-1c0.4-0.2,1.3-0.7,1.7-1c0.4-0.3,0.9-1.2,1.4-1.5
	c0.3-0.2,1-0.5,1.4-0.6c0.6-0.2,1.8-0.5,2.5-0.6c0.4-0.1,1.3,0,1.7,0c0.4,0,1.3-0.2,1.7-0.4c0.4-0.1,1-0.5,1.4-0.6
	c0.4-0.2,1.8-0.4,1.7-0.9c-0.1-0.5-1.4-0.1-1.8-0.1c-0.6,0-1.7-0.1-2.2-0.2c-0.3-0.1-0.9-0.3-1.2-0.5c-0.3-0.2-1.1-0.5-1.2-0.9
	c-0.2-0.4-0.1-1.4,0-1.8c0.1-0.4,0.5-1.1,0.6-1.5c0.1-0.6,0-1.8,0-2.3c0-0.5-0.1-1.5-0.1-2c-0.1-0.5-0.4-2-0.4-2L21,29.1
	c0,0-0.6-1.5-0.6-2.1c0-0.4,0.2-1,0.4-1.4c0.2-0.4,0.6-1,0.9-1.4c0.2-0.3,0.6-0.7,0.9-1c0.3-0.4,1-1.2,1.4-1.6
	c0.3-0.2,1-0.5,1.1-0.9c0.1-0.3-0.2-1.1-0.2-1.5c0-0.6-0.1-1.8,0.1-2.3c0.1-0.4,0.9-0.9,1-1.2c0.1-0.3,0-0.9-0.1-1.2
	c-0.1-0.4-0.6-1-0.9-1.4c-0.3-0.5-1.1-1.4-1.5-1.8c-0.3-0.3-1.1-0.9-1.5-1.2c-0.2-0.2-0.5-0.5-0.6-0.7c-0.1-0.2,0.1-0.7,0-0.9
	c-0.2-0.6-1-1.5-1.4-2c-0.3-0.4-1.2-0.9-1.5-1.4c-0.1-0.1-0.1-0.5-0.2-0.6C18,4.4,17.6,4.1,17.3,4c-0.3-0.1-0.9-0.1-1.1-0.2
	c-0.5-0.2-1.2-0.9-1.6-1.2c-0.3-0.3-0.6-1.1-1-1.2c-0.2-0.1-0.7,0-1,0c-0.3,0-0.9,0-1.2,0c-0.4,0-1.3,0.1-1.7,0.1
	c-0.1,0-0.4,0-0.5,0C9,1.5,8.6,1.8,8.5,1.9C8.3,2.1,8.1,2.5,8,2.8C7.9,3,7.7,3.6,7.7,3.9C7.8,4,8,4.1,8,4.3c0,0.3-0.6,0.6-0.7,0.9
	C7,5.4,6.8,6.1,6.5,6.2C6.3,6.3,5.8,6,5.5,6l0,0"/>
</svg>
