<?xml version="1.0" encoding="utf-8"?>
<!-- Generator: Adobe Illustrator 25.3.0, SVG Export Plug-In . SVG Version: 6.00 Build 0)  -->
<svg version="1.1" id="Layer_1" xmlns="http://www.w3.org/2000/svg" xmlns:xlink="http://www.w3.org/1999/xlink" x="0px" y="0px"
	 viewBox="0 0 100 100" style="enable-background:new 0 0 100 100;" xml:space="preserve">
<style type="text/css">
	.st0{fill:none;stroke:#4682B4;stroke-linecap:round;stroke-linejoin:round;}
</style>
<path class="st0" d="M97.5,16.2c0-0.7-1.9-1.1-2.6-1.2c-0.8,0-2.4,0.7-3,1.2c-0.7,0.5-1.6,2.1-2.1,2.8c-0.6,0.8-1.8,2.4-2.3,3.3
	c-0.9,1.4-2.4,4.2-3.3,5.6c-0.6,1-1.5,3.2-2.3,3.9c-0.7,0.6-2.4,1-3.3,1.4c-0.5,0.2-1.5,0.6-1.9,0.9c-0.5,0.5-1.1,1.8-1.6,2.3
	c-0.6,0.6-2,1.8-2.8,1.9c-0.9,0-2.4-1.1-3-1.6c-0.4-0.3-0.7-1.4-1.2-1.6c-1-0.7-3.7-0.6-4.9-0.9c-1.5-0.4-4.5-1.7-6-1.9
	c-1.2-0.2-3.7,0-4.9,0.2c-0.4,0.1-1,0.5-1.4,0.5c-0.7-0.1-1.6-1.2-2.1-1.6c-0.5-0.4-1.4-1.8-2.1-1.9c-0.9,0-1.9,2.2-2.8,2.3
	c-0.8,0.1-2.3-1.1-3-1.4c-1.3-0.6-3.7-1.9-5.1-2.1c-1.5-0.2-4.6,0.3-6,0.7c-2,0.5-6.6,1.2-7.7,3c-0.5,0.8,1,3,0.5,3.7
	c-0.7,0.9-3.5,0.4-4.6,0.5c-0.6,0.1-2-0.2-2.6,0.2c-1.1,0.9-1.4,4-1.9,5.3c-0.5,1.4-1.5,4.2-2.1,5.6C11,48.8,9.7,51.7,9,53.1
	c-0.7,1.6-2.2,4.9-3,6.5c-0.4,0.8-1.6,2.3-1.9,3.2C4,63.4,4.3,64.5,4.2,65c0,0.8-0.1,2.4-0.3,3.2c-0.2,0.6-1.4,1.5-1.4,2.1
	c0,0.5,0.8,1.4,1.2,1.9c0.8,1.1,2.6,3.2,3.7,3.9c0.9,0.6,3.2,1,3.9,1.9c0.6,0.7,1,2.6,1.2,3.5c0.1,0.9-0.2,2.6-0.2,3.5l0,0"/>
</svg>
