<?xml version="1.0" encoding="utf-8"?>
<!-- Generator: Adobe Illustrator 25.3.0, SVG Export Plug-In . SVG Version: 6.00 Build 0)  -->
<svg version="1.1" id="Layer_1" xmlns="http://www.w3.org/2000/svg" xmlns:xlink="http://www.w3.org/1999/xlink" x="0px" y="0px"
	 viewBox="0 0 55 185" style="enable-background:new 0 0 55 185;" xml:space="preserve">
<style type="text/css">
	.st0{fill:none;stroke:#4682B4;stroke-width:0.5;stroke-linecap:round;stroke-linejoin:round;}
</style>
<path class="st0" d="M46.1,4.6c0,0.3-0.6,0.7-0.8,0.9c-0.1,0.1-0.3,0.3-0.5,0.4C44.6,6,44,5.8,43.7,5.8c-0.2,0-0.6-0.1-0.8-0.1
	c-0.2,0.1-0.6,0.4-0.8,0.5c-0.2,0.2-0.6,0.8-0.7,1.1c-0.3,0.4-0.7,1.4-0.9,1.8c-0.3,0.6-1.2,1.6-1.5,2.2c-0.1,0.3-0.1,0.9-0.1,1.2
	c0.1,0.5,0.5,1.5,0.7,1.9s0.8,1.3,1.1,1.7c0.2,0.2,0.7,0.6,0.8,0.8c0.1,0.2,0.3,0.6,0.4,0.7c0.1,0.1,0.3,0.4,0.4,0.5
	c0.3,0.5,0.7,1.5,0.9,2c0.1,0.4,0.3,1.1,0.5,1.5c0.1,0.2,0.2,0.6,0.4,0.8c0.2,0.3,0.8,0.6,1,0.9c0.2,0.3,0.4,0.9,0.5,1.2
	c0.1,0.2,0.6,0.6,0.6,0.9c0.1,0.3,0,0.8,0,1.1c0,0.6,0,1.9,0.1,2.6c0.1,0.4,0.2,1.3,0.5,1.7c0.1,0.2,0.5,0.5,0.6,0.6
	c0.2,0.1,0.7,0.3,0.8,0.5c0.2,0.2,0.3,0.7,0.4,1c0.1,0.4,0.2,1.4,0.1,1.8c0,0.3-0.4,0.9-0.5,1.3c-0.1,0.3-0.1,0.8-0.1,1.1
	c-0.1,0.4-0.2,1.3-0.4,1.7c-0.2,0.4-0.7,1-1,1.3c-0.3,0.3-1,0.9-1.3,1.3c-0.2,0.3-0.6,0.9-0.7,1.3c-0.1,0.6,0.1,1.8,0,2.4
	c0,0.2-0.2,0.6-0.3,0.8c-0.2,0.4-1,1.2-1.1,1.6c-0.1,0.3,0,1,0,1.3l0,0c0,0.5,0.1,1.5,0.2,2c0.1,0.5,0.3,1.6,0.4,2.1
	c0,0.2,0.2,0.6,0.2,0.8c0,0.3-0.2,1-0.4,1.3c-0.2,0.3-0.9,0.7-1.1,1c-0.1,0.2-0.1,0.7-0.1,0.9C42.4,57.8,42,59,42,59.6
	c0,0.2,0.2,0.6,0.2,0.7c-0.1,0.3-0.8,0.7-1,0.9c-0.3,0.3-0.7,1-0.8,1.4c-0.1,0.3-0.4,1-0.4,1.4c0,0.2,0.2,0.5,0.4,0.6
	c0.2,0.2,0.7,0.5,0.9,0.6c0.3,0.1,1.1,0.3,1.5,0.3c0.4,0,1.1-0.1,1.5-0.1c0.5,0,1.5,0.1,2,0.2c0.4,0,1.3,0,1.7,0.2
	c0.4,0.1,1,0.5,1.3,0.7c0.3,0.2,0.8,0.6,1,0.9c0.1,0.3,0.2,0.9,0.2,1.2c0,0.4,0,1.1,0,1.5c-0.1,0.9-0.4,2.5-0.5,3.4
	c-0.2,0.9-0.5,2.7-0.6,3.7c-0.1,1-0.1,3-0.2,4c-0.1,1.7-0.6,5.1-0.7,6.9c0,0.8,0,2.4,0,3.2l0,0c0,0.6-0.1,1.9,0,2.6
	c0.1,0.7,0.5,2,0.7,2.7c0.3,0.9,1.2,2.7,1.6,3.6c0.4,1,1.2,3.1,1.6,4.1c0.3,0.8,1.1,2.4,1.3,3.2c0.2,1,0.4,3.2,0.4,4.3
	c0,1.4-0.1,4.1-0.4,5.4c-0.2,1-1.1,2.7-1.5,3.7c-0.3,0.8-1,2.5-1.2,3.4c-0.2,1-0.4,3-0.5,4l0,0c-0.3,1.1-0.9,3.3-1.1,4.4
	c-0.1,0.6-0.3,1.7-0.4,2.3c-0.1,1.3-0.1,3.9-0.2,5.2c-0.1,1-0.5,3.1-0.5,4.1c-0.1,0.8,0,2.5,0,3.3c0,1,0.3,2.9,0.4,3.8
	c0.1,0.9,0.3,2.7,0.3,3.6c0,0.8,0,2.4-0.2,3.1c-0.1,0.6-0.6,1.8-1,2.3c-0.4,0.4-1.5,0.7-2,1c-0.9,0.4-2.6,1.4-3.5,1.8
	c-0.8,0.4-2.5,0.9-3.3,1.2l0,0c-0.5,0.3-1.5,1-2,1.2c-0.8,0.3-2.4,0.3-3.2,0.5c-0.6,0.1-1.9,0.3-2.6,0.4c-0.4,0-1.1,0-1.5,0.1
	c-0.5,0.1-1.5,0.4-1.9,0.7c-0.5,0.4-1.2,1.6-1.6,2c-0.6,0.5-1.8,1.4-2.5,1.7c-0.8,0.4-2.7,1.1-3.6,1.4c-1.1,0.4-3.3,0.8-4.4,1.2
	c-0.7,0.2-2,0.8-2.7,1c-0.3,0.1-1,0.2-1.3,0.4c-0.3,0.1-0.8,0.5-1,0.7c-0.6,0.5-1.6,1.8-2.2,2.2c-0.4,0.3-1.2,0.6-1.6,0.7
	c-0.7,0.3-2,0.8-2.7,1c-0.7,0.3-2,0.8-2.7,1l0,0"/>
</svg>
