<?xml version="1.0" encoding="utf-8"?>
<!-- Generator: Adobe Illustrator 25.3.0, SVG Export Plug-In . SVG Version: 6.00 Build 0)  -->
<svg version="1.1" id="Layer_1" xmlns="http://www.w3.org/2000/svg" xmlns:xlink="http://www.w3.org/1999/xlink" x="0px" y="0px"
	 viewBox="0 0 317 600" style="enable-background:new 0 0 317 600;" xml:space="preserve">
<style type="text/css">
	.st0{fill:none;stroke:#4682B4;stroke-width:0.5;stroke-linecap:round;stroke-linejoin:round;}
</style>
<path class="st0" d="M70.1,20.3c0,0.8-1,2-1.3,2.8c-0.2,0.8-0.2,2.7-0.5,3.5c-0.5,1.3-2.3,3.3-3,4.5c-0.7,1.2-2,3.8-2.8,5
	c-0.9,1.4-3,4-3.8,5.5c-0.5,0.9-1.2,2.8-1.5,3.8c-0.4,1.3-0.3,4.2-0.8,5.5c-0.3,0.9-1.1,2.8-1.8,3.5c-1,1.1-3.9,2.2-5,3.3
	c-1,1-2.5,3.5-3.3,4.8c-1,1.8-2.8,5.5-3.8,7.3c-0.9,1.8-2.8,5.3-3.8,7c-1.3,2.4-4,7-5,9.5c-1.2,3.2-2.4,10-3.5,13.3
	c-0.4,1.3-1.6,3.8-2.1,5s-1.6,3.7-2.1,5c-1,2.5-3,7.5-4,10c-0.9,2.3-2.7,6.8-3.8,9c-0.8,1.7-2.6,4.9-3.5,6.5
	c-0.8,1.3-2.4,3.9-3.3,5.3l0,0c1,0.6,3,1.8,4,2.3c1.9,0.9,6,2.1,8,2.8c3.7,1.2,11.1,3.5,14.8,4.8c2.5,0.9,7.3,3,9.8,3.8
	c2,0.6,6.1,1.3,8,2c1,0.3,2.7,1.7,3.8,1.8c1,0,2.8-1.1,3.8-1.5c1.4-0.6,4.2-2.3,5.8-2.3c1.1,0.1,3,1.5,4,2c1.4,0.8,4,3,5.5,3.5
	c1.2,0.4,3.9,0.5,5.3,0.5c2.9,0,8.6-1.1,11.5-1.3c1.4-0.1,4.2-0.4,5.5,0c1.4,0.4,3.6,2.2,4.8,3c0.6,0.4,2.1,1.1,2.5,1.8
	c0.7,1.1-0.2,4.2,0.8,5c0.7,0.7,3,0.4,4,0.3c2.3-0.3,6.5-2.2,8.8-2.8c2.9-0.8,8.8-1.8,11.8-2.5c2.4-0.5,7.1-2,9.5-2.3
	c2.7-0.3,8.1,0,10.8,0c2.1,0,6.3,0.6,8.3,0c1-0.3,2.7-1.6,3.5-2.3c2-1.5,5.8-4.9,7.8-6.5c1.4-1.1,3.9-3.7,5.5-4.3
	c2-0.7,6.4,0.1,8.5,0c2.4-0.2,7.3-0.2,9.5-1.3c1.7-0.8,4-4.1,5.5-5.3c1.3-1,4-3.1,5.5-3.8c2.4-0.9,7.7-1,10.3-1.5
	c2.2-0.4,6.5-1.9,8.8-2.3c2-0.3,6.2-0.5,8.3-0.3c2.2,0.3,6.4,1.9,8.5,2.5c3.6,1,10.9,2.4,14.5,3.5c1.8,0.5,5.6,1.3,7,2.5
	c1,0.8,1.9,3.4,2.5,4.5l0,0c0.5,1.1,1.5,3.4,2,4.5c0.7,1.6,2.2,4.7,3,6.3c1.3,2.6,4.8,7.3,5.8,10c0.7,2,0.8,6.4,1.3,8.5
	c0.8,3.5,3.6,10.3,4.5,13.8c0.8,2.8,1.8,8.7,2.5,11.5c0.7,2.7,2.5,7.9,3.3,10.5c1.2,4.1,3.3,12.4,4.3,16.5c0.6,2.7,1.7,8.3,2.3,11
	c0.9,4.2,2.7,12.6,3.5,16.8c0.9,4.5,2.6,13.5,3.5,18l0,0c0.4,2.2,1.3,6.6,1.8,8.8c0.6,3.1,1.7,9.4,2.3,12.5c0.3,1.7,0.9,5.1,1,6.8
	c0.2,2.1,0.2,6.2,0.3,8.3c0,3.1-0.2,9.4-0.3,12.5c-0.1,2.9-0.4,8.6-0.5,11.5c-0.2,3.4-0.6,10.3-0.8,13.8c-0.1,3.2,0,9.6-0.3,12.8
	c-0.2,2.8,0.8,9.1-1.3,11c-1,0.9-4.1,0.1-5.5,0.3c-2.7,0.2-8.1,1.1-10.8,1.5c-2.7,0.4-8.3,0.9-10.8,2c-1.5,0.7-3.7,3.1-5,4
	c-1.8,1.3-5.5,3.7-7.5,4.8c-3.1,1.7-9.7,4.4-13,5.8c-1.2,0.5-4.2,0.7-5,1.8c-1.3,1.7-0.6,6.4-0.8,8.5l0,0c0.1,1.8,0.2,5.3,0.3,7
	c0,1.7,0.1,5.1,0,6.8c-0.2,3.2-1.4,9.4-1.8,12.5c-0.4,3.1-1.1,9.2-1.3,12.3c-0.2,3.5-0.4,10.5-0.3,14c0.1,1.2,0.2,3.6,0.5,4.8
	c0.8,3.1,3.7,9,4.8,12c1,2.9,2,9.1,3.5,11.8c1.1,2,4.4,5.1,6,6.8c1.2,1.2,3.7,3.4,4.9,4.5c1.2,1.1,3.7,3.3,4.9,4.5
	c1.6,1.7,5.1,5,6.3,7c0.6,1,1.4,3.3,1.5,4.5c0.2,2-0.8,6-1,8c-0.1,1.9,0,5.6-0.3,7.5c-0.1,0.6-0.1,2-0.5,2.5c-0.7,0.9-3,1.5-4,2l0,0
	c-0.6,0.9-2.5,3.5-2.5,3.5l-3.5,6.5l-1.3,4v5.8l0.3,6v8.5l-1.8,6.5l-3.8,2.3h-5l-5-1.8l-5-0.5l-3.3-3l-1.5-1l-4.3,1.3l-7,1l-5.8,2
	l-2.5-2.5l-5.5-6.8l-4.8-3.3l-6.8,1.5l-10.3,1.8l-4.3,2l-2.3-2.3l-2.3-0.3l-4,2.5l-2,3l-1.5,5l-0.5,2.5l-4.3,1.8l-5,3.3l-3.5-1.3
	l-3-2.3l-3.5,3v3.3l2.8,2.3l-0.5,1.8l-3.8-2l-2-4.5l-3-5.5l-2.3-9.3l-2.8-6.5l-0.5-7.5l-0.3-10c0,0,1.8-11.2,2-15
	c0.2-2.8-0.2-8.4-0.3-11.3l0,0c0.3-1.8,1-5.4,1.3-7.3c0.6-4.5,1.3-13.7,1.5-18.3c0.1-2.9-0.2-8.8,0-11.8c0.2-2.9,1-8.6,1.3-11.5
	c0.2-3,0.3-9,0.5-12c0.2-2.5,1.2-7.5,1.3-10c0-1.7-1.4-5.2-0.8-6.8c0.3-0.7,1.9-1.5,2.5-2c1.1-1,3.1-3.3,4.3-4.3
	c0.9-0.7,2.7-2.2,3.8-2.5c1-0.3,3.1,0.4,4,0c0.8-0.4,1.6-2.3,2.3-3c1.6-1.9,5.3-5.4,7-7.3c1.3-1.3,3.9-3.8,5-5.3
	c0.6-0.8,1.7-2.3,2-3.3c0.2-0.7,0.3-2.1,0-2.8c-0.6-1.1-3-2.1-4-2.8c-1.7-1.2-5.2-3.4-7-4.5c-1.5-0.9-4.8-2.4-6-3.8
	c-0.8-0.9-1.9-3.3-2.3-4.5c-0.8-2.4-1.1-7.5-1.5-10l0,0c-0.2-1.4-1-4.3-0.8-5.8c0.3-1.8,2.9-4.8,3.5-6.5c0.8-2.3,1.4-7.3,1.8-9.8
	c0.3-2.4,1.8-7.5,1-9.8c-0.1-0.4-1.1-0.8-1.3-1.3c-0.4-1.3,0.5-4.1,0.8-5.5c0.4-2,1.5-5.8,2-7.8c0.4-1.8,1.5-5.4,1.5-7.3
	c0.1-2.5-0.5-7.7-1.5-10c-0.7-1.7-3.2-4.6-4.5-6c-1.5-1.6-4.9-4.5-6.8-5.8c-0.9-0.6-2.7-2-3.8-2c-1.4-0.1-4,1.6-5.3,2.3
	c-1.3,0.7-3.8,2.5-5,3.5c-1.2,1-2.8,4.3-4.3,4.3c-1.4,0-2.8-3-3.8-4c-1.1-1.1-3.8-3.1-4.5-4.5c-0.7-1.3-1-4.3-1-5.8
	c0-1.6,0.8-4.9,1-6.5c0.1-1.5,0.5-4.5,0.3-6c-0.2-1.6-0.6-5.2-2-6c-0.3-0.2-1,0.1-1.3,0.3c-0.6,0.4-1.1,1.7-1.5,2.3
	c-0.3,0.4-0.5,1.6-1,1.8c-1.1,0.4-3.2-1.2-4.3-1.5c-1.5-0.4-4.6-0.6-6-1.3c-1.2-0.6-3.2-2.4-4.3-3.3l0,0c-0.1-0.9-0.1-2.6-0.3-3.5
	c-0.4-2.9-1.9-8.4-2.5-11.3l0,0c-0.6-0.3-1.6-1.1-2.3-1.3c-1.2-0.3-3.6,0.1-4.8,0.3c-1.4,0.1-4.1,0.9-5.5,0.8c-0.7-0.1-2-0.5-2.5-1
	c-0.7-0.7-1.3-2.8-1.3-3.8c0-0.6,0.5-1.7,0.8-2.3c0.5-1.3,2-3.9,2.3-5.3c0.1-0.3,0.2-1,0-1.3c-0.8-0.9-4.8-0.3-4.8-0.3l-6.3,1
	l-3.3-2c0,0-3.7-3.7-5.3-4.5c-1.5-0.8-5-0.8-6.5-1.5c-1.5-0.7-4-2.9-5-4.3c-0.5-0.7-1.4-2.4-1.5-3.3c-0.1-1,0.5-2.9,1-3.8
	c0.5-0.9,2.4-2.1,2.8-3c0.4-1.1,0.2-3.6,0-4.8c-0.3-1.3-1.2-4.1-2.3-5c-0.7-0.6-2.8-0.7-3.8-1c-1-0.3-3.2-0.8-4-1.5
	c-0.9-0.7-2.3-2.8-2.5-4c-0.2-1.4,1.1-4,1.5-5.3c0.3-0.8,1.2-2.2,1.3-3c0.1-2.6-2.4-7.3-3.3-9.8c-0.8-2.2-2-6.8-3.3-8.8
	c-1.1-1.8-4.8-4.3-6-6c-1.5-2.1-3.4-6.9-4.5-9.3c-0.5-1.2-1.2-3.8-2-4.8c-1.2-1.4-4.5-3.2-6-4.3c-2.7-1.9-8-5.7-10.8-7.5
	c-1.3-0.9-4.3-2.2-5.5-3.3c-0.2-0.2-0.6-0.7-0.8-1c-0.8-1.3-2.2-4.1-3-5.5c-0.6-1.1-2.5-3.2-2.5-4.5c0-1.1,1.6-2.9,2.3-3.8
	c1-1.3,3.9-3.3,4.8-4.8c0.7-1.1,1.2-3.8,1.8-5c0.9-2.2,3.3-6.3,4.3-8.5c1-2.2,2.8-6.7,3.8-9c1.2-2.9,3.5-8.6,4.5-11.5
	c0.6-1.8,1.7-5.4,2.3-7.3c0.8-2.7,2.1-8.2,3.3-10.8c1.1-2.5,4.2-6.9,5.5-9.3c1.1-2,2.9-6.3,4-8.3c0.7-1.2,2.2-3.8,3.3-4.8
	c1.1-1,4-1.8,5-2.8c0.7-0.7,1.7-2.5,2-3.5s0.3-3,0.5-4c0.2-1,0.8-3,1.3-4c0.5-1.2,1.8-3.4,2.5-4.5c1-1.7,3.2-4.9,4.3-6.5l0,0
	c0.9-1.6,2.9-4.6,3.8-6.3c0.7-1.3,1.8-3.9,2.3-5.3c0.4-1,0.9-3.2,1.3-4.3l0,0"/>
</svg>
