<?xml version="1.0" encoding="utf-8"?>
<!-- Generator: Adobe Illustrator 25.3.0, SVG Export Plug-In . SVG Version: 6.00 Build 0)  -->
<svg version="1.1" id="Layer_1" xmlns="http://www.w3.org/2000/svg" xmlns:xlink="http://www.w3.org/1999/xlink" x="0px" y="0px"
	 viewBox="0 0 556 600" style="enable-background:new 0 0 556 600;" xml:space="preserve">
<style type="text/css">
	.st0{fill:none;stroke:#4682B4;stroke-width:0.5;stroke-linecap:round;stroke-linejoin:round;}
</style>
<path class="st0" d="M425.2,15c0,16.3,7.6,48.3,11.3,64.2c3.8,16.3,14.2,48.1,18.9,64.2c1.9,6.6,4.1,20.5,7.5,26.4
	c8.1,13.8,36.6,31.9,45.3,45.3c11.5,17.8,30.2,79.3,30.2,79.3s8.1,32,3.8,41.5c-6.8,14.8-39.6,28.3-52.8,37.7l0,0"/>
<path class="st0" d="M13.8,505.7l135.9,37.7l120.8,22.6c0,0,87.4,19.3,117,18.9c15.4-0.2,45.5-7.5,60.4-11.3
	c8.7-2.2,29.2-3.7,34-11.3c7.6-12.1-5.1-42.6-7.5-56.6c-2.3-13.3-8.5-39.6-11.3-52.8l0,0"/>
</svg>
