<?xml version="1.0" encoding="utf-8"?>
<!-- Generator: Adobe Illustrator 25.3.0, SVG Export Plug-In . SVG Version: 6.00 Build 0)  -->
<svg version="1.1" id="Layer_1" xmlns="http://www.w3.org/2000/svg" xmlns:xlink="http://www.w3.org/1999/xlink" x="0px" y="0px"
	 viewBox="0 0 176 226" style="enable-background:new 0 0 176 226;" xml:space="preserve">
<style type="text/css">
	.st0{fill:none;stroke:#4682B4;stroke-width:0.5;stroke-linecap:round;stroke-linejoin:round;}
</style>
<path class="st0" d="M4.4,220.4c0-2.4,6.7-3,9-3.9c2.8-1,8.7-2.3,11.6-3.2c2.3-0.7,7.7-1.2,9-3.2c1.5-2.3-0.6-8.2-0.6-10.9
	c-0.1-3.2,0.5-9.7,0-12.9c-0.3-2.2-2.7-6.2-2.6-8.4c0.1-1.6,2.2-4.2,2.6-5.8c0.7-3,0.7-9.2,0.6-12.2c-0.1-4-0.5-12.1-1.3-16.1
	c-0.3-1.5-1.6-4.3-1.9-5.8c-0.4-1.9-0.2-5.8-0.6-7.7c-0.5-2-3.7-5.7-3.2-7.7c0.3-1.2,2.9-2.5,3.9-3.2c2.3-1.7,7-5.4,9.6-6.4
	c2.6-1,8.2-2,10.9-1.9c2.9,0.1,8.8,2.1,11.6,1.3c1.6-0.4,3.9-2.9,5.1-3.9c2.6-2,7.2-7.3,10.3-8.4c1.7-0.6,5.5,0.8,7.1,0
	c2.3-1.1,5.2-5.5,6.4-7.7c2-3.7,3.6-12.1,5.1-16.1c1.3-3.3,3.5-10.1,5.8-12.9c1.3-1.5,4.7-3.6,6.4-4.5c2.6-1.4,8.7-2.6,10.9-4.5
	c2.1-1.8,4.3-7.2,5.8-9.6c2.2-3.7,6.9-11,9-14.8c1.2-2.2,3.1-6.9,4.5-9c0.8-1.2,2.8-3.4,3.9-4.5c2-2,5.8-6.4,8.4-7.7
	c2.8-1.4,9.1-2.2,12.2-2.7c1.9-0.3,7.7,1.4,7.7-0.6"/>
</svg>
