<?xml version="1.0" encoding="utf-8"?>
<!-- Generator: Adobe Illustrator 25.3.0, SVG Export Plug-In . SVG Version: 6.00 Build 0)  -->
<svg version="1.1" id="Layer_1" xmlns="http://www.w3.org/2000/svg" xmlns:xlink="http://www.w3.org/1999/xlink" x="0px" y="0px"
	 viewBox="0 0 67 226" style="enable-background:new 0 0 67 226;" xml:space="preserve">
<style type="text/css">
	.st0{fill:none;stroke:#4682B4;stroke-width:0.5;stroke-linecap:round;stroke-linejoin:round;}
</style>
<path class="st0" d="M56.3,5.7c0,0.3-0.3,1-0.6,1.2c-0.2,0.2-0.6,0.5-0.9,0.6c-0.4,0-1.1-0.7-1.6-0.7c-0.3,0-0.9,0.4-1.1,0.6
	c-0.4,0.4-1,1.4-1.3,1.9c-0.3,0.5-1,1.5-1.3,2c-0.4,0.6-1.4,1.8-1.7,2.4c-0.2,0.4-0.5,1.3-0.4,1.8c0.1,0.8,1.3,2.1,1.7,2.9
	c0.3,0.6,0.7,2.1,1.1,2.7c0.3,0.4,1.4,1,1.7,1.4c0.5,0.8,0.9,2.6,1.2,3.4c0.2,0.5,0.4,1.5,0.7,2c0.4,0.6,1.5,1.6,1.9,2.2
	c0.2,0.3,0.6,1,0.7,1.3c0.2,0.6,0.3,1.9,0.3,2.6c0.1,0.8,0,2.5,0.3,3.2c0.2,0.5,1,1.3,1.3,1.8c0.4,0.5,1.5,1.3,1.7,1.9
	c0.3,1.1-0.4,3.4-0.8,4.6c-0.2,0.7-0.8,2-1.2,2.7c-0.5,0.8-1.7,2.2-2.2,3l0,0c-0.2,0.4-0.9,1-1,1.4c-0.2,0.6,0.3,1.9,0.2,2.6
	c0,0.5-0.2,1.6-0.4,2.1c-0.2,0.5-1.3,1.3-1.4,1.9c-0.2,0.8,0,2.4,0.1,3.2c0.1,0.6,0.2,1.7,0.3,2.2c0.1,0.5,0.7,1.5,0.7,2
	c-0.1,0.6-1,1.4-1.2,1.9c-0.3,0.6-0.9,2-1,2.7c-0.1,0.6,0.1,1.8-0.1,2.3c-0.3,0.7-1.5,1.5-1.9,2.1c-0.3,0.4-0.8,1.4-0.9,1.9
	c0,0.3,0,1.1,0.2,1.3c0.2,0.4,1.1,0.7,1.4,0.9c0.4,0.2,1.2,0.4,1.6,0.4c0.4,0,1.3-0.2,1.8-0.2c0.6,0,1.7,0.3,2.3,0.4
	c0.4,0.1,1.3,0.2,1.7,0.3c0.5,0.1,1.5,0.3,2,0.6c0.3,0.1,0.8,0.5,1,0.8c0.3,0.4,0.6,1.5,0.7,2c0.1,1.4-0.7,5.4-0.7,5.4
	s-0.4,3.5-0.6,4.7c-0.1,0.8-0.2,2.3-0.3,3.1l0,0c-0.1,1.2-0.3,3.6-0.3,4.8c-0.1,1.6-0.3,4.7-0.3,6.3c0,1.1-0.1,3.3,0,4.4
	c0.1,1.1,0.3,3.3,0.6,4.3c0.3,1.5,1.4,4.4,2,5.8c0.5,1.3,1.9,3.8,2.3,5.1c0.2,0.7,0.6,2.1,0.7,2.8c0.2,1.2,0.4,3.7,0.4,4.9
	c0,0.9-0.1,2.7-0.1,3.7c0,0.9-0.1,2.7-0.2,3.6c-0.2,0.9-0.9,2.7-1.2,3.7c-0.3,1-0.9,3-1.1,4c-0.3,1.3-1,3.8-1.2,5.1
	c-0.1,0.7-0.3,2.2-0.4,2.9l0,0c-0.3,1.1-1,3.1-1.1,4.2c-0.2,1.2-0.1,3.7-0.1,4.9c0,0.9-0.1,2.7-0.2,3.6c-0.1,0.9-0.3,2.8-0.4,3.7
	c-0.1,0.8-0.5,2.3-0.6,3.1c0,1,0.3,2.9,0.4,3.9c0.1,0.8,0.3,2.4,0.3,3.2c0.1,1.1,0,3.2,0,4.3c0,0.6,0.2,1.8,0.1,2.4
	c-0.1,0.5-0.4,1.6-0.6,2.1c-0.2,0.5-0.6,1.5-1,1.9c-0.7,0.7-2.5,1.5-3.3,1.9c-1,0.5-3.1,1.3-4.1,1.7c-1.2,0.5-3.7,1.4-5,1.9
	c-0.6,0.2-1.8,0.8-2.4,0.9c-0.7,0.2-2.2,0.2-3,0.2c-0.7,0.1-2.2,0.3-2.9,0.3c-0.6,0.1-1.8,0-2.3,0.2c-0.5,0.2-1.4,1-1.8,1.4
	c-0.6,0.6-1.4,1.9-2,2.4c-0.5,0.4-1.7,1.1-2.3,1.3c-1.3,0.6-4,1.4-5.3,1.9c-0.8,0.3-2.2,0.9-3,1.2c-1.2,0.4-3.5,1.2-4.7,1.6
	c-0.3,0.1-0.8,0.2-1.1,0.3c-0.6,0.3-1.6,1-2.1,1.3c-0.7,0.5-2,1.7-2.7,2.2l0,0c-0.6,0.3-1.7,0.9-2.3,1.2c-0.9,0.4-2.7,1.2-3.6,1.6
	c-0.7,0.3-2,0.7-2.7,1l0,0"/>
</svg>
