<?xml version="1.0" encoding="utf-8"?>
<!-- Generator: Adobe Illustrator 25.3.0, SVG Export Plug-In . SVG Version: 6.00 Build 0)  -->
<svg version="1.1" id="Layer_1" xmlns="http://www.w3.org/2000/svg" xmlns:xlink="http://www.w3.org/1999/xlink" x="0px" y="0px"
	 viewBox="0 0 67 24" style="enable-background:new 0 0 67 24;" xml:space="preserve">
<style type="text/css">
	.st0{fill:none;stroke:#4682B4;stroke-width:0.5;stroke-linecap:round;stroke-linejoin:round;}
</style>
<path class="st0" d="M3.4,23.4c0-0.6,1.7-0.7,2.3-0.9c1.2-0.4,3.7-0.8,4.9-1.3c0.4-0.2,1.2-0.7,1.6-1c0.6-0.5,1.9-1.5,2.4-2
	c0.5-0.4,1.3-1.3,1.8-1.7c0.6-0.4,2-1,2.7-1.2c0.7-0.2,2.2-0.4,2.9-0.6c0.9-0.3,2.8-1.1,3.7-1.4c0.9-0.4,2.8-1.1,3.8-1.4
	c0.7-0.3,2.1-0.7,2.8-1.1c0.5-0.3,1.4-1.1,1.8-1.6c0.3-0.4,0.8-1.3,1.2-1.7c0.6-0.5,2.1-1.1,2.9-1.3C38.7,6,40,5.8,40.6,5.7
	c0.8-0.1,2.4-0.2,3.2-0.3c0.9-0.1,2.6-0.5,3.4-0.8c0.9-0.3,2.6-1.1,3.4-1.3c0.8-0.2,2.6-0.4,3.4-0.7c0.8-0.2,2.4-1,3.2-1.2
	C58.3,1.2,60,1.2,60.9,1c0.7-0.1,2.1-0.3,2.8-0.4l0,0"/>
</svg>
