<?xml version="1.0" encoding="utf-8"?>
<!-- Generator: Adobe Illustrator 25.3.0, SVG Export Plug-In . SVG Version: 6.00 Build 0)  -->
<svg version="1.1" id="Layer_1" xmlns="http://www.w3.org/2000/svg" xmlns:xlink="http://www.w3.org/1999/xlink" x="0px" y="0px"
	 viewBox="0 0 100 80" style="enable-background:new 0 0 100 80;" xml:space="preserve">
<style type="text/css">
	.st0{fill:none;stroke:#4682B4;stroke-width:0.5;stroke-linecap:round;stroke-linejoin:round;}
</style>
<path class="st0" d="M64.2,75.7c0,1.4-4.1-0.1-5.4,0c-0.9,0-2.7,0.1-3.5,0.4c-1,0.3-2.5,1.9-3.5,1.9c-0.8,0.1-2.6-0.5-3.1-1.2
	c-0.4-0.6,0.1-2.3,0-3.1c-0.2-1.2-0.9-3.6-1.6-4.7c-0.5-0.7-2-1.8-2.7-2.3c-0.9-0.7-3-1.9-3.9-2.7c-1.1-1-3.3-3-3.9-4.3
	c-0.7-1.4-0.7-4.6-0.8-6.2c0-0.6-0.3-1.8,0-2.3c0.4-0.7,2-1.2,2.7-1.6c0.7-0.3,2.1-0.7,2.7-1.2c1-0.7,2.6-2.7,3.5-3.5
	c1.2-1,4.1-2.6,5-3.9c0.6-0.8,1-2.9,1.2-3.9c0.3-1.4,1-4.4,0.8-5.8c-0.3-1.5-2.2-4-2.7-5.4c-0.4-1.1-0.9-3.5-0.8-4.7
	c0.1-0.9,1-2.7,1.6-3.5c0.8-1,3.3-2.2,4.3-3.1c0.9-0.9,2.7-2.7,3.1-3.9c0.3-0.7,0.3-2.4,0-3.1c-0.3-0.8-1.7-2.1-2.3-2.7
	c-0.5-0.5-1.9-1.3-2.3-1.9c-0.2-0.3-0.3-0.9-0.4-1.2l0,0"/>
</svg>
