<?xml version="1.0" encoding="utf-8"?>
<!-- Generator: Adobe Illustrator 25.3.0, SVG Export Plug-In . SVG Version: 6.00 Build 0)  -->
<svg version="1.1" id="Layer_1" xmlns="http://www.w3.org/2000/svg" xmlns:xlink="http://www.w3.org/1999/xlink" x="0px" y="0px"
	 viewBox="0 0 33 80" style="enable-background:new 0 0 33 80;" xml:space="preserve">
<style type="text/css">
	.st0{fill:none;stroke:#4682B4;stroke-width:0.5;stroke-linecap:round;stroke-linejoin:round;}
</style>
<path class="st0" d="M0.9,78c0-0.2,0.5-0.4,0.7-0.5c0.3-0.2,0.9-0.5,1.2-0.7c0.5-0.2,1.5-0.6,2-0.9c0.3-0.1,0.8-0.3,1-0.5
	c0.2-0.1,0.6-0.5,0.8-0.7c0.1-0.1,0.3-0.4,0.5-0.4c0.4-0.2,1.2-0.2,1.6-0.3c0.5-0.2,1.5-0.6,2-0.8c0.6-0.2,1.8-0.6,2.4-0.8
	c0.3-0.1,1-0.4,1.3-0.6c0.2-0.1,0.7-0.5,0.9-0.7c0.2-0.2,0.6-0.7,0.8-0.8c0.3-0.1,0.9,0,1.2-0.1c0.3,0,0.9,0,1.1-0.1
	c0.2-0.1,0.4-0.5,0.6-0.7c0.1-0.1,0.5-0.2,0.7-0.3c0.2-0.1,0.6-0.1,0.8-0.1c0.3-0.1,0.9-0.3,1.2-0.4c0.7-0.2,2.2-0.6,2.9-0.9
	c0.4-0.1,1.2-0.4,1.6-0.6c0.5-0.2,1.4-0.6,1.8-0.9c0.3-0.2,0.7-0.7,0.9-1c0.2-0.4,0.3-1.3,0.4-1.7c0.1-0.5,0-1.6,0-2.1
	c0-0.6-0.1-1.8-0.1-2.4c0-0.6-0.2-1.7-0.2-2.3c0-0.3,0-1,0.1-1.4c0-0.4,0-1.1,0.1-1.5c0-0.6,0.1-1.8,0.1-2.4l0,0
	c0-0.4,0.1-1.2,0.2-1.5c0.1-0.6,0.4-1.7,0.5-2.3c0.1-0.7,0.3-2.2,0.4-2.9c0.1-0.5,0.4-1.4,0.5-1.8c0.2-0.5,0.5-1.5,0.7-2
	c0.1-0.4,0.5-1.2,0.5-1.6c0.1-0.5,0-1.5-0.1-2c0-0.5,0-1.6,0-2.1c0-0.4,0.1-1.2,0.1-1.5c-0.1-0.6-0.8-1.6-1-2.1
	c-0.2-0.6-0.6-1.8-0.8-2.4c-0.2-0.4-0.6-1.3-0.8-1.7c-0.1-0.4-0.3-1.3-0.4-1.8c0-0.3,0-0.9-0.1-1.2l0,0c0-0.4-0.1-1.3-0.1-1.8
	c0-0.8,0.3-2.5,0.4-3.3c0-0.6,0-1.9,0.1-2.5c0-0.4,0.3-1.3,0.3-1.7c0.1-0.8,0.3-2.3,0.3-3.1c0-0.7,0.2-2-0.1-2.6
	c-0.1-0.3-0.7-0.7-1-0.8c-0.5-0.3-1.7-0.4-2.3-0.5c-0.2,0-0.7,0-0.9,0.1c-0.3,0-1,0.2-1.3,0.1c-0.4-0.1-1.1-0.8-1.5-1
	c-0.3-0.2-0.9-0.4-1.2-0.6c-0.6-0.3-1.7-1.1-2.3-1.5l0,0c-0.3-0.2-0.8-0.5-1.1-0.6c-0.4-0.2-1.2-0.8-1.6-0.9
	c-0.2-0.1-0.7-0.2-0.9-0.2c-0.4-0.1-1.1-0.2-1.5-0.3c-0.3-0.1-0.9-0.2-1.2-0.3c-0.3-0.1-0.7-0.3-1-0.4c-0.2,0-0.6-0.1-0.8-0.1
	c-0.3-0.1-0.8-0.3-1.1-0.4C10.1,2.1,9.8,2,9.6,2C9.4,2,8.9,2.4,8.7,2.5C8.5,2.6,8.1,2.8,8,3C7.9,3.1,7.8,3.3,7.8,3.5
	c0,0.3,0,0.8,0.1,1C7.9,4.8,8,5.2,8,5.5c0,0.1-0.1,0.3-0.1,0.4C7.8,6.1,7.3,6.4,7.2,6.7C7,6.9,6.8,7.3,6.7,7.5
	C6.6,7.6,6.5,7.9,6.4,8C6.3,8.4,6.3,9.3,6.3,9.7c0,0.3,0,0.8,0,1c0,0.2,0,0.5,0.1,0.7c0.1,0.1,0.3,0.3,0.4,0.3
	c0.1,0.1,0.4,0.2,0.5,0.2c0.1,0,0.3,0,0.4,0.1c0.2,0.1,0.5,0.5,0.5,0.7c0.1,0.3,0.2,0.9,0.1,1.2c-0.1,0.2-0.4,0.6-0.5,0.8
	c-0.1,0.2-0.3,0.7-0.4,1c-0.1,0.2-0.2,0.7-0.2,1c0,0.3,0.3,0.8,0.4,1.1c0.1,0.3,0.3,1,0.4,1.3c0.1,0.1,0.2,0.3,0.3,0.4
	C8.7,19.7,9,20,9.2,20.2c0.1,0.1,0.3,0.4,0.4,0.5c0.1,0.2,0.2,0.5,0.3,0.7c0.2,0.4,0.6,1.2,0.8,1.6l0,0c0.1,0.2,0.2,0.5,0.3,0.6
	c0.1,0.2,0.3,0.5,0.4,0.7c0.1,0.2,0.2,0.7,0.2,0.9c0,0.2,0,0.6,0,0.8c0,0.1-0.1,0.4-0.2,0.5c-0.1,0.2-0.4,0.5-0.4,0.5
	s-0.5,0.5-0.7,0.7c-0.1,0.2-0.4,0.5-0.5,0.6c-0.1,0.2-0.3,0.6-0.3,0.8c-0.1,0.2,0,0.8,0,1c0,0.1,0,0.2,0,0.3l0,0
	c-0.1,0.1-0.4,0.2-0.6,0.3c-0.2,0.1-0.6,0.1-0.8,0.2c-0.2,0.1-0.5,0.3-0.6,0.4c-0.1,0.1-0.3,0.2-0.3,0.3c-0.1,0.2-0.2,0.6-0.3,0.8
	c-0.1,0.2-0.1,0.6-0.2,0.8c-0.1,0.3-0.3,0.8-0.4,1c-0.1,0.1-0.2,0.4-0.3,0.5c-0.1,0.2-0.4,0.5-0.5,0.6c-0.1,0.1-0.3,0.2-0.3,0.3
	c-0.1,0.2-0.2,0.8-0.3,1c0,0.2,0,0.6-0.1,0.8c-0.1,0.2-0.3,0.5-0.4,0.7c-0.2,0.3-0.6,0.9-0.8,1.3c-0.1,0.3-0.5,0.8-0.5,1.1
	c-0.1,0.4-0.1,1.2-0.1,1.6c0,0.3,0,1,0,1.3c0,0.2,0,0.7,0,1c0,0.1,0,0.3,0,0.4c-0.1,0.1-0.3,0.3-0.4,0.4c-0.1,0.1-0.3,0.3-0.4,0.4
	c0,0.1-0.1,0.3-0.1,0.4c0,0.1,0.3,0.2,0.4,0.2c0.1,0,0.4,0.1,0.5,0.1c0.1,0,0.3,0,0.4,0c0.1,0,0.2,0.2,0.2,0.3
	c0,0.2-0.2,0.6-0.3,0.7c-0.1,0.2-0.4,0.5-0.6,0.7c-0.1,0.1-0.2,0.2-0.3,0.3l0,0C2.2,48.9,2,49.2,2,49.4c0,0.1,0.2,0.3,0.3,0.3
	c0.2,0.1,0.5-0.1,0.7-0.1c0.2,0,0.4-0.2,0.6-0.2c0.1,0,0.4,0,0.5,0c0.2,0,0.5,0.1,0.7,0.2c0.2,0.1,0.4,0.5,0.4,0.7
	c0.1,0.2,0.2,0.7,0.1,0.9c0,0.2-0.3,0.4-0.4,0.5c-0.2,0.1-0.6,0.2-0.7,0.3c-0.1,0.1,0,0.4,0,0.5c0,0.1,0,0.3,0,0.4
	c-0.1,0.2-0.5,0.4-0.6,0.5c-0.1,0.1,0.1,0.5,0,0.6c-0.1,0.2-0.3,0.4-0.4,0.5c-0.1,0.2-0.5,0.6-0.5,0.8c-0.1,0.3-0.2,1.1-0.3,1.5
	c0,0.3,0,0.9,0,1.2c0,0.3,0.2,0.7,0.3,1c0,0.1,0.1,0.3,0.2,0.4c0,0.2,0.1,0.7,0,0.9c-0.1,0.3-0.4,0.7-0.5,0.9
	C2.1,61.4,2,61.8,2,62.1c0,0.2,0,0.5,0,0.7c0,0.2,0.1,0.6,0.2,0.8c0.1,0.2,0.6,0.6,0.8,0.7c0.1,0.1,0.3,0.1,0.4,0.2l0,0"/>
</svg>
