<?xml version="1.0" encoding="utf-8"?>
<!-- Generator: Adobe Illustrator 25.3.0, SVG Export Plug-In . SVG Version: 6.00 Build 0)  -->
<svg version="1.1" id="Layer_1" xmlns="http://www.w3.org/2000/svg" xmlns:xlink="http://www.w3.org/1999/xlink" x="0px" y="0px"
	 viewBox="0 0 120 250" style="enable-background:new 0 0 120 250;" xml:space="preserve">
<style type="text/css">
	.st0{fill:none;stroke:#4682B4;stroke-width:0.5;stroke-linecap:round;stroke-linejoin:round;}
</style>
<path class="st0" d="M71.6,243.8c0,0-1.7-19.5-1.9-26.1c-0.2-5.5,0-16.7,0-22.2c0-4.8,0-14.5,0-19.3c0-12.8,0.5-38.4,0-51.2
	c-0.2-6-1.2-18.1-1.9-24.1c-0.9-7-2.4-21.3-4.8-28c-1-2.6-4.7-7.1-5.8-9.7c-1.7-3.9-4-12.2-4.8-16.4c-0.9-4.3-1.3-13.1-1.9-17.4
	c-0.4-2.7-1.7-7.9-1.9-10.6c-0.3-2.9,0-8.7,0-11.6c0-0.2,0-0.7,0-1"/>
</svg>
