<?xml version="1.0" encoding="utf-8"?>
<!-- Generator: Adobe Illustrator 25.3.0, SVG Export Plug-In . SVG Version: 6.00 Build 0)  -->
<svg version="1.1" id="Layer_1" xmlns="http://www.w3.org/2000/svg" xmlns:xlink="http://www.w3.org/1999/xlink" x="0px" y="0px"
	 viewBox="0 0 40 120" style="enable-background:new 0 0 40 120;" xml:space="preserve">
<style type="text/css">
	.st0{fill:none;stroke:#4682B4;stroke-width:0.5;stroke-linecap:round;stroke-linejoin:round;}
</style>
<path class="st0" d="M18.2,117c0-0.4,0.1-1.2,0.1-1.7c0.1-0.7,0.1-2.1,0.3-2.8c0.2-0.6,0.7-1.7,1-2.3c0.2-0.5,0.7-1.6,0.8-2.2
	c0.1-0.7,0.1-2.1,0-2.8c-0.1-0.6-0.8-1.5-1-2.1c-0.1-0.4-0.3-1.2-0.4-1.7c-0.2-0.6-0.5-1.9-0.7-2.5c-0.1-0.5-0.3-1.4-0.4-1.9
	c-0.1-0.3-0.1-1-0.1-1.4c-0.1-0.4-0.5-1.2-0.6-1.7c-0.2-0.7-0.2-2.3-0.4-3c-0.1-0.3-0.3-0.7-0.4-1c-0.2-0.7-0.3-2.1-0.3-2.8
	c0-0.4,0.3-1.2,0.4-1.7c0.1-0.7,0.2-2.3,0.3-3c0.1-0.4,0.1-1.2,0.3-1.5c0.1-0.2,0.6-0.5,0.8-0.7c0.4-0.2,1.2-0.5,1.7-0.7
	c0.6-0.2,1.8-0.6,2.3-1c0.3-0.3,0.8-1,1-1.4c0.4-0.8,1-2.5,1.1-3.4c0-0.3,0-0.9,0-1.2c0-0.6,0-1.7-0.1-2.2c-0.1-0.4-0.7-1.2-0.8-1.7
	c-0.1-0.3-0.1-0.8-0.1-1.1c0-0.7-0.1-2,0-2.6c0.1-0.5,0.3-1.6,0.6-2.1c0.1-0.3,0.5-0.8,0.7-1c0.1-0.1,0.4-0.3,0.6-0.4
	c0.4-0.5,1-1.6,1.4-2.1c0.2-0.3,0.8-0.9,1-1.2c0.2-0.5,0.2-1.7,0.4-2.2c0.1-0.4,0.4-1.2,0.7-1.5c0.3-0.3,1.3-0.5,1.7-0.8
	c0.2-0.2,0.6-0.8,0.7-1.1c0.2-0.5,0.2-1.7,0-2.2c-0.2-0.4-1-1.1-1.4-1.4c-0.3-0.2-1.1-0.5-1.5-0.6c-0.3-0.1-1,0-1.4,0
	c-0.4,0-1.2,0.1-1.7,0.1c-0.6,0-1.8,0.1-2.2-0.3c-0.3-0.3-0.2-1.3,0-1.7c0.2-0.5,1.2-1.1,1.7-1.5l0,0c0.4-0.1,1.3-0.2,1.5-0.6
	c0.4-0.5,0.6-1.9,0.4-2.5c-0.1-0.3-0.6-0.6-0.8-0.7c-0.4-0.2-1.5-0.1-1.9-0.3c-0.3-0.1-0.9-0.5-1-0.8c-0.1-0.2,0.1-0.8,0.3-1
	c0.2-0.2,0.7-0.5,1-0.7c0.3-0.3,1.1-0.9,1.2-1.4c0.2-0.9-0.6-2.7-0.7-3.6c-0.1-0.5,0-1.7,0-2.2c0.1-0.9,0.4-2.6,0.6-3.4
	c0.1-0.5,0.2-1.5,0.4-1.9c0.2-0.6,1-1.8,1.4-2.3c0.3-0.4,1.1-1.1,1.4-1.5c0.4-0.6,1.2-1.9,1.5-2.6c0.3-0.7,0.6-2.1,0.7-2.9
	c0.1-0.6,0.1-1.8-0.1-2.3c-0.2-0.5-0.8-1.2-1.2-1.5c-0.4-0.3-1.5-0.6-1.9-0.8c-0.7-0.4-2-1.2-2.6-1.7c-0.7-0.5-2.2-1.3-2.9-1.8
	c-0.6-0.4-1.7-1.5-2.3-1.8c-0.6-0.3-2-0.4-2.6-0.6c-0.8-0.1-2.5-0.2-3.3-0.4c-0.6-0.2-1.9-0.6-2.3-1.1C10.2,4.9,9.8,4,9.7,3.6
	c0-0.1-0.1-0.4-0.1-0.6l0,0"/>
</svg>
