<?xml version="1.0" encoding="utf-8"?>
<!-- Generator: Adobe Illustrator 25.3.0, SVG Export Plug-In . SVG Version: 6.00 Build 0)  -->
<svg version="1.1" id="Layer_1" xmlns="http://www.w3.org/2000/svg" xmlns:xlink="http://www.w3.org/1999/xlink" x="0px" y="0px"
	 viewBox="0 0 118 128" style="enable-background:new 0 0 118 128;" xml:space="preserve">
<style type="text/css">
	.st0{fill:none;stroke:#4682B4;stroke-width:0.5;stroke-linecap:round;stroke-linejoin:round;}
</style>
<path class="st0" d="M90.6,31.2l-0.3,1.1l-0.1,1l0.4,0.9l0.9,0.9l1.5,0.4l1.7-0.1l0.6,0.4l1.6,1.2l2.6,1.4l1.4,1.1v1.3l-0.8,1.9
	l-1.3,1.7L98.2,45l-0.3,1.4l-0.2,1.2l0.1,2.5l-0.1,1.4L97,52.5l-0.4,0.6l0.2,0.4l0.9,0.3l0.4,0.1l0.3,0.9l-0.7,0.7l-0.9,0.6
	l-0.1,0.8l0.4,0.4l1.2,0.1l0.7-0.3l1.1,0.2l1,1.1l-0.1,1.2l0,0l-1.4,0.9l-0.4,1.2l0.3,0.7l-0.8,0.6l-0.5,1l0,0l-0.5,0.7l-0.4,0.9
	L97,66.6l0.3,1.2l0.4,1.4l-0.1,1.4l-0.4,1.7l-0.7,0.9L95,73.6l-0.9,0.1l-0.4,0.9l-0.1,1.5l-0.4,1.2l0.1,1l0.5,0.9l0.1,1.3l0.6,0.9
	l0.2,0.9l-0.5,0.9l0,0l0.6,1.4l0.4,1.7l0.2,1.5v1l-0.7,1.4l-0.3,1.4l0.2,1.2l0.1,0.9l0.1,1l-0.7,0.5l-0.7,0.4L92.2,96h-0.9l-1.2,0.4
	l-0.9,0.4l-0.8,0.1l-0.9-0.3l-0.6,0.1L86,98.1l-0.9,0.1L84.6,98l-1.7,0.4l-3.4,1.2l-2.8,0.9l-1.4,0.2l-1.7,0.1l-0.8,0.4l-1.3,1.1
	l-0.4,1l-1.2,0.2l-2.4,0.1h-1.7l-0.9,0.7l-0.6,0.9l0,0l-0.8,1l-0.1,0.9l-0.9,2.4l-0.4,0.9l-0.8,1.5l-1.1,1.3l-1.9,0.9l-1.4,1
	l-1.2,0.6l-1,0.2l-1.3-0.2l-1.3-0.6l-1.2-0.8l-1.4-0.6l-1.3-0.1l-2.2,0.5l-2.2,0.9l-1.1,0.3l-2.4,0.1l-2.2,0.8l-2.5,1.9l-1.9-0.2
	l-0.6,0.6l-1.1,1.6l-1.2,0.8l-2,0.3l-2,0.3l0,0l-1.7,0.4h-1.9l-1.7-0.1l-0.7,0.1l-0.9,0.8l-0.9,0.8l-1.3,0.9l-0.7,0.3"/>
<path class="st0" d="M61.4,3.3l1.3-0.1l1.4,0.3l1.1,0.2l1.3,0.4l1.3,0.6L69.1,6L70,7.2l0.9,0.9l1,0.8l0.6,0.6l0.4,0.9l-0.3,1.3
	l-0.8,1.4l0,0l-0.1,1l-0.3,2.4l0.1,2.4l0.1,2.1l0.1,2.7l0.1,2l0.1,1.4l-0.4,1.2l-0.7,1.7l-0.4,1.4l0,0l-0.7,2.2l-1.2,3l-1.1,2
	l-1.2,2.2l-0.3,2.2l-0.8,3.5l-0.7,2.8l-0.6,1.9L63.7,53v2.4l0.1,3l0.1,1.9l-0.8,1.5L63.2,62l-0.8,1.6l-0.6,1.5l-0.6,1.2l-0.6,2.8
	l0.1,1.6l-0.4,1.4l-1,2L58,74.9l-1.3,0.4l-1,0.6l-1.2,1.4l-1,1.3L52,80.9l-1.1,1.2l-2.3,2.7l-2,0.9l-3,1.2l-3,1.4l-2.4,1.3L37.2,90
	l0,0"/>
<path class="st0" d="M38.9,90.6l3.2,1.6l3.2,1.6l3.2,1.6l3.2,1.6l3.2,1.6l3.2,1.6l3.2,1.6l1.9,1.3l1.9,1.3l0,0"/>
</svg>
