<?xml version="1.0" encoding="utf-8"?>
<!-- Generator: Adobe Illustrator 25.3.0, SVG Export Plug-In . SVG Version: 6.00 Build 0)  -->
<svg version="1.1" id="Layer_1" xmlns="http://www.w3.org/2000/svg" xmlns:xlink="http://www.w3.org/1999/xlink" x="0px" y="0px"
	 viewBox="0 0 43 128" style="enable-background:new 0 0 43 128;" xml:space="preserve">
<style type="text/css">
	.st0{fill:none;stroke:#4682B4;stroke-width:0.5;stroke-linecap:round;stroke-linejoin:round;}
</style>
<path class="st0" d="M42,124.8c0-0.6,0.2-1.9,0.2-2.5c0-0.7,0.1-2.1,0-2.9c-0.1-0.5-0.4-1.6-0.6-2.1c-0.3-0.7-1.1-2.1-1.3-2.9
	c-0.2-0.6-0.3-2-0.4-2.7c0-0.4,0.1-1.2,0-1.5c-0.1-0.5-0.6-1.5-1-1.9c-0.5-0.5-1.7-1.1-2.3-1.3c-0.7-0.3-2.3-0.7-3-0.8
	c-0.5,0-1.4,0.3-1.9,0.4c-0.5,0.1-2.1,0-2.1,0l-2.3-1l-1.7-1l-0.8-0.6l-3.6-0.4l-3.6-1l-2.9-1.3l-1.7-1.1l-1-1.5l-1.5-0.8l-1.9-1.7
	l-1.3-1.5l-1.5-2.9l-0.2-1.9v-2.1v-3v-2.1L5,80.7l-2.1-2.9l-1.1-3.2l-0.6-2.7v-4.6l1.1-4.6l1.3-5.1l1-4.6L6,50.8c0,0,1.9-4,2.5-5.3
	c0.4-1,0.9-3.2,1.3-4.2c0.4-1.1,1.8-3.1,2.1-4.2c0.3-0.9,0.3-2.7,0.4-3.6l0,0c-0.2-0.9-0.7-2.7-0.8-3.6c-0.1-0.9,0-2.6,0-3.4
	c0-1.7-0.2-5,0-6.7c0.1-0.9,0.5-2.7,0.8-3.6c0.2-0.5,0.8-1.4,1-1.9c0.2-0.7,0.3-2.2,0-2.9c-0.3-0.6-1.8-1-2.3-1.5
	c-0.5-0.4-1.1-1.6-1.5-2.1C9,7.3,7.9,6.5,7.3,6.1C6.5,5.4,4.8,4.2,3.9,3.8C3.4,3.5,2.3,3.3,1.8,3.2c-0.2,0-0.7,0-1,0l0,0"/>
</svg>
