<?xml version="1.0" encoding="utf-8"?>
<!-- Generator: Adobe Illustrator 25.3.0, SVG Export Plug-In . SVG Version: 6.00 Build 0)  -->
<svg version="1.1" id="Layer_1" xmlns="http://www.w3.org/2000/svg" xmlns:xlink="http://www.w3.org/1999/xlink" x="0px" y="0px"
	 viewBox="0 0 18 54" style="enable-background:new 0 0 18 54;" xml:space="preserve">
<style type="text/css">
	.st0{fill:none;stroke:#3953A4;stroke-width:0.5;stroke-linecap:round;stroke-linejoin:round;}
	.st1{fill:none;stroke:#E42A29;stroke-width:0.5;stroke-linecap:round;stroke-linejoin:round;}
</style>
<path class="st0" d="M9.2,12.7c0,0.2-0.3,0.4-0.4,0.6c-0.3,0.3-1,0.8-1.1,1.2c-0.1,0.3,0.1,1,0.1,1.3c0,0.4,0.2,1.3,0.2,1.7
	c0,0.5,0.1,1.5,0.1,2c0,0.6,0.1,1.7,0.1,2.3c0,0.5,0.2,1.5,0.2,2s0.2,1.5,0.2,2c0,0.3-0.3,0.8-0.4,1.1c-0.2,0.5-0.6,1.4-0.8,1.9
	c-0.2,0.5-0.7,1.5-0.8,2c-0.2,0.4-0.4,1.3-0.6,1.7s-0.7,1.3-0.9,1.7C5,34.6,4.5,35.5,4.3,36l0,0c-0.2,0.5-0.7,1.5-0.9,2
	c-0.2,0.4-0.6,1.3-0.7,1.7c-0.2,0.5-0.5,1.7-0.7,2.2c-0.2,0.6-0.6,1.7-0.7,2.3c-0.2,0.6-0.4,1.9-0.6,2.6c-0.1,0.4-0.5,1.3-0.4,1.7
	c0.1,0.3,0.5,0.6,0.7,0.8c0.1,0.1,0.5,0.3,0.7,0.4c0.3,0.2,0.9,0.8,1.2,1.1c0,0.2,0,0.6,0.1,0.7c0.2,0.1,0.6,0.2,0.8,0.2
	c0.3,0.1,0.9,0,1.1,0.3c0.1,0.1,0,0.5,0,0.7l0,0"/>
<path class="st0" d="M2,2.5c0,0.3-0.6,0.4-0.8,0.6C1,3.2,0.5,3.3,0.5,3.5c0,0.3,0.8,0.5,1.1,0.7c0.4,0.4,1.3,1,1.7,1.3
	s1.3,1,1.7,1.3S6.4,7.7,6.8,8c0.5,0.3,1.5,1.1,2,1.4l0,0"/>
<path class="st1" d="M3,1.9c0-0.2,0.7-0.2,0.9-0.2c0.2-0.1,0.7-0.2,0.9-0.3c0.4,0,1.1,0.1,1.5,0.1c0.5,0,1.4,0.1,1.9,0.2
	c0.3,0,1,0,1.3,0c0.2,0,0.7-0.1,1,0c0.3,0,1,0.2,1.3,0.2c0.3,0.1,1,0.1,1.3,0.2c0.1,0.1,0.2,0.4,0.3,0.6c0,0.1,0.1,0.2,0.1,0.3
	s0,0.3,0,0.4c0,0.2,0,0.6,0,0.8s-0.2,0.5-0.2,0.6c0,0.2,0,0.5-0.1,0.7c0,0.2-0.2,0.4-0.3,0.6c0,0.1,0,0.5,0.1,0.6
	c0.1,0.2,0.6,0.2,0.7,0.3c0.1,0.2-0.2,0.5-0.3,0.6c-0.1,0.3-0.4,1-0.5,1.4l0,0"/>
<path class="st1" d="M13.1,9.4c0-0.1,0.1-0.3,0.2-0.4c0.1-0.2,0.3-0.6,0.4-0.8c0.1-0.3,0.2-0.9,0.4-1.2c0.1-0.1,0.5-0.3,0.7-0.3
	s0.6,0.1,0.8,0.3c0.2,0.2,0.3,0.6,0.3,0.9c0,0.3,0.3,0.6,0.3,0.9c0.1,0.2,0.1,0.7,0.1,0.9s0.1,0.7,0.1,0.9s0.1,0.6,0.1,0.8
	s0.1,0.6,0.1,0.8s0.1,0.7,0.1,1c0,0.2,0.1,0.7,0.1,1s0.1,0.8,0.1,1c0,0.3,0.1,0.8,0.1,1s0.1,0.7,0.1,1c0,0.2,0.1,0.7,0.1,1l0,0
	c0,0.2,0.1,0.6,0.1,0.8c0,0.2,0.2,0.6,0.2,0.8c0,0.2-0.1,0.6-0.1,0.8c0,0.3,0,1,0,1.4c0,0.3,0,0.8,0,1.1c0,0.3,0,0.8,0,1.1
	c0,0.3,0,0.9,0,1.2c0,0.2,0.1,0.7,0.1,0.9c0,0.4,0.1,1.1,0.2,1.4c0,0.2,0.1,0.6,0.1,0.8c0,0.2-0.1,0.5-0.2,0.7l0,0
	c0,0.1,0,0.4,0,0.5c0,0.2-0.2,0.6-0.2,0.8c-0.1,0.3-0.2,0.8-0.3,1.1c-0.1,0.2-0.1,0.6-0.2,0.8s-0.5,0.4-0.6,0.6
	c-0.1,0.2,0.1,0.5,0,0.6c0,0.1-0.3,0.3-0.4,0.5s-0.3,0.5-0.5,0.7c-0.1,0.1-0.5,0.2-0.6,0.3c-0.2,0.1-0.6,0.5-0.8,0.6
	c-0.2,0.2-0.6,0.5-0.8,0.6c-0.2,0.2-0.5,0.5-0.6,0.6c-0.2,0.2-0.5,0.6-0.7,0.8s-0.5,0.6-0.7,0.8s-0.5,0.6-0.6,0.8
	c-0.1,0.1-0.4,0.4-0.6,0.5c-0.2,0.1-0.5,0.2-0.7,0.3C9,40.5,8.4,40.8,8.1,41c-0.1,0.1-0.3,0.4-0.3,0.5s0,0.4,0,0.6l0,0
	c-0.1,0.1-0.4,0.4-0.4,0.6c0,0.1,0.2,0.3,0.2,0.4c0.1,0.1,0.3,0.4,0.3,0.5s0,0.4,0,0.6c0,0.3-0.4,1-0.3,1.3c0.1,0.2,0.5,0.2,0.6,0.3
	c0.1,0.2,0,0.8,0,1.1s0,1,0,1.3c0,0.2,0.2,0.6,0.2,0.8s-0.1,0.6-0.2,0.8c0,0.2-0.1,0.6-0.1,0.8c0,0.1,0.1,0.4,0.1,0.5
	c0.1,0.2,0.4,0.7,0.3,0.9c-0.1,0.2-0.5,0.2-0.7,0.2S7.2,52.1,7,52.1c-0.1,0-0.5,0-0.6,0c-0.2,0-0.6,0.2-0.8,0.3l0,0"/>
</svg>
