<?xml version="1.0" encoding="utf-8"?>
<!-- Generator: Adobe Illustrator 25.3.0, SVG Export Plug-In . SVG Version: 6.00 Build 0)  -->
<svg version="1.1" id="Layer_1" xmlns="http://www.w3.org/2000/svg" xmlns:xlink="http://www.w3.org/1999/xlink" x="0px" y="0px"
	 viewBox="0 0 600 500" style="enable-background:new 0 0 600 500;" xml:space="preserve">
<style type="text/css">
	.st0{fill:none;stroke:#E42A29;}
</style>
<path class="st0" d="M15,203.6l6.6-3.1l8.9-2.3l-0.9-5.4l-1.1-8.9L27,173.5l-0.9-8l1.1-1.7v-3.4l0.9-3.7l0.9-7.2l0.6-8.9l-1.7-2
	l-1.4-0.9l0.6-4.3l-1.7-5.4l-2.3-5.4l1.1-2.9l-0.9-4.9l-2-5.4l-1.7-4.6l2.9-3.1l5.2-6.9l4.9-6.6l5.2-7.7l0,0l0.9-6.3l2.3-6.3
	l3.4-7.7l1.7-3.1l-0.3-6l3.4-4.3l4.9-6.3l2-3.1l6.6-1.4l9.7-2.9l-1.7-4.6l-2-6l-0.3-2.9l1.1-7.2l0,0"/>
<path class="st0" d="M77.7,35.6l3.3,4.3l3.1,4.4l3.3,2l3.7,2.7l4.9,4.3l2.1,4.3l2.7,4.7l2,3.9l4.1,5.6l4.3,4.4l4.9,4.7h4.9h9.2
	l5,0.1l2.9-2.4l3.4-4.4l1.7-2.6l3.3-0.6l4-0.3l2.1,1.6l2.6,2.4l4.4-0.9l5.4-1.3l6.7-1l4.7-0.9l3.3,1l4.9,1.3l7.9,0.1l7.6,0.6l0,0
	l3,0.6L203,78l-1.1,2.9l-2.1,1.3l-3.3,1.9l-3.4-0.9l-1.6,1.6l-1.4,2.6l-1.6,1.4l-0.1,4.3l-0.1,6.9l-0.4,5.3l0.1,4.3l3.4,1.7l6.3,1.3
	l6.6,1.3l7.2,0.9l5.4,0.9l4.3,1.4l2.3,3.9l2,5l2.4,5.6l3.4,4.7l3,3.3l0,0l2,3.1l5.9,6l4.9,5.2l5,4.9l2,2.3l3.4,0.4l5.6,0.6l4.6,1
	l7.4,1.7l3.7,0.9l0,0"/>
<path class="st0" d="M569.1,306.3l2.1-2.4l3-2.1l2.6-1.3l2.9-3.3l2.7-2l2.6-1.3l0,0"/>
<path class="st0" d="M350.5,427.5l2,2.7l-1.9,3.6l-4.6,4.7l-6.6,3.9l-5.2,3.9l-3.1,1.7l-7.7,1.9l-6.9,2.7l-2.1,1.4l-1.4,3.4
	l-2.3,3.4l-5.4,3l-7.7,3l0,0l-2.1,1.7l-2.3,4l-1.9,2.7l-3,1.9l-2.6,2l-1.7,1.6l-1.7,0.3l-2.4-0.1l-4.1,0.3l-5.2,0.9l-8.7,1l-7.6,1.4
	l-4,0.9l-3,1.1l-2.4-0.3l-2.4-1.1l-1.3-1.4l-3.4,1.3l-1.9,1l-2.7,0.3l-4.7-0.1h-4.4l-3.1,0.7l-2.3,0.9l-3.7-0.7l-3.7-2.6l-5-3
	l-6-6.2l0,0"/>
<path class="st0" d="M193,474.6l-7.4-6.3l-12-8l-10.9-6l-6-3.4l-8.9-6.6l-7.7-7.2l-7.7-6.6l-9.2-10.9l-10.3-14l-7.2-12.6l-6-15.2
	l-6.6-14.3l-6.3-18L80.5,328l-6.9-15.5l0,0l-5.4-15.7L57.6,276l-7.2-13.2l-10-17.2l-8.9-14.3l-8-12l-6.9-10.9l0,0"/>
<path class="st0" d="M20.7,207.9l5.7,1.7L37,213l12.6,6.9l13.7,8.6l16.9,12.9l21.7,17.7l15.2,11.2L134,282l16.6,10.6l21.5,10.9
	l20,7.7l20,5.7l24.3,3.7l19.5,1.4h22.9l13.7-0.6l0,0l9.4-1.1l20-2l21.5-2.9l20-3.4l21.7-4l15.5-3.1l23.5-4l26-4.6l14.6-1.7l18-1.1
	h18.6l12.3,0.6l13.4,2.6l13.7,4l13.7,6.3l0,0"/>
<path class="st0" d="M563.8,309.7L561,312l-4.6,3.1l-3.1,6.3l-4.6,7.7l-11.2,6.6l-15.7,5.7l-11.2,4l-18,6.3l-18.9,6l-23.5,9.2
	l-20.9,8.6l-16,7.4l-18,10.9l-14.6,9.7l-9.2,6.9l-8,6.6l-10,7.2l0,0"/>
</svg>
