<?xml version="1.0" encoding="utf-8"?>
<!-- Generator: Adobe Illustrator 25.3.0, SVG Export Plug-In . SVG Version: 6.00 Build 0)  -->
<svg version="1.1" id="Layer_1" xmlns="http://www.w3.org/2000/svg" xmlns:xlink="http://www.w3.org/1999/xlink" x="0px" y="0px"
	 viewBox="0 0 11 54" style="enable-background:new 0 0 11 54;" xml:space="preserve">
<style type="text/css">
	.st0{fill:none;stroke:#4682B4;stroke-width:0.5;stroke-linecap:round;stroke-linejoin:round;}
</style>
<path class="st0" d="M10.6,1.4c0,0.4-0.2,1.2-0.3,1.6c0,0.4,0,1.3-0.1,1.7C10.1,5,9.8,5.4,9.7,5.6C9.5,6,9.2,6.8,9,7.2
	C8.8,7.7,8.2,8.4,8.2,8.9c0,0.3,0.2,1,0.3,1.3C8.6,10.8,9,12,9,12.6c0,0.2,0,0.6-0.1,0.8s-0.4,0.5-0.4,0.7c-0.1,0.3-0.1,0.9-0.1,1.2
	c0,0.2,0,0.7,0.1,0.9c0.1,0.3,0.2,1,0.3,1.3C8.9,18,9,18.8,9.1,19.3c0.1,0.4,0.4,1.1,0.3,1.4c0,0.2-0.2,0.6-0.3,0.7
	c-0.2,0.2-0.7,0.3-0.9,0.5c-0.3,0.2-0.8,0.7-1.1,1c-0.3,0.2-0.8,0.7-1,1c-0.1,0.3,0,0.9,0,1.2c0,0.4-0.2,1-0.2,1.4
	c0,0.2,0,0.7-0.1,0.9c-0.1,0.3-0.6,0.8-0.8,1c-0.3,0.4-0.8,1-1,1.4l0,0C4,30.1,3.9,30.7,3.8,31c-0.1,0.3-0.5,0.9-0.6,1.2
	C3,32.6,2.6,33.5,2.4,34c-0.2,0.5-0.4,1.5-0.6,2c-0.1,0.2-0.2,0.7-0.4,1c-0.1,0.2-0.5,0.5-0.6,0.7c-0.2,0.5-0.8,1.6-0.5,2
	C0.5,39.9,0.9,39.9,1,40c0.2,0.3-0.2,0.9-0.2,1.2c0,0.2-0.3,0.7-0.2,0.9s0.6,0.2,0.9,0.3c0.2,0.1,0.5,0.1,0.6,0.3s0,0.7,0.1,1
	c0,0.1,0.2,0.1,0.2,0.2c0.1,0.3,0,0.8-0.2,1.1c-0.1,0.1-0.4,0.3-0.5,0.4c-0.2,0.3-0.1,1.1-0.3,1.4C1.3,46.9,1.1,46.9,1,47
	c-0.2,0.3-0.1,0.9,0.1,1.2c0.1,0.2,0.6,0.2,0.7,0.4c0.1,0.1,0,0.3,0,0.4c0,0.2-0.1,0.6,0,0.8c0.1,0.1,0.4,0,0.4,0.2
	s-0.4,0.4-0.4,0.5c-0.1,0.2,0.1,0.6,0,0.8c0,0.2-0.3,0.6-0.4,0.8c0,0.1,0,0.5,0,0.6l0,0"/>
</svg>
