<?xml version="1.0" encoding="utf-8"?>
<!-- Generator: Adobe Illustrator 25.3.0, SVG Export Plug-In . SVG Version: 6.00 Build 0)  -->
<svg version="1.1" id="Layer_1" xmlns="http://www.w3.org/2000/svg" xmlns:xlink="http://www.w3.org/1999/xlink" x="0px" y="0px"
	 viewBox="0 0 363 296" style="enable-background:new 0 0 363 296;" xml:space="preserve">
<style type="text/css">
	.st0{fill:none;stroke:#E42A29;stroke-linecap:round;stroke-linejoin:round;}
</style>
<path class="st0" d="M108.7,43.2c0-0.6,1.3-1.3,1.7-1.8c0.6-0.7,1.4-2.3,2.1-2.8c0.5-0.3,1.9-0.6,2.5-0.5c0.7,0.1,1.8,1.1,2.4,1.4
	c1.6,0.7,5.1,1.5,6.8,1.9c1.8,0.4,5.4,0.8,7.2,1.1c1.1,0.2,3.8,0.2,4.5,1.1c0.5,0.6-0.4,2.5-0.1,3.2c0.4,0.8,1.9,1.9,2.7,2.3
	c0.7,0.4,2.4,0.4,2.9,1c0.4,0.5,0.5,1.8,0.5,2.5c0,0.3-0.4,0.8-0.2,1c0.5,0.6,2.4-0.1,3.2-0.1c1.4-0.1,4.3-0.6,5.8-0.8
	c1.2-0.2,3.7-0.6,5-0.4c0.6,0.1,1.8,0.8,2.3,1.1c0.7,0.4,2,1.6,2.8,1.8c1.7,0.4,5.2-0.2,7-0.5c1.5-0.2,4.5-0.9,6-1.2l0,0
	c0.9-0.2,2.7-0.7,3.6-0.9c0.7-0.2,2-0.7,2.7-0.6c1.1,0.1,3,1.3,4,1.7c1.5,0.6,4.5,1.6,6,2.1c1.8,0.6,5.4,1.9,7.2,2.5
	c0.9,0.4,3,0.8,3.8,1.5c0.8,0.8,1.1,3,1.5,4c0.5,1.2,1.9,3.4,2.5,4.6l0,0c0.5,1,1.3,3.1,1.9,4.1c0.8,1.2,2.9,3.2,3.8,4.3
	c1.1,1.2,3,3.7,4.3,4.6c1.3,1,4.3,2.2,5.8,3c0.6,0.3,1.8,1.2,2.5,1.4c0.8,0.2,2.5,0.1,3.3,0.3c0.8,0.2,2.2,1.1,2.9,1.3
	c0.5,0.2,1.6,0.2,2,0.5c0.7,0.5,1.3,2.3,1.8,2.9c0.5,0.6,1.5,1.8,2.1,2.3c0.7,0.5,2.3,1,3.1,1.3c1,0.3,3.1,0.9,4.2,1.1
	c0.8,0.1,2.6,0.1,3.4,0.1c1.3,0.1,3.9,0.1,5.2,0.3c0.8,0.2,2.3,0.9,3.1,1.1l0,0c0.5,0.2,1.5,0.7,2,0.8c0.4,0.1,1.3,0.2,1.7,0.3
	c0.5,0,1.4-0.2,1.8,0.1c0.2,0.1,0.4,0.7,0.5,0.9c0.3,0.4,1.1,1.1,1.3,1.6c0.2,0.5,0.2,1.6,0.3,2.1c0,0.6,0,1.7,0,2.2
	c-0.1,0.9-0.5,2.6-0.4,3.5c0,0.3,0.5,1,0.4,1.3c-0.1,0.3-0.7,0.8-1,0.9c-0.3,0.1-1,0-1.3,0.1c-0.4,0.2-1.1,1.1-1.2,1.5
	c-0.1,0.5,0.1,1.5,0.1,2c0,0.8-0.6,2.5-0.1,3c0.3,0.3,1.4,0,1.9,0.1c0.8,0.1,2.5,0.5,3.3,0.7c0.7,0.1,2.1,0.2,2.6,0.6
	c0.5,0.4,0.8,1.6,1.1,2.1c0.3,0.6,1.1,1.8,1.5,2.3c0.4,0.6,1.1,1.8,1.5,2.3c0.4,0.5,1.5,1.3,1.9,1.7c0.5,0.4,1.3,1.4,1.9,1.7
	c0.8,0.4,2.6,0.8,3.4,0.9c0.5,0.1,1.6,0.3,2.1,0.3l0,0c0.5-0.2,1.6-0.5,2.1-0.7c1-0.4,2.8-1.5,3.8-1.9c1.3-0.7,4-2.1,5.4-2.7
	c1-0.5,3-1.6,4-2.1l0,0c0.1-0.3,0.3-1,0.5-1.2c0.5-0.6,2.1-1.3,2.7-1.7c0.9-0.5,2.6-1.6,3.6-2.1c0.7-0.4,2.1-1.1,2.9-1.4
	c0.7-0.3,2-0.8,2.7-0.9c0.6,0,1.9,0.4,2.5,0.5c0.9,0.1,2.7,0.4,3.6,0.2c0.3-0.1,0.8-0.6,1.1-0.7c0.5-0.1,1.7-0.4,2.1-0.1
	c0.3,0.2,0.3,1.2,0.5,1.5c0.1,0.4,0.3,1.2,0.5,1.5c0.2,0.4,1,0.8,1.2,1.2c0.2,0.3,0.3,1,0.5,1.3c0.2,0.3,0.9,0.7,1,1
	c0.1,0.4-0.4,1.2-0.5,1.5c-0.3,0.5-1.2,1.4-1.4,2c-0.1,0.4,0.1,1.3,0.1,1.7c0,0.5-0.2,1.4,0,1.8c0.2,0.3,1,0.3,1.2,0.6
	c0.2,0.4-0.3,1.5-0.1,1.9c0.2,0.3,1.1,0.5,1.3,0.7c0.3,0.3,0.6,1,0.6,1.4c0,0.5-0.6,1.5-0.5,2c0,0.3,0.3,0.8,0.5,0.9
	c0.3,0.2,1.2,0.2,1.6,0.1c0.4-0.1,1.1-0.5,1.5-0.7c0.7-0.2,2-0.5,2.7-0.5c0.8-0.1,2.4,0,3.1,0.1c0.9,0,2.7,0.1,3.6,0.1
	c1.2,0.1,3.5,0.3,4.6,0.3c1,0,3.1-0.2,4.1-0.2c0.8,0,2.5-0.2,3.3-0.1c0.8,0.1,2.3,0.5,3.1,0.7c0.7,0.2,2.2,0.6,2.8,1
	c0.4,0.3,1.1,1,1.3,1.5c0.2,0.3,0.3,1.1,0.3,1.5l0,0c0,0.6-0.1,1.9-0.1,2.5c-0.1,0.6-0.4,1.9-0.5,2.5c-0.1,0.4-0.1,1.2-0.2,1.6
	c-0.1,0.4-0.5,1-0.6,1.4c-0.1,0.4-0.6,1.1-0.5,1.5c0.1,0.2,0.6,0.5,0.7,0.7c0.3,0.3,1,0.8,1.3,1.2c0.2,0.2,0.5,0.8,0.5,1.1
	c0,0.2-0.3,0.6-0.4,0.8c-0.3,0.5-0.8,1.6-1,2.2c-0.1,0.3-0.3,0.9-0.4,1.2c-0.1,0.5-0.2,1.4-0.3,1.9c-0.1,0.5-0.3,1.6-0.4,2.1
	c-0.1,0.7-0.2,2.3-0.3,3c-0.1,0.9-0.1,2.7-0.3,3.6c-0.1,0.6-0.5,1.6-0.7,2.1c-0.3,0.7-0.9,2-1.2,2.7c-0.6,1.2-1.9,3.6-2.5,4.8l0,0
	c-0.3,0.5-1.2,1.5-1.3,2.1c-0.1,0.6,0.5,1.9,0.6,2.5c0.2,1,0.5,3.1,0.7,4.1c0.2,1.1,1.2,3.2,1.1,4.4c0,0.4-0.4,1.2-0.6,1.6
	c-0.2,0.4-0.9,1.1-1.1,1.5c-0.2,0.7,0,2.1,0,2.7c0,0.6-0.1,1.7,0,2.2c0.1,0.6,0.5,1.6,0.7,2.2c0.2,0.9,0.5,2.6,0.7,3.5
	c0.2,0.7,0.6,2,0.7,2.6c0.2,0.7,0.5,2,0.5,2.7c0,0.4-0.1,1.2-0.3,1.5c-0.3,0.5-1.5,1.2-2,1.5c-0.9,0.7-2.6,2-3.5,2.7
	c-0.3,0.2-0.9,0.7-1.1,1c-0.4,0.5-1.1,1.5-1.3,2.1c-0.2,0.7-0.2,2.1-0.3,2.7c-0.1,0.9-0.2,2.8-0.3,3.7c-0.1,0.6,0,2-0.3,2.5
	c-0.2,0.6-1.2,1.4-1.6,1.8c-0.5,0.6-1.7,1.6-2.1,2.3c-0.6,0.9-1.1,3.1-1.5,4.1c-0.5,1.1-1.7,3.3-2.2,4.4c-0.5,1.1-1.2,3.5-1.6,4.7
	c-0.3,0.9-0.9,2.6-1.1,3.4c-0.2,0.8-0.3,2.4-0.8,3.1c-0.2,0.3-1.1,0.5-1.3,0.8c-0.2,0.2-0.4,0.7-0.5,1c-0.2,0.5-0.3,1.7-0.4,2.2
	c-0.1,0.6-0.6,1.8-0.6,2.5c0,0.2,0.1,0.6,0.3,0.7c0.3,0.2,1.1,0.3,1.4,0.3l0,0c0,0.3-0.1,0.8-0.1,1c-0.1,0.6-0.6,1.7-0.7,2.3
	c-0.1,0.6-0.2,1.9,0.2,2.4c0.2,0.3,1.1,0.4,1.5,0.5c0.6,0.2,1.9,0.2,2.2,0.7c0.4,0.5-0.1,2,0.1,2.6c0,0.2,0.3,0.4,0.3,0.5
	c0.2,0.6,0.3,2,0,2.6c-0.1,0.3-0.7,0.5-0.9,0.7c-0.4,0.3-1.2,0.8-1.4,1.3c-0.2,0.5,0.2,1.7-0.1,2.2c-0.1,0.2-0.7,0.3-0.9,0.5
	c-0.1,0.2,0,0.9,0,1.1c0,0.5-0.4,1.7-0.1,2.1c0.2,0.3,1,0.2,1.2,0.4c0.2,0.2,0.5,0.8,0.6,1.1c0.1,0.6-0.4,1.9-0.1,2.4
	c0.1,0.2,0.9,0.2,0.9,0.4c0.1,0.3-0.6,0.9-0.7,1.2c-0.2,0.7,0.5,2.4,0.1,3.1c-0.2,0.3-0.9,0.6-1.3,0.7c-1,0.2-2.9-0.2-3.9-0.3
	c-0.5,0-1.7,0.2-2.1-0.2c-0.6-0.6-0.3-2.6-0.4-3.4c-0.1-0.5-0.2-1.4-0.4-1.9c-0.2-0.7-1.1-1.8-1.3-2.5c-0.2-1-0.1-3.2,0-4.2
	c0-0.4,0.2-1.3,0.3-1.7c0-0.1,0-0.2,0-0.2"/>
<path class="st0" d="M19.4,36c0-0.2-0.5-0.2-0.7-0.3c-0.7-0.4-1.9-1.4-2.6-1.7c-1-0.5-3.2-0.7-4.1-1.3c-0.5-0.3-1.4-1.2-1.8-1.7
	c-0.4-0.4-1.3-1.4-1.3-1.9c0-0.5,0.7-1.5,1-1.9c0.3-0.6,0.8-1.8,1.2-2.2c0.5-0.4,1.7-0.9,2.3-1.1c0.6-0.2,1.9-0.6,2.6-0.7
	c0.3,0,1,0,1.3,0.2c0.4,0.2,0.7,1.4,1.1,1.4c0.4,0,1-0.9,1.3-1.2c0.2-0.2,0.7-0.8,0.9-0.9c0.8-0.5,2.6-1.3,3.5-1.5
	c0.4-0.1,1.2,0.1,1.6,0.1c0.4,0,1.3,0.3,1.7,0.1c0.3-0.2,0.5-1.1,0.7-1.4c0.3-0.5,0.8-1.6,1.3-1.7c0.5-0.2,1.7,0.5,2.2,0.7
	c0.8,0.2,2.5,0.6,3.3,0.7c1.1,0.1,3.4,0.2,4.6,0.3c1.1,0,3.4,0.1,4.5,0c0.5-0.1,1.6-0.1,2-0.4c0.5-0.3,1.1-1.4,1.5-1.8
	c0.5-0.4,1.7-0.8,2.1-1.1c0.5-0.4,1.3-1.6,1.7-2.1c0.5-0.6,1.7-1.8,2.1-2.5c0.3-0.5,0.4-1.6,0.7-2c0.3-0.5,1.4-1.1,1.9-1.3
	c0.6-0.3,2-0.6,2.7-0.7c0.5-0.1,1.6-0.4,2.1-0.3c0.3,0.1,1,0.5,1.1,0.8c0.2,0.3,0.1,0.9,0.2,1.2c0.3,0.6,1.3,1.6,1.7,2.1l0,0"/>
<path class="st0" d="M66.8,14.8c0,0.6,1.8,0.4,2.3,0.5c0.6,0.1,1.9,0.2,2.5,0.3c0.4,0,1.3,0,1.7,0.1c0.2,0,0.5,0.3,0.7,0.3
	c0.5,0,1.2-0.7,1.7-0.9c0.5-0.2,1.4-0.6,1.9-0.7c0.6-0.2,2-0.4,2.6-0.5c0.7-0.1,2.2-0.3,2.9-0.3c0.5,0,1.4,0.1,1.9,0.2
	c0.5,0.1,1.5,0.5,1.9,0.8c0.4,0.2,1.2,0.9,1.5,1.2c0.3,0.3,0.7,0.9,0.9,1.2c0.4,0.5,1.1,1.4,1.5,1.8c0.5,0.6,1.6,1.7,2.1,2.3
	c0.5,0.6,1.3,1.7,1.8,2.3c0.2,0.2,0.7,0.6,0.7,0.9c0.1,0.4-0.1,1.2-0.1,1.5c0,0.3-0.4,1-0.2,1.3c0.2,0.2,1-0.1,1.3-0.1
	c0.3,0,1-0.1,1.3,0c0.5,0.2,1.1,1.1,1.4,1.5c0.5,0.6,1.5,1.7,2,2.3c0.8,0.9,2.7,2.4,3.1,3.5c0.2,0.6,0,1.9,0.1,2.5
	c0,0.8,0.2,2.3,0.2,3c0,0.3,0,1,0,1.3l0,0c0.1,0.2,0.1,0.6,0.3,0.7c0.2,0.3,0.8,0.6,1.1,0.7c0.3,0.2,0.9,0.4,1.1,0.5
	c0.2,0.1,0.7,0.5,0.9,0.7c0.1,0.1,0.5,0.4,0.5,0.6"/>
<path class="st0" d="M20.1,36.3c0,0.6,1.3,1.3,1.7,1.8c0.3,0.4,0.9,1.1,1.2,1.5c0.7,0.9,2.1,2.8,2.7,3.8c0.6,1,1.7,3.1,2.3,4.2
	c0.6,1,1.9,3,2.5,4.1c0.7,1.2,1.9,3.5,2.6,4.7c0.6,1,2,3,2.7,4l0,0c0.3,0.7,0.8,2.2,1.2,2.9c0.3,0.5,1,1.3,1.2,1.9
	c0.2,0.7,0.1,2.1,0.1,2.8c0,0.8-0.2,2.3,0,3.1c0.2,0.8,1.4,1.9,1.9,2.5c0.8,0.9,2.3,2.8,3.2,3.6c0.6,0.5,1.9,1.2,2.5,1.6
	c1,0.6,2.9,1.8,3.9,2.3c0.6,0.3,1.7,0.8,2.3,0.9c0.8,0.2,2.6,0.4,3.5,0.5c0.7,0.1,2.1,0.2,2.7,0.7c0.4,0.3,0.6,1.3,0.8,1.7
	c0.3,0.6,1.2,1.5,1.3,2.1c0.2,0.7-0.2,2.1-0.1,2.8c0.1,0.5,0.4,1.4,0.5,1.9c0.2,0.5,0.9,1.5,1.1,2c0.3,0.6,0.3,2.2,0.8,2.7
	c0.5,0.5,2,0.8,2.7,1.1c0.6,0.3,1.8,1,2.4,1.3c0.6,0.3,2,0.6,2.3,1.2c0.2,0.4-0.1,1.5-0.1,2c-0.1,0.6-0.4,2-0.7,2.5
	c-0.3,0.6-1.3,1.7-1.7,2.3c-0.5,0.7-1.2,2.1-1.7,2.7c-0.5,0.6-2,1.2-2.5,1.7c-0.6,0.5-1.4,1.7-2,2.1c-0.6,0.5-2.1,1.3-2.8,1.7
	c-0.8,0.5-2.5,1.4-3.3,1.9c-0.4,0.2-1.1,1-1.6,0.9c-0.6,0-1.5-1-2-1.3c-0.7-0.5-2.1-1.5-2.8-2c-0.6-0.4-2-1.1-2.7-1.5
	c-0.2-0.1-0.7-0.3-0.8-0.5c-0.2-0.4-0.1-1.4,0-1.9c0.1-0.7,0.7-1.9,0.9-2.5l0,0"/>
<path class="st0" d="M29.3,108.5c0,0.8,2.4,0.8,3.2,1.1c0.7,0.2,2.3,0.4,2.9,0.8c0.6,0.3,1.5,1.4,2,1.9c1,0.9,3.1,2.5,4,3.5
	c0.5,0.5,1.1,2,1.7,2.4c0.8,0.6,2.8,0.9,3.8,1.2c1,0.4,3.2,1,4.2,1.6c0.8,0.5,1.8,2.2,2.5,2.8c0.7,0.6,2.2,1.4,2.9,1.9
	c0.8,0.4,2.4,1.4,3.2,1.6c0.9,0.3,2.7,0.4,3.6,0.4c1.1,0,3.3-0.1,4.4-0.1c1.4-0.1,4.3-0.4,5.8-0.5c1.6-0.2,4.8-0.7,6.4-0.9
	c1.9-0.3,5.7-0.8,7.6-1.2c0.8-0.2,2.5-0.6,3.3-0.9c1.7-0.6,5.1-1.8,6.6-2.8c0.9-0.6,2.1-2.3,2.8-3.1c0.7-0.7,2-2.1,2.8-2.7
	c0.7-0.5,2.4-1,3.2-1.3c0.8-0.4,2.5-1.2,3.3-1.5c1.4-0.5,4.3-1,5.6-1.5c0.7-0.2,2.1-1,2.8-1.2c1-0.3,3.1-0.4,4.2-0.5
	c1.4-0.2,4.1-0.5,5.5-0.7l0,0"/>
<path class="st0" d="M305.5,186.6c0-0.9,2-1.6,2.7-2.1c1.3-1,4-3,5.4-3.9c1-0.6,3-1.9,4-2.4c1.1-0.5,3.4-1.3,4.6-1.7
	c1.5-0.5,4.4-1.6,5.9-2c2-0.6,6.3-1.1,8.3-1.7c0.7-0.2,2.1-1,2.8-1.3c0.4-0.2,1.2-0.5,1.5-0.8c0.7-0.7,1.4-2.7,2-3.5
	c0.5-0.7,1.9-1.8,2.5-2.4c0.7-0.6,2.2-1.7,2.9-2.3c0.6-0.5,1.9-1.3,2.5-1.7l0,0"/>
<path class="st0" d="M27.6,107.4c0,0.4,1.3,0.2,1.7,0.2c0.4,0,1.2,0,1.6-0.1c0.4-0.1,1.1-0.4,1.5-0.6c0.3-0.2,0.7-0.8,1-1
	c0.1-0.1,0.3-0.2,0.4-0.3c0.3-0.1,1.1-0.2,1.5-0.2c0.7-0.1,2.1-0.1,2.7-0.3c0.6-0.2,1.8-0.8,2.3-1.1c0.4-0.2,1.1-0.5,1.4-0.7
	c0.1-0.1,0.3-0.2,0.4-0.3c0.4-0.1,1.2-0.1,1.5,0c0.6,0.1,1.6,0.6,2.1,0.9c0.4,0.3,1.3,0.9,1.5,1.3c0.1,0.1,0.1,0.3,0.1,0.4"/>
<path class="st0" d="M133,109.7c0,0.6-1,1.4-1.3,1.8c-0.5,0.6-1.4,1.9-2,2.4c-0.3,0.3-1,0.7-1.3,0.8c-0.4,0.2-1.4,0.2-1.9,0.4
	c-0.2,0.1-0.7,0.4-0.8,0.7c-0.2,0.4-0.2,1.5-0.1,1.9c0.1,0.4,0.5,1.2,0.7,1.5c0.3,0.3,1.1,0.4,1.3,0.7c0.4,0.5,0.4,1.8,0.5,2.3
	c0.3,1,1.1,2.9,1.4,3.9c0.3,0.8,0.7,2.5,0.9,3.3c0.3,1,0.6,3.1,0.9,4.2c0.2,0.9,0.7,2.6,1.2,3.3c0.2,0.2,0.6,0.7,0.9,0.8
	c0.6,0.4,2.1,0.7,2.8,0.9c0.3,0.1,0.9,0.4,1.1,0.5l0,0c0.1,0.2,0.4,0.7,0.5,0.9c0.1,0.2,0.4,0.7,0.3,1c0,0.3-0.5,0.7-0.7,0.9
	c-0.4,0.3-1.3,0.6-1.7,0.9c-0.3,0.2-0.8,0.8-0.9,1.2c-0.1,0.7,0.2,2.1,0.5,2.7c0.3,0.5,1.4,1.1,1.9,1.4c1,0.7,3.2,1.8,4.3,2.3
	c0.7,0.3,2.3,0.6,3.1,0.7c0.8,0.1,2.5,0.2,3.3,0.2c0.7,0,2.1,0,2.8-0.1c0.7-0.1,2.1-0.7,2.8-0.9c1-0.3,2.9-0.7,4-0.8
	c0.5,0,1.6,0.1,2.1,0.1l0,0c0.8,0.2,2.5,0.3,3.3,0.6c1.4,0.5,3.9,2.2,5.2,2.9c1.9,1.1,5.8,3.2,7.8,4.3c1.6,0.9,4.8,2.7,6.4,3.6
	c2,1.1,6.2,3.1,8.2,4.3c2.5,1.5,7.4,4.8,9.9,6.3c2.1,1.2,6.4,3.3,8.6,4.4c2.1,1.1,6.3,3.3,8.4,4.4c2.4,1.2,7.2,3.6,9.5,5
	c1.4,0.8,3.9,2.7,5.2,3.6c1.6,1.1,4.7,3.5,6.3,4.6c2,1.4,6.1,4,8.2,5.2c1.1,0.7,3.4,1.9,4.6,2.5l0,0c0.9,0.7,2.8,2.3,3.8,2.9
	c1.6,1,5,2.7,6.7,3.6c1.5,0.8,4.6,2.3,6.2,3.1c1.3,0.6,4,1.6,5.2,2.4c0.9,0.7,2.4,2.4,3.2,3.2c1.1,1,3.3,2.8,4.4,3.8
	c1.4,1.1,4.2,3.3,5.6,4.4c1.5,1.2,4.4,3.5,5.9,4.7c1.3,1,3.9,3,5.1,4c0.7,0.6,2.1,1.9,2.7,2.5c1,1.2,2.8,3.7,3.8,5
	c0.8,1.1,2.3,3.2,2.9,4.3c0.4,0.7,1.2,2.3,1.6,3.1c0.6,1.1,2.2,3.2,2.8,4.3c0.6,1.1,1.6,3.5,2.1,4.7c0.5,1.2,1.5,3.6,2,4.8
	c0.5,1.3,1.5,4,2,5.4l0,0"/>
</svg>
