<?xml version="1.0" encoding="utf-8"?>
<!-- Generator: Adobe Illustrator 25.3.0, SVG Export Plug-In . SVG Version: 6.00 Build 0)  -->
<svg version="1.1" id="Layer_1" xmlns="http://www.w3.org/2000/svg" xmlns:xlink="http://www.w3.org/1999/xlink" x="0px" y="0px"
	 viewBox="0 0 361 296" style="enable-background:new 0 0 361 296;" xml:space="preserve">
<style type="text/css">
	.st0{fill:none;stroke:#4682B4;stroke-linecap:round;stroke-linejoin:round;}
</style>
<path class="st0" d="M27.5,106.9c0,0.4,1.1,0.1,1.5,0.1c0.5,0,1.6,0,2.1-0.1c0.3-0.1,0.9-0.2,1.2-0.3c0.2-0.1,0.5-0.5,0.7-0.7
	c0.3-0.3,0.8-0.8,1.1-1c0.3-0.2,0.9-0.4,1.3-0.4c0.4,0,1.3,0.2,1.7,0.2c0.8-0.1,2.3-0.5,3-0.8c0.2-0.1,0.6-0.3,0.7-0.5
	c0.3-0.2,0.9-1,1.3-1.1c0.3-0.1,1,0.3,1.3,0.5c0.7,0.3,1.9,0.9,2.6,1.2l0,0"/>
<path class="st0" d="M19.1,35.5c0-0.4-1.2-0.4-1.6-0.5c-0.4-0.2-1.2-0.6-1.6-0.8c-0.5-0.3-1.6-0.8-2.1-1.1c-0.5-0.2-1.7-0.5-2.1-0.8
	c-0.5-0.3-1.3-1.3-1.6-1.7c-0.2-0.3-0.8-1-0.8-1.5c-0.1-0.7,0.5-2.2,0.9-2.8c0.2-0.4,0.9-1.1,1.3-1.3c0.3-0.2,1.1-0.5,1.5-0.7
	c0.4-0.2,1.1-0.8,1.5-0.9c0.4-0.2,1.3-0.6,1.7-0.5c0.3,0.1,0.7,0.6,0.9,0.8c0.2,0.2,0.8,0.5,1.1,0.5c0.6,0,1.5-0.7,2-0.9
	c0.3-0.1,0.8-0.5,1.1-0.7c0.7-0.4,2.3-0.9,3.1-1.1c0.5-0.1,1.6,0,2.1,0c0.3,0,0.9,0.1,1.2,0c0.4-0.2,0.7-1.1,0.9-1.5
	c0.2-0.4,0.4-1.4,0.8-1.6c0.2-0.1,0.8,0,1.1,0c0.6,0.1,1.7,0.4,2.3,0.5c0.5,0.1,1.5,0.4,2,0.5c0.6,0.1,1.9,0.3,2.5,0.3
	c0.7,0,2.1-0.3,2.8-0.3c0.8,0,2.5,0.3,3.3,0.4c0.6,0,1.8,0.3,2.3,0c0.4-0.2,0.8-1.2,1.1-1.6c0.3-0.3,0.9-0.8,1.2-1.1
	c0.4-0.3,1.2-0.7,1.6-0.9c0.3-0.2,1.1-0.3,1.3-0.5c0.4-0.4,0.7-1.5,1.1-2c0.4-0.6,1.6-1.5,2-2.1c0.3-0.5,0.7-1.5,1.1-2
	c0.3-0.4,1-1.2,1.5-1.5c0.4-0.3,1.4-0.6,1.9-0.7c0.6-0.1,1.7-0.3,2.3-0.1c0.3,0.1,0.7,0.7,0.9,0.9c0.5,0.6,1.4,1.8,1.9,2.4
	c0.3,0.5,0.9,1.4,1.2,1.9l0,0"/>
<path class="st0" d="M20.4,36.8c0,0.5,1.3,0.9,1.6,1.3c0.4,0.5,1.1,1.7,1.5,2.3c0.7,1,2,3,2.7,4c0.6,0.9,1.7,2.6,2.3,3.5
	c0.6,1,1.7,2.9,2.3,3.9c0.8,1.3,2.6,3.7,3.3,4.9c0.6,1,1.7,3.2,2.3,4.3c0.3,0.6,1.2,1.7,1.5,2.3c0.2,0.5,0.6,1.7,0.7,2.3
	c0.1,0.7,0.1,2.1,0.1,2.8c0,0.5-0.2,1.5-0.1,2c0.1,0.5,0.4,1.3,0.7,1.7c0.6,0.9,2.2,2.2,2.9,2.9c0.6,0.7,1.7,2.1,2.4,2.7
	c0.5,0.4,1.6,0.8,2.1,1.1c0.6,0.3,1.8,1,2.4,1.3c0.7,0.4,1.9,1.3,2.7,1.6c0.6,0.2,2,0.4,2.7,0.5c1,0.2,3.2,0.1,4,0.7
	c0.3,0.2,0.6,1,0.8,1.3c0.2,0.3,0.7,0.9,0.8,1.2c0.3,0.7,0.3,2.2,0.4,2.9c0.1,0.6,0.3,1.9,0.4,2.5l0,0c0.3,0.6,0.8,1.8,1.1,2.4
	c0.3,0.7,0.4,2.3,0.9,2.8c0.4,0.4,1.6,0.6,2.1,0.8c0.6,0.2,1.7,0.8,2.3,1.1c0.8,0.4,3,1,3.3,1.9c0.2,0.6-0.7,1.8-0.8,2.4
	c-0.1,0.4-0.1,1.3-0.3,1.7c-0.2,0.4-0.9,1.1-1.2,1.5c-0.6,0.8-1.7,2.7-2.4,3.5c-0.5,0.6-1.9,1.3-2.5,1.9c-0.8,0.7-2.2,2.5-3.1,3.2
	c-0.6,0.5-2.1,1.3-2.8,1.7c-0.9,0.5-2.6,1.9-3.6,1.9c-0.8-0.1-2-1.6-2.7-2c-0.6-0.4-1.8-0.8-2.4-1.2c-0.5-0.3-1.3-1.2-1.9-1.5
	c-0.3-0.2-1.3-0.2-1.5-0.5c-0.3-0.5,0.3-1.6,0.4-2.1c0.2-0.7,0.6-2.1,0.8-2.8l0,0"/>
<path class="st0" d="M65.3,13.9c0,0.3,0.5,0.8,0.8,0.9c0.4,0.2,1.4,0.3,1.9,0.4c0.5,0.1,1.5,0.3,2,0.4c0.6,0.1,1.9,0.3,2.5,0.3
	c0.5,0,1.6,0,2.1-0.1c0.3-0.1,0.9-0.6,1.2-0.8c0.3-0.2,1.1-0.4,1.5-0.5c0.8-0.3,2.3-1.1,3.2-1.2c0.5,0,1.6,0.3,2.1,0.4
	c0.8,0.2,2.4,0.4,3.2,0.7c0.6,0.2,1.7,0.7,2.1,1.1c0.6,0.5,1.4,1.7,1.9,2.3c0.5,0.6,1.5,1.9,2,2.5c0.4,0.5,1.4,1.3,1.9,1.7
	c0.5,0.6,1.6,1.7,1.7,2.4c0.1,0.3-0.3,1-0.4,1.3c0,0.2-0.2,0.8,0,0.9c0.2,0.2,0.9,0,1.2,0s0.9-0.1,1.2,0c0.4,0.2,0.9,1,1.2,1.3
	c0.5,0.5,1.4,1.5,1.9,2c0.5,0.6,1.6,1.7,2.1,2.3c0.3,0.4,1.2,1.1,1.3,1.6c0.2,0.6,0,1.8,0,2.4c0,0.6,0.2,1.9,0.3,2.5
	c0,0.6-0.3,2,0,2.5c0.2,0.3,0.9,0.5,1.2,0.7c0.4,0.2,1.4,0.5,1.5,0.9c0,0.3-0.6,0.7-0.8,0.9c-0.3,0.3-1.1,0.7-1.3,1.1
	c-0.1,0.2,0,0.7,0,0.9c0,0.5,0.2,1.6,0.1,2.1c0,0.8-0.3,2.4-0.5,3.2c-0.2,0.6-0.8,1.7-1.1,2.3c-0.2,0.5-0.9,1.4-1.1,1.9
	c-0.2,0.5-0.3,1.7-0.3,2.3c0,0.4,0,1.1,0.1,1.5c0.3,0.5,1.3,1.3,1.9,1.6c0.2,0.1,0.8,0.3,1.1,0.3c0.4,0,1.1-0.1,1.5-0.3
	c0.6-0.2,1.5-1,2-1.3c0.5-0.3,1.7-1.2,2.3-1.1c0.3,0.1,0.5,0.7,0.7,0.9c0.3,0.5,1,1.6,1.3,2.1c0.4,0.6,1.4,1.9,1.7,2.5
	c0.2,0.4,0.5,1.2,0.7,1.6c0.3,0.5,0.9,1.3,1.2,1.7l0,0c0,0.5-0.3,1.4-0.1,1.9c0.2,0.5,1.3,0.9,1.6,1.3c0.3,0.3,0.9,1,0.9,1.5
	c0.1,0.5-0.1,1.6-0.4,2c-0.3,0.5-1.5,1-2,1.3c-0.4,0.2-1.1,0.5-1.5,0.7c-0.8,0.5-2.1,1.6-2.8,2.1c-0.6,0.5-2.1,1.1-2.7,1.7
	c-0.4,0.4-0.8,1.5-1.1,2c-0.3,0.7-0.9,2-1.1,2.7c-0.2,0.7-0.2,2.2-0.3,2.9c-0.1,0.6-0.1,1.9-0.4,2.5c-0.1,0.2-0.5,0.5-0.5,0.7
	c-0.1,0.3-0.1,0.9,0,1.2c0.1,0.3,0.6,0.9,0.8,1.2l0,0c0.2,0.5,0.6,1.5,0.7,2c0.1,0.6,0.1,1.7,0.3,2.3c0.1,0.5,0.3,1.4,0.7,1.7
	c0.3,0.3,1.1,0.5,1.5,0.7c0.4,0.2,1.2,0.8,1.6,1.1c0.4,0.2,1.3,0.4,1.7,0.7c0.6,0.3,1.7,1.4,2.3,1.7c0.3,0.2,1.1,0.6,1.5,0.7
	c0.4,0.1,1.3,0.2,1.7,0.3c0.4,0.1,1.3,0.2,1.6,0.4c0.4,0.3,0.8,1.1,1.1,1.5c0.3,0.4,0.7,1.2,0.9,1.6c0.3,0.6,0.5,1.9,0.8,2.4
	c0.1,0.2,0.5,0.7,0.8,0.8c0.3,0.1,1-0.3,1.3-0.4c0.5-0.1,1.4-0.5,1.9-0.4c0.4,0,1,0.5,1.3,0.7s1.2,0.3,1.3,0.7
	c0.2,0.4,0,1.4-0.3,1.7c-0.3,0.4-1.3,0.7-1.7,0.9c-0.3,0.1-1.1,0.1-1.3,0.4c-0.3,0.3-0.3,1.3-0.4,1.7c-0.1,0.2-0.4,0.7-0.3,0.9
	c0.1,0.3,1,0.5,1.3,0.7c0.4,0.2,1.3,0.6,1.7,0.8c0.6,0.2,2.2,0.1,2.4,0.7c0.1,0.3-0.5,0.7-0.7,0.9c-0.1,0.2-0.4,0.6-0.5,0.8
	c-0.1,0.3-0.2,0.9-0.3,1.2c-0.2,0.9-0.8,2.7-0.8,3.6c0,0.6,0.3,1.9,0.4,2.5c0.1,0.8,0.5,2.5,0.5,3.3c0,0.4-0.1,1.1,0,1.5
	c0.1,0.6,0.7,1.7,0.9,2.3c0.3,0.8,0.7,2.6,1.5,3.1c0.5,0.3,1.8-0.1,2.4-0.1c0.5,0,1.5-0.1,2,0.1c0.4,0.2,1,0.7,1.2,1.1
	c0.1,0.2,0.1,0.8,0,1.1c-0.2,0.8-1.4,2.1-1.9,2.8c-0.3,0.4-0.8,1.3-1.1,1.7l0,0c0.2,0.4,0.6,1.2,0.8,1.6c0.3,0.5,0.7,1.5,1.2,1.9
	c0.6,0.4,2,0.4,2.7,0.7c0.5,0.2,1.5,0.8,2,0.9c0.9,0.3,2.9,0.6,3.9,0.7c0.8,0.1,2.3,0,3.1,0c0.6,0,1.8,0.2,2.4,0.3
	c0.4,0.1,1.3,0.2,1.7,0.4c0.6,0.3,1.1,1.9,1.7,1.9c0.5,0,0.9-1.1,1.2-1.5c0.4-0.5,0.9-1.8,1.5-2.1c0.6-0.3,2-0.2,2.7-0.3
	c1.1-0.2,3.2-0.6,4.3-0.8c1.2-0.2,3.6-1.3,4.8-1.1c0.8,0.1,2.2,1.3,2.9,1.7c0.8,0.5,2.6,1.5,3.3,2.1c0.4,0.4,1.2,1.2,1.3,1.7
	c0.1,0.4-0.5,1.1-0.4,1.5c0.1,0.5,0.9,1.2,1.3,1.5c0.6,0.3,1.9,0.7,2.5,0.7c0.7,0,2.2-1.1,2.7-0.7c0.3,0.3-0.4,1.3-0.4,1.7
	c0,0.5,0.1,1.6,0.4,2c0.5,0.7,2.3,1.4,3.1,1.9c1.2,0.8,3.6,2.3,4.8,3.1c1.7,1,5.2,2.7,6.9,3.7c1.7,1,5,3.1,6.7,4.1
	c1.3,0.8,3.9,2.5,5.2,3.3l0,0c1.1,0.6,3.2,1.6,4.3,2.3c1.2,0.7,3.4,2.3,4.5,3.1c1.5,0.9,4.6,2.7,6.1,3.6c1.4,0.8,4.1,2.3,5.5,3.1
	c1.5,0.9,4.5,2.7,6,3.6c1.9,1.2,5.8,3.5,7.7,4.7c1.7,1,5.2,3.1,6.9,4.1c1.3,0.8,4,2.3,5.3,3.1c1,0.6,3.1,1.9,4.1,2.5
	c1.1,0.6,3.1,2.1,4.3,2.5c0.6,0.2,1.9,0.3,2.5,0.4c1.4,0.2,4.2,0.4,5.6,0.4c1.5,0,4.4-0.4,5.9-0.7c0.7-0.1,2.1-0.5,2.8-0.5
	c0.8,0,2.4,0.3,3.1,0.7c0.9,0.4,2.4,1.9,3.2,2.5c1,0.9,2.9,2.7,3.9,3.6c1,0.9,3,2.7,3.9,3.7c0.7,0.8,1.9,2.5,2.5,3.3l0,0
	c0.9,0.8,2.7,2.5,3.6,3.3c0.6,0.5,1.6,1.7,2.1,2.3c0.8,0.7,2.4,2.1,3.2,2.8c1.2,1,3.7,3.1,4.9,4.1c1.8,1.5,5.1,4.7,6.9,6.1
	c0.5,0.4,1.7,1.2,2.3,1.6c0.5,0.4,1.4,1.1,1.9,1.5c0.8,0.6,3.1,1.1,3.3,2c0.1,0.3-0.3,0.8-0.5,0.9c-0.4,0.3-1.3,0.3-1.7,0.5
	c-0.3,0.1-0.9,0.4-1.1,0.7c-0.4,0.4-0.7,1.5-0.9,2c-0.1,0.3-0.3,0.8-0.4,1.1c-0.1,0.4-0.3,1.3-0.3,1.7c0,0.3,0.1,0.8,0.3,1.1
	c0.3,0.4,1.1,0.9,1.5,1.2c0.2,0.1,0.7,0.3,0.8,0.5c0,0.2-0.3,0.5-0.4,0.7c-0.3,0.3-1.2,0.5-1.6,0.7c-0.4,0.1-1.4,0.2-1.7,0.4
	c-0.5,0.3-1.2,1.5-1.6,2c-0.3,0.4-1,1-1.2,1.5c-0.2,0.5-0.2,1.6-0.3,2.1c-0.1,0.5-0.3,1.4-0.3,1.9c0.1,0.6,0.9,1.6,1.1,2.1
	c0.2,0.4,0.3,1.4,0.4,1.9l0,0"/>
<path class="st0" d="M326.4,288.6c0-0.3,0.1-0.7,0.1-1c0-0.4,0.3-1.3,0-1.7c-0.3-0.3-1.3-0.3-1.7-0.4c-0.6-0.2-1.8-0.5-2.3-0.9
	c-0.4-0.3-1.2-1-1.5-1.5c-0.2-0.3-0.4-1.1-0.5-1.4c-0.1-0.3-0.6-0.9-0.7-1.2c0-0.3,0.2-0.9,0.3-1.2c0.1-0.2,0.4-0.6,0.4-0.8
	c0.1-0.5-0.2-1.5-0.2-2c0-0.4,0.1-1.2,0.2-1.5c0.1-0.3,0.4-0.8,0.4-1.1c0-0.4-0.5-1-0.7-1.3c-0.1-0.3-0.3-0.9-0.5-1.2
	c-0.1-0.1-0.3-0.4-0.3-0.5"/>
<path class="st0" d="M349.7,158.1c0-0.6,0.4-1.6,0.6-2.2c0.2-0.8,0.6-2.3,0.9-3.1c0.2-0.5,0.9-1.5,0.7-2c-0.1-0.3-1-0.3-1.2-0.5
	c-0.4-0.3-0.9-1.1-0.9-1.6c0-0.3,0.4-0.7,0.5-1c0.2-0.6,0.7-1.9,0.8-2.6c0.1-0.5-0.2-1.4-0.1-1.9c0-0.6,0.5-1.7,0.5-2.3
	c0.1-0.6,0-1.9-0.1-2.5c-0.1-0.5-0.6-1.4-0.9-1.7c-0.4-0.4-1.6-0.7-2.2-0.9c-0.7-0.2-2.1-0.7-2.8-0.8c-1-0.2-3-0.2-4-0.2
	c-1.1,0-3.4,0.2-4.5,0.2c-1.3,0-4,0.2-5.4,0.1c-1-0.1-2.8-0.5-3.8-0.6c-0.7-0.1-2.2,0-2.9,0l0,0"/>
<path class="st0" d="M319.3,135.8c0-0.5,0.1-1.5,0.1-2c0-0.4,0.1-1.4-0.1-1.8c-0.2-0.3-0.8-0.6-1.1-0.8c-0.3-0.2-1-0.5-1.1-0.8
	c0-0.3,0.8-0.6,0.7-0.9c-0.1-0.4-1.1-0.6-1.3-1c-0.2-0.3-0.2-1.1-0.3-1.5c-0.1-0.3-0.3-0.8-0.3-1.1c0-0.2,0.1-0.7,0.1-0.9
	c0.1-0.2,0.4-0.7,0.5-0.9c0.2-0.3,0.8-1,1-1.3c0.1-0.2,0.4-0.7,0.5-1c0-0.3-0.2-1-0.3-1.3c-0.1-0.3-0.5-0.8-0.7-1
	c-0.1-0.2-0.3-0.5-0.5-0.7c-0.2-0.2-0.5-0.5-0.7-0.7c-0.2-0.2-0.5-0.5-0.7-0.7c-0.2-0.3-0.2-0.9-0.3-1.2c-0.2-0.4-0.5-1.5-0.9-1.7
	c-0.3-0.1-1.1,0.3-1.4,0.5c-0.4,0.2-0.8,1.1-1.2,1.1c-0.3,0-0.9-0.5-1.2-0.6c-0.2-0.1-0.7-0.1-0.9-0.1c-0.4,0-1.1,0-1.5,0
	c-0.4,0-1.3-0.3-1.7-0.3c-0.3-0.1-0.9-0.2-1.2-0.2c-0.5,0-1.5,0.5-2,0.7c-0.7,0.3-2.1,0.8-2.7,1.1c-0.5,0.3-1.5,0.8-2,1.1
	c-0.4,0.3-1.3,0.8-1.7,1.1c-0.8,0.5-2.8,0.9-3.3,1.7c-0.3,0.3-0.1,1.3-0.4,1.7c-0.5,0.6-2.1,1.1-2.8,1.5l0,0
	c-0.9,0.4-2.8,1.2-3.7,1.6c-0.6,0.3-1.9,1-2.5,1.3c-0.7,0.4-2.2,1-2.9,1.3c-0.7,0.3-2.1,1.2-2.9,1.3c-0.7,0.1-2.1-0.4-2.8-0.5
	c-0.5-0.1-1.6-0.3-2.1-0.5c-0.5-0.2-1.3-0.6-1.7-0.9c-0.7-0.5-2-1.6-2.5-2.3c-0.5-0.6-1.4-1.8-1.9-2.4c-0.3-0.4-0.8-1.3-1.1-1.7
	c-0.2-0.4-0.7-1.2-0.9-1.6c-0.2-0.4-0.2-1.2-0.5-1.5c-0.7-0.6-2.6-0.4-3.5-0.5c-1-0.2-2.9-0.6-3.9-0.8l0,0c-0.1-0.4-0.4-1.1-0.4-1.5
	c-0.1-0.7,0.1-2,0.1-2.7c0-0.2-0.1-0.7,0-0.9c0.1-0.3,0.5-1,0.8-1.2c0.3-0.2,1-0.2,1.3-0.4c0.1-0.1,0.4-0.3,0.5-0.4
	c0.5-0.7,1.2-2.2,1.3-3.1c0.1-0.5,0-1.4,0-1.9c0-1,0.2-2.9-0.1-3.9c-0.2-0.6-0.9-1.9-1.5-2.3c-0.5-0.4-1.8-0.5-2.4-0.7
	c-1-0.3-3.1-1.1-4.1-1.5c-0.6-0.2-1.9-0.8-2.5-0.9c-0.8-0.2-2.4-0.2-3.2-0.3c-1.4-0.1-4.3,0.3-5.7,0c-0.5-0.1-1.5-0.6-2-0.8
	c-0.7-0.3-2.2-0.9-2.9-0.9c-1-0.1-3.1,0.3-4.1,0.4c-1,0.2-3.1,0.8-4.1,0.8c-0.9,0-2.6-0.4-3.5-0.5l0,0c-0.4,0-1.3,0-1.7,0.1
	c-0.6,0.2-1.7,1-2.3,1.3c-0.6,0.3-1.8,0.7-2.4,1.1c-0.5,0.3-1.3,1-1.7,1.3c-0.7,0.6-1.9,2.1-2.7,2.7c-0.8,0.5-2.6,1.2-3.5,1.5
	c-0.9,0.3-2.9,0.6-3.9,0.8c-1,0.2-3.1,0.5-4.1,0.7c-1,0.2-3.2,0.1-4,0.7c-0.4,0.2-0.7,1.1-0.9,1.5c-0.4,0.5-1.2,1.5-1.7,1.9
	c-0.5,0.4-1.6,1-2.1,1.2c-0.4,0.2-1.3,0.3-1.7,0.4c-1,0.1-2.9,0-3.9,0c-0.7,0-2-0.1-2.7,0c-0.7,0.1-1.9,0.8-2.5,0.9
	c-1,0.2-3,0.2-4,0c-0.8-0.2-2.3-1-2.9-1.5c-0.5-0.4-1.1-1.4-1.6-1.7c-0.5-0.4-1.4-1.1-2-1.2c-0.8-0.2-2.5,0-3.3,0.1
	c-0.7,0.1-2,0.8-2.7,0.9c-0.9,0.1-2.6,0-3.5,0c-1.2,0-3.5,0.2-4.7,0.4c-1,0.1-2.9,0.5-3.9,0.8c-0.6,0.2-1.6,0.8-2.1,0.9
	c-1.3,0.3-4.1,0.1-5.5,0c-1.2-0.1-3.6-0.6-4.8-0.8l0,0c-0.9-0.3-2.7-0.8-3.6-1.1c-0.5-0.2-1.8-0.2-2.1-0.7c-0.3-0.5,0.1-1.8,0.4-2.3
	c0.1-0.2,0.7-0.2,0.8-0.4c0.2-0.9-1.5-2.2-2-2.9c-0.6-1-1.5-3.1-2.1-4c-0.3-0.4-0.9-1.2-1.3-1.5c-0.3-0.2-1-0.2-1.2-0.4
	c-0.3-0.3-0.2-1.2-0.3-1.6c0-0.3,0-0.9,0-1.2c-0.1-0.5-0.3-1.4-0.4-1.9c-0.1-0.4-0.3-1.2-0.5-1.5c-0.3-0.3-1.4-0.4-1.6-0.8
	c-0.2-0.3,0-1.1,0.1-1.5c0.1-0.3,0.7-0.9,0.7-1.2c-0.1-0.5-1.1-1.2-1.5-1.6c-0.4-0.5-1.1-1.4-1.3-2c-0.2-0.5-0.3-1.5-0.1-2
	c0.1-0.3,0.6-0.8,0.8-1.1c0.3-0.3,1.1-0.5,1.3-0.8c0.1-0.2,0.1-0.8,0.1-1.1c0-0.3-0.2-0.9-0.1-1.2c0-0.4,0.2-1.3,0.4-1.7
	c0.3-0.9,2.5-2.7,1.9-3.5c-0.2-0.2-0.9,0.2-1.2,0.3c-0.7,0.1-2,0.4-2.7,0.3c-0.4-0.1-1.1-0.5-1.5-0.8c-0.6-0.5-1.7-1.5-2.1-2.1
	c-0.4-0.5-1-1.8-1.5-2.3c-0.3-0.3-1-0.6-1.2-0.9c-0.1-0.2-0.3-0.8-0.3-1.1c0.1-0.4,0.5-0.9,0.8-1.2c0.3-0.3,1.2-0.7,1.5-1.1
	c0.3-0.3,0.7-1.2,0.9-1.6l0,0c0.3-0.3,1-0.8,1.3-1.1c0.5-0.4,1.7-1.1,2.1-1.6c0.4-0.4,1.3-1.1,1.2-1.6c-0.1-0.4-0.9-0.9-1.3-1.1
	c-0.5-0.2-1.6-0.3-2.1-0.3c-0.6,0-1.7,0.3-2.3,0.4c-0.9,0.2-2.6,0.8-3.5,0.9c-0.5,0.1-1.4,0.3-1.9,0.3c-0.7-0.1-1.9-0.9-2.5-1.2
	c-0.3-0.1-1.1-0.3-1.3-0.5c-0.5-0.4-0.8-1.7-1.1-2.3c-0.3-0.9-0.8-2.7-1.1-3.6c-0.1-0.5-0.4-1.6-0.5-2.1c-0.2-0.7-0.6-2.2-1.1-2.8
	c-0.1-0.2-0.6-0.4-0.8-0.5l0,0"/>
</svg>
