<?xml version="1.0" encoding="utf-8"?>
<!-- Generator: Adobe Illustrator 25.3.0, SVG Export Plug-In . SVG Version: 6.00 Build 0)  -->
<svg version="1.1" id="Layer_1" xmlns="http://www.w3.org/2000/svg" xmlns:xlink="http://www.w3.org/1999/xlink" x="0px" y="0px"
	 viewBox="0 0 13 21" style="enable-background:new 0 0 13 21;" xml:space="preserve">
<style type="text/css">
	.st0{fill:none;stroke:#4682B4;stroke-width:0.5;}
</style>
<path class="st0" d="M2,20.6L2,20.6l0.2-0.3l0.2-0.2l0.1-0.2l0.1-0.1l0.1-0.1L3,19.6l0.2-0.1l0.1-0.1l0.1-0.1l0.1-0.1L3.6,19
	l0.1-0.2l0-0.1l0.1,0l0.1-0.1l0.1-0.1l0,0l-0.1-0.1v-0.1L3.9,18l-0.1-0.2l0-0.1l0,0l0.1-0.1L4,17.4l0.2-0.1l0.1-0.1l0-0.2l-0.1-0.2
	L4,16.7l0-0.3l0.1-0.1l0,0l0.1-0.1L4.1,16L4,15.9l0.1-0.1l0.1,0l0,0l0-0.1l0.1,0l0.1-0.1l0.2-0.2l0-0.1l0.1-0.1l0.1,0l0.1,0l0-0.1
	l0.1-0.1l0.1,0l0-0.1l0.1-0.1l0.1-0.1l0-0.1l-0.1-0.1l0-0.1l0.1-0.1l0.1-0.1l0.1-0.1l0.1,0l0.1,0l0-0.1l0-0.2l0-0.2l0,0l0-0.1
	l0.1-0.2l0-0.1l0.1,0v-0.2l0.1,0l0-0.1L6,13L6.1,13l0-0.1l0.1-0.1l0.1,0l0-0.1l0-0.1l0-0.1l0.1-0.1l0.1,0l0.1,0l0.1-0.1l0.1-0.1
	l0.2,0L7.3,12L7.5,12l0.1-0.1l0,0l0.1-0.1l0.1,0l0.2,0l0.1,0l0.1-0.1l0.1,0l0.1,0l0.1,0l0.1,0l0.1,0l0.1,0.1L8.7,12l0,0.1l0.1,0.1
	l0.1,0.1l0.2,0.1l0.2,0.1l0.1,0.1l0.1,0.1l0.1,0.2l0,0l0.1,0.1l0,0"/>
<path class="st0" d="M6.9,6.6L6.9,6.6l0,0.1l0,0l0.1,0.1l0,0.1l0,0.1v0.2l0,0L6.9,7.3l0,0.1v0.1l0,0.1l0,0l0,0l0,0.1l0,0.1l0,0.1
	l0,0.1l0,0.1l0.1,0.1l0.1,0.1l0,0.1l0.1,0.1l0.1,0.1l0,0.1L7.2,8.7L7.1,8.8l0,0.1l0,0.1l0,0L7,9l-0.1,0l0,0.2L6.8,9.3l0,0.1L6.7,9.5
	L6.7,9.6l0,0.1l0,0l0,0.2l0,0.2l0,0.1l-0.1,0l0,0l0.1,0l0,0.1l0,0l-0.1,0l0,0l0,0l0.1,0l0.1,0l0.1,0.1l0,0.1l-0.1,0.1l0,0.1
	l-0.1,0.1l-0.1,0.1l0,0.1l0,0.1l0,0.1l-0.1,0.1l0,0.1l-0.1,0.1l0,0.1l0,0l0,0.1l0,0.1l-0.1,0.1l0,0"/>
<path class="st0" d="M3.8,10.5l0.2,0.1L4,10.7l0,0.1l0.1,0.2l0.3,0.1l0.3,0L5,11.2l0.1,0.1l0.1,0.1l0,0.1l0.2,0.1l0.1,0l0.1,0l0.1,0
	l0.1,0l0.1,0.1L6,11.7l0.1,0l0,0l0.2,0.1l0.1,0.1v0.1l0,0v0.2l0.1,0l0,0.1l0,0.1l0,0.1"/>
<path class="st0" d="M6.4,2L6.4,2l0,0.2v0.1l0,0.1L6.4,2.5L6.3,2.6l0,0.1l-0.1,0l0,0.1L6,2.9L6,3L5.9,3L5.8,3.1l0,0.1l0,0.1v0.1
	L5.8,3.5l0,0.2l0,0.1l0,0.2l0,0.2l0,0.1l0,0.2v0.1l0,0.1V5L5.7,5.2L5.6,5.4l0,0.1l0.1,0.1l0.1,0.1l0,0.2l0,0.1l0.1,0.2l0.1,0.1
	l0,0.1L6,6.5l0.1,0.1l0.1,0.1l0.1,0l0,0l0,0.1l0,0"/>
<path class="st0" d="M9,2.2L9,2.2L9,2.2L8.8,2.3l-0.1,0l-0.1,0l-0.1,0l0,0.1l0,0.1l0,0.1l0,0.1l0,0l0,0.2v0.2l0,0.1l0,0.2l0,0.2
	l0,0.1l-0.1,0l0,0l0,0l0,0l0,0.1l0,0.1l0,0"/>
<path class="st0" d="M9.2,17.1l0.1-0.3l0-0.1l0-0.2l0-0.1l0-0.1l0.1,0l0.1,0l0-0.3l0-0.3l0-0.4l0-0.4v-0.1l0,0l0.1,0l0.1-0.2l0,0
	l0.1-0.2l0-0.1l0,0l0.1,0l-0.1-0.1l0,0H9.8l-0.1-0.1v-0.1l0-0.2l0-0.1l-0.1,0v0h0l0,0l0.1,0l0.1-0.1l0-0.1l-0.1,0l-0.1-0.1l0-0.1
	l0-0.1l0.1-0.1l0.1-0.3l0,0l0.1-0.1l0.1-0.1l0.1-0.1l0.1,0l0.2-0.2l0.1-0.1l0.1-0.3l0-0.2l0.1-0.2l0-0.2l-0.1-0.2l-0.1-0.2l-0.2-0.2
	l-0.1-0.1l-0.1-0.2L10,10.3l0-0.1l0.1-0.2l0-0.2l0,0l0-0.1l0-0.1l0-0.1l0.1,0l0.1-0.1l0.1,0l0-0.1l0-0.1l0-0.2v0h0.1l0,0l0,0l0-0.2
	l0-0.1l0-0.1l0-0.1V8.4l0.1-0.1l0.1-0.1h0.1l0-0.1l0,0l0-0.1l0-0.1l0-0.1l0-0.2l0-0.1l0.1-0.1L11,7.1L11,7l0-0.1l0.1,0l0.1,0
	l0.1-0.1h0l0.1,0l0.1-0.1l0.1-0.1l0-0.2l0-0.2l0-0.2l0.1-0.2l0.1-0.3l0.1-0.2l0-0.3l0-0.3l0-0.1L12,4l0-0.2l0-0.3l0.1-0.2l0.1-0.3
	l0.1-0.3l0-0.2l0-0.1l0-0.1l0-0.2l0-0.3l0-0.1l0,0l0,0l0.1-0.2l0-0.2l0-0.2l0.1-0.2l0.2-0.3l0-0.1l-0.2,0l-0.1,0l-0.2,0.1l-0.2,0.2
	l-0.2,0.3l0,0.1l-0.1,0.2l-0.1,0.2l-0.1,0.1l-0.1,0l-0.1,0.1l-0.1,0.1v0L11,2l-0.1,0.1l0,0.1l0,0.1l-0.1,0.1l0,0.1l-0.2,0.1
	l-0.2,0.1l-0.2,0.1l0,0l0,0.1L9.9,3.2L9.7,3.3L9.6,3.4L9.5,3.4L9.4,3.5l-0.1,0L9.2,3.6L9,3.8l-0.1,0l0,0l-0.1,0L8.7,3.8l0,0L8.6,3.9
	L8.4,4L8.3,4.2l0,0.1l0,0.2l0,0.1l0,0.1l0,0.1l0,0l0,0.1l-0.1,0L8.1,4.9L8.1,5l0,0.1l0,0.1l0.1,0.1l0,0.1l0,0.1l0.1,0.1l0,0l0,0
	L8.3,5.7l0,0.1l0,0.1l-0.1,0l0,0H8l0,0l-0.1,0l-0.1,0H7.7L7.6,5.9L7.6,6v0L7.5,6.1l0,0L7.4,6.3L7.3,6.3l-0.1,0L7.1,6.4L7,6.5
	L6.9,6.5L6.8,6.6L6.6,6.7l-0.1,0L6.3,6.8l-0.1,0L6.1,6.9L6,7.1L5.9,7.2l0,0L5.8,7.3l-0.1,0l-0.2,0L5.4,7.4l-0.1,0h0L5.2,7.6H5.1
	L5.1,7.6L5,7.7l-0.1,0l0,0L4.7,7.8L4.6,8L4.5,8.3L4.4,8.5l0,0.2l0,0.2L4.2,9l0,0.2l0,0.1L4.1,9.4l0,0.2l0,0.1L4,9.9l0,0l0,0.1l0,0.2
	v0.2l0,0.1v0l-0.1,0.1l-0.1,0l0,0.1v0.2v0.2l0,0l-0.1,0.1l0,0.1v0.1l0,0.1l-0.1,0.2l0,0.1v0.1v0.1L3.4,12l-0.1,0.2l-0.1,0.1
	l-0.1,0.1L3,12.7l-0.1,0.2L2.9,13l-0.1,0.2l-0.1,0.2l-0.1,0.2l0,0l-0.1,0.2l-0.1,0.1L2.3,14l-0.2,0.2L2,14.3l-0.2,0.1l-0.1,0.1
	l-0.2,0.1l-0.1,0.1l-0.1,0.1L1.3,15l-0.1,0.1l-0.1,0.1L1,15.3l0,0.1l-0.1,0.1l-0.2,0.2l-0.2,0.1l-0.1,0l0,0"/>
</svg>
