<?xml version="1.0" encoding="utf-8"?>
<!-- Generator: Adobe Illustrator 25.3.0, SVG Export Plug-In . SVG Version: 6.00 Build 0)  -->
<svg version="1.1" id="Layer_1" xmlns="http://www.w3.org/2000/svg" xmlns:xlink="http://www.w3.org/1999/xlink" x="0px" y="0px"
	 viewBox="0 0 241 600" style="enable-background:new 0 0 241 600;" xml:space="preserve">
<style type="text/css">
	.st0{fill:none;stroke:#E42A29;stroke-width:0.7;stroke-linecap:round;stroke-linejoin:round;}
</style>
<path class="st0" d="M16.2,72.4c0-2.1,2.6-5.8,3.4-7.8c0.8-2,2.6-6,3.1-8.1c0.5-2.1,0.1-6.6,0.6-8.7c0.4-1.6,2.3-4.3,2.8-5.9
	c0.6-2,1.3-6.1,0.9-8.1c-0.3-1.7-2.7-4.6-3.4-6.2c-0.9-2.1-3-6.4-2.8-8.7c0.1-1.1,1.6-3,2.2-4l0,0"/>
<path class="st0" d="M16.2,76.2c0,1.6,0.5,4.9,0.3,6.5c-0.2,2.2-1.6,6.5-2.2,8.7c-0.8,3.3-2.3,10.1-3.4,13.3
	c-1,2.8-4.3,7.9-4.7,10.9c-0.3,2.5,1.2,7.4,1.6,9.9c0.5,3.4,1.4,10.2,1.9,13.7c0.6,5.1,1.8,15.4,2.2,20.5c0.3,4.1,0.8,12.3,0.9,16.5
	c0.1,2.8-0.6,8.5,0.3,11.2c0.8,2.4,4.5,6.2,5.9,8.4c2.4,3.8,6.5,11.9,8.7,15.8c2,3.7,6.1,10.9,8.1,14.6l0,0
	c1.9,3.8,5.4,11.5,7.5,15.2c1.6,2.9,5.6,8.1,6.8,11.2c1.1,2.7,1.6,8.5,2.5,11.2c1.5,4.6,6.2,13.2,8.1,17.7
	c1.5,3.7,4.2,11.4,5.6,15.2c1.2,3.3,3.2,9.9,4.7,13c1.2,2.6,4.3,7.4,5.6,9.9c1.5,3,3.8,9.2,5.3,12.1c1.3,2.6,4.9,7.2,5.6,9.9
	c0.7,2.6-0.1,8.2,0,10.9c0.1,2.9,0.6,8.6,0.9,11.5c0.4,3.6,1.6,10.7,2.2,14.3l0,0c0.1,3.3-0.9,10,0.3,13c1.3,3.3,7.2,7.9,9.6,10.6
	c3.5,3.9,10.5,11.8,14,15.8c2.1,2.5,6.6,7.2,8.4,9.9c2.8,4.3,6.1,14.2,8.7,18.6c1.4,2.3,4.8,6.6,6.5,8.7
	c3.2,4.1,10.1,11.8,13.3,15.8c1.9,2.4,5.5,7.3,7.5,9.6c4.9,6,15.4,17.4,20.5,23.3c2,2.4,6,7.2,8.1,9.6c4.3,5.1,13.2,15.3,17.4,20.5
	c3,3.7,8.8,11.4,11.8,15.2c3.1,4,9.8,11.7,12.7,15.8c1.3,1.9,3.9,5.6,4.7,7.8c0.5,1.5,1.2,4.7,0.9,6.2c-0.3,1.7-2.3,4.7-3.1,6.2l0,0
	"/>
</svg>
