<?xml version="1.0" encoding="utf-8"?>
<!-- Generator: Adobe Illustrator 25.3.0, SVG Export Plug-In . SVG Version: 6.00 Build 0)  -->
<svg version="1.1" id="Layer_1" xmlns="http://www.w3.org/2000/svg" xmlns:xlink="http://www.w3.org/1999/xlink" x="0px" y="0px"
	 viewBox="0 0 241 425" style="enable-background:new 0 0 241 425;" xml:space="preserve">
<style type="text/css">
	.st0{fill:none;stroke:#E42A29;stroke-width:0.7;stroke-linecap:round;stroke-linejoin:round;}
</style>
<path class="st0" d="M12,10.6c0,1.3-2,3.4-2.7,4.5c-0.7,1-3.1,2.5-3.2,3.7c-0.1,1.1,1.8,2.7,2.2,3.7c0.8,1.7,2,5.4,2.7,7.2
	c0.6,1.6,1.6,4.9,2.7,6.2c0.7,0.8,2.7,1.6,3.7,2c1.1,0.4,3.7,0.5,4.7,1.2c0.7,0.6,1.3,2.4,1.7,3.2c0.4,0.6,1.5,1.8,1.7,2.5
	c0.4,1.1,0.1,3.3,0.2,4.5c0.3,2.2,1.3,6.5,1.7,8.7c0.3,1.3,0.8,3.9,1,5.2c0.5,2.8,0.5,8.8,1.7,11.4c0.4,1,2.1,2.4,2.7,3.2
	c0.7,1,1.9,3.3,2.7,4.2c1.3,1.5,4.5,4,6.2,5.2c1.6,1.1,5.2,2.6,6.7,3.7c1.4,1.1,3.5,4,4.9,4.9c0.7,0.4,2.2,0.7,3,1
	c1.4,0.5,4.2,1.2,5.4,2c1.5,0.9,3.8,3.8,5.2,4.9c1.5,1.2,5,2.9,6.2,4.5c1.1,1.4,2,4.8,2.5,6.4c0.7,2.5,1.3,7.8,1.7,10.4l0,0
	c0.6,2.2,1.4,6.8,2.2,8.9c0.6,1.5,2.4,4.3,3.2,5.7c1.1,1.8,3.4,5.2,4.5,6.9c0.8,1.3,2.3,4,3,5.4c0.9,2,2.1,6.4,3,8.4
	c0.4,0.9,1.6,2.5,2,3.5c0.7,1.9,0.9,6.2,1.5,8.2c0.5,1.8,1.9,5.3,2.7,6.9c0.7,1.3,2.7,3.6,3.2,4.9c0.5,1.3,0.5,4.3,0.7,5.7
	c0.4,2.1,1.4,6.3,2,8.4c0.6,2.2,2.3,6.5,3,8.7c0.6,2,1.7,6.1,2.2,8.2c0.5,1.8,2.4,5.4,2,7.2c-0.4,1.6-3.2,3.7-4.2,4.9
	c-1,1.2-3.4,3.5-4,4.9c-0.3,0.9,0,2.8,0,3.7c-0.1,2.5-1,7.5-0.5,9.9c0.3,1.5,1.9,4,2.5,5.4c0.7,1.8,1.7,5.6,2.5,7.4
	c0.3,0.7,1.1,1.9,1.5,2.5l0,0c1.4,0.5,4.3,1.5,5.7,2c1.7,0.6,5.2,1.6,6.9,2.2c1.9,0.7,5.6,2.2,7.4,3c1.7,0.6,5.4,1.3,6.7,2.5
	c1.3,1.2,2.2,4.7,3,6.2c0.6,1.1,2,3.1,2.5,4.2c0.6,1.5,1.1,4.6,1.5,6.2c0.4,1.4,1.1,4.4,1.7,5.7c0.5,0.9,1.8,2.5,2.5,3.2
	c1.1,1.3,3.9,3.4,4.9,4.7c0.8,1,2.1,3.1,2.7,4.2c1,1.5,2.8,4.6,3.7,6.2c0.8,1.5,2.3,4.4,3,5.9c1,2.1,2.7,6.3,3.7,8.4
	c0.8,1.8,2.5,5.4,3.5,7.2c0.5,0.8,1.3,2.5,2,3.2c1.3,1.4,4.8,3.2,6.4,4.2c1.8,1.1,5.4,3.5,7.4,4c1,0.2,3.1-0.7,4-0.2
	c1.4,0.7,2.1,4.1,3,5.4c0.5,0.8,2,2.1,2.2,3c0.2,1-1,2.9-1,4c0,1.2,0.6,3.6,1,4.7c0.5,1.3,2,3.7,2.7,4.9c1,1.7,3.4,4.8,4.5,6.4
	c1,1.5,2.8,4.6,3.7,6.2c0.6,1.1,2.2,3.2,2.5,4.5c0.1,0.4,0,1.4-0.2,1.7c-0.3,0.5-1.7,1-2,1.5c-0.4,0.8-0.4,2.6-0.5,3.5l0,0
	c0.1,1.3,0.1,3.9,0.5,5.2c0.6,1.8,2.8,5,3.7,6.7c0.7,1.3,1.5,4.5,2.7,5.4c1.5,1.2,5.8,1.5,7.7,2c1.4,0.4,4.1,1,5.4,1.5
	c2.5,0.9,7.2,3.3,9.6,4.5l0,0"/>
</svg>
