<?xml version="1.0" standalone="no"?><!DOCTYPE svg PUBLIC "-//W3C//DTD SVG 1.1//EN" "http://www.w3.org/Graphics/SVG/1.1/DTD/svg11.dtd"><svg width="390" height="268" version="1.1" xmlns="http://www.w3.org/2000/svg" xmlns:xlink="http://www.w3.org/1999/xlink"><path stroke-width="1" stroke="steelblue" fill="steelblue" d="M279.0961818195974,13.226461938648754L276.78472647691706,17.44146858858312L273.5214955446759,23.967930530153808L271.07407234549464,29.542616804235422L267.40293744771407,33.34971962773943L260.60453967220974,39.196341739005675L256.25356499687905,45.178931885004204L252.31049428708684,51.70539377732439L248.09548756726645,57.95991979264454L243.4725770799232,64.07847794279041L239.52950627112295,68.42945250917046L232.32320453008015,68.97332439564116L224.43706301148723,70.46897188039566L218.9983447910845,72.78042718447296L211.11220327249157,76.58752989933328L205.80945290859017,78.35511337123262L201.05057446573755,77.94720955448884L195.88379205734645,78.49108133314803L191.8047533920435,79.85076093864109L186.50200302814255,81.61834436702839L183.5107080069206,83.79383162383692L175.89650239934826,85.56141505502319L164.7471299485128,86.1052869362893L164.7471299485128,86.1052869362893L163.1155146804108,86.64915884237143L160.94002729324075,88.00883839920971L156.04518089487738,89.50448587762321L151.55823826403685,90.59222951211495L144.35193652299358,89.2325499799349L141.0887055907524,89.09658199497244L135.1061154493009,90.72819750372582L128.57965358481715,90.86416543313499L124.228678909486,91.54400518836883L117.29431307946379,93.03965277128691L111.71962690355122,94.1273964701004L109.00026769434089,93.31158866032683L105.60106880658896,92.35981295260535L103.01767765189743,92.4957809472753L100.02638253166697,94.26336435852L97.98686319901617,95.0791721371329L93.77185657820382,95.0791721371329L88.8770100808324,94.5353002982256L84.93393937104065,92.22384501170836L83.03038789489074,93.58352464995369L77.5916696744871,93.4475566858655L72.69682317711613,93.85546050943958L70.79327179997563,97.1186915217354L67.39407291222415,101.60563405041557L65.21858552505364,104.46096114780858L61.68341868179186,107.86016003548048L56.924540139931196,112.21113476761002L55.156956718299625,114.11468612212411L51.07791805299803,113.97871811993582L43.46371244542388,113.16291043315823L36.93725048193255,111.66726285844379L29.051108963339175,110.71548723695923L22.52464699984648,109.49177562821797L17.493832645974635,108.67596782406235L17.35786469046434,108.81193583818776" /><path stroke-width="1" stroke="steelblue" fill="steelblue" d="M9.607691523417088,97.39062733331411L9.607691523417088,97.39062733331411L12.327050633618455,101.19773003485625L15.726248333263811,105.54870504345308L17.357863799385086,108.13209623293596L19.397383132035884,113.57081447037717L21.30093450917684,120.0972764892731L23.612389851856733,128.25535386322736L27.011588739609124,137.22923902529465L29.459011938789445,146.33909217911832L34.081922525141636,147.69877170046357L41.560160177204125,148.24264356601634L43.59967950985492,146.61102804202756L49.17436568576795,146.61102804202756L53.117436494568665,144.43554071827657L54.88501991619978,142.66795726483315L55.700827649259736,147.15489989825574L56.92453924885058,151.5058745009651L55.564859693749895,154.22523367295344L55.428891738240054,157.0805607909565L57.6043790264016,160.34379174550168L57.6043790264016,160.34379174550168L60.73164180511549,165.23863832560437L62.49922522674615,169.04574110108524L68.88971923472809,173.26074779361625L76.36795688679149,177.4757544350541L78.40747621944138,179.9231776897709L78.81538008597181,185.08996011238105L78.54344417495167,191.20851811345938L78.40747621944138,197.4630441132108L80.85489941862306,200.72627518380204L81.2628032851535,205.89305744814374L85.61377796048464,206.02902546097084L89.96475253680683,204.9412817824832L95.81137472274804,203.44563427606317L95.81137472274804,203.44563427606317L101.52202845813645,205.07724966095748L105.73703517795684,206.84483314516729L109.13623406570923,209.97209606745946L111.03978544284973,208.74838445813475L116.47850376226143,205.62112144770344L118.38205513940284,204.53337785270287L123.34488556502492,202.83377835370857L128.30771599064656,201.1341789373614L130.7551392888363,202.90176238830736L137.9614409308706,205.34918555686L145.71161449395322,207.79660877258766L155.22937147866696,211.05983971076557L159.98825002052854,213.23532708917992L168.14632745014114,214.73097455778407L179.56763581199675,218.67404540619236L179.56763581199675,218.67404540619236L182.42296297671692,221.05348468198372L187.31780947408788,221.05348468198372L191.94071996142975,221.05348468198372L195.74782281472062,222.9570361334122L200.09879739104372,226.22026706283395L205.8094516214751,228.93962622023582L213.695593140068,232.47479315031796L219.40624727149043,234.65028045833196L224.02915785784262,238.18544725573247L228.92400425620463,242.2644859768452L234.36272257561677,242.80835785280578L238.44176124091882,244.9838452032077L246.3279027595113,246.8873965637872L250.95081334586303,247.9751401777703L254.4859801891248,245.25578111712366L256.38953166527426,243.8961014966112L260.4685703305763,243.3522296538863L265.63535273896787,244.1680374771263L268.3547118491697,245.52771695820957L273.2495582475317,245.7996529546981L278.6882765669434,246.07158876504036L281.67957158816535,247.7032042940623L286.8463539965569,250.42256345415353L289.29377719573813,251.78224301746332L293.9166877820894,252.59805074575297L302.074765211702,254.50160219635927L307.2415475210846,258.5806408980966L310.7767144633558,260.21225631813195L316.7593045057988,260.48419229208776L320.5664073590897,260.48419229208776L322.4699587362297,259.1245126641393L324.9173819354114,259.9403204028199L327.90867705564233,260.21225631813195L328.7244847887023,261.2999999999993L330.8999720768634,259.3964486330551L332.25965163196406,256.133217648744L335.52288266321466,252.59805074575297L336.61062630729566,249.8786915967321L341.50547270565767,246.34352473141826L344.7687037369087,240.90480642708417L346.4003192030291,234.92221629837695L347.2161269360904,230.84317758258067L351.02322969037186,228.12381850593556L351.8390374234323,225.94833118827182L354.5583966326426,224.04477977262422L357.27775574284396,219.4218692560753L361.6287304181751,212.62347144148316L363.5322817953156,209.0883044718289L361.356794507155,205.281201679863L359.4532430310046,202.01797071333476L359.4532430310046,197.93893205915901L359.4532430310046,191.68440598709913L358.0935634759039,190.05279053471804L361.90066632919525,186.5176236709085L362.98840997327534,182.4385849162927L361.08485859613484,178.63148211775615L361.90066632919525,174.00857161222712L366.79551272755725,172.37695606820625L366.5235768165371,167.48210959909238L367.88325637163825,165.3066223499286L366.251640905517,162.31532725533862L367.6113204606181,157.420480865851L369.24293592673894,150.89401893531112L377.67294926737213,149.53433932162397L378.4887570994415,147.08691610064125L379.5765007435216,139.20077454466946L380.392308476582,136.75335139066692L378.4887570994415,133.4901204309408L378.76069301046164,129.95495343975972L378.76069301046164,129.95495343975972L378.7606927134352,126.96365861707545L376.58520542527367,124.51623538527292L376.58520542527367,124.51623538527292" /><path stroke-width="1" stroke="steelblue" fill="steelblue" d="M337.6983694563314,6.699999999999363L336.33868990123165,8.603551418524148L334.9790103461305,10.77903877278004L332.80352305796896,11.73081447449249L330.8999716808289,14.858077457931813L329.81222793773895,19.07308407075334L329.40432407120807,21.65647529807893L327.908676560598,22.336315097080842L327.0928688275376,24.51180240460144L328.4525483826378,27.095193602104246L328.4525483826378,28.590841092774554L327.3648047385577,30.494392489718848L326.8209329165179,33.2137516249054L327.0928688275376,36.476982628304995L323.4217340287655,37.29279031660462L321.5181825526156,38.51650195662751L319.75059913098494,41.09989320218574L318.6628554869044,42.45957270114741L318.9347913979245,44.36312409649827L319.61463117547464,45.3148998011975L320.0225350420051,47.218451285764786L318.39091957588425,49.12200264282046L314.31188091058175,51.84136175198L312.0004255679014,54.28878505790499L308.6012266801499,54.832656813890935L307.51348303606983,57.55201598336953L301.2589569835977,62.44686241439513L301.2589569835977,62.44686241439513L298.5395984674492,65.16622178006173L294.18862379211805,68.83735661316496L291.7412005929368,73.46026719505107L289.29377739375514,79.17092131683239L286.30248227352513,84.60963964424445L282.3594115637329,90.72819773479978L279.3681164435029,95.48707618413073L274.06536617861,98.7503071631213L268.2187439926679,102.28547400861453L260.6045383850951,104.18902539829833L251.2227493558912,106.636448681616L244.15241557035915,109.21983988351849L237.89788961689555,112.347102805953L233.27497903054427,114.1146863527124L230.8275558313635,114.7945261048526L224.84496568991153,113.43484647547211L218.3185037264193,115.20242998103276L214.91930483866736,116.29017363554749L214.91930483866736,116.29017363554749L210.84026696543606,119.55340437009681L206.21735647809373,122.95260324956917L200.5067022476619,127.84744977444689L197.787343137461,129.75100112557993L189.49329775233718,132.7422961637012L179.83957281211406,136.82133493991023L169.09810412880097,140.9003735618926L159.8522830551069,145.11538026121252L153.0538852796035,147.56280353213288L150.74242993692314,149.73829087099512L146.66339127162155,154.36120133999611L139.4570895305783,156.6726566278012L133.20256347810619,158.8481439930506L128.17174912423434,157.48846433131848L121.64528716074165,160.07185549830228L114.98285724173957,156.40072068296922L110.35994675439679,153.68136152563693L101.52202954723361,151.64184226072348L90.78056086392053,149.33038692215086L80.44699614614638,146.47505984651434L72.01698280551273,145.5232841578072L72.01698280551273,145.5232841578072L60.86761065170458,143.48376479837225L55.29292447579155,143.21182883768597L55.29292447579155,143.21182883768597" /></svg>