<?xml version="1.0" encoding="utf-8"?>
<!-- Generator: Adobe Illustrator 25.3.0, SVG Export Plug-In . SVG Version: 6.00 Build 0)  -->
<svg version="1.1" id="Layer_1" xmlns="http://www.w3.org/2000/svg" xmlns:xlink="http://www.w3.org/1999/xlink" x="0px" y="0px"
	 viewBox="0 0 34 20" style="enable-background:new 0 0 34 20;" xml:space="preserve">
<style type="text/css">
	.st0{fill:none;stroke:#4682B4;}
</style>
<path class="st0" d="M20.9,7.9l-0.5,0.5l-0.9,0.8l-0.4,0.4l-0.2,0.3l-0.4,0.3l-0.3,0.6l-0.3,0.8l-0.7,0.6L16.4,13l-0.6,0.4L14.5,14
	l0,0"/>
<path class="st0" d="M33.2,0.5l-0.4,0.3L32.4,1l-0.6,0l-0.6,0.3l-0.4-0.2l-0.3,0.3l-0.3,0.3L30,1.5l-0.6,0.2L28.7,2l-0.6,0.2
	l-0.6,0.2l-0.8,0.1"/>
<path class="st0" d="M26.6,2.5l-0.2,0.1L26.1,3l-0.4,0.3h-0.6l-0.9,0.1l-0.2,0.3L23.7,4l-0.2,0.5l0,0l-0.2,0.7L23,5.6l-0.2,0.5l0,0"
	/>
<path class="st0" d="M22.6,7.2l-0.4,0.2l-0.4,0.2l0,0"/>
<path class="st0" d="M21.8,7h-0.6l-0.4,0l-0.1-0.1h-0.3l-0.5-0.4l-0.6-0.2l-0.9-0.6l-0.6-0.2l-0.4-0.5l-0.2-0.2h-0.4l-0.8,0.1
	l-0.6-0.2l-0.8-0.3l-0.8-0.2l-0.4,0l-0.2,0.5L13,5.1l-0.3,0.6l-0.4,0.8L12,7.1l-0.3,0.5l-0.2,0.4l-0.3,0.3l-0.4,0.4l-0.6,0.3
	L9.5,9.8l-0.8,0.6l-0.6,0.7l-0.6,0.7l-0.6,0.7l0,0l-0.4,0.4l-0.6,0.8l-0.6,0.7l-0.4,0.6l-0.6,0.4l-0.4,0.7l-0.6,1.1l-0.8,1L1.6,19
	l-0.8,0.5l0,0"/>
<path class="st0" d="M16.1,14l0.2-0.9l0,0"/>
</svg>
