<?xml version="1.0" encoding="utf-8"?>
<!-- Generator: Adobe Illustrator 25.3.0, SVG Export Plug-In . SVG Version: 6.00 Build 0)  -->
<svg version="1.1" id="Layer_1" xmlns="http://www.w3.org/2000/svg" xmlns:xlink="http://www.w3.org/1999/xlink" x="0px" y="0px"
	 viewBox="0 0 9 20" style="enable-background:new 0 0 9 20;" xml:space="preserve">
<style type="text/css">
	.st0{fill:none;stroke:#4682B4;stroke-width:0.5;}
</style>
<path class="st0" d="M4.1,0.5L4,0.6L3.9,0.8L3.8,0.9l0,0.2l0,0.1L3.7,1.2l0,0.2l0,0.1l0,0.2L3.5,1.8L3.4,1.9L3.3,2.1L3.2,2.2l0,0.1
	l0,0.1l0.1,0.2l0,0.2l0,0.3L3.1,3.2L3,3.4L2.9,3.6l0,0L2.8,3.7L2.7,3.7L2.6,3.9L2.6,4L2.5,4.1l-0.1,0L2.2,4.3L2.1,4.4l0,0.1l0.1,0.1
	l0,0.1L2.1,4.8l0,0.1l0,0.1l0,0.1l0,0.3L2,5.6l0,0.3v0.2l0,0.1l0,0.2v0.2L2,6.8l0,0l0,0.2l0,0.2l0,0.2l0,0.2L1.9,7.7L1.8,7.8
	L1.6,7.9L1.5,8l0,0.1l0,0.1l0.1,0.1l0.2,0.2l0,0.1l0.1,0.1L2,8.9L2,9.1l0.1,0.3l0,0.2l0,0L2,9.7L1.9,9.8L1.7,9.9l-0.1,0.2l-0.1,0.2
	l0,0.1l0,0.2l0,0.1l-0.1,0.2l-0.1,0.2l0,0.2l0,0.2l0,0.1l0.1,0.2l0,0.2l0,0.2l-0.1,0.1l-0.1,0.1l0,0.2l0,0.2l0,0.1l0,0.1l0,0.1
	l0,0.1l0,0.1l0,0.2l0,0l0,0.1l0,0.1l0,0.2l-0.1,0.1L1,14.4l0,0.1l0,0l0,0.1l-0.1,0.2L0.7,15l-0.1,0.2l0,0.2l0,0.3l0,0.2l-0.1,0.1
	l-0.2,0.2l0,0l0,0.2l0,0.2l0,0.2l0.1,0.1l0.1,0.2l0.1,0.1l0,0.1l0,0.3l-0.1,0.2l0,0l0,0.1l0,0.1l0.1,0.1l0.1,0l0.1,0.1L1,18.3
	l0.1,0.1l0.1,0.1l0.1,0.1l0.1,0.1l0.1,0.1l0,0l0.2,0l0.1,0l0.1,0l0.2,0l0.1,0.1L2.3,19l0.1,0l0.2,0l0.1,0l0.1,0L2.9,19l0,0l0.1,0
	l0.1,0l0.1,0.1l0.2,0l0.1,0.1l0.2,0l0.1,0l0.1,0l0.1,0.1l0.2,0l0.2,0l0.1,0l0,0"/>
<path class="st0" d="M4,19.5h0.1h0.1l0.1,0l0.1-0.1l0.1-0.1h0.1l0.1,0l0.1,0l0.1,0l0.1-0.1l0.2-0.1l0.1,0l0,0l0,0"/>
<path class="st0" d="M4.7,19.5l0.1,0l0.2,0l0.1,0l0.1,0l0.1-0.1l0.1,0l0.2,0l0.2,0l0.1-0.1l0-0.1l0-0.2l0-0.2l0-0.1l0-0.1l0-0.1
	l0-0.1l0-0.1l0-0.1l0-0.2v-0.2l0-0.1l-0.1-0.1l-0.1-0.2l0-0.1l0-0.1l0-0.2l0.1-0.2l0.1-0.1l0.2-0.2L6,16.5l0-0.1l0-0.2l0.1-0.1
	l0.1-0.1l-0.1-0.1L6,15.7l-0.1-0.1l-0.2-0.1l0,0l-0.1-0.1l0-0.1l-0.1-0.1L5.4,15l-0.2-0.1l-0.2-0.1l-0.1-0.1l-0.1,0l-0.2,0l-0.2,0.1
	l-0.1,0.1l-0.1,0.1L4,15L4,15l-0.1,0l-0.1,0l-0.2-0.1l-0.1-0.1l-0.2-0.1l-0.1,0l-0.1-0.1l-0.1-0.1l0-0.1l0-0.1l0,0"/>
<path class="st0" d="M8.6,13.9l-0.1,0l-0.2,0l-0.2,0l-0.2,0L7.9,14l-0.1,0.1v0.1l0,0.1l-0.1,0v0l-0.1,0l-0.1,0l-0.1,0l-0.1,0l-0.1,0
	l0,0l0,0l0,0.1v0l0,0l0,0l0,0l-0.1,0l-0.1-0.1l-0.1-0.1L7,14.2l0-0.1L7,14l0-0.1l0-0.1l0,0l-0.2,0l-0.2-0.1l-0.1-0.1l0-0.2l-0.1-0.2
	l-0.1-0.1l-0.2,0l-0.4,0l-0.2,0l-0.2,0l-0.2,0.1l-0.2,0.1l-0.2,0.2l0,0.1l0,0.1L4.6,14l-0.1,0.1l-0.1,0.1l0,0.1l0,0.1l-0.1,0.1
	l-0.1,0.1l-0.1,0.1l-0.1,0l0,0.1l0,0.1l0,0.1L3.9,15l-0.1,0l-0.1-0.1l-0.1,0l-0.1,0l-0.1,0l-0.2-0.1l-0.1-0.1l-0.1-0.1l-0.1-0.1
	l0-0.1l0-0.1l0,0"/>
</svg>
