<?xml version="1.0" encoding="utf-8"?>
<!-- Generator: Adobe Illustrator 25.3.0, SVG Export Plug-In . SVG Version: 6.00 Build 0)  -->
<svg version="1.1" id="Layer_1" xmlns="http://www.w3.org/2000/svg" xmlns:xlink="http://www.w3.org/1999/xlink" x="0px" y="0px"
	 viewBox="0 0 83 55" style="enable-background:new 0 0 83 55;" xml:space="preserve">
<style type="text/css">
	.st0{fill:none;stroke:#4682B4;}
</style>
<path class="st0" d="M80.9,37.7l-1.6,0.5L77,38.6l-2.2,0.3h-2.2L71,39.5l-1,0.8l-0.5,1l-0.1,1.5l-0.7,0.5l-0.6,1L67,44.9l-1.2,0.4
	l-0.9-0.2l-1.6-0.7l-1,0.5l-0.4,0.9l0.6,0.7l0.7,0.7l-0.5,0.7l-1.4-0.1l-0.7-1.1l-1.4-2.8L58.8,43v-2.2l-0.9-1.7l-0.3-1l-0.1-0.6
	l-1.9-0.7L53,36.6L51,35.2v-1.8l-0.4-2.7l-0.7-1.2l-2.8-1.2l-2.7,0.1l-3.7,0.4L37,29.4l-2.1,0.4l-2.7,2.5l-2.1,1.3L28,35.9l-1,1.8
	l-1.1,2.1l-1.3,1.7l-0.7,2l-0.1,1L22,46.5l-1.6,1l0,0l-1.1,0.7l-0.1,1v1.4l-1.4,1.6L17,53.5l-2.1-0.9l-1.6-0.8l-2.6-0.5l-2.3-1.1
	l-2.7-1.5l-2-1.4l-0.6-0.8v-1.2l0,0"/>
<path class="st0" d="M21.6,1.5l-0.7,1.9l-1.7,2.1L18.6,7v2.3l-0.1,1.9l0.2,1.5l-0.4,2L17.6,16l-1.1,0.6l-1.6,0.1l-0.7,1.1l-2,1
	l-2.3-0.1l-0.7,0.6l-0.5,1.6l-0.4,1.9L7,25.1l-0.3,2.3l-1,2.3L5,31.2l0.3,1.2l0.7,1.8l-1,1l-2.2,2L2.1,38l0.7,1.8l0.5,0.7l0,0"/>
</svg>
