<?xml version="1.0" encoding="utf-8"?>
<!-- Generator: Adobe Illustrator 25.3.0, SVG Export Plug-In . SVG Version: 6.00 Build 0)  -->
<svg version="1.1" id="Layer_1" xmlns="http://www.w3.org/2000/svg" xmlns:xlink="http://www.w3.org/1999/xlink" x="0px" y="0px"
	 viewBox="0 0 326 219" style="enable-background:new 0 0 326 219;" xml:space="preserve">
<style type="text/css">
	.st0{fill:none;stroke:#4682B4;}
</style>
<path class="st0" d="M317.9,5.6l-4.8,1.9l-6.2,1.9l-6.2-1L296,8l-2.4,1.9l-3.8,2.4v2.9v2.9l-3.3,2.4v1l-4.8,2.4l-3.3,0.5l-6.2-2.4
	l-2.4,3.3l2.4,3.8l-1,1.9l-6.7-1l-9.5,0.5l-6.2,2.4l-2.9,2.4l-0.5,6.7v5.7l-1.9,4.8l-3.8,9l-5.7,11.4l-1.4,2.4l0.5,4.8l-3.8,4.3
	l-1.9,6.2l0.5,8.6l-1.9,2.9l-3.8,4.3l-5.2,4.8l-2.9,5.2l-5.7-0.5l-11.9-1l-10-0.5h-4.8l-1.9,3.8l-1.9,1.9l-9,4.3h-3.3l-1.9,3.3
	l-4.8,4.3l-3.3,3.3l-3.3,3.3l-7.7,2.4v3.2l-1.3,3.8l0.1,2.5l-0.2,5.1l0,0"/>
<path class="st0" d="M121.2,20.1l-0.5,2.9l-1.4,4.3l3.8,3.3l6.2,4.3l5.7,2.9l6.2,2.9l6.2,1.9l6.7,1.9v3.3l-2.4,3.8l-3.3,4.3
	l-1.9,5.2l-1,10l-0.5,6.7l-0.5,8.1l-0.5,2.4l-3.3,2.4v1.9l3.8,1l2.4,1l0.5,3.3l-2.4,2.9l-3.8,2.4v1.9l2.4,1h3.3h4.3l2.9,2.9l0.5,4.8
	l-4.3,3.8l-0.5,2.4l0.5,1.4l-2.9,4.3l-1.4,2.4l-2.4,3.3l-1.4,4.3l-0.5,2.9l0,0l0.5,2.2l1.1,1.9l0.2,2l-0.6,3.1l-0.4,3.8l-1.3,4.4
	l0,0"/>
<path class="st0" d="M141.5,147l0.1-2.7l-1-3.5l-1.2-3.2l0.7-4.6l0,0"/>
<path class="st0" d="M123.7,35.9l-2.6-2.1l-3.6-3.6l-1.1-1l0.5-2.3l0,0"/>
<path class="st0" d="M137.6,163.2l-2.6,2.1l-2.4,3.8l0.2,3.6l1.4,2.6l-0.7,6.4l-1,5l-3.3,2.6l-7.4-1.7l-5.5-2.6l-4.5-0.2h-5.5
	l-3.8,0.7l-5.9-1.9l-4.8-0.5H80.3l-13.6,3.3l-10.2,2.4l-4.5,1.9l-0.5,4.5l-1.2,2.9l-5.2,3.1l-4.8,2.4h-4.5h-3.8l-4.5,2.1l-4.3,2.9
	l-4.8,0.7l-5.7,0.5l-3.3,0.4l-1.2,3.2l0,0"/>
</svg>
