<?xml version="1.0" encoding="utf-8"?>
<!-- Generator: Adobe Illustrator 25.3.0, SVG Export Plug-In . SVG Version: 6.00 Build 0)  -->
<svg version="1.1" id="Layer_1" xmlns="http://www.w3.org/2000/svg" xmlns:xlink="http://www.w3.org/1999/xlink" x="0px" y="0px"
	 viewBox="0 0 147 219" style="enable-background:new 0 0 147 219;" xml:space="preserve">
<style type="text/css">
	.st0{fill:none;stroke:#4682B4;}
</style>
<path class="st0" d="M138.8,81.1l-1.8,2.7l-1.5,3l-0.9,3.6l0.9,2.4l0.9,1.5v3.3v2.4l0.3,2.1l1.2,2.4l0.3,5.7v4.8l-0.6,1.8v3.9v2.7
	l-1.8,4.5l-2.1,5.4l-3.3,6l-0.6,1.8l-0.3,3.3l-1.5,1.5l-2.1,2.1l-0.3,2.7l0.6,3.6l-0.9,3.9l-2.7,3l-3,3l-2.1,2.7l-1.5,3.3l-0.9,2.7
	l0.9,2.4l1.8,4.5l2.1,3.3l0.6,2.7l-0.6,6.6l-0.3,5.1l-0.9,2.1v3.3l1.2,3l0.9,1.8l2.4,0.6l1.5,0.6l0.9,1.8l0,0"/>
<path class="st0" d="M59.4,102.4l-0.6-1.8l-1.2-2.4l1.2-1.8l3.3-3l1.2-1.8v-2.4l-1.5-1.8l0.6-1.8l1.8-1.8l0.9-3.3v-3.6l0.9-1.8
	l1.2-4.2l1.2-1.8l1.5-2.1l2.1-0.3h2.7l1.8-1.2l1.8-1.5l2.4-0.6L82,63l0.6-3L82,56.8l-3.3-2.1l-3-3l-2.4-3.3l-3.6-1.5l-2.7-4.5
	L64.7,38l-2.4-2.4l-1.2-3l-0.9-4.8l-1.8-2.4l-3.6-3l-3-1.8l-3.6-3l-1.5-2.4l-2.4-6l-1.2-2.1l-1.8-1.8l0,0"/>
<path class="st0" d="M112.5,211.7l-2-0.7h-2.9l-4,0.5h-5l-3.7-0.3l-3.8-1.4l-2.8-1.9l-3.5-2.6l-2.9-2.9l-3.3-1l-4.8-0.3h-1.4l0,0"/>
<path class="st0" d="M72.5,199.5l2.6,0.2l2.5,0.4l2,0.4l1.7,0.4l1.7,1.3l1.5,1.4l2,1.9l2.8,2l2.8,1.4l3.4,1l3.6,0.4l3.4,0.1l3-0.4
	l3.1-0.1l2.3,0.1l1.6,0.5"/>
<path class="st0" d="M127.8,212.6l2.1-1.1l2.3-1.3l2.3-1.3l2.9-1.1l2.1-0.8l1.8-0.4l1.8-0.4l0,0"/>
<path class="st0" d="M126.8,213.5l-3.4-2.1l-3.1-1.8l-4.2-3l-6-3l-5.4-1.5l-3.6-1l-4.5-2.8l-4.6-3.7l-4.8-4.6l-2.7-1.3l-4.3-0.3
	l-3.9,0.7l-2.5,1.8l-1.6,2.2l-0.4,2.7v1.6l0,0"/>
<path class="st0" d="M60.5,105.7l-1,2.1v2.8l1.5,2.7l3,2.4l3.4,1.9l2.7,1l4.2,0.9l2.7,0.7l2.8,1.8l0.9,1.2l1.6-1.5l1.6-2.4l0.7-2.2
	v-2.4l-0.1-0.9l1.5-0.4l2.1-1.5l3-3.1l0.9-2.2l1.9-4l2.5-3.7l1.2-1.5l0.9-1.9l0.9-1.9l2.5-2.2l3.9-3l3.6-2.7l2.7-0.4l4.8-0.7
	l4.8-0.7l5.2,0.3l6.4,0.1l0.4-0.3l0,0"/>
<path class="st0" d="M40.6,7.3l-1.3,1.5l-2.4,1.5l-1.9,1.5l-1,0.6l-1.5,1.3L30.6,17l-1.3,2.8L28,23.1l0.1,2.7l0.4,2.8L27.3,31
	l-1,3.6L24.6,38l-0.7,4l0.3,4.9v3.4l1,2.1l1.3,2.1l-0.3,2.8l-0.1,3l0.1,2.2l-0.4,1.2l-2.4,2.5l-0.6,2.5l0.1,3.3V76l-0.3,1.3l-0.6,3
	l0,0l-0.1,3.3l-0.6,2.2l-0.7,2.8l0.3,4.2l0.1,3l-0.3,5.2l-1.9,3.9l-2.1,4.5l-1.5,4.5l-1.5,4.8l-1.9,3.9l-1.3,1.8L9.1,127v3.1l1,6.3
	l0.1,2.1l-0.9,3.1l-2.1,2.2l-2.1,4.2l-0.9,4.5l-0.4,4.3l0.7,4l1.6,3.7l1.6,2.8l1.5,1.6l0,0l1.2,1.8l0.7,1.9v1.9l-0.1,2.8l-0.7,2.2
	l-0.3,2.5v2.2l-0.3,2.1v1.8l0.6,1.2l1.3,1.2l1.3,0.7l1.6,0.9l2.1,1.6l0.6,1l1.2,0.9l2.4,1.5l1.4,2.3l4.3,3.1l2.5,0.7l2.7,0.7
	l2.4,0.6h2.4l1,0.4l2.4,0.7l2.5,0.9l3.1,1.6l1.5,0.9l3.1,0.4l1.9,0.1l1.5-1.2l2.1,0.3l2.2,0.6l1.3,0.1l3.4-1l2.1-1.2l1.5-2.8
	l0.9-3.4l0,0"/>
</svg>
