<?xml version="1.0" encoding="utf-8"?>
<!-- Generator: Adobe Illustrator 25.3.0, SVG Export Plug-In . SVG Version: 6.00 Build 0)  -->
<svg version="1.1" id="Layer_1" xmlns="http://www.w3.org/2000/svg" xmlns:xlink="http://www.w3.org/1999/xlink" x="0px" y="0px"
	 viewBox="0 0 140 219" style="enable-background:new 0 0 140 219;" xml:space="preserve">
<style type="text/css">
	.st0{fill:none;stroke:#4682B4;stroke-width:0.5;stroke-linecap:round;}
</style>
<path class="st0" d="M48.8,213.5l1.5-2.6c0,0,0.8-2.5,1-3.3c0.2-1,0.5-3.1,0.5-4.1c0-0.5-0.2-1.3-0.3-1.8c0-0.6-0.1-1.8,0.3-2.3
	c0.5-0.8,2.4-1.4,3.3-1.8c0.7-0.3,2.4-0.3,3.1-0.8c0.4-0.3,1.1-1.1,1.3-1.5c0.4-0.8,0.4-2.5,0.8-3.3c0.1-0.3,0.6-1,0.8-1.3
	c0.5-0.7,1.6-1.8,2-2.6c0.2-0.4,0.7-1.3,0.8-1.8c0.2-1.1-0.5-3.2-0.5-4.3c0-1,0.3-2.9,0.5-3.8c0.2-0.9,0.8-2.7,1-3.6
	c0.2-0.9,0.6-2.9,0.5-3.8c0-0.8-0.5-2.5-0.8-3.3c-0.4-1.2-1.6-3.6-1.8-4.8c-0.2-0.9,0.2-2.7,0-3.6c-0.1-0.5-0.6-1.5-0.8-2l0,0"/>
<path class="st0" d="M93.9,166.4c0-0.3-1-0.3-1.3-0.4c-0.6-0.1-1.8-0.3-2.3-0.5c-0.5-0.2-1.5-0.8-1.8-1.3c-0.3-0.4-0.4-1.5-0.6-1.9
	c-0.2-0.4-1-1-1.3-1.4c-0.3-0.4-0.7-1.2-0.9-1.5c-0.2-0.4-0.7-1.1-1-1.4c-0.4-0.4-1.4-0.9-1.9-1.3c-0.4-0.2-1.1-0.8-1.4-1
	c-0.4-0.3-1-0.9-1.4-1c-0.4-0.2-1.3-0.1-1.8-0.1c-0.4,0-1.2-0.2-1.5-0.1c-0.3,0.1-0.8,0.6-1.1,0.6s-0.8-0.7-1.1-0.6
	c-0.5,0.1-1.1,1-1.4,1.4c-0.3,0.3-0.7,1.2-1.1,1.3c-0.5,0.2-1.6-0.5-2.2-0.6c-1-0.3-2.9-1.2-4-1.4c-0.7-0.1-2.2,0-2.9,0
	c-1.1,0-3.3,0.2-4.5,0.3c-1.1,0.1-3.4,0.2-4.6,0.3c-0.4,0-1.3,0.1-1.7,0c-0.9-0.2-2.6-1.3-3.4-1.8c-1.3-0.8-3.7-2.9-5-3.8
	c-1-0.7-3.1-2.1-4.1-2.9c-0.7-0.7-2.3-2-2.7-2.9c-0.2-0.5-0.3-1.5-0.3-2c0.1-1.1,0.9-3.1,1-4.2c0.1-1.1,0.1-3.3,0-4.3
	c0-0.5-0.3-1.4-0.4-1.9c-0.1-0.5-0.2-1.6-0.3-2.2c0-0.7,0.1-2.1,0-2.8c-0.1-0.5-0.6-1.4-0.5-1.9c0-0.4,0.7-1.1,0.8-1.5
	c0.1-0.6,0.3-1.9,0-2.4c-0.2-0.3-1-0.5-1.3-0.8c-0.3-0.3-0.6-1.2-0.6-1.7c0-0.4,0.2-1.2,0.3-1.7c0.1-0.6,0.5-1.6,0.6-2.2l0,0"/>
<path class="st0" d="M136.5,5.5l-0.6,1.8l-1,2.2l-1.1,2.6l-1.4,4.2l-0.9,3.2l-0.8,3.6l0.3,3.8l0.9,2.8l1,0.9l0.9,2.8v3.1l-0.9,2.2
	l-2.2,3.4l-2.7,2.8c0,0-1.6,1.7-2.3,2c-0.6,0.3-1.9,0.8-2.6,0.9c-0.4,0.1-1.3,0.1-1.8,0.1c-0.2,0-0.6-0.1-0.8,0
	c-0.5,0.2-1.1,1.3-1.5,1.7c-0.3,0.3-1.1,0.8-1.4,1.1c-0.8,0.8-2,2.6-2.8,3.3c-0.6,0.5-2.3,0.9-2.7,1.5c-0.4,0.7,0.2,2.3,0.1,3.1
	c-0.1,0.8-0.6,2.2-0.8,2.9c-0.2,1-0.4,3.1-0.9,4.1c-0.2,0.3-0.7,0.9-0.9,1.1c-0.3,0.5-1.1,1.4-1.3,1.9c-0.2,0.4-0.2,1.2-0.3,1.7l0,0
	c0,0.6-0.1,1.7-0.1,2.3c0,0.2,0,0.6,0,0.8c-0.1,0.4-0.4,1.1-0.5,1.5c-0.1,0.3-0.2,0.8-0.3,1c-0.1,0.3-0.2,0.9-0.1,1.1
	c0.1,0.4,0.6,1,0.9,1.3c0.4,0.3,1.5,0.5,2,0.8c0.4,0.2,1.2,0.7,1.5,0.9c0.2,0.1,0.6,0.5,0.9,0.6c0.2,0.1,0.7,0.2,0.9,0.3
	c0.3,0.1,0.8,0.2,1,0.4c0.2,0.2,0.5,0.7,0.5,1c0,0.6-0.5,1.9-0.9,2.4c-0.2,0.3-0.9,0.6-1.1,0.9c-0.3,0.3-0.7,1.2-1,1.5
	c-0.2,0.2-0.5,0.7-0.8,0.8c-0.4,0.1-1.2-0.2-1.5,0c-0.3,0.2-0.1,1.2-0.4,1.4c-0.4,0.3-1.5-0.5-1.9-0.3c-0.2,0.1-0.5,0.8-0.4,1
	c0.2,0.6,1.9,0.8,2.3,1.3c0.2,0.3,0.4,0.9,0.5,1.3c0.2,0.7,0.2,2.2,0.3,2.9c0,0.3,0.2,1,0.3,1.3c0.2,0.6,0.6,1.9,0.9,2.4
	c0.3,0.5,0.9,1.4,1.3,1.8c0.4,0.5,1.6,1.4,1.9,2c0.4,0.6,0.6,2.1,0.8,2.8c0.1,0.7,0.4,2,0.3,2.7c-0.3,1-2,2.5-2.6,3.4
	c-1.1,1.7-2.9,5.2-4,6.9c-1,1.5-3.1,4.4-4.1,5.9c-1,1.4-3.2,4.2-4.1,5.7c-0.5,1-1.5,3-1.8,4.1c-0.3,1.1-0.4,3.3-0.5,4.3l0,0
	c-0.2,1.4-0.7,4.3-0.9,5.7c-0.2,1.5-0.5,4.5-0.6,6c-0.2,1.4-0.5,4.1-0.6,5.5c-0.1,1-0.1,2.9-0.1,3.8l0,0"/>
<path class="st0" d="M36.4,109.7c0-0.4,0.3-1.1,0.1-1.4c-0.5-0.8-2.5-1.2-3.3-1.7c-1-0.6-2.8-1.8-3.7-2.4c-0.9-0.7-2.7-2.1-3.6-2.8
	c-1-0.8-2.9-2.5-4-3.3c-0.7-0.6-2.3-1.5-3.1-2l0,0"/>
<path class="st0" d="M8.6,43.4c0,0.5-0.8,1.3-1,1.8c-0.3,0.7-0.5,2.3-0.8,3.1c-0.3,0.8-1.1,2.3-1.3,3.2c-0.2,0.9,0.1,2.7-0.1,3.6
	c-0.1,0.3-0.4,0.8-0.5,1.1c-0.1,0.5-0.3,1.4-0.4,1.9c-0.2,0.7-0.6,2.8-0.6,2.8l-0.3,2.8v1.8L3.5,68L4,71.1c0,0,0.8,1.7,1,2.3
	c0.2,0.4,0.5,1.3,0.8,1.7c0.3,0.6,1.2,1.8,1.5,2.4c0.4,0.7,0.8,2.3,1.1,3.1c0.3,0.6,0.8,1.8,1.1,2.4c0.3,0.6,1.1,1.9,1.4,2.6
	c0.3,0.6,1,1.8,1.3,2.4l0,0"/>
</svg>
