<?xml version="1.0" encoding="utf-8"?>
<!-- Generator: Adobe Illustrator 25.3.0, SVG Export Plug-In . SVG Version: 6.00 Build 0)  -->
<svg version="1.1" id="Path" xmlns="http://www.w3.org/2000/svg" xmlns:xlink="http://www.w3.org/1999/xlink" x="0px" y="0px"
	 viewBox="0 0 89 219" style="enable-background:new 0 0 89 219;" xml:space="preserve">
<style type="text/css">
	.st0{fill:none;stroke:#4682B4;stroke-width:0.5;stroke-linecap:round;stroke-linejoin:round;}
</style>
<path class="st0" d="M2.1,213.5l3.3-1.7c0,0,3-2.1,4-2.8c1.1-0.8,3.5-2.3,4.5-3.3c0.6-0.6,1.4-2.2,1.7-2.9c0.2-0.6,0.6-1.8,0.7-2.4
	c0.2-1.5,0.2-4.5,0.2-6c0-1.6,0-4.8,0-6.4c0-1.2,0.1-3.6,0.2-4.8l0,0"/>
<path class="st0" d="M86.9,52.8c0,0.9-2.1,1.4-2.9,1.7c-0.9,0.3-2.7,0.6-3.6,0.9c-1.1,0.4-3.3,1.4-4.3,2.1c-0.7,0.4-1.7,1.7-2.4,2.1
	c-1.1,0.6-3.5,1.3-4.7,1.7c-1.8,0.7-5.4,2-7.3,2.6c-1.2,0.4-3.6,1.1-4.8,1.6c-0.7,0.3-2.2,1-2.9,1.2c-1.2,0.3-3.6,0.3-4.8,0.3
	c-1.1,0-3.4,0-4.5,0c-0.4,0-1.2,0-1.6,0l0,0"/>
<path class="st0" d="M14.9,68.9c0,0.7,2,0.1,2.7,0.2c0.7,0.1,2.1,0.2,2.8,0.3c0.9,0.1,2.8,0.5,3.7,0.6c0.7,0.1,2.1,0.2,2.8,0.2
	c0.8,0,2.3-0.2,3,0c0.7,0.2,1.8,0.9,2.4,1.3c0.8,0.5,2.3,1.5,3.1,2c0.4,0.2,1.6,0.5,1.6,0.9"/>
<path class="st0" d="M18.7,83.1c0-0.6,1.7-0.1,2.2-0.1c0.7,0,2.2,0.3,2.9,0.4c0.7,0.1,1.9,0.4,2.6,0.5c0.9,0.2,2.8,0.5,3.8,0.6
	c0.7,0.1,2.2,0.2,3,0.3c0.9,0.1,2.7,0.6,3.6,0.7l0,0"/>
<path class="st0" d="M28.5,46.2c0,0.4,1.1,0.4,1.5,0.5c0.5,0.2,1.4,0.7,1.8,0.9c0.3,0.1,0.9,0.4,1.1,0.5c0.2,0.1,0.7,0.4,1,0.6
	c0.1,0.1,0.4,0.4,0.5,0.5l0,0"/>
<path class="st0" d="M32.4,17.6c0,0.5,1.4,0.5,1.8,0.8c0.2,0.1,0.4,0.6,0.5,0.8c0.2,0.4,0.3,1.2,0.3,1.6c0,0.3,0,0.8,0,1.1
	c0,0.5,0,1.6-0.1,2.1c0,0.2-0.3,0.4-0.3,0.6c0.1,0.3,0.8,0.5,1,0.7c0.3,0.2,0.8,0.4,1.1,0.5c0.4,0.2,1.1,0.6,1.5,0.8
	c0.4,0.2,1,0.7,1.4,1c0.2,0.1,0.5,0.4,0.7,0.5l0,0"/>
<path class="st0" d="M38.2,92.3c0,0.6,1.2,1.4,1.7,1.7c0.6,0.5,2.1,1,2.6,1.6c0.4,0.5,1,1.6,1.2,2.2c0.3,0.8,0.4,2.6,0.3,3.5
	c-0.1,0.9-0.5,2.6-0.9,3.5c-0.3,0.7-1.5,1.9-1.9,2.6c-0.7,1.1-1.9,3.4-2.6,4.5c-0.8,1.2-2.5,3.5-3.3,4.7c-0.5,0.7-1.6,2.2-2.1,2.9
	c-1,1.5-3.2,4.4-4.1,5.9c-0.6,1-1.8,3.1-2.4,4.1c-0.7,1.1-2.1,3.4-2.8,4.5c-0.6,1-1.9,2.8-2.4,3.8c-0.2,0.4-0.7,1.3-0.9,1.7
	c-0.2,0.8-0.1,2.5-0.2,3.3c-0.1,1.3-0.5,3.8-0.7,5c-0.3,2.2-0.6,6.6-0.9,8.8c-0.2,1.4-0.7,4.3-0.9,5.7c-0.2,1.6-0.6,4.8-0.7,6.4
	c-0.1,1.4-0.3,4.3-0.3,5.7l0,0"/>
<path class="st0" d="M47,95c0-0.4-1-0.9-1.4-1c-0.5-0.2-1.5-0.5-2.1-0.5c-0.5-0.1-1.6,0.1-2.1,0c-0.5-0.2-1.4-0.9-1.9-1.2
	c-0.3-0.2-0.9-0.7-1.2-1c-0.2-0.2-0.6-0.7-0.7-1c-0.1-0.2,0-0.8,0-1c0-0.6,0-1.9,0-2.6c0-0.6,0.4-1.7,0.3-2.2c0-0.5-0.4-1.6-0.7-2.1
	c-0.2-0.5-0.9-1.3-1.2-1.7c-0.2-0.3-0.4-1-0.7-1.2C35,79,34.1,79,33.7,78.8c-0.2-0.1-0.7-0.3-0.9-0.5c-0.2-0.3-0.6-1.2-0.3-1.6
	c0.2-0.3,1.2-0.5,1.6-0.3c0.3,0.1,0.3,0.9,0.5,1c0.2,0.1,0.8,0.2,1,0c0.5-0.4,0.1-2,0.5-2.4c0.3-0.3,1.3-0.2,1.7-0.3
	c0.7-0.3,1.8-1.5,2.4-2.1c0.6-0.6,1.9-1.9,2.4-2.6c0.3-0.4,0.8-1.4,0.9-1.9c0-0.6-0.2-1.9-0.7-2.2c-0.5-0.4-1.8-0.1-2.4-0.3
	c-0.6-0.2-1.7-1.1-2.2-1.4c-0.7-0.4-2.2-0.9-2.9-1.2c-0.7-0.3-2.2-0.6-2.7-1.1c-0.3-0.4-0.4-1.4-0.3-1.9c0-0.6,0.5-1.8,0.7-2.4
	c0.3-0.8,1-2.3,1.2-3.1c0.2-0.8,0.2-2.3,0.2-3.1c0-0.5-0.2-1.6,0-2.1c0.2-0.6,1-1.4,1.4-1.9c0.5-0.6,1.9-1.7,2.2-2.4
	c0.5-1,0.8-3.4,1-4.5c0.3-1.4,0.7-4.1,0.9-5.5c0.1-1.1-0.1-3.4,0.2-4.5c0.1-0.5,0.5-1.6,0.9-2.1c0.7-0.8,2.7-1.4,3.5-2.1
	c0.7-0.6,1.7-2,2.4-2.6c0.6-0.5,2-1.3,2.8-1.6c0.9-0.3,2.7-0.6,3.6-0.9c1.2-0.4,3.5-1.4,4.5-2.1c1.1-0.7,2.9-2.7,3.8-3.6
	c0.7-0.7,2.2-2.1,2.8-2.9c0.5-0.7,1.2-2.2,1.6-2.9c0.2-0.5,0.5-1.4,0.7-1.9c0.2-0.6,0.5-1.7,0.7-2.2l0,0"/>
</svg>
