<?xml version="1.0" encoding="utf-8"?>
<!-- Generator: Adobe Illustrator 25.3.0, SVG Export Plug-In . SVG Version: 6.00 Build 0)  -->
<svg version="1.1" id="Layer_1" xmlns="http://www.w3.org/2000/svg" xmlns:xlink="http://www.w3.org/1999/xlink" x="0px" y="0px"
	 viewBox="0 0 89 123" style="enable-background:new 0 0 89 123;" xml:space="preserve">
<style type="text/css">
	.st0{fill:none;stroke:#A54D9D;stroke-width:0.5;stroke-linecap:round;stroke-linejoin:round;}
</style>
<path class="st0" d="M29.2,105c0-0.3-0.8-0.1-1.1-0.2c-0.2-0.1-0.7-0.2-0.9-0.4c-0.1-0.1-0.4-0.2-0.5-0.4c-0.1-0.1-0.1-0.4-0.1-0.6
	c0-0.1,0.1-0.5,0-0.6c-0.1-0.2-0.6-0.3-0.7-0.4l0,0"/>
<path class="st0" d="M25.9,102.6c0,0.3-0.5,0.6-0.7,0.8c-0.3,0.3-0.9,0.8-1.3,1.1c-0.5,0.4-1.4,1-1.8,1.4c-0.4,0.3-1.3,0.8-1.7,1.2
	c-0.3,0.2-0.9,0.7-1.2,0.9c-0.3,0.2-0.8,0.6-1.1,0.8c-0.3,0.2-0.8,0.8-1,1.1c-0.2,0.3-0.5,1.2-0.7,1.5c-0.1,0.2-0.4,0.4-0.5,0.6
	c-0.2,0.3-0.8,0.8-0.9,1.2c-0.1,0.2-0.2,0.5-0.3,0.7c0,0.2,0.1,0.6,0,0.8c-0.1,0.3-0.6,0.6-0.7,0.8c-0.2,0.2-0.6,0.8-0.9,1
	c-0.2,0.2-0.8,0.2-1,0.4c-0.2,0.2-0.1,0.9-0.2,1.2c0,0.2-0.1,0.5-0.2,0.6c-0.1,0.3-0.5,0.8-0.7,1c-0.1,0.1-0.2,0.2-0.3,0.3
	c-0.2,0.1-0.8-0.1-1-0.2c-0.3-0.1-0.7-0.6-0.9-0.7c-0.3-0.1-0.9,0.1-1.2,0c-0.4-0.1-1.1-0.4-1.5-0.6c-0.3-0.1-0.9-0.5-1.2-0.7
	c-0.3-0.2-0.8-0.5-1.1-0.7c-0.2-0.2-0.6-0.5-0.7-0.7c-0.1-0.2-0.3-0.8-0.3-1.1c0-0.2,0.2-0.7,0-0.8c-0.1-0.1-0.3,0-0.4,0.1
	c-0.2,0.2-0.1,0.9-0.2,1.2c0,0.3-0.1,0.9,0,1.1c0.1,0.2,0.6,0.4,0.7,0.6l0,0"/>
<path class="st0" d="M86.8,3c0,0.3-0.9,0-1.2,0.1c-0.3,0-1,0-1.3,0c-0.2,0-0.7,0.1-0.9,0.1c-0.3,0.1-1,0.3-1.3,0.4
	c-0.4,0.2-1,0.7-1.3,0.9c-0.4,0.3-1.2,0.8-1.6,1.1c-0.3,0.2-0.8,0.7-1,0.9c-0.3,0.4-0.6,1.3-0.9,1.7C77,8.7,76.2,9.6,76,10
	c-0.1,0.2-0.2,0.8-0.4,1c-0.1,0.1-0.5,0.1-0.6,0.3c-0.2,0.2-0.2,0.9-0.3,1.2c-0.1,0.2-0.3,0.7-0.5,0.9c-0.2,0.3-0.6,1-0.8,1.3
	c-0.2,0.2-0.5,0.6-0.7,0.8c-0.1,0.1-0.4,0.4-0.4,0.5c-0.1,0.2,0,0.5-0.1,0.7s-0.3,0.4-0.4,0.6c-0.1,0.2-0.4,0.5-0.6,0.6
	c-0.2,0.1-0.5,0.4-0.7,0.5c-0.2,0.1-0.7,0.3-0.9,0.4c-0.3,0.2-0.8,0.9-1.2,1.2c-0.2,0.2-0.8,0.6-1,0.8c-0.1,0.1-0.4,0.3-0.4,0.5
	s0,0.5-0.1,0.6c-0.2,0.3-1,0.7-1.3,0.9c-0.3,0.3-0.9,0.9-1.3,1.3c-0.2,0.2-0.6,0.6-0.8,0.8l0,0c0,0.2-0.2,0.5-0.2,0.7
	c0,0.1,0.2,0.4,0.2,0.5c0,0.1-0.4,0.3-0.5,0.4c-0.1,0.1-0.3,0.3-0.3,0.5c-0.1,0.2-0.1,0.7-0.2,0.9c0,0.1-0.1,0.4-0.2,0.5
	c-0.2,0.2-0.7,0.5-0.9,0.6c-0.3,0.2-1,0.5-1.3,0.7c-0.3,0.1-0.7,0.4-1,0.5c-0.4,0.2-1.2,0.6-1.6,0.8c-0.3,0.2-0.9,0.7-1.2,0.8
	c-0.3,0.2-0.9,0.5-1.2,0.6c-0.3,0.2-0.8,0.5-1.1,0.7c-0.1,0.2-0.3,0.5-0.4,0.7c0,0.2,0,0.6-0.1,0.7c-0.1,0.2-0.5,0.4-0.7,0.5
	c-0.2,0.2-0.7,0.5-0.9,0.7c-0.2,0.2-0.5,0.5-0.6,0.7c-0.1,0.2,0,0.6,0,0.8c0,0.4,0.1,1.1,0.2,1.5c0.1,0.5,0.1,1.4,0.2,1.8
	c0.1,0.5,0.4,1.6,0.5,2.2l0,0c0.1,0.4,0.3,1.2,0.3,1.7c0,0.2,0.1,0.6,0.1,0.8c0,0.4-0.2,1.3-0.3,1.7c-0.1,0.4-0.3,1.3-0.3,1.8
	c0,0.4-0.1,1.3,0,1.8c0,0.3,0.2,1,0.3,1.3c0.2,0.3,0.8,0.7,0.9,0.9c0.2,0.2,0.4,0.8,0.4,1.1c0,0.4-0.3,1-0.4,1.4
	c-0.1,0.3-0.4,1.3-0.4,1.3l-0.7,2.7c0,0-1,1.6-1.2,2.2c0,0.1,0,0.2,0,0.3c-0.2,0.3-0.9,0.7-1.2,0.9c-0.4,0.3-1.1,1-1.5,1.3
	c-0.3,0.2-0.9,0.6-1.2,0.8c-0.4,0.3-1.3,0.8-1.7,1.1c-0.3,0.2-0.9,0.7-1.2,0.9c-0.3,0.3-0.9,0.9-1.3,1.2c-0.3,0.2-1,0.5-1.4,0.7
	c-0.3,0.2-0.9,0.7-1.2,0.8c-0.3,0.2-0.9,0.4-1.2,0.6c-0.2,0.3-0.3,0.9-0.4,1.3c-0.1,0.4-0.2,1.2-0.3,1.6c-0.1,0.3-0.2,1-0.2,1.4l0,0
	c-0.1,0.2-0.4,0.5-0.4,0.7c0,0.2,0.3,0.5,0.4,0.6c0.1,0.2,0.4,0.7,0.3,0.9c-0.1,0.1-0.4,0.3-0.5,0.3c-0.2,0-0.6-0.4-0.8-0.4
	s-0.7,0.2-0.8,0.4c-0.3,0.4-0.3,1.3-0.4,1.8c-0.1,0.3-0.1,0.9-0.2,1.2c-0.1,0.4-0.1,1.2-0.2,1.5c-0.1,0.4-0.3,1.1-0.4,1.4
	c-0.1,0.3-0.3,0.9-0.4,1.3c-0.1,0.5-0.2,1.5-0.3,2c0,0.4-0.1,1.3-0.1,1.7c0,0.3,0.1,0.8,0.1,1c0,0.2-0.2,0.7-0.3,0.9
	c0,0.1-0.1,0.4-0.1,0.6c0,0.2,0,0.6,0,0.8c0,0.3,0.2,0.9,0.3,1.3c0,0.3,0,0.9-0.1,1.2c-0.1,0.2-0.2,0.6-0.4,0.7
	c-0.2,0.1-0.8,0.1-1.1,0C33.1,94.4,33,94,32.8,94c-0.2-0.1-0.6,0-0.8,0c-0.1,0-0.3,0.2-0.5,0.2c-0.4,0.1-1.3,0-1.7-0.1
	c-0.4,0-1.2-0.1-1.6-0.1c-0.2,0-0.7-0.1-0.9,0c-0.2,0.1-0.3,0.7-0.4,0.9c-0.1,0.4-0.3,1.2-0.4,1.5c-0.1,0.3-0.4,0.9-0.5,1.2
	c-0.1,0.2-0.2,0.6-0.3,0.7c-0.1,0.1-0.2,0.1-0.3,0.2c-0.1,0.2,0.2,0.7,0.2,0.9c0,0.3,0,0.8,0.1,1.1c0.1,0.2,0.4,0.4,0.5,0.6
	c0,0.1,0.1,0.4,0.1,0.5c0,0.2-0.5,0.6-0.5,0.9"/>
<path class="st0" d="M30,103.6c0-0.2-0.4-0.4-0.5-0.6c-0.1-0.2-0.1-0.8-0.1-1.1c0-0.2,0-0.7,0.1-0.9c0-0.2,0-0.7,0-0.9
	c0.1-0.3,0.4-0.8,0.5-1.1c0.1-0.2,0.3-0.7,0.4-0.9c0.1-0.2,0.3-0.5,0.3-0.7c0-0.2,0-0.7,0-0.9c0-0.1-0.1-0.2-0.1-0.3
	c0-0.2,0.2-0.5,0.4-0.6c0.1-0.1,0.2-0.2,0.3-0.2c0,0,0.2-0.1,0.2-0.2"/>
<path class="st0" d="M31.6,104.5c0-0.1-0.1-0.4-0.2-0.4c-0.1-0.1-0.3-0.1-0.3-0.2c-0.1-0.1-0.2-0.2-0.3-0.3
	c-0.1-0.1-0.1-0.4-0.1-0.5c0-0.1-0.1-0.1-0.1-0.2c0-0.1,0.1-0.3,0.2-0.3c0.1,0,0.2,0.1,0.3,0.1c0,0,0.1,0.1,0.2,0.1c0,0,0.1,0,0.1,0
	c0.1-0.1,0.1-0.3,0.1-0.4c0-0.2-0.2-0.5-0.2-0.6c0-0.1,0-0.4,0-0.5c0-0.1,0-0.2,0-0.3c0-0.2,0.1-0.5,0.1-0.7c0-0.1,0-0.3,0.1-0.3
	c0-0.1,0.2-0.1,0.2-0.1c0.1,0,0.2,0,0.2-0.1c0.1-0.1,0.2-0.2,0.2-0.3c0-0.1,0.1-0.3,0-0.4c0-0.1-0.2-0.2-0.2-0.3c0-0.1,0-0.4,0-0.5
	c0-0.1,0.2-0.3,0.3-0.4c0.1-0.1,0.3-0.2,0.4-0.3c0-0.1,0-0.2,0-0.3c-0.1-0.1-0.3-0.1-0.3-0.1c-0.1,0-0.3-0.1-0.4-0.2
	c0-0.1,0-0.2,0-0.3c0.1-0.1,0.4-0.1,0.4-0.2c0-0.1-0.1-0.3-0.2-0.4c0,0-0.1-0.1-0.1-0.2c0-0.1,0.2,0,0.3-0.1c0-0.1-0.1-0.3-0.1-0.4
	c0-0.1,0.2-0.2,0.3-0.3c0.1-0.1,0.3-0.1,0.4-0.1c0.1-0.1,0.2-0.2,0.2-0.3c0-0.1,0-0.4,0-0.5c0-0.1-0.1-0.2-0.2-0.3
	c-0.1-0.1-0.5-0.2-0.7-0.2c-0.1-0.1-0.4-0.2-0.4-0.3c0-0.1,0.1-0.2,0.1-0.3c0-0.1,0.1-0.3,0.1-0.4c-0.1-0.1-0.4-0.1-0.5-0.2
	c-0.1-0.1-0.3-0.3-0.3-0.3l0,0c0-0.1,0-0.4,0.1-0.4c0.1-0.1,0.4,0,0.5-0.1c0.2-0.1,0.5-0.4,0.4-0.6c0-0.2-0.4-0.3-0.5-0.4
	c-0.1-0.1-0.1-0.3-0.1-0.4c0-0.1,0.1-0.4,0.3-0.5c0.1,0,0.3,0.2,0.4,0.2c0.1,0,0.3-0.2,0.4-0.3c0-0.1-0.2-0.3-0.2-0.4
	c0-0.1,0.3-0.3,0.4-0.4c0.1-0.1,0.3-0.2,0.3-0.3c0-0.1-0.3-0.3-0.4-0.5c-0.1-0.1-0.2-0.3-0.2-0.4c0-0.1,0.2-0.2,0.3-0.3
	c0,0,0.1-0.1,0.2-0.1c0.1-0.2,0-0.7,0-0.9c0-0.1-0.1-0.3-0.2-0.4c0-0.1-0.1-0.3-0.1-0.4c0-0.2,0.1-0.5,0.2-0.7c0-0.1,0.1-0.3,0-0.3
	c-0.1-0.1-0.4,0.1-0.5,0c-0.1,0-0.2-0.2-0.2-0.3c0-0.1,0.2-0.2,0.2-0.3c0.1-0.1,0.3-0.2,0.4-0.3c0-0.2-0.3-0.5-0.4-0.7
	c-0.1-0.1-0.3-0.4-0.4-0.5c0,0-0.1,0-0.1-0.1c-0.1-0.1-0.1-0.2-0.1-0.3c0-0.1,0.2-0.2,0.2-0.3c0-0.1,0.2-0.2,0.2-0.3
	c0-0.1,0.1-0.4,0-0.5c0-0.1-0.1-0.1-0.2-0.2c-0.1-0.1-0.2-0.2-0.3-0.3c0-0.1,0-0.3,0-0.3c0.1-0.1,0.3-0.1,0.4-0.1c0.1,0,0.2,0,0.3,0
	c0.1-0.1,0-0.5-0.1-0.6c-0.1-0.2-0.3-0.6-0.4-0.8c-0.1-0.1-0.2-0.4-0.3-0.6c0-0.1-0.1-0.3-0.1-0.4c0-0.1,0.1-0.3,0.2-0.4
	c0.1-0.1,0.4-0.2,0.5-0.3c0.1-0.2,0.1-0.7,0.1-0.9c0-0.1-0.3-0.3-0.3-0.4s0.1-0.4,0.1-0.5l0,0"/>
</svg>
