<?xml version="1.0" standalone="no"?><!DOCTYPE svg PUBLIC "-//W3C//DTD SVG 1.1//EN" "http://www.w3.org/Graphics/SVG/1.1/DTD/svg11.dtd"><svg width="459" height="600" version="1.1" xmlns="http://www.w3.org/2000/svg" xmlns:xlink="http://www.w3.org/1999/xlink"><path stroke-width="1" stroke="steelblue" fill="steelblue" d="M447.4539231166709,379.4942774272058L429.9826401581522,389.9770282586105L403.7757564308122,400.45980217074975L380.18956107622944,407.44828836643137L355.72978936019354,416.18391652195714L339.13208276289515,420.5517241379712L314.6723110473249,419.6781725375913L291.9596920539625,415.31036405893974L258.76427885890007,408.32184237847105L244.78730134502985,403.08046782645397L227.31601838581264,378.62071772804484L208.9711997769773,353.287411529338L191.4999575293623,323.58625306212343L186.25858078384772,313.97706139064394L174.90225093159825,318.3448740176391L174.90225093159825,318.3448740176391" /><path stroke-width="1" stroke="steelblue" fill="steelblue" d="M69.63780570891686,578.011506595416L91.04010087158531,581.9425145413261L112.87918421439826,582.3792983072344L153.06308616674505,579.3218589271419L163.1090514769312,565.3448431794532L179.26996989385225,543.5057575721294L185.82171118096448,517.7356465233024L191.9366642876994,494.1494440883398L188.44239955372177,468.37933322880417L184.94813481997699,432.5632447106764L179.26996989385225,381.02301845606416L179.26996989385225,381.02301845606416L174.902169509558,347.82768814614974L174.02859314833768,313.32196575030684L178.83318171300925,299.7817363855429L184.511346639134,284.4944050558843L197.61478850292042,271.827716386877L207.2240063434001,259.1610393822193L213.33891873899847,233.82772036688402L218.58029548451304,205.8737151059322L218.58029548451304,205.8737151059322L214.64960896898992,177.0459339453373L211.59213241562247,150.4022410796024L204.16685547796078,120.7011108668521L196.74157854053192,98.86203577346168L194.12089016777463,73.09192369901575L191.06341361464,59.551726140547544L197.6151141906157,42.517223701346666L205.91396748949774,15.00000000023283L205.91396748949774,15.00000000023283" /><path stroke-width="1" stroke="steelblue" fill="steelblue" d="M30.764431142713875,571.4597870092839L27.706954589579254,571.4597870092839L11.54607688356191,585.0000000002328L11.54607688356191,585.0000000002328" /></svg>