<?xml version="1.0" encoding="utf-8"?>
<!-- Generator: Adobe Illustrator 25.3.0, SVG Export Plug-In . SVG Version: 6.00 Build 0)  -->
<svg version="1.1" id="Layer_1" xmlns="http://www.w3.org/2000/svg" xmlns:xlink="http://www.w3.org/1999/xlink" x="0px" y="0px"
	 viewBox="0 0 408 600" style="enable-background:new 0 0 408 600;" xml:space="preserve">
<style type="text/css">
	.st0{fill:none;stroke:#4682B4;stroke-width:0.5;stroke-linecap:round;stroke-linejoin:round;}
</style>
<path class="st0" d="M12.3,585c0-1.5-0.2-4.6-0.2-6.1c0-1.6,0.2-4.9,0.6-6.5c0.1-0.8,0.7-2.2,0.9-3l0,0"/>
<path class="st0" d="M142.1,293.7c0,1.3-3.6,1.4-4.8,1.9c-2,0.8-6,2.4-8,3.2c-1.8,0.7-5.4,1.9-7.2,2.6c-1.9,0.7-5.7,2.1-7.6,3
	c-2.7,1.2-7.8,3.9-10.4,5.2c-1.3,0.6-3.9,1.7-5,2.6c-0.8,0.6-2,2-2.6,2.8c-1.1,1.4-2.9,4.5-4.1,5.9c-0.9,1.1-2.9,2.9-3.9,3.9
	c-0.5,0.5-1.5,1.8-2.2,2c-0.3,0.1-1.1-0.2-1.5,0c-0.8,0.4-1.5,2.2-2.2,2.8c-0.9,0.7-3,1.6-4.1,2c-1.3,0.5-4,1.2-5.4,1.5
	c-1.1,0.2-3.2,0.2-4.3,0.6c-0.8,0.3-2.1,1.2-2.8,1.7c-0.9,0.6-2.8,2-3.5,2.8c-0.7,0.7-1.9,2.4-2.2,3.3c-0.3,0.8-0.5,2.5-0.6,3.3
	c0,0.6-0.1,1.8,0,2.4c0.1,1,1.2,2.9,0.9,3.9c-0.2,0.6-1.6,1.2-2,1.7c-0.7,0.9-1.8,3-2.2,4.1c-0.3,0.9-0.7,2.9-0.7,3.9
	c-0.1,1.3,0.4,3.8,0.4,5c0,1,0.1,3.1-0.2,4.1c-0.2,0.8-1.3,2-1.5,2.8c-0.2,0.9,0,3.5,0,3.5s-0.3,3.8-0.6,5c-0.2,0.7-0.8,1.9-0.9,2.6
	c-0.1,0.6-0.2,1.8-0.2,2.4c0,1,0.3,2.9,0.4,3.9c0.1,1.7,0.5,5,0.4,6.7c0,0.9-0.3,2.7-0.6,3.5c-0.3,1-1.5,2.8-2,3.7
	c-0.8,1.4-2.2,4.2-3,5.6l0,0c-0.6,1.9-1.6,5.9-2.4,7.8c-0.5,1.1-1.6,3.2-2.2,4.3c-0.7,1.3-2.2,3.9-3,5.2c-0.4,0.7-1.3,2-1.5,2.8
	c-0.2,0.8-0.2,2.6-0.2,3.5c0,1.7,0.5,5,0.7,6.7c0.2,1.5,1.2,4.4,1.1,5.9c0,0.8-0.4,2.3-0.7,3c-0.6,1.1-2.7,2.7-3.5,3.7
	c-1,1.3-2.4,4.1-3.3,5.4c-1.2,1.5-3.9,4.2-5.2,5.6c-0.8,0.8-2.9,2.3-3.3,3.3c-0.4,0.9-0.2,3.1-0.2,4.1c0.1,2,0.8,6,0.9,8
	c0.1,1.3,0,3.9,0,5.2c0,2.1-0.1,6.3-0.2,8.3c0,1-0.1,3.1-0.2,4.1l0,0c0,1.2-0.1,3.6-0.2,4.8c-0.1,1.6,0.2,4.9-0.2,6.5
	c-0.1,0.5-0.7,1.5-0.9,2c-0.4,1-1.2,2.9-1.7,3.9c-0.5,1.1-1.6,3.2-2,4.3c-0.3,0.8-0.8,2.3-0.9,3.2c-0.3,1.6-0.3,4.7-0.6,6.3
	c-0.2,1.2-0.9,3.5-1.1,4.6c-0.3,1.7-1,5.3-1.1,7c-0.1,1.3,0.1,3.9,0,5.2c-0.1,1-0.5,2.9-0.7,3.9c-0.2,1.1-0.9,3.2-1.1,4.3
	c-0.4,1.5-1,4.4-1.3,5.9c-0.3,1.4-0.9,4.2-1.1,5.6c-0.3,1.7-0.9,5.1-1.1,6.9c-0.2,1.9-0.6,5.8-0.6,7.8c0,0.8,0.4,2.5,0.6,3.3l0,0"/>
<path class="st0" d="M398,15c0,1.3-3.9,0.3-5.2,0.4c-1.4,0.1-4.3,0.1-5.7,0.2c-1,0.1-2.9,0.3-3.9,0.4c-0.6,0.1-1.8,0-2.4,0.2
	c-1.6,0.5-4.4,2.7-5.7,3.7c-0.9,0.7-2.4,2.3-3.3,3c-1.1,0.8-3.7,2-4.6,3c-0.8,0.8-1.6,2.9-2.2,3.9c-1.3,2-4.2,5.8-5.4,7.8
	c-0.7,1.2-1.7,3.9-2.6,5c-0.6,0.7-2.6,1.4-3.2,2.2c-0.6,0.8-0.6,2.9-0.9,3.9c-0.3,0.9-0.8,2.6-1.3,3.3c-0.5,0.8-2,2.2-2.6,3
	c-1.1,1.3-3.4,3.8-4.1,5.4c-0.3,0.6-0.1,2.1-0.4,2.8c-0.4,1-1.8,2.5-2.4,3.3c-0.6,0.7-1.6,2.2-2.4,2.6c-0.8,0.4-2.9,0-3.7,0.4
	c-1.6,0.7-4,3.5-5.2,4.8c-0.9,1-2.3,3.2-3.3,4.1c-0.4,0.3-1.5,0.5-1.7,0.9c-0.2,0.5,0.6,1.6,0.4,2c-0.5,1-3,1.7-3.9,2.4
	c-1.1,1-2.8,3.6-3.9,4.6c-0.9,0.8-3,1.9-3.9,2.8c-0.3,0.3-1,1-1.1,1.5c-0.3,1.1,0.8,3.6,0.4,4.6c-0.3,0.7-1.8,1.4-2.2,2
	c-0.8,1.4-0.4,5.2-1.5,6.5c-1.2,1.4-5.3,2-7,2.8c-2.1,1-6,3.3-8,4.5c-2.7,1.5-7.9,4.6-10.6,6.1c-0.9,0.5-3.1,1.3-3.7,2.2
	c-0.7,1-0.4,3.6-0.9,4.6c-0.3,0.6-1.2,1.8-1.7,2.2c-0.8,0.8-3.1,1.6-3.9,2.4c-0.8,0.7-2,2.5-2.4,3.5c-0.3,0.8-0.6,2.6-0.6,3.5
	c0,2.2,0.9,6.5,1.3,8.7c0.4,2.3,1.5,7,2,9.3c0.2,0.7,0.5,2.1,0.7,2.8c0.2,0.6,0.6,1.8,0.7,2.4c0.2,1.1,0,3.2,0,4.3
	c0,1,0.1,2.9,0,3.9c-0.2,1.1-1,3.1-1.3,4.1c-0.3,1.1-1.1,3.2-1.1,4.3c-0.1,1.3,0.6,3.8,0.7,5c0.1,0.7,0.2,2.1,0.4,2.8
	c0.3,1,1.5,3,2,3.9c0.5,0.8,1.7,2.2,2.2,3c0.4,0.5,1.4,1.4,1.5,2c0.1,0.6-0.5,1.8-0.7,2.4c-0.6,1.6-2.1,4.5-2.6,6.1
	c-0.4,1.2-0.7,3.8-0.9,5c-0.3,1.4-0.9,4.1-1.3,5.4c-0.4,1.2-1.5,3.5-2,4.6c-0.6,1.3-1.8,4.1-2.8,5.2c-1.3,1.5-4.6,3.8-6.1,5
	c-1.3,1-3.7,3.1-5,4.1c-1.4,1.1-4.1,3.2-5.6,4.1c-1.8,1.2-6,2.6-7.6,4.1c-0.9,0.8-1.9,3.2-2.8,4.1c-0.9,0.9-3.2,2-4.3,2.6
	c-1.4,0.7-4.3,1.8-5.6,2.6c-0.9,0.6-2.7,1.9-3.3,2.8c-1.3,1.9-2.6,6.3-3,8.5c-0.2,1.3-0.1,3.9-0.2,5.2l0,0c-0.5,0.7-2,2.1-2,3
	c-0.1,1.5,3.1,3.8,2.8,5.2c-0.1,0.6-1.3,1.2-1.9,1.3c-1,0.1-2.9-1.6-3.9-1.5c-0.5,0-1.5,0.7-1.9,1.1c-1.1,1.5-1.2,5.4-1.5,7.2
	c-0.3,1.7-0.6,5-0.9,6.7c-0.4,2.4-1.6,7.3-2.2,9.6c-0.3,1.2-1.3,3.4-1.5,4.6c-0.3,1.7-0.1,5.1-0.2,6.9c-0.1,1.9-0.1,5.7-0.4,7.6
	c-0.2,1.4-1.2,4.1-1.3,5.6c-0.1,1.5,0.6,4.6,0.7,6.1c0.1,1.1,0.1,3.2,0,4.3c-0.1,0.6-0.1,2-0.6,2.4c-0.5,0.5-2.1,0.5-2.8,0.4
	c-0.7-0.1-1.9-1-2.6-1.1c-0.8-0.2-2.6-0.4-3.3,0c-0.9,0.5-1.5,2.8-2,3.7c-0.7,1.2-2.5,3.3-2.8,4.6c-0.2,1,0.6,3.1,0.4,4.1
	c-0.3,1.3-2.2,3.4-2.8,4.6c-0.6,1.2-1.7,3.7-1.9,5c-0.2,1.6,0.3,4.7,0.4,6.3l0,0c0,0.8-0.2,2.4,0,3.2c0.4,1.2,2.2,3.1,3,4.1l0,0"/>
<path class="st0" d="M99.4,408.1c0,0.4-0.8,0.8-1.1,1.1c-0.6,0.6-1.8,1.9-2.2,2.6c-0.3,0.6-0.8,1.8-0.9,2.4c-0.1,0.4-0.1,1.3,0,1.7
	c0.2,0.7,1.2,1.7,1.5,2.4c0.4,1.1,1.1,3.5,0.7,4.6c-0.2,0.7-1.6,1.4-2,1.9c-0.7,0.7-1.7,2.3-2.4,3c-0.7,0.8-2.4,2-3.2,2.8
	c-0.8,0.9-2.1,2.9-3,3.7c-0.3,0.3-1,1-1.5,1.1c-1.1,0.4-3.5-0.2-4.6,0c-0.4,0.1-1.1,0.4-1.5,0.6c-0.7,0.3-2,1.3-2.8,1.5
	c-1.2,0.3-3.7,0.5-4.8,0c-1-0.5-1.9-2.9-3-3.3c-1.1-0.4-3.5,0.2-4.6,0.4c-0.9,0.1-2.8,0.5-3.7,0.6c-1.4,0-4.2-0.4-5.6-0.6
	c-0.9-0.1-2.6-0.6-3.5-0.6c-1,0.1-2.8,0.8-3.7,1.1c-1.4,0.5-4,1.9-5.4,2.4c-0.6,0.2-1.8,0.6-2.4,0.7l0,0"/>
<path class="st0" d="M141.7,295.9c0,1.1-3.2,1.2-4.3,1.7c-0.9,0.4-2.5,1.4-3.3,1.9c-0.7,0.3-2.1,0.9-2.8,1.3
	c-0.8,0.5-2.5,1.6-2.8,2.4c-0.2,0.7,0,2.2,0.4,2.8c0.5,0.8,2.2,1.8,3,2.4c0.5,0.4,1.6,1.2,2,1.7c0.6,0.7,1.4,2.3,1.7,3.2
	c0.3,0.8,0.7,2.6,0.7,3.5c0.1,1-0.2,2.9-0.2,3.9c0,0.9,0,2.6,0,3.5c0,0.5-0.1,1.4-0.2,1.9c-0.2,0.7-0.9,2-1.3,2.6
	c-0.3,0.5-1.1,1.2-1.5,1.7c-0.6,0.7-1.8,2.3-2,3.2c-0.3,1.1,0,3.5,0,4.6c0,0.8-0.2,2.4,0,3.2c0.2,0.8,1.8,2,1.7,2.8
	c-0.1,0.4-1.1,0.7-1.3,1.1c-0.3,0.9,0.6,2.8,0.4,3.7c-0.3,1.1-1.9,3.1-3,3.7c-1,0.6-3.5,0.2-4.5,0.7c-0.7,0.4-1.4,1.9-2,2.4
	c-0.7,0.6-2.4,1.5-3.3,1.7c-0.7,0.2-2.2,0-3,0c-0.6,0-2-0.3-2.6,0c-0.4,0.2-1.1,1-1.3,1.5c-0.3,0.7,0.1,2.4,0,3.2
	c-0.2,1.1-1,3.1-1.5,4.1c-0.5,0.9-2.1,2.4-2.4,3.3c-0.3,1-0.2,4.1-0.2,4.1l-0.7,3.5c0,0-1.2,2.1-1.7,2.8c-0.4,0.7-1.9,1.9-1.9,2.8
	c0,0.4,0.9,0.9,1.1,1.3c0.3,0.6,0.7,2.1,0.7,2.8c0,0.9-0.5,2.6-0.9,3.3c-0.4,0.6-1.6,1.4-2.2,1.9c-0.7,0.5-2.2,1.2-2.8,1.9
	c-0.3,0.3-0.7,1.2-0.7,1.7c0,0.7,0.5,2,0.7,2.6c0.4,1.1,1.5,3.2,2,4.3l0,0"/>
</svg>
