<?xml version="1.0" encoding="utf-8"?>
<!-- Generator: Adobe Illustrator 25.3.0, SVG Export Plug-In . SVG Version: 6.00 Build 0)  -->
<svg version="1.1" id="Layer_1" xmlns="http://www.w3.org/2000/svg" xmlns:xlink="http://www.w3.org/1999/xlink" x="0px" y="0px"
	 viewBox="0 0 208 344" style="enable-background:new 0 0 208 344;" xml:space="preserve">
<style type="text/css">
	.st0{fill:none;stroke:#A54D9D;stroke-width:0.5;stroke-linecap:round;stroke-linejoin:round;}
</style>
<path class="st0" d="M202.5,8.6c0,0.9-2.5,0.1-3.4,0.2c-0.7,0.1-2.1,0.2-2.8,0.4c-0.8,0.1-2.4,0.5-3.2,0.8c-0.9,0.4-2.6,1.3-3.4,1.9
	c-0.9,0.7-2.7,2.3-3.4,3.2c-0.8,0.9-2,3.1-2.6,4.2c-0.5,0.8-1.5,2.6-2.1,3.4c-0.3,0.4-0.9,1-1.1,1.3c-0.4,0.6-0.8,1.9-1.1,2.5
	c-0.2,0.4-0.8,1.3-1.1,1.7c-0.6,0.9-2.1,2.5-2.6,3.4c-0.3,0.6-0.6,1.9-0.9,2.5c-0.3,0.5-0.8,1.7-1.3,2.1c-0.3,0.2-1.2,0-1.5,0.2
	c-0.7,0.3-1.7,1.6-2.3,2.1c-0.9,0.8-2.9,2.1-3.4,3.2c-0.1,0.1,0.1,0.4,0,0.6c-0.4,0.9-2.3,1.9-3,2.6c-0.5,0.5-1.5,1.7-2.1,2.3
	c-0.4,0.4-1.3,0.8-1.5,1.3c-0.2,0.5,0.6,1.6,0.4,2.1c-0.2,0.4-1.2,0.4-1.5,0.8c-0.7,0.8-0.5,3.2-1.1,4c-0.7,0.8-2.8,1.4-3.8,1.9
	c-0.8,0.4-2.6,1.2-3.4,1.7c-0.8,0.5-2.4,1.7-3.2,2.3c-0.9,0.6-3,1.3-3.8,2.1c-0.4,0.5-0.9,1.7-1.1,2.3c-0.2,0.3-0.3,1-0.6,1.3
	c-0.5,0.5-1.9,1.1-2.5,1.5c-0.5,0.4-1.3,1.2-1.7,1.7c-0.4,0.5-0.8,1.7-1.1,2.3c-0.2,0.4-0.6,1.3-0.9,1.7c-0.4,0.4-1.2,1.2-1.7,1.5
	c-0.4,0.3-1.3,0.5-1.7,0.8c-0.2,0.1-0.8,0.4-0.9,0.6c-0.2,0.2-0.3,0.9-0.6,1.1c-0.4,0.5-1.7,0.9-2.3,1.3c-0.6,0.4-1.7,1.4-2.3,1.9
	c-0.3,0.2-0.8,0.7-1.1,0.8c-0.5,0.2-1.7-0.2-2.3,0c-0.6,0.3-1.4,1.6-1.9,2.1c-0.5,0.4-1.5,1-2.1,1.3c-0.5,0.3-1.8,0.5-2.3,0.9
	c-0.3,0.3-0.2,1.4-0.6,1.7c-0.3,0.2-1.2,0.2-1.5,0c-0.4-0.2-0.5-1.3-0.9-1.3c-0.5,0-0.7,1.4-1.1,1.5c-0.3,0.1-0.8-0.7-1.1-0.8
	c-0.7,0-1.9,1.2-2.6,1.3c-0.5,0.1-1.6-0.4-2.1-0.6c-0.7-0.2-1.9-1-2.6-0.9c-0.3,0-1.1,0.2-1.1,0.6c0,0.3,0.8,0.3,0.9,0.6
	c0.4,0.8-0.5,2.7-0.8,3.6c-0.3,0.8-1.1,2.3-1.5,3c-0.3,0.6-1.3,1.8-1.3,2.5c0,0.4,0.7,1.1,0.8,1.5c0.1,0.6-0.2,2-0.2,2.6
	c0,0.5-0.1,1.6,0,2.1c0,0.3,0.3,0.8,0.4,1.1c0.1,0.5-0.3,1.6-0.2,2.1c0.1,0.5,1,1.2,0.9,1.7c0,0.5-0.8,1.2-1.1,1.5
	c-0.4,0.4-1.3,0.9-1.7,1.3c-0.4,0.4-0.9,1.4-1.1,1.9c-0.3,0.6-0.7,1.8-1.1,2.3c-0.4,0.4-1.5,0.9-2.1,0.9c-0.7,0.1-2-0.2-2.6-0.4
	c-0.6-0.2-1.8-0.9-2.5-0.9c-0.7-0.1-2.1,0.3-2.8,0.4c-0.7,0.1-2,0.3-2.6,0.6c-0.5,0.2-1.6,0.8-1.9,1.3c-0.4,0.7,0.1,2.5-0.4,3.2
	c-0.1,0.2-0.7,0.4-0.9,0.6c-0.2,0.1-0.6,0.4-0.6,0.6c0,0.4,1,0.6,1.1,0.9c0.3,0.6,0.3,2.1,0.4,2.8c0.1,0.8,0.1,2.5,0.2,3.4
	c0.1,1.4,0.2,4.2,0.4,5.7c0.1,0.8,0.3,2.3,0.4,3c0,0.4-0.1,1.3,0,1.7c0.1,0.5,0.7,1.4,0.6,1.9c-0.1,0.4-1,0.8-1.3,1.1
	c-0.4,0.5-0.9,1.8-1.3,2.3c-0.5,0.5-1.7,1-2.3,1.3c-0.5,0.3-1.4,1.1-1.9,1.3c-0.4,0.2-1.5,0.3-1.9,0.6c-0.6,0.3-2.3,1.9-2.3,1.9
	s-1.4,0.5-1.9,0.8c-1.5,0.7-4.4,2.2-5.8,3c-1.4,0.7-4,2.4-5.5,3c-1.1,0.5-3.6,1.2-4.7,1.7c-1.1,0.4-3.3,1.1-4.2,1.9
	c-0.5,0.5-1.1,1.8-1.5,2.5c-0.6,0.9-1.5,3-2.3,3.8c-0.7,0.7-2.5,1.3-3.2,1.9c-0.5,0.4-1.2,1.4-1.7,1.7c-1.3,0.7-4.3,0.6-5.7,1.1
	c-0.9,0.4-2.5,1.7-3.4,2.3l0,0c-0.3,0.5-0.9,1.5-1.1,2.1c-0.2,0.5-0.5,1.5-0.6,2.1c0,0.5,0.3,1.6,0.2,2.1c-0.1,0.4-0.4,1.2-0.6,1.5
	c-0.3,0.6-1.3,1.5-1.5,2.1c-0.3,0.8-0.3,2.4-0.4,3.2c-0.1,1,0.1,3,0,4c-0.1,0.5-0.5,1.4-0.6,1.9c-0.1,0.6,0.1,1.8,0,2.5
	c-0.1,0.6-0.4,1.8-0.6,2.5c-0.1,0.4-0.4,1.3-0.4,1.7c0,0.7,0.3,2.1,0.4,2.8c0,0.7,0.2,2,0,2.6c-0.1,0.5-0.7,1.4-0.9,1.9
	c-0.3,0.6-0.7,1.7-0.9,2.3c-0.4,0.9-1.2,2.7-1.5,3.6c-0.4,1.1-1.1,3.4-1.5,4.5c-0.3,0.7-0.9,2-1.3,2.6c-0.3,0.5-1.1,1.3-1.3,1.9
	c-0.2,0.5-0.1,1.6,0,2.1c0.1,0.7,0.5,2.1,0.6,2.8c0.1,0.8,0.1,2.5,0,3.4c-0.1,1-0.5,3.1-0.6,4.2c-0.1,1,0,3.1,0,4.2
	c0,0.8,0,2.5,0,3.4c-0.1,1.5-0.3,4.5-0.6,6c-0.2,1.5-1,4.4-1.3,5.8l0,0c-0.1,1-0.4,3.1-0.6,4.2c-0.2,1.2-0.5,3.6-0.8,4.7
	c-0.3,1.1-1.1,3.3-1.5,4.3c-0.5,1.3-1.4,3.8-1.9,5.1c-0.4,1-1.3,3-1.9,4c-0.5,0.8-1.8,2.2-2.3,3c-0.5,0.8-1.6,2.5-1.9,3.4
	c-0.3,1.1-0.2,3.5-0.4,4.7c-0.1,0.8-0.6,2.3-0.8,3c-0.1,0.7-0.3,2.3-0.4,3c0,0.8,0,2.4,0,3.2c0,0.4,0,1.1,0,1.5l0,0"/>
<path class="st0" d="M6.3,300.8c0-0.6,1.5-0.7,2.1-0.9c0.5-0.2,1.4-0.4,1.9-0.6c0.5-0.2,1.4-0.6,1.9-0.8c0.6-0.1,1.8-0.2,2.5-0.2
	c0.3,0,0.9-0.1,1.1,0c0.4,0.1,1.1,0.6,1.3,0.9c0.3,0.4,0.5,1.4,0.8,1.9c0.1,0.3,0.3,0.9,0.6,1.1c0.5,0.4,1.8,0.7,2.5,0.8
	c0.9,0.1,2.7-0.2,3.6-0.4c0.5-0.1,1.6-0.3,2.1-0.6c0.5-0.3,1.1-1.3,1.5-1.7c0.3-0.3,0.8-0.8,1.1-0.9c0.7-0.3,2.4-0.4,3.2-0.6
	c1.1-0.3,3.4-1,4.5-1.3c1-0.3,3-0.9,4-1.1c0.7-0.2,2-0.5,2.6-0.6c0.3,0,1,0.1,1.3,0c0.4-0.1,1.1-0.9,1.5-1.1
	c0.2-0.2,0.7-0.5,0.9-0.6c0.5-0.2,1.7-0.3,2.3-0.4c0.5-0.1,1.6-0.4,2.1-0.6c0.1,0,0.4-0.2,0.6-0.2c0.7-0.1,2.2,0.2,2.8,0
	c0.5-0.1,1.3-0.8,1.7-1.1c0.6-0.4,1.5-1.5,2.1-1.9c0.6-0.3,1.8-0.7,2.5-0.9c0.6-0.2,1.7-0.5,2.3-0.8c0.8-0.4,2.1-1.7,2.8-2.3
	c0.6-0.5,1.8-1.5,2.5-1.9c0.4-0.2,1.4-0.4,1.9-0.6c0.8-0.3,2.2-1.1,3-1.3c0.8-0.2,2.4-0.4,3.2-0.6c0.8-0.2,2.5-0.7,3.2-1.1
	c0.8-0.5,2.1-1.9,2.8-2.5c0.6-0.5,1.9-1.3,2.6-1.7c0.5-0.3,1.7-0.8,2.3-0.9c0.7-0.2,2.1-0.5,2.8-0.6c0.8-0.1,2.4,0.2,3.2,0
	c0.6-0.1,1.7-0.8,2.3-1.1c0.4-0.2,1.1-0.8,1.5-0.9c0.9-0.3,2.7-0.2,3.6-0.2c0.8,0,2.5-0.1,3.4,0c1.1,0.1,3.3,0.4,4.3,0.6
	c0.6,0.1,1.7,0.1,2.3,0.4c0.5,0.2,1.1,1,1.5,1.3c0.7,0.4,2.1,1,2.8,1.3c0.7,0.3,2.6,0.3,3,0.9c0.1,0.2,0,0.6,0,0.8
	c0,0.4,0,1.6,0.4,1.7c0.3,0.1,0.7-0.6,0.9-0.8c0.3-0.2,0.9-0.7,1.1-0.9c0.4-0.5,1-1.7,1.5-2.1c0.3-0.2,1,0,1.3-0.2
	c0.4-0.2,0.8-1.2,1.1-1.5c0.3-0.3,1.1-0.7,1.5-0.8c0.3-0.1,0.9-0.1,1.1,0c0.4,0.1,1,0.5,1.3,0.6c0.2,0.1,0.7,0.2,0.9,0.2
	c0.5-0.1,1.4-0.8,1.9-1.1c0.5-0.3,1.4-1.3,1.9-1.1c0.4,0.1,0.4,1.2,0.6,1.5c0.1,0.3,0.5,0.8,0.8,0.9c0.3,0.2,1,0.3,1.3,0.4
	c0.3,0,1,0.1,1.3,0c0.3-0.1,0.8-0.6,1.1-0.8c0.3-0.2,1-0.5,1.3-0.8c0.4-0.3,1-1.1,1.3-1.5l0,0"/>
<path class="st0" d="M137.9,335.4c0-0.4-0.7-1.1-0.9-1.4c-0.2-0.4-0.7-1.2-0.9-1.6c-0.3-0.4-0.8-1.2-1-1.6c-0.3-0.6-1-1.7-1.3-2.3
	c-0.2-0.4-0.7-1.3-0.9-1.7c-0.1-0.2-0.4-0.7-0.7-0.8c-0.2-0.2-0.9-0.2-1.1-0.4c-0.2-0.1-0.6-0.4-0.7-0.6c-0.1-0.2-0.4-0.8-0.2-1
	c0.1-0.1,0.6-0.1,0.8,0c0.3,0.1,0.6,0.7,0.8,0.7c0.4,0,0.9-0.9,1.2-1.2c0.4-0.4,1.3-1,1.7-1.4c0.5-0.5,1.5-1.6,1.7-2.3
	c0.1-0.3,0.2-1,0-1.2c-0.2-0.3-1.1-0.5-1.5-0.7c-0.5-0.2-1.5-0.6-2-0.8c-0.6-0.3-2.1-0.6-2.5-1.2c-0.2-0.4,0.1-1.3,0.2-1.7
	c0.1-0.8,0.2-2.3,0.4-3.1c0.1-0.6,0.4-1.9,0.7-2.5c0.3-0.7,1.5-1.8,1.8-2.5c0.4-0.9,0.6-3,0.8-4c0.1-0.5,0.2-1.4,0.4-1.9
	c0.2-0.6,1-1.8,1.4-2.4c0.5-0.6,1.7-1.6,2.3-2.2l0,0c0.6-0.5,1.9-1.3,2.4-1.9c0.4-0.5,1.1-1.6,1.1-2.3c0-0.6-0.5-1.6-0.7-2.2
	c-0.2-0.7-0.7-2-0.8-2.7c-0.1-0.5-0.4-1.5-0.5-2c-0.1-0.7,0-2.1,0.1-2.7c0.1-0.8,0.7-2.2,0.9-2.9c0.3-1,0.9-3.1,1.1-4.2
	c0.2-0.8,0.3-2.3,0.4-3.1c0.1-0.7,0.3-2,0.5-2.6c0.1-0.6,0.4-1.8,0.5-2.5c0.1-0.5,0.2-1.4,0.2-1.9c0-0.3-0.2-0.9-0.3-1.2
	c-0.1-0.4-0.6-1.1-0.8-1.5c-0.3-0.8-0.4-2.6-0.7-3.5c-0.2-0.8-0.8-2.2-1.2-2.9c-0.2-0.3-0.6-0.8-0.8-1l0,0c0-0.3,0-0.8,0-1.1
	c0-0.4,0-1.3,0.2-1.7c0.1-0.2,0.4-0.3,0.6-0.5c0.2-0.3,0.7-0.9,0.8-1.2c0.1-0.4,0-1.1-0.1-1.5c-0.1-0.3-0.6-0.7-0.7-1
	c-0.1-0.2-0.1-0.6-0.1-0.8c0-0.5,0.2-1.4,0.4-1.8c0.1-0.1,0.3-0.3,0.4-0.5c0.3-0.8,0.1-2.4,0-3.2c0-0.4-0.3-1.3-0.3-1.7
	c0-0.7,0.5-2.1,0.8-2.7c0.2-0.6,0.7-1.8,0.8-2.5c0.1-0.5,0.3-1.6,0.4-2.1c0.1-0.5,0.2-1.6,0.2-2.2c0-0.3,0-0.9-0.1-1.2
	c-0.1-0.3-0.7-0.7-0.8-0.9c-0.2-0.3-0.2-1.1-0.3-1.5c0-0.4-0.2-1.1,0-1.4s1.1-0.5,1.1-0.8c0-0.2-0.4-0.5-0.5-0.8
	c-0.1-0.2-0.1-0.6-0.1-0.8c0-0.1-0.1-0.4,0-0.6c0.1-0.2,0.6-0.3,0.8-0.4c0.2-0.1,0.7-0.4,0.8-0.6c0.1-0.1,0-0.4,0.1-0.6
	c0.1-0.2,0.4-0.6,0.6-0.8c0.1-0.2,0.5-0.5,0.6-0.7c0.1-0.3,0.1-1.1,0.3-1.3c0.1-0.2,0.6-0.3,0.8-0.4c0.2,0,0.5,0.1,0.7,0
	c0.2-0.1,0.4-0.4,0.5-0.6c0.2-0.5,0.4-1.7,0.4-2.3c-0.1-0.7-0.9-1.8-0.9-2.5c0-0.4,0.2-1.3,0.3-1.7c0.1-0.6,0.2-1.8,0.6-2.3
	c0.2-0.3,1-0.3,1.3-0.5c0.3-0.1,0.9-0.3,1.1-0.6c0.3-0.3,0.6-1,0.7-1.4c0.1-0.6-0.1-1.7,0-2.3c0-0.4,0.3-1.3,0.4-1.7
	c0.1-0.3,0.4-1,0.5-1.3l0,0c-0.1-0.5-0.5-1.6-0.6-2.2c-0.1-0.7-0.6-2.3-0.4-3c0.1-0.5,1-1.1,1.3-1.5c0.3-0.4,0.8-1.1,1-1.5
	c0.2-0.3,0.5-0.9,0.8-1.1c0.3-0.2,1.3-0.1,1.5-0.4c0.2-0.2-0.2-0.9-0.1-1.2c0.1-0.3,0.7-0.5,0.8-0.8c0.2-0.4,0.2-1.3,0-1.6
	c-0.1-0.1-0.4-0.2-0.5-0.3c-0.1-0.2,0-0.6,0-0.8c0.1-0.8,0.3-2.3,0.5-3.1c0.2-0.7,0.6-2.2,0.8-2.9c0.2-0.8,0.6-2.6,0.9-3.4
	c0.3-0.7,1-2,1.3-2.6c0.4-0.8,1.3-2.3,1.8-3c0.2-0.3,0.7-0.9,0.8-1.2c0.4-0.8,0.9-2.5,1.1-3.3c0.3-0.9,0.8-2.9,1.1-3.8
	c0.3-0.6,0.8-1.9,1.3-2.5c0.3-0.3,1.1-0.7,1.5-0.9c0.6-0.4,1.9-1.1,2.5-1.5c0.4-0.3,1.1-1.3,1.5-1.6c0.5-0.4,1.7-1,2.3-1.3
	c0.3-0.2,1.1-0.4,1.4-0.7c0.4-0.3,1.1-0.9,1.4-1.3c0.3-0.4,0.6-1.4,0.8-1.9c0.3-0.8,0.8-2.3,1.1-3l0,0c0.2-0.7,0.6-2.1,0.8-2.8
	c0.2-0.8,0.4-2.6,0.6-3.4c0.1-0.6,0.7-1.7,0.8-2.3c0.1-0.6-0.3-1.8-0.3-2.5c0.1-0.7,0.6-2.1,0.8-2.7c0.3-0.8,0.9-2.5,1.1-3.3
	c0.3-1,0.9-2.9,1.1-3.9c0.2-0.9,0.6-2.8,0.8-3.7c0.2-0.7,0.7-2,0.8-2.6c0.2-0.6,0.5-1.8,0.6-2.4c0-0.4-0.2-1.3-0.3-1.7
	c-0.1-0.7-0.1-2-0.1-2.6c0.1-0.9,0.4-2.7,0.6-3.6c0.2-1.3,0.6-3.7,0.8-5c0.2-1,0.6-2.9,0.7-3.9c0-0.3-0.1-1-0.1-1.3l0,0
	c0.1-0.7,0.3-2,0.4-2.6c0.1-1,0.4-3.1,0.6-4.2c0.1-0.7,0.3-2,0.4-2.6c0.1-1,0.1-3.1,0-4.2c0-1-0.4-2.9-0.4-3.9
	c0-0.9,0.2-2.6,0.3-3.5c0.1-0.9,0.5-2.6,0.8-3.5c0.3-1.1,1.1-3.2,1.4-4.3c0.3-1,0.8-3,1.1-4.1c0.4-1.3,1.2-3.7,1.6-5
	c0.2-0.7,0.7-2.2,0.8-3c0.1-0.4,0.1-1.3,0-1.7c0-0.3-0.2-0.8-0.3-1.1l0,0c-0.2-0.5-0.6-1.5-0.8-2.1c-0.1-0.6-0.3-1.8-0.3-2.5
	c0-0.8,0.5-2.5,0.7-3.3c0.2-0.8,0.8-2.5,0.9-3.3c0.2-1.1,0.1-3.3,0.2-4.4c0.1-0.8,0.4-2.3,0.6-3.1c0.1-0.8,0.3-2.4,0.6-3.1
	c0.2-0.5,0.8-1.4,1-1.9c0.3-0.6,0.7-1.7,0.8-2.4c0.1-0.6,0.1-1.9,0.2-2.5c0.1-0.6,0.2-1.8,0.3-2.4c0-0.5,0.1-1.5,0.1-2
	c0-0.3,0-0.9,0-1.1c0.1-0.3,0.3-1,0.5-1.3c0.2-0.4,1-1.1,1.2-1.5c0.4-0.7,0.8-2.2,1-2.9c0.3-0.7,0.8-2.2,1.1-2.9
	c0.2-0.4,0.5-1.2,0.7-1.6c0.1-0.3,0.6-0.7,0.7-1c0.1-0.2,0-0.8,0-1l0,0"/>
</svg>
