<?xml version="1.0" encoding="utf-8"?>
<!-- Generator: Adobe Illustrator 25.3.0, SVG Export Plug-In . SVG Version: 6.00 Build 0)  -->
<svg version="1.1" id="Layer_1" xmlns="http://www.w3.org/2000/svg" xmlns:xlink="http://www.w3.org/1999/xlink" x="0px" y="0px"
	 viewBox="0 0 249 448" style="enable-background:new 0 0 249 448;" xml:space="preserve">
<style type="text/css">
	.st0{fill:none;stroke:#E42A29;stroke-width:0.5;stroke-linecap:round;stroke-linejoin:round;}
</style>
<path class="st0" d="M79.1,133.5L79.1,133.5c0.3,0.5,0.9,1.4,1.3,1.9c0.4,0.6,1.2,1.8,1.7,2.3c0.4,0.4,1.4,1,1.9,1.3
	c0.8,0.4,2.6,0.7,3.4,1.1c0.6,0.3,1.6,1.1,2.1,1.5l0,0c0.5,0.3,1.6,0.7,2.1,1.1c0.8,0.5,1.9,2.2,2.7,2.5c0.6,0.2,1.9-0.2,2.5,0
	c0.4,0.1,1,0.6,1.3,0.8c0.5,0.6,1,2.1,1.5,2.7c0.7,1,2.3,2.8,2.9,3.8c0.7,1.1,2.4,3.2,2.7,4.4c0.2,0.6,0.3,1.8,0,2.3
	c-0.2,0.4-1.3,0.7-1.7,1.1c-0.6,0.7-1.8,2.3-1.7,3.2c0.1,0.5,1.1,1,1.5,1.3c1.7,1.4,5.1,4.3,6.9,5.5c0.8,0.5,2.6,1.2,3.4,1.7
	c0.7,0.4,2.1,1.2,2.5,1.9c0.5,1,0.4,3.3,0.4,4.4c0,1.8-0.9,5.4-0.8,7.2c0,1.5,0.2,4.5,0.8,5.9c0.4,0.9,1.6,2.7,2.5,2.9
	c1,0.3,2.8-1.4,3.8-1.3c0.2,0,0.5,0.4,0.6,0.6c0.2,0.4,0.2,1.3,0,1.7c-0.1,0.3-1,0.5-1.1,0.8c0,0.4,1,0.7,1.3,1.1
	c0.8,0.9,1.7,3.3,2.5,4.2c0.9,1,3.3,2.2,4.4,2.9c0.9,0.6,2.8,1.7,3.8,2.3l0,0c1,0.6,3.1,1.6,4,2.3c0.8,0.6,2,2.3,2.7,2.9
	c0.9,0.9,3.2,2.2,4,3.2c0.9,1.1,2,3.8,2.5,5.1c0.8,1.9,2.7,5.6,2.9,7.6c0.2,2.1-1,6.3-1.3,8.4c-0.3,1.8-0.2,5.6-1.1,7.2
	c-0.6,1.2-3.4,2.4-4,3.6c-0.8,1.7-0.1,5.7-0.2,7.6c0,1.2-0.2,3.6-0.2,4.7l0,0c0,0.5-0.1,1.6,0,2.1c0.3,1.4,1.8,3.9,2.5,5.1
	c0.4,0.7,1.9,1.7,2.1,2.5c0.3,1-0.6,3.2-0.4,4.2c0.1,0.5,0.8,1.2,0.8,1.7c0.1,0.6-0.1,2-0.4,2.5c-0.4,0.8-2.3,1.7-2.5,2.5
	c-0.3,1,1,3.1,0.8,4.2c-0.1,1.3-1.6,3.5-2.1,4.6c-0.4,1-1.1,3.2-1.7,4.2c-0.3,0.5-0.9,1.3-1.3,1.7c-0.4,0.5-1.5,1.4-1.7,2.1
	c-0.2,0.8,0.5,2.6,0.8,3.4c0.2,0.4,0.7,1.2,0.8,1.7c0.2,0.9,0.4,2.9,0,3.8c-0.2,0.4-0.9,0.9-1.3,1.3c-1.1,1.1-3.8,2.8-4.2,4.2
	c-0.4,1.1,0.8,3.5,0.8,4.6c0,0.6-0.4,1.9-0.4,2.5c-0.2,2.2-0.2,6.6-0.4,8.8c-0.1,1.3-0.7,3.8-0.8,5.1c-0.1,1.4,0.2,4.1,0,5.5
	c-0.2,1-0.8,2.9-1.3,3.8c-0.6,1.1-2.4,2.9-3.4,3.8c-0.4,0.4-1.4,0.8-1.7,1.3c-0.6,0.9-1.1,3.1-1.3,4.2c-0.2,1.1,0.2,3.5,0,4.6
	c-0.2,1.3-1.3,3.8-1.7,5.1c-0.6,1.8-1.6,5.4-2.1,7.2c-0.4,1.6-1.7,4.7-1.7,6.3c0,1.3,1.3,3.8,1.3,5.1c-0.1,1.7-1.1,5-2.1,6.3
	c-0.3,0.4-1.4,0.8-1.7,1.3c-0.3,0.7,0.4,2.3,0,2.9c-0.5,0.7-2.7,0.7-3.4,1.3c-0.9,0.8-1.6,3.1-2.1,4.2c-0.5,1.1-1.3,3.5-1.7,4.6
	c-0.8,2.5-2.5,7.5-2.9,10.1c-0.2,1.1-0.6,3.5-0.4,4.6c0.2,1.1,1.5,3.1,1.7,4.2c0.2,0.8,0.1,2.5,0,3.4c-0.2,1.6-0.8,4.8-1.3,6.3
	c-0.3,1.1-0.9,3.4-1.7,4.2s-3.2,1.3-4.2,1.7c-2,0.8-5.9,2.7-8,2.9c-1.5,0.2-4.6-0.1-5.9-0.8c-0.9-0.5-1.9-2.5-2.5-3.4
	c-0.7-1-1.8-3.3-2.5-4.2c-1.3-1.6-5.1-3.6-5.9-5.5c-0.3-0.7,0.2-2.2,0-2.9c-0.2-1-1.2-2.9-1.7-3.8c-1-1.8-3.4-5.1-4.6-6.7
	c-1.2-1.5-3.8-4.1-5.1-5.5c-1-1.1-4.2-4.2-4.2-4.2l-5.5-8.4c0,0-1.6-3.5-2.1-4.6c-0.6-1.4-1.7-4.2-2.5-5.5c-0.8-1.1-2.9-2.8-3.8-3.8
	c-1-1.2-2.4-3.9-3.4-5.1c-0.7-0.8-2.1-2.3-2.9-2.9c-1.3-1.1-4.3-2.6-5.5-3.8c-0.4-0.4-1-1.5-1.3-2.1c-0.3-0.7-0.6-2.2-0.8-2.9
	c-0.2-0.7-0.5-2.3-0.8-2.9c-0.5-1-1.5-3.3-2.5-3.8c-0.4-0.2-1.3,0.1-1.7,0c-0.5-0.1-1.3-0.6-1.7-0.8c-0.7-0.3-2.3-0.8-2.9-1.3
	c-1.1-0.9-2.8-3.3-3.4-4.6c-0.6-1.5-0.4-4.8-0.8-6.3c-0.4-1.2-1.6-3.5-2.1-4.6c-0.6-1.4-1.9-4-2.1-5.5c-0.2-1.5,0.3-4.4,0.4-5.9
	c0.1-2.6,0.3-7.9,0.4-10.5c0.1-1.5,0.4-4.4,0.4-5.9c0-1.3,0.5-3.9,0-5.1c-0.4-1-2.3-2.1-2.9-2.9c-0.7-0.9-1.7-2.8-2.1-3.8
	c-0.2-0.5-0.3-1.6-0.4-2.1c-0.2-1.5-0.1-4.5-0.4-5.9c-0.3-1-1.2-2.9-1.7-3.8c-0.5-1.1-1.6-3.1-2.1-4.2c-0.6-1.3-1.9-4-2.3-5.4
	c-0.4-1.4-0.6-4.3-0.7-5.8c-0.1-1.3,0-3.9,0-5.2c0-1.8,0.1-5.5,0.3-7.3c0.2-1.3,0.7-3.8,1.2-5.1c0.3-0.8,1.2-2.4,1.7-3.2
	c0.4-0.7,1.3-2.1,1.9-2.6c0.8-0.8,2.8-2.1,3.8-2.7c0.9-0.6,2.7-1.9,3.7-2.4c0.7-0.4,2.1-0.8,2.8-1.2c0.8-0.4,2.4-1.3,3.3-1.7
	c0.6-0.3,1.8-0.9,2.4-1.2c0.8-0.3,2.4-0.6,3.3-0.7c1.8-0.2,5.4-0.1,7.3-0.1c2.1,0,6.2,0,8.3-0.1c1.1-0.1,3.3-0.2,4.4-0.4
	c0.7-0.2,2.1-0.9,2.8-1.2c0.6-0.3,1.8-0.6,2.3-1.1c0.6-0.5,1.3-1.9,1.7-2.5l0,0c0-0.4,0-1.1,0-1.5c0-0.8-0.1-2.6-0.3-3.4
	c-0.1-0.3-0.6-0.9-0.7-1.3c-0.2-0.6,0-1.7,0-2.3c0-0.4,0-1.4,0.2-1.8c0.1-0.2,0.5-0.4,0.7-0.5c0.4-0.3,1.8-1.2,1.8-1.2l2-1.7
	c0,0,1.1-1.7,1.4-2.3c0.4-1,0.7-3,1.1-4c0.3-1.1,1-3.2,1.5-4.2c0.1-0.3,0.4-1,0.6-1.3c0.5-0.4,2-0.3,2.6-0.6
	c0.3-0.2,0.8-0.8,1.1-1.1c0.6-0.7,1.5-2.3,2-3.1c0.4-0.7,1.6-2,1.5-2.7c-0.1-0.6-1.4-1-1.7-1.5c-0.5-0.8-0.9-2.6-0.9-3.5
	c0-0.4,0-1.3,0.1-1.7c0.2-0.7,1-2,1.2-2.7c0-0.3,0-0.9-0.1-1.2c-0.2-0.6-0.8-1.6-1.1-2.2c-0.2-0.4-0.5-1.3-0.6-1.7
	c-0.2-0.7-0.4-2.3-0.6-3.1c-0.1-0.4-0.8-1-0.7-1.4c0.1-1,1.8-2.3,2.4-3.1c0.5-0.6,1.8-1.5,2.3-2.1c0.3-0.4,0.8-1.2,1.1-1.6l0,0
	c0.6-0.4,1.8-1.1,2.3-1.6c0.9-0.8,2.3-2.7,2.8-3.8c0.2-0.4,0.6-1.2,0.5-1.6c-0.1-0.5-0.9-1.2-1.2-1.7c-0.4-0.8-1.1-2.4-1.5-3.3
	c-0.5-1.2-1.6-3.5-2-4.7c-0.4-1.1-1.1-3.3-1.3-4.4c-0.2-1.2,0-3.6,0.1-4.7c0-0.6,0-1.8,0.2-2.4c0.3-0.7,1.3-2,1.8-2.6
	c0.4-0.5,1.3-1.4,1.6-1.9c0.4-0.7,0.9-2.1,1.1-2.8c0.1-0.4,0.3-1.2,0.2-1.6c-0.1-0.3-0.4-0.7-0.5-0.9c-0.5-0.6-2-1.6-2.6-2.1
	c-0.5-0.4-1.7-1.2-2.1-1.7c-0.3-0.4-0.8-1.3-0.9-1.8c-0.4-1.1-1.1-3.3-1.2-4.4c-0.1-1,0.3-3.1,0.4-4.1c0.1-1.4,0.3-4.2,0.4-5.6
	c0.1-0.9,0.3-2.8,0.3-3.8c0-1.2-0.4-3.7-0.6-4.9c-0.1-0.7-0.3-2.1-0.6-2.7c-0.4-0.8-1.7-2-2.1-2.8c-0.2-0.4-0.4-1.3-0.4-1.8
	c0-1,0.5-3,0.7-4c0.2-1.2,0.7-3.7,1.1-4.9c0.2-0.7,0.6-2.1,0.8-2.7l0,0c0.2-0.8,0.4-2.5,0.6-3.3c0.2-1,0.9-2.9,1.2-3.9
	c0.3-1.1,0.6-3.4,0.8-4.5c0.1-0.3,0-1,0.2-1.3c0.4-0.5,1.7-1.3,2.3-1.3c0.5,0,1.4,0.8,1.9,0.9c0.7,0.2,2.1,0.4,2.7,0.3
	c0.8-0.1,2.8-1.4,2.8-1.4l3.8-3.5l2.2-2.5l2.2-3.6c0,0,0.7-2.1,0.9-2.7c0.3-0.8,1.2-2.2,1.6-2.9c0.2-0.4,0.5-1.4,0.7-1.8
	c0.1-0.1,0.3-0.4,0.4-0.5l0,0"/>
<path class="st0" d="M137.8,42.6c0,1.3-0.4,4-0.6,5.3c-0.1,0.6-0.3,1.7-0.5,2.2c-0.3,0.7-0.8,2-1.4,2.5c-0.5,0.5-1.8,0.9-2.4,1.2
	c-1,0.5-3.2,1.1-4.2,1.7c-0.7,0.4-1.9,1.2-2.4,1.8c-0.3,0.3-0.9,1.1-1.1,1.6c-0.1,0.3,0.1,1,0.1,1.4c0.1,0.4,0.4,1.2,0.3,1.6
	c-0.1,0.4-0.9,1.1-1.3,1.4c-0.1,0.1-0.5,0.4-0.5,0.5c-0.3,0.7,0.4,2.3,0.1,2.9c-0.4,0.8-2.3,1.4-2.8,2.1c-0.3,0.4-0.5,1.5-0.6,2
	c-0.2,0.7-0.3,2.2-0.4,2.9c-0.1,0.9-0.3,2.8-0.4,3.8c-0.1,0.9-0.5,2.6-0.5,3.5c-0.1,0.8-0.2,2.5,0,3.4c0.2,1,1.8,3.6,1.8,3.6
	l1.7,3.2l1.2,4.1l0.4,3.2l0.5,3.9v2.5l0,0"/>
<path class="st0" d="M242.8,11.4c0,0-1.1,2.4-1.7,2.9c-0.8,0.7-2.8,1.4-3.8,1.9c-0.9,0.4-3,1-3.8,1.7c-0.6,0.5-1.3,2-1.7,2.7
	c-0.3,0.5-0.9,1.6-1.3,2.1c-0.4,0.4-1.3,1.2-1.9,1.5c-0.9,0.4-3,0.9-3.8,0.4c-0.5-0.3-0.7-1.6-0.8-2.1c-0.1-0.5,0.2-1.8-0.2-2.1
	c-0.5-0.3-1.8,0.5-2.3,0.8c-0.8,0.5-1.8,2.6-2.7,2.7c-0.9,0.2-2.3-1.6-3.2-1.5c-1.5,0.1-4,2.4-5.1,3.6c-0.5,0.6-1.1,2.1-1.5,2.7
	c-0.1,0.2-0.4,0.8-0.6,0.8c-0.9,0.1-1.9-1.9-2.7-2.3c-1.1-0.5-3.8-0.3-4.8-1.1c-0.6-0.4-0.9-2.1-1.5-2.5c-0.6-0.5-2-0.9-2.7-1.1
	c-1.4-0.4-4.3-0.7-5.7-0.8c-1.3-0.1-3.8-0.3-5.1-0.2c-0.8,0.1-2.2,0.4-2.9,0.6c-1,0.3-2.7,1.4-3.6,1.9c-0.3,0.2-0.9,0.8-1.3,0.8
	c-1,0.2-3-0.7-4-0.6c-1.2,0.1-3.4,1-4.4,1.5c-1.3,0.6-3.5,2.4-4.6,3.2c-1.1,0.8-3.1,2.8-4.4,3.2c-0.8,0.2-2.4-0.4-3.2-0.2
	c-1.1,0.2-2.8,1.7-3.8,2.1c-0.9,0.4-2.9,0.6-3.8,1.1c-0.9,0.5-2.1,2.4-2.9,2.9c-0.8,0.5-2.7,0.9-3.6,1.3c-0.9,0.3-2.5,1.1-3.4,1.5
	l0,0c-0.4,0.3-1.4,0.7-1.8,1.1c-0.5,0.4-1.1,1.5-1.6,1.9c-0.3,0.3-1,0.8-1.4,0.9c-0.6,0.1-1.7-0.2-2.3-0.2c-0.3,0-0.9,0.1-1.2,0.2
	c-0.2,0.1-0.5,0.6-0.7,0.7c-0.3,0.2-0.9,0.3-1.2,0.3c-0.4,0-1.2-0.5-1.7-0.5c-0.3,0-0.9,0.1-1.2,0.2c-0.4,0.2-1.1,0.9-1.5,1.2
	c-0.3,0.2-0.9,0.7-1.3,0.8c-0.3,0.1-0.9-0.1-1.2-0.1c-0.5,0.1-1.6,0.4-2.1,0.6c-1.2,0.4-3.3,1.6-4.5,2c-0.9,0.3-2.8,0.6-3.8,0.8
	c-0.7,0.1-2,0.4-2.6,0.5c-0.4,0.1-1.3,0-1.7,0.1c-0.3,0-0.8,0.2-1.1,0.3c-0.8,0.4-2.3,1.6-2.9,2.2c-0.4,0.4-1,1.4-1.5,1.7
	c-0.2,0.1-0.5,0.2-0.7,0.2c-0.7,0.1-2.1,0-2.7-0.1c-0.8-0.1-2.2-0.6-2.9-0.7l0,0c-0.4-0.2-1.2-0.4-1.5-0.7c-0.4-0.4-0.8-1.7-1.2-2.2
	c-0.2-0.4-0.6-1.1-0.9-1.4c-0.5-0.3-1.7-0.5-2.3-0.4c-0.7,0.1-2,0.7-2.6,0.9c-1,0.4-2.8,1.3-3.8,1.5c-1,0.2-3.2,0-4.2,0
	c-1.2,0-3.7-0.1-4.8-0.3c-0.9-0.2-2.7-1.1-3.6-1.4c-1.7-0.6-5.1-1.4-6.7-2c-1-0.3-2.9-1.2-3.9-1.6c-1-0.4-3-1.3-4-1.7
	c-0.4-0.2-1.1-0.5-1.5-0.6l0,0c-0.8-0.4-2.4-1.1-3.2-1.6c-0.4-0.2-1.2-0.6-1.4-1.1c-0.1-0.5,0.4-1.5,0.6-1.9
	c0.4-0.6,1.4-1.6,1.9-2.1c0.8-1,2.5-3,3.3-4.1c0.6-0.8,1.6-2.5,2.1-3.4c0.7-1,2.1-3,2.8-4c0.4-0.6,1.4-1.6,1.9-2.1
	c0.5-0.5,1.4-1.6,1.9-2.1l0,0"/>
</svg>
