<?xml version="1.0" encoding="utf-8"?>
<!-- Generator: Adobe Illustrator 25.3.0, SVG Export Plug-In . SVG Version: 6.00 Build 0)  -->
<svg version="1.1" id="Layer_1" xmlns="http://www.w3.org/2000/svg" xmlns:xlink="http://www.w3.org/1999/xlink" x="0px" y="0px"
	 viewBox="0 0 128 310" style="enable-background:new 0 0 128 310;" xml:space="preserve">
<style type="text/css">
	.st0{fill:none;stroke:#4682B4;stroke-width:0.5;stroke-linecap:round;stroke-linejoin:round;}
</style>
<path class="st0" d="M32.2,302.3c0-0.3,0.7-0.4,0.9-0.6c0.4-0.2,1.3-0.7,1.7-0.9c0.1-0.1,0.4-0.2,0.5-0.2c0.1,0,0.4,0,0.5,0.1
	c0.1,0.1,0.3,0.4,0.5,0.5c0.1,0.1,0.4,0.2,0.6,0.2c0.3,0.1,1,0,1.3,0c0.2,0,0.6-0.1,0.7,0c0.1,0,0.2,0.2,0.2,0.3
	c0.1,0.1,0.1,0.5,0.3,0.6c0.1,0.1,0.5,0.1,0.6,0c0.2-0.2,0-0.7,0.1-0.9c0.2-0.3,1-0.4,1.2-0.7c0.2-0.3,0-1.1,0-1.5
	c0.1-0.4,0.4-1.1,0.6-1.4c0.2-0.3,1-0.5,1.2-0.8c0.2-0.3,0.1-1.1,0.2-1.4c0.2-0.3,0.8-0.6,1-0.8c0.3-0.3,0.6-1.1,0.9-1.3
	c0.3-0.2,0.9-0.3,1.2-0.5c0.2-0.1,0.6-0.5,0.8-0.7c0.3-0.4,0.7-1.3,0.9-1.8c0.2-0.4,0.6-1.3,0.7-1.7c0.2-0.6,0.4-1.9,0.6-2.5
	c0.2-0.5,0.6-1.6,0.7-2.1l0,0c0.1-0.2,0.4-0.7,0.5-0.9c0.3-0.4,1.2-0.8,1.6-1.2c0.2-0.2,0.6-0.8,0.7-1.1c0.1-0.2,0.3-0.6,0.5-0.8
	c0.2-0.3,0.7-0.7,0.9-0.9c0.2-0.2,0.6-0.4,0.7-0.6c0.4-0.5,1-1.7,1.4-2.2c0.3-0.4,0.9-1.2,1.2-1.6c0.1-0.1,0.2-0.3,0.2-0.4
	c0.1-0.3-0.2-0.9,0-1.2c0.1-0.2,0.7-0.2,0.9-0.4c0.2-0.1,0.3-0.5,0.4-0.7c0.1-0.2,0-0.5,0.1-0.7c0.1-0.2,0.4-0.4,0.6-0.6
	c0.2-0.2,0.5-0.6,0.6-0.8c0-0.1,0-0.4,0-0.5c-0.1-0.3-0.6-0.6-0.8-0.8c-0.2-0.3-0.5-0.9-0.7-1.2c-0.2-0.2-0.6-0.5-0.7-0.7
	c-0.1-0.1-0.1-0.5-0.1-0.7c0-0.3,0.2-0.9,0.1-1.2c-0.1-0.2-0.6-0.2-0.7-0.4c-0.1-0.3,0.2-1,0.2-1.3c0-0.6-0.5-1.8-0.3-2.4
	c0.1-0.3,0.6-0.6,0.7-0.9c0.1-0.2,0.1-0.6,0.1-0.7c-0.1-0.2-0.6-0.5-0.7-0.7c-0.1-0.2-0.2-0.6-0.1-0.8c0.1-0.2,0.6-0.3,0.8-0.4
	c0.2-0.1,0.6-0.3,0.8-0.4c0.3-0.2,0.8-0.8,0.9-1.2c0.1-0.3,0.1-0.9,0.1-1.2c0-0.3-0.3-0.9-0.3-1.2c0-0.2,0.1-0.6,0-0.7
	c-0.1-0.2-0.5-0.4-0.7-0.6c-0.1-0.1-0.4-0.3-0.4-0.5c-0.1-0.2,0-0.7,0.1-1c0.1-0.3,0.6-0.8,0.7-1.2c0.1-0.3,0-1,0.2-1.2
	c0.1-0.1,0.4-0.3,0.6-0.3c0.2,0,0.5,0.5,0.7,0.4c0.2-0.1-0.1-0.6,0-0.7c0-0.1,0.2-0.3,0.3-0.3c0.2-0.1,0.6,0.2,0.8,0.2
	c0.1,0,0.3-0.2,0.3-0.2c0.2-0.4,0.1-1.2,0.2-1.6c0-0.3,0-0.9,0-1.2c0-0.3,0.1-0.9,0.2-1.2c0-0.2,0.1-0.6,0-0.7
	c-0.1-0.2-0.6-0.2-0.7-0.4c-0.1-0.2,0.1-0.7,0.2-1l0,0c0.1-0.4,0.4-1.3,0.6-1.7c0.1-0.4,0.4-1.2,0.5-1.6c0.1-0.5-0.1-1.4-0.2-1.9
	c0-0.3,0-0.9,0-1.2c0.1-0.5,0.2-1.6,0.6-1.8c0.2-0.1,0.6,0.2,0.8,0.2c0.3,0.1,1,0,1.4,0c0.4,0,1.1,0,1.5,0c0.1,0,0.4,0,0.5-0.1
	c0.2-0.1,0.6-0.3,0.7-0.4c0.2-0.2,0.6-0.7,0.7-1c0.2-0.4,0.1-1.4,0.2-1.8c0.1-0.4,0.7-1.2,0.7-1.6c0.1-0.5,0-1.7-0.1-2.2
	c0-0.5,0.1-1.4-0.2-1.8c-0.1-0.2-0.7-0.4-0.9-0.7c-0.2-0.3-0.6-0.9-0.7-1.2c0-0.2-0.1-0.6,0-0.8c0.1-0.2,0.3-0.6,0.4-0.7
	c0.1-0.2,0.5-0.5,0.5-0.7c0-0.2-0.6-0.4-0.7-0.6c-0.1-0.2-0.1-0.6-0.1-0.7c0-0.3,0.1-1,0-1.3c0-0.3-0.2-0.8-0.3-1
	c-0.2-0.2-0.6-0.6-0.8-0.7c-0.1-0.1-0.5-0.3-0.6-0.5c-0.2-0.4-0.5-1.2-0.6-1.6c0-0.2,0-0.7,0-0.9c0-0.1,0-0.5,0.1-0.6
	c0.1-0.2,0.6-0.3,0.7-0.4c0.2-0.1,0.7-0.4,1-0.5c0.1,0,0.2,0,0.2,0c0.2-0.1,0-0.7,0.2-0.9c0.2-0.2,0.7-0.3,0.9-0.4
	c0.4-0.1,1.2-0.3,1.6-0.5c0.2-0.1,0.5-0.5,0.7-0.7c0.2-0.1,0.5-0.3,0.7-0.4c0.1-0.2,0.1-0.7,0.2-0.9c0.1-0.3,0.1-0.9,0.2-1.2
	c0.1-0.2,0.3-0.5,0.5-0.6c0.1-0.1,0.5,0,0.7-0.1c0.1-0.1,0.1-0.6,0.1-0.7c0-0.2-0.1-0.6-0.1-0.8c0-0.2-0.1-0.7-0.1-0.9
	c0-0.1,0.2-0.4,0.3-0.4c0.2-0.1,0.6,0,0.8,0c0.2,0,0.6-0.1,0.8-0.2c0.2,0,0.7,0,0.9,0c0.2,0,0.4,0.3,0.6,0.2c0.1,0,0.2-0.1,0.2-0.2
	c0.1-0.3-0.5-0.8-0.7-1.1c-0.2-0.2-0.6-0.5-0.8-0.7c-0.2-0.1-0.6-0.3-0.8-0.4c-0.1-0.1-0.4-0.3-0.5-0.5c-0.1-0.2,0-0.7-0.1-1
	c-0.1-0.5-0.4-1.4-0.5-1.8l0,0c-0.1-0.3-0.3-0.9-0.5-1.2c-0.1-0.2-0.5-0.6-0.6-0.9c-0.1-0.3,0-0.9,0.1-1.2c0.1-0.5,0.4-1.5,0.4-2
	c0.1-0.6,0-1.8,0-2.4c0-0.7,0.1-2.2,0.2-3c0-0.8,0-2.3,0-3c0-0.7,0.2-2.1,0.2-2.8c0-0.6-0.2-1.7-0.2-2.3c0-0.7,0.1-2.1,0.3-2.8
	c0.2-0.5,0.9-1.4,1.2-1.9c0.3-0.5,1-1.6,1.4-2.1c0.3-0.5,1-1.4,1.3-1.9c0.3-0.5,0.7-1.5,0.9-2c0.2-0.3,0.7-0.9,0.7-1.3
	c0-0.3-0.2-0.9-0.3-1.2c-0.1-0.2-0.6-0.3-0.7-0.5c-0.2-0.2-0.3-0.7-0.4-1c-0.1-0.3-0.2-0.8-0.2-1.1c0-0.2,0.1-0.6,0-0.7
	c-0.1-0.3-1-0.6-1-1c0-0.2,0.5-0.5,0.7-0.7c0.2-0.1,0.6-0.2,0.8-0.3c0.2-0.1,0.6-0.5,0.7-0.7c0.1-0.1,0.1-0.4,0.1-0.5
	c0-0.2,0.1-0.7,0-0.9c-0.1-0.1-0.4-0.2-0.4-0.1s0.4,0.2,0.4,0.1c0.1-0.3-0.9-0.2-1.2-0.3c-0.3-0.1-0.9-0.4-1.1-0.7
	c-0.2-0.3,0-1.1,0-1.4c0.1-0.4,0.3-1.2,0.4-1.6c0.2-0.4,0.9-1.6,0.9-1.6l0.3-1.6c0,0,0.3-1.2,0.5-1.6c0.1-0.2,0.4-0.4,0.6-0.6
	c0.3-0.2,0.8-0.6,1.1-0.8c0.2-0.2,0.6-0.6,0.7-0.8c0.2-0.3,0.4-0.9,0.4-1.2c0-0.4-0.2-1.1-0.3-1.5c-0.1-0.3-0.4-0.9-0.4-1.2
	c0-0.3,0-0.9,0.1-1.2c0.1-0.5,0.2-1.4,0.3-1.9c0.1-0.4,0.4-1.3,0.6-1.7c0.1-0.4,0.4-1.3,0.5-1.7c0.1-0.4,0-1.1,0-1.5
	c-0.1-0.7-0.5-2-0.7-2.7c-0.1-0.5-0.4-1.4-0.6-1.8c-0.1-0.3-0.3-1-0.3-1.4c0-0.1,0-0.4,0.1-0.5c0.1-0.3,0.6-0.6,0.7-0.9
	c0.1-0.2,0.1-0.5,0-0.7c-0.1-0.2-0.5-0.3-0.6-0.4c0-0.1,0-0.3,0-0.4c0-0.2,0.3-0.5,0.3-0.7c0-0.1,0.1-0.4,0.2-0.5
	c0-0.3-0.1-0.9-0.1-1.2c0-0.3,0-1.1,0.1-1.4s0.8-0.7,0.9-1.1c0.2-0.5,0-1.7-0.1-2.2c0-0.2,0-0.5-0.1-0.7c-0.1-0.2-0.6-0.4-0.7-0.6
	c0-0.3,0.5-0.6,0.6-0.9c0.1-0.4,0.1-1.4,0.1-1.8l0,0c0.1,0,0.3,0.1,0.4,0.1c0.1-0.1,0.3-0.4,0.3-0.5c0.2-0.3,0.3-1.1,0.7-1.3
	c0.1-0.1,0.5,0.2,0.7,0.1c0.2-0.1,0.2-0.6,0.2-0.8c0-0.3-0.1-0.8-0.2-1.1c0-0.3-0.1-0.9-0.1-1.2c0-0.2,0.1-0.7,0.2-0.9
	c0.1-0.1,0.4-0.2,0.6-0.2c0.1-0.1,0.4-0.1,0.5-0.2c0.2-0.2,0.1-0.9,0.2-1.2c0-0.2,0-0.7,0-1c0-0.2,0.2-0.4,0.2-0.6c0-0.2,0-0.7,0-1
	c0-0.2-0.2-0.7-0.2-1c0-0.2,0.2-0.6,0.3-0.8c0.1-0.2,0.2-0.6,0.3-0.7c0.1-0.1,0.4-0.3,0.6-0.4c0.2-0.1,0.6-0.2,0.7-0.3
	c0.2-0.2,0.3-0.7,0.3-0.9c0-0.3-0.4-0.8-0.4-1.1c0-0.4,0.1-1.1,0.2-1.5c0.1-0.4,0.5-1.2,0.7-1.6c0.2-0.6,0.5-1.8,0.7-2.3
	c0.2-0.4,0.7-1.1,0.9-1.5c0.2-0.5,0.6-1.4,0.8-1.9c0.3-0.7,0.5-2.3,1.1-2.8c0.2-0.2,0.6-0.2,0.8-0.3c0.3-0.1,0.8-0.4,1-0.6
	c0.2-0.2,0.4-0.7,0.7-0.9c0.1-0.1,0.4-0.1,0.6-0.2c0.4-0.2,1-0.7,1.3-0.9l0,0c0.2-0.3,0.7-0.8,0.9-1.2c0.2-0.5,0.5-1.5,0.6-2
	c0.1-0.5,0.2-1.5,0.2-2.1c0.1-0.6,0.2-1.8,0.3-2.4c0.1-0.5,0.2-1.5,0.3-2c0.2-0.6,0.6-1.9,0.8-2.5c0.2-0.5,0.5-1.4,0.7-1.9
	c0.1-0.4,0.5-1.3,0.5-1.8c0-0.3-0.2-0.9-0.2-1.2c0-0.5,0.2-1.5,0.2-2c0.1-0.7,0.2-2.2,0.2-2.9c0.1-0.6,0.2-1.8,0.3-2.4
	c0.1-0.7,0.4-2.1,0.5-2.8c0.1-0.6,0-1.7,0-2.3c0-0.4-0.1-1.3-0.1-1.7c0-0.5,0-1.5,0.1-2c0.1-0.5,0.5-1.5,0.7-2.1
	c0.1-0.4,0.3-1.4,0.5-1.8c0.2-0.5,0.8-1.5,1-2.1c0.2-0.5,0.3-1.6,0.4-2.1c0-0.4,0.1-1.2,0.1-1.6c-0.1-0.4-0.4-1-0.5-1.4
	c-0.1-0.3-0.1-0.9,0-1.2c0.1-0.4,0.4-1,0.5-1.4c0.1-0.3,0.1-0.9,0.1-1.2l0,0c0-0.4,0-1.1,0-1.5c0-0.4-0.1-1.2,0-1.6
	c0-0.2,0.2-0.4,0.2-0.6c0.2-0.3,0.6-1,0.7-1.3c0.1-0.3,0.2-0.9,0.2-1.2c0-0.4-0.1-1.4,0-1.8c0.1-0.5,0.4-1.5,0.6-2.1
	c0.1-0.4,0.4-1.1,0.6-1.4c0.2-0.5,0.6-1.3,0.8-1.8c0.2-0.4,0.3-1.3,0.5-1.6c0.1-0.2,0.4-0.4,0.6-0.5c0.1-0.1,0.4-0.2,0.5-0.2
	c0.2-0.1,0.6-0.1,0.8-0.1c0.1,0,0.5,0,0.6-0.1c0.5-0.4,0.6-1.7,0.8-2.2c0.1-0.3,0.2-0.8,0.3-1.1c0.1-0.2,0.3-0.5,0.4-0.6
	c0.2-0.2,0.8-0.3,1.1-0.4c0.3-0.1,0.9-0.2,1.2-0.3c0.4-0.1,1.1-0.5,1.4-0.7c0.4-0.2,1.2-0.7,1.6-1c0.6-0.4,1.8-1.3,2.3-1.8
	c0.3-0.3,0.9-0.9,1.2-1.2c0.4-0.4,1.1-1.3,1.4-1.8c0.4-0.5,1-1.6,1.3-2.1c0.2-0.2,0.5-0.7,0.7-1l0,0"/>
<path class="st0" d="M29.1,187.6c0,0.3,0.4,0.6,0.6,0.8c0.2,0.2,0.6,0.7,0.7,0.9c0.2,0.3,0.6,1,0.8,1.3c0.3,0.3,1.1,0.6,1.3,0.9
	c0.3,0.3,0.5,1.2,0.7,1.6c0.3,0.5,1,1.5,1.3,2c0.3,0.4,0.8,1.3,1,1.7c0.2,0.5,0.4,1.5,0.5,2c0.1,0.4,0.2,1.3,0.2,1.7
	c0.1,0.5,0.3,1.6,0.4,2.1c0.1,0.5,0.2,1.4,0.4,1.8c0.2,0.4,0.8,1,1.1,1.3c0.2,0.3,0.6,0.9,0.8,1.1c0.4,0.3,1.3,0.6,1.7,0.8
	c0.4,0.2,1.2,0.6,1.6,0.7c0.4,0.2,1.3,0.5,1.7,0.7c0.5,0.3,1.3,1.2,1.7,1.6c0.2,0.2,0.6,0.7,0.8,0.9c0.3,0.3,0.7,0.9,1,1.2
	c0.4,0.3,1.5,0.6,2,0.7c0.7,0.2,2.2,0.6,3,0.7c0.7,0.2,2,0.5,2.7,0.6c0.5,0,1.4-0.1,1.8-0.1c0.4,0,1.2,0,1.6,0
	c0.9,0.1,2.5,0.4,3.4,0.7c0.6,0.2,1.9,0.6,2.5,0.8c0.5,0.2,1.6,0.7,2.1,1c0.4,0.2,1.3,0.7,1.7,1l0,0"/>
<path class="st0" d="M23.6,215.2c0-0.4,1.1-0.2,1.5-0.2c0.7-0.1,2.2-0.4,3-0.6c0.4-0.1,1.1-0.3,1.5-0.4c0.6-0.2,1.9-0.6,2.5-0.8
	c0.6-0.2,1.7-0.7,2.2-1c0.4-0.2,1-0.8,1.3-1.1c0.4-0.3,1.1-0.8,1.5-1.2c0.4-0.4,1-1.4,1.4-1.8c0.3-0.3,1.1-0.6,1.5-0.8l0,0"/>
<path class="st0" d="M18.5,181.9c0-0.3-0.9,0-1.2-0.1c-0.3-0.1-0.8-0.4-1.1-0.5c-0.2-0.1-0.7-0.3-0.9-0.5c-0.2-0.2-0.4-1-0.7-1.2
	c-0.3-0.4-1-0.8-1.2-1.2c-0.2-0.4,0-1.2-0.2-1.6c-0.1-0.2-0.5-0.5-0.7-0.6c-0.2-0.1-0.6,0.1-0.7,0.1c-0.2,0-0.8-0.1-1-0.2
	c-0.3-0.1-1-0.5-1.2-0.7c-0.2-0.2-0.6-0.7-0.8-1c-0.2-0.2-0.7-0.7-0.8-1c-0.1-0.3-0.2-0.9-0.2-1.2c-0.1-0.3-0.1-0.9-0.2-1.2
	c-0.1-0.3-0.4-0.9-0.5-1.2c-0.2-0.6-0.3-1.9-0.4-2.5c-0.1-0.8-0.2-2.3-0.3-3.1c-0.1-1-0.4-2.9-0.7-3.9c-0.1-0.5-0.4-1.4-0.6-1.8
	c-0.1-0.1-0.2-0.4-0.2-0.6c0-0.2,0.1-0.5,0.2-0.7c0.2-0.4,0.8-1,0.8-1.4c0-0.2-0.2-0.6-0.3-0.8l0,0"/>
<path class="st0" d="M3.4,167.2c0,0.3,0.8,0.4,1.1,0.6c0.2,0.1,0.5,0.2,0.7,0.3c0.2,0.1,0.4,0.4,0.6,0.6c0.1,0.1,0.4,0.3,0.5,0.4
	c0.2,0.1,0.6,0.4,0.7,0.5l0,0"/>
<path class="st0" d="M29,147.6c0,0.1,0.1,0.4,0,0.5c0,0.1-0.1,0.3-0.1,0.4c-0.1,0.1-0.3,0.4-0.4,0.5c-0.1,0.1-0.3,0.2-0.4,0.2
	c-0.1,0.1-0.3,0.2-0.3,0.3c0,0.1,0,0.3,0,0.4c0,0.1,0.2,0.2,0.2,0.3c0.1,0.1,0.2,0.3,0.3,0.4c0.1,0.1,0.4,0.3,0.5,0.4l0,0"/>
<path class="st0" d="M11.1,146.1c0,0.2,0.5,0.2,0.7,0.2c0.2,0,0.6-0.3,0.8-0.3c0.2-0.1,0.6-0.2,0.9-0.2c0.2,0,0.7,0.1,0.9,0.1
	c0.3,0,0.9,0,1.2,0c0.4,0,1.2-0.1,1.6,0c0.2,0,0.6,0,0.8,0.1c0.1,0,0.4,0.1,0.5,0.2c0.2,0.2,0.3,0.7,0.4,0.9
	c0.1,0.1,0.3,0.3,0.5,0.4c0.2,0.2,0.5,0.6,0.7,0.8c0.1,0.2,0.4,0.6,0.5,0.8c0.2,0.3,0.5,0.8,0.7,1c0.3,0.3,0.9,0.7,1.2,0.9
	c0.1,0.1,0.3,0.2,0.5,0.3c0.2,0.1,0.5,0.4,0.7,0.5c0.2,0.1,0.6,0.3,0.9,0.4c0.2,0,0.6,0,0.8,0c0.1,0,0.3,0,0.5,0
	c0.2,0,0.6-0.2,0.8-0.2c0.2,0,0.7,0,0.9,0c0.1,0,0.2-0.1,0.2-0.1l0,0"/>
<path class="st0" d="M25,144c0,0.1-0.4,0.1-0.5,0.2c-0.2,0.1-0.6,0.2-0.8,0.2c-0.2,0-0.7,0-0.9,0c-0.2,0-0.6,0.1-0.8,0.2
	c-0.2,0-0.7,0-0.9,0c-0.2,0-0.6,0-0.8,0c-0.1,0-0.3,0.1-0.4,0.1c-0.2,0.1-0.5,0.4-0.7,0.5c-0.1,0.1-0.3,0.2-0.5,0.2
	c-0.1,0-0.3,0.1-0.4,0.2c-0.1,0-0.5,0.1-0.6,0.1l0,0"/>
<path class="st0" d="M29.4,139.3c0,0.1,0.1,0.3,0.1,0.5c0,0.2,0,0.5,0,0.6c0,0.1-0.1,0.3-0.2,0.4c-0.1,0.1-0.5,0.3-0.7,0.3
	c-0.1,0-0.3,0-0.4,0c-0.1,0-0.4,0-0.6,0.1c-0.2,0.1-0.6,0.2-0.7,0.4c-0.1,0.1-0.3,0.3-0.4,0.4c-0.1,0.1-0.2,0.4-0.2,0.5
	c0,0.1,0,0.3-0.1,0.4c0,0,0,0,0,0"/>
<path class="st0" d="M31.6,140.3c0,0.1,0,0.3,0,0.4c0,0.1,0.1,0.3,0.2,0.4c0,0.1,0,0.2,0,0.2c0,0.1,0.1,0.4,0.1,0.6
	c0,0.1,0,0.4,0,0.5c0,0.2,0,0.5,0,0.7c0,0.2-0.2,0.6-0.2,0.8c-0.1,0.2-0.3,0.5-0.4,0.7c-0.1,0.1-0.3,0.3-0.4,0.5
	c-0.2,0.2-0.6,0.4-0.8,0.6c-0.1,0.1-0.3,0.3-0.5,0.5c0,0-0.1,0.1-0.1,0.1l0,0"/>
<path class="st0" d="M45,145.6c0-0.1-0.4-0.2-0.5-0.3c-0.1-0.2,0.1-0.5,0.1-0.7c0-0.2,0.1-0.6,0.2-0.8c0.1-0.2,0.3-0.7,0.3-1
	c0-0.3,0-1,0-1.4c0-0.3-0.2-1-0.2-1.3c-0.1-0.3-0.2-1-0.3-1.3c-0.1-0.3-0.3-0.8-0.4-1.1c-0.1-0.3-0.1-0.8-0.2-1
	c0-0.2-0.2-0.6-0.2-0.8c0-0.3,0-0.8,0.1-1c0.1-0.1,0.5-0.2,0.6-0.3c0.3-0.2,1-0.4,1.2-0.7c0.2-0.2,0.5-0.7,0.6-1
	c0.1-0.3,0.1-0.9,0.1-1.2c0-0.3-0.2-0.9-0.2-1.2c0-0.3-0.1-0.9-0.1-1.2c0-0.2,0.1-0.6,0.2-0.7c0.1-0.2,0.6-0.4,0.7-0.6
	c0.1-0.1,0.2-0.5,0.3-0.7c0.1-0.2,0-0.6,0.1-0.7c0.1-0.2,0.4-0.3,0.6-0.5c0.1-0.1,0.3-0.2,0.4-0.4c0-0.1-0.1-0.4-0.1-0.6l0,0
	c-0.1-0.1-0.3-0.5-0.4-0.6c-0.1-0.1-0.5-0.3-0.7-0.4c-0.2,0-0.6,0.3-0.8,0.2c-0.1,0-0.5-0.1-0.5-0.2c-0.1-0.1,0-0.5,0.1-0.6
	c0.2-0.2,0.9-0.2,1.1-0.4c0.1-0.2,0.1-0.7,0-0.8c-0.2-0.2-0.7,0-0.9-0.2c-0.1-0.1-0.2-0.5-0.2-0.7c0.1-0.2,0.6-0.1,0.7-0.3
	c0.1-0.2-0.2-0.5-0.2-0.7c0-0.5,0.1-1.4,0.2-1.9c0-0.2,0.2-0.6,0.2-0.7c0.1-0.3,0.2-1,0.2-1.3c0-0.2,0-0.5,0-0.6
	c0.1-0.2,0.3-0.5,0.5-0.7c0.1-0.2,0.6-0.3,0.7-0.5c0.1-0.2,0-0.7-0.2-0.9c-0.1-0.1-0.4-0.3-0.6-0.3c-0.3-0.1-0.9-0.4-1.3-0.5
	c-0.2-0.1-0.6-0.1-0.8-0.2c-0.4-0.1-1.1-0.5-1.4-0.7c-0.3-0.2-0.8-0.6-1.1-0.8c-0.2-0.1-0.5-0.4-0.6-0.5c0,0,0,0,0,0
	c-0.1-0.2,0-0.5,0-0.7c0-0.1,0.3-0.4,0.3-0.5c0-0.1,0.1-0.2,0.1-0.3c0-0.1-0.1-0.4-0.2-0.6c0-0.1-0.1-0.4-0.2-0.5
	c-0.1-0.1-0.2-0.4-0.3-0.6c0-0.1-0.1-0.4-0.1-0.5c0-0.1,0-0.2,0.1-0.3c0.1-0.1,0.3-0.3,0.5-0.4c0.1-0.1,0.4-0.2,0.5-0.3
	c0.1-0.1,0.3-0.3,0.4-0.5c0.1-0.2,0.1-0.5,0.1-0.7c0-0.1-0.3-0.3-0.3-0.4c-0.1-0.1-0.1-0.4-0.1-0.5c0-0.2,0.1-0.5,0.2-0.7
	c0.1-0.1,0.4-0.2,0.5-0.3c0.1-0.1,0.1-0.3,0.1-0.4c0-0.2,0-0.7,0-0.9c0-0.2,0.2-0.7,0.3-0.9c0.1-0.2,0.4-0.5,0.5-0.7
	c0-0.1,0-0.4,0-0.6c0.1-0.3,0.2-0.9,0.3-1.1c0.1-0.1,0.4-0.3,0.6-0.3c0.2,0,0.5,0.2,0.7,0.2c0.1,0,0.3-0.1,0.5-0.2
	c0.2-0.1,0.5-0.3,0.6-0.4c0.1-0.1,0.3-0.2,0.5-0.3c0.2-0.1,0.7,0,0.9-0.1c0.1-0.1,0.2-0.3,0.3-0.4l0,0c0.1-0.2,0.2-0.6,0.3-0.8
	c0-0.2,0-0.7,0-0.9c0-0.2,0-0.7,0-0.9c0-0.2-0.1-0.7,0-0.9c0-0.2,0.1-0.6,0.2-0.8c0.1-0.1,0.4-0.3,0.5-0.4c0.1-0.1,0.3-0.5,0.3-0.6
	c0.1-0.2,0.2-0.7,0.3-0.9c0.1-0.2,0.3-0.5,0.5-0.7c0.1-0.1,0.2-0.4,0.3-0.5c0.1-0.1,0.4-0.3,0.5-0.3c0.2-0.1,0.6,0,0.9,0
	c0.2,0,0.5,0.2,0.7,0.2c0.1,0,0.3,0.1,0.4,0.1c0.2,0,0.7,0.2,0.9,0.2c0.2,0,0.7,0,1,0.1c0.3,0,0.8,0.1,1.1,0.2
	c0.3,0.1,1,0.4,1.3,0.5c0.4,0.2,1.1,0.5,1.4,0.7c0.2,0.1,0.5,0.4,0.7,0.5c0.1,0.1,0.3,0.4,0.5,0.5c0.2,0.1,0.6,0.1,0.8,0.2
	c0.4,0.1,1.1,0.4,1.4,0.7c0.1,0.1,0.2,0.4,0.3,0.5c0.3,0.2,1.2,0.3,1.6,0.4c0.4,0,1.3,0.1,1.8,0c0.2,0,0.4-0.2,0.5-0.3
	c0.2-0.4,0.3-1.3,0.3-1.7c0-0.4-0.1-1.1-0.1-1.4c0-0.9,0.1-2.6,0.3-3.4c0.1-0.5,0.5-1.3,0.7-1.8c0.1-0.4,0.3-1.3,0.4-1.8
	c0.1-0.4,0.1-1.2,0.1-1.6"/>
<path class="st0" d="M68.6,82c0-0.3-0.2-0.9-0.2-1.2c0-0.2,0.3-0.5,0.5-0.6c0.1-0.1,0.4-0.3,0.5-0.3c0.2,0,0.5,0.2,0.7,0.2
	c0.1,0,0.2,0,0.2-0.1c0.1-0.2,0-0.6,0-0.8c0-0.2-0.1-0.6-0.1-0.7c0-0.3,0.2-0.8,0.2-1.1c0-0.3,0.1-0.9,0.2-1.2
	c0.1-0.3,0.5-1,0.7-1.2c0.2-0.2,0.7-0.6,1-0.7c0.4-0.3,1.2-0.7,1.6-0.9c0.5-0.3,1.3-1.2,1.7-1.5c0.3-0.2,1-0.5,1.4-0.7
	c0.7-0.4,2-1.4,2.5-2c0.5-0.5,1.2-1.7,1.5-2.3c0.2-0.3,0.4-1.1,0.5-1.4c0-0.2,0-0.6,0.1-0.9c0-0.3,0.2-0.9,0.2-1.2
	c0.1-0.2,0.3-0.6,0.4-0.8c0-0.2,0-0.6-0.1-0.7c-0.1-0.3-0.6-0.6-0.7-0.9c-0.1-0.3-0.2-0.9-0.3-1.2c0-0.3-0.1-0.8-0.1-1
	c0-0.2,0-0.5,0-0.6c0-0.3,0.1-1,0.1-1.4c0-0.4,0.2-1.1,0.2-1.5c0-0.4,0.1-1.2,0-1.6c-0.1-0.4-0.5-1.3-0.6-1.7
	c-0.1-0.3-0.2-0.9-0.2-1.2c0-0.3-0.1-0.9-0.1-1.2c0-0.2,0.1-0.7,0.2-0.9c0.1-0.2,0.4-0.4,0.5-0.6c0.1-0.1,0.4-0.3,0.5-0.4
	c0.1-0.2,0.3-0.5,0.3-0.7c0.1-0.2,0.1-0.7,0.2-0.8c0.2-0.2,0.6-0.4,0.9-0.5c0.5-0.3,1.4-1,1.8-1.2c0.3-0.2,0.9-0.5,1.2-0.6
	c0.4-0.2,1.3-0.7,1.7-0.9c0.1-0.1,0.4-0.2,0.5-0.2l0,0c0.1-0.1,0.3-0.4,0.3-0.5c0.1-0.2,0.3-0.8,0.5-1c0.1-0.1,0.3-0.4,0.4-0.5
	c0.1-0.2,0.2-0.8,0.3-1c0-0.1,0.2-0.2,0.2-0.3c0.2-0.2,0.6-0.6,0.9-0.8c0.2-0.2,0.7-0.7,0.9-0.9c0.2-0.1,0.5-0.3,0.6-0.5
	c0.1-0.1,0-0.4,0-0.5c0.2-0.4,0.9-0.8,1.2-1.1c0.2-0.2,0.4-0.5,0.6-0.6c0.1-0.1,0.4-0.2,0.5-0.2c0.1,0,0.2,0,0.3,0
	c0.1,0,0.3-0.1,0.4-0.1c0.3-0.2,0.6-0.8,0.8-1.1c0.2-0.3,0.6-0.8,0.8-1.1c0.2-0.3,0.5-0.8,0.7-1.1c0.1-0.2,0.4-0.7,0.6-0.9
	c0.1-0.2,0.2-0.5,0.3-0.7c0.1-0.2,0.3-0.6,0.4-0.8c0.2-0.3,0.7-0.8,0.9-1.1c0.3-0.4,0.9-1.3,1.2-1.8c0.1-0.2,0.3-0.7,0.5-0.9
	c0.3-0.4,1.2-1.1,1.6-1.4c0.3-0.3,1-0.8,1.4-1c0.3-0.2,1-0.5,1.4-0.6c0.4-0.1,1.2,0,1.6,0c0.4,0,1.1-0.1,1.5-0.1c0.2,0,0.7,0,0.9,0
	l0,0"/>
</svg>
