<?xml version="1.0" encoding="utf-8"?>
<!-- Generator: Adobe Illustrator 25.3.0, SVG Export Plug-In . SVG Version: 6.00 Build 0)  -->
<svg version="1.1" id="Layer_1" xmlns="http://www.w3.org/2000/svg" xmlns:xlink="http://www.w3.org/1999/xlink" x="0px" y="0px"
	 viewBox="0 0 63 48" style="enable-background:new 0 0 63 48;" xml:space="preserve">
<style type="text/css">
	.st0{fill:none;stroke:#4682B4;stroke-width:0.5;stroke-linecap:round;stroke-linejoin:round;}
</style>
<path class="st0" d="M1.6,46.7c0-0.4,1.2-0.5,1.5-0.6c0.4-0.2,1.2-0.6,1.7-0.7c0.6-0.2,1.9-0.5,2.6-0.7c0.6-0.2,1.9-0.8,2.5-1
	c0.5-0.2,1.4-0.8,1.9-1c0.6-0.3,1.7-1,2.3-1.4c0.6-0.3,1.9-1,2.5-1.4c0.5-0.3,1.3-1,1.7-1.4c0.3-0.2,1-0.6,1.2-0.9
	c0.2-0.2,0.4-0.6,0.6-0.8c0.3-0.5,1.1-1.4,1.4-1.9c0.3-0.4,0.8-1.3,1.1-1.7c0.3-0.4,0.8-1.2,1.2-1.6c0.5-0.5,1.5-1.3,2-1.8
	c0.2-0.2,0.6-0.6,0.9-0.7s0.6-0.6,0.9-0.7c0.5-0.4,1.5-1.3,2-1.8c0.2-0.2,0.7-0.7,0.9-1c0.2-0.3,0.6-0.9,0.9-1.2s0.9-1.2,0.9-1.2
	l0.6-1.3l0.6-1.3l0.6-1.7l0.6-1.7l0.7-1.2l0.7-1.2l0.8-1.3l0.8-1.3l0.7-1c0,0,0.5-0.7,0.7-1l0,0c0.1-0.1,0.3-0.3,0.4-0.4
	c0.2-0.3,0.6-0.9,0.9-1.2l0,0"/>
<path class="st0" d="M44.7,24.6c0-0.2,0.1-0.7,0.1-0.9c0.1-0.2,0.3-0.5,0.4-0.6c0.1-0.1,0.4-0.4,0.6-0.5c0.2-0.2,0.8-0.4,1-0.6
	c0.1-0.1,0.3-0.4,0.4-0.5c0.2-0.3,0.5-0.9,0.7-1.2c0.1-0.2,0.2-0.6,0.2-0.9c0.1-0.2,0.2-0.5,0.3-0.7c0.1-0.1,0.4-0.3,0.6-0.4
	c0.1-0.1,0.1-0.5,0.2-0.6c0.1,0,0.2,0,0.3,0c0.2,0,0.5,0.1,0.6,0.1c0.1,0,0.3,0,0.4,0c0.2,0,0.7-0.2,0.9-0.3
	c0.2-0.1,0.5-0.3,0.6-0.4c0.1-0.1,0.3-0.4,0.4-0.5c0.2-0.1,0.6,0,0.9-0.1c0.3-0.1,0.8-0.3,1.1-0.4c0.3-0.1,0.8-0.2,1.1-0.3
	c0.3-0.1,1.1-0.1,1.4-0.2c0.2-0.1,0.6-0.3,0.8-0.4c0.2-0.1,0.5-0.2,0.6-0.3c0.1-0.1,0-0.3,0.1-0.4c0.1-0.1,0.5,0.2,0.7,0.2
	c0.1,0,0.4,0,0.5,0c0.2,0,0.5-0.1,0.6-0.1c0.1,0,0.3,0,0.4,0c0.1,0,0.3-0.2,0.4-0.2c0.1-0.1,0.1-0.2,0.2-0.3l0,0"/>
<path class="st0" d="M44.1,9c0,0.2,0.4,0.2,0.6,0.3c0.2,0.1,0.6,0.3,0.7,0.5c0.1,0.1,0.4,0.4,0.4,0.6c0,0.2-0.2,0.7-0.2,0.9
	c-0.1,0.2-0.3,0.7-0.3,1c-0.1,0.3-0.1,0.8-0.1,1.1c0,0.3,0,1,0,1.4c0,0.3,0,0.8,0,1.1c0,0.2,0,0.5,0,0.7c0,0.3,0,0.8,0,1.1
	c0,0.3,0.1,0.9,0.1,1.2c0,0.1,0.2,0.4,0.2,0.6c0,0.3,0,0.8,0,1c0,0.2-0.1,0.6-0.2,0.7l0,0"/>
<path class="st0" d="M43.8,7.7c0-0.3,0.6-0.6,0.8-0.8c0.2-0.2,0.7-0.7,0.9-0.9c0.2-0.2,0.8-0.5,1-0.7c0.2-0.2,0.3-0.7,0.4-0.9
	c0.1-0.2,0.2-0.5,0.2-0.7c0.1-0.2,0.1-0.9,0.1-0.9l0.1-1.4l0,0"/>
</svg>
