<?xml version="1.0" encoding="utf-8"?>
<!-- Generator: Adobe Illustrator 25.3.0, SVG Export Plug-In . SVG Version: 6.00 Build 0)  -->
<svg version="1.1" id="Layer_1" xmlns="http://www.w3.org/2000/svg" xmlns:xlink="http://www.w3.org/1999/xlink" x="0px" y="0px"
	 viewBox="0 0 100 100" style="enable-background:new 0 0 100 100;" xml:space="preserve">
<style type="text/css">
	.st0{fill:none;stroke:#4682B4;}
</style>
<path class="st0" d="M45.2,2.5l0.6,1.1l-0.2,1.3v1.9l0.5,1.5l0.8,1.4l1.4,1.2l1.2,0.8l2,1.2l2.9,1.7l2.4,1l1.5,0.8l0.9,0.5l0.7,0.4
	l1.4,1.5h1.5h1.6l1.1,0.3l1.1,0.5L66.3,20l-0.2,2.3l-0.3,2.9l-0.3,1.9l-0.2,3v2v1.6l0.6,2.2l1.1,2.6l0.7,1.5l0,0l0.5,2.8L68,45
	l-0.3,1.5l-0.6,1.9l-1.1,3.2L65.7,55l-0.5,2.9L65,60.2l0.1,2.2l0.4,2.4l-0.3,2.5L65,68.6l-1.3,0.9l-1.6,0.8L60.4,71L58,71.8
	l-1.5-0.1l-1.4,0.4l-0.9,0.5l-1.2,1l-1.6,1.1l-2.7,0.8l-2.8,1.1L44.1,78l-1.5,0.7l-2.4,0.9l-0.7,2.2l-1.4,2.1L37,84.7l-1.1,1.1
	l-1.2,2.1l-0.9,0.9l-0.4,1.5L33.3,91l-1.1,0.9l-0.2,1.6l-0.2,3v1l0,0"/>
</svg>
