<?xml version="1.0" standalone="no"?><!DOCTYPE svg PUBLIC "-//W3C//DTD SVG 1.1//EN" "http://www.w3.org/Graphics/SVG/1.1/DTD/svg11.dtd"><svg width="98" height="49" version="1.1" xmlns="http://www.w3.org/2000/svg" xmlns:xlink="http://www.w3.org/1999/xlink"><path stroke-width="1" stroke="steelblue" fill="steelblue" d="M23.045339183664623,23.326130399353815L21.361443522837703,24.686199961457305L19.41848699474224,26.175799948091253L17.79935657431281,27.665399953831866L15.532573962131323,29.414060834867314L13.848678301304517,31.227486939112282L13.265791349949836,31.810373898586818L12.682904375015028,32.71708693724588L12.16478264047771,33.623799987142775L10.02753046193061,34.66004346533441L7.825513066566259,35.631521715377744L6.141617405739453,36.1496434518715L5.882556538470794,37.056356513423L5.817791321653544,38.28689564761282L5.364434803933364,39.90602607834023L4.911078262632827,41.07179999558525L3.8100695767408297,42.49663477942795L3.2271826253862628,44.76341740583018L2.8385913009028627,46.317782620902676L2.449999999999818,47.74261741533962L2.449999999999818,47.74261741533962" /><path stroke-width="1" stroke="steelblue" fill="steelblue" d="M95.54999999999984,1.6459738943718776L94.96711302506503,1.6459738943718776L94.38422607371035,1.6459738943718776L93.86610433917281,1.2573825846603768L92.82986084651793,1.3869130062968225L91.76123476903444,1.5488260506925826L91.3726434681314,2.0993304093544793L90.4983130175192,2.0993304093544793L89.98019128298176,2.228860853290712L89.59159998207883,2.77936520383264L89.46206954844456,3.3946347629769207L89.20300865759543,4.042286925066605L88.55535648942373,4.495643459635062L87.51911302034887,4.625173883975776L86.77431300337116,4.463260847498873L85.77045214270481,3.9775217281222695L84.8961216920926,3.2651043297694287L83.924643439835,3.2327217076921215L83.01793038081428,2.973660836063459L82.01406952014815,2.7469825949119695L81.7873912612879,3.4917825856537092L81.26926952675069,4.463260847498873L80.7835303770413,5.33759127796111L80.36255646772986,5.920478239611612L79.84443473319243,6.373834773422345L79.19678256502073,6.8595738986234664L77.9662434219141,8.090113025745609L76.89761734443061,9.223504348632787L76.08805211063566,9.968304338916141L75.76422602654975,10.680721743474237L74.95466081633515,11.555052183157159L74.40415644980885,12.591295663757023L73.85365210686291,13.238947838451622L72.46120011035543,13.951365154831706L70.97160009998038,14.69616514025995L68.70481748779889,15.667643411895028L66.4380348756174,16.833417336944535L65.27226094932803,17.124860817296053L62.74641746987788,17.513452121307523L60.86822615859944,17.902043421041526L60.12342616520186,18.35539992788142L59.31386093140679,18.549695590911824L57.37090440331133,18.970669515560303L56.07560006696781,18.970669515560303L55.39556526680724,18.970669515560303L54.650765273409775,19.4240260167619L53.193547871443,19.974530376569305L52.04396540262985,19.917860815644417L50.89438293381647,19.8611912676771L49.76099161593561,19.731660815138753L49.11333944776379,19.893573871109425L48.27139162914057,20.217399942076668L46.71702640194803,20.12025211955188L45.55125247565866,20.346930385331348L44.191182922498,20.80028689831977L42.99302638779989,20.89743473007354L42.31299161121967,20.638373873797605L41.56819159424185,20.50884343784719L41.05006985970442,20.541226048230783L40.62909595039275,20.703139072520685L39.949061173812424,21.156495615091103L38.4270785550284,21.059347775474862L37.6175133448138,21.059347775474862L36.90509593624449,20.411695600989788L36.386974201707176,20.638373873797605L35.04309594096071,20.67075648048774L33.69921768021402,20.703139072520685L33.0677569459383,20.69504343448284L31.77245260959478,20.646469521686413L30.315235207627893,20.581704299148328L28.275130854306667,20.630278200920202L26.51027868424842,20.53313037809869L25.862626492496474,20.51693907290621L24.923530848647374,21.051252136323114L24.518748231749896,21.342695612244597L24.518748231749896,21.342695612244597" /></svg>