<?xml version="1.0" standalone="no"?><!DOCTYPE svg PUBLIC "-//W3C//DTD SVG 1.1//EN" "http://www.w3.org/Graphics/SVG/1.1/DTD/svg11.dtd"><svg width="600" height="219" version="1.1" xmlns="http://www.w3.org/2000/svg" xmlns:xlink="http://www.w3.org/1999/xlink"><path stroke-width="1" stroke="steelblue" fill="steelblue" d="M15,212.3760090689575L21.06382975645829,212.3760090689575L32.35509911039935,213.0033017883734L44.06456361995697,213.42149687001802L51.3829789955289,213.42149687001802L58.07410148541294,212.3760090689575L66.85619990564737,210.70322837544063L72.2927369286781,211.74871623180388L79.19295714863256,213.42149687001802L86.72046994975335,213.42149687001802L95.29347079217769,212.3760090689575L103.65737390453432,211.74871623180388L110.76669170229616,211.74871623180388L120.8033755893839,210.28503318561798L131.88554736551578,208.61225252344866L135.02201103264906,206.10308168215943L140.2494504778715,198.78466631251194L144.64049976411934,192.30264135714424L145.47689007535428,187.91159215684183L145.0586949197368,181.01137200886933L144.64049976411934,175.9930301690738L146.7314755422076,171.39288325585676L148.61335374248756,168.2564196625608L149.6588416315317,164.07446806568623L154.46808592113757,164.70176079442717L160.74101340766447,164.49266312632335L164.5047698082244,161.35619952398338L168.89581894221192,156.756052701915L175.3778440065471,150.27402770152003L178.93250282929785,145.0465881535274L183.95084469671292,137.7281729816441L186.46001578267987,133.337123717135L186.46001578267987,131.66434314342132L191.8965528057106,131.66434314342132L200.46955364813584,132.29163581080138L202.76962700403328,132.08253823098494L205.90609067116748,130.8279527220384L209.46074949391823,133.337123717135L213.85179878016515,134.80080671007545L223.4702862935519,135.2190023520534L226.39765238287782,134.80080724288382L230.1614089356981,133.33712407236726L234.5524580696847,130.82795325497136L239.57079993709885,130.40975792025165L243.5436540677274,131.45524599083637L246.88921531267079,132.70983139800865L252.11665475789232,132.9189290502618L258.5986798222284,131.45524599083637L267.7989733980803,128.7369774019835L272.81731526549447,127.90058698935991L279.926632910996,128.5278798086747L285.9904628197146,126.22780637211326L291.8451949983637,125.18231845578885L299.7909031073623,126.64600161260205L305.85473286381966,127.48239183193164L311.08217246130243,127.48239183193164L322.1643442374343,124.55502583054295L327.1826861048485,121.41856209253092L339.93763850345204,121.20946450380507L345.7923693117591,119.9548795908895L353.7380774207568,118.2820988545991L357.9200289769351,116.81841584600807L362.52017568873,113.47285447163267L370.67498137553775,111.80007393914366L378.8297869100843,109.9181956397615L386.775495019082,108.24541499606221L393.46661766122816,108.24541499606221L400.99413046234804,106.15443913263789L408.1034482601108,102.39068283199049L418.3492295727474,97.1632432564993L426.9222304151717,93.39948678483415L434.8679385241712,89.84482794732321L442.3954513252902,86.29016912325187L446.9955981893463,83.9900956547117L450.3411594342897,78.55355856074766L454.314013412657,72.48972887769924L458.9141601244537,67.47138695341982L461.63242878822984,63.080337635732576L465.81438034440816,58.27109327168637L475.6419666536858,47.60711674392587L481.7057964101432,42.17057971916802L485.67865038851323,39.45231106362462L489.02421178571603,36.106749761863284L494.46074880874676,26.9064562663807L498.6427003649251,18.333455485338163L500.3154811396562,15.196991809613792L503.4519448067904,16.4515772372024L506.3793108961145,16.660674904910593L510.97945760791026,18.751650763753787L515.9977996275838,18.333455485338163L517.8796778278638,18.333455485338163L520.3888487615704,20.633528966163794L525.6162882067938,23.351797383156736L530.4255326486591,26.488261185541887L534.3983855612059,28.16104177899524L540.6713128954725,27.324651570694186L546.3169476485728,23.76999258925116L548.6170210044711,18.960748304773006L549.8716064713244,15.196991809613792L551.7534846716044,12.060528225922098L556.144533805591,11.85143064294698L559.699192780603,11.224137848143982L562.6265588699271,8.087674048202643L567.0176080039137,7.04218617198876L576.0088040019573,5.578503129978344L578.3088773578547,6.623991019582718L580.8180482915614,7.669478923837232L585,8.29677177643407L585,8.29677177643407" /></svg>