<?xml version="1.0" encoding="utf-8"?>
<!-- Generator: Adobe Illustrator 25.3.0, SVG Export Plug-In . SVG Version: 6.00 Build 0)  -->
<svg version="1.1" id="Layer_1" xmlns="http://www.w3.org/2000/svg" xmlns:xlink="http://www.w3.org/1999/xlink" x="0px" y="0px"
	 viewBox="0 0 14 55" style="enable-background:new 0 0 14 55;" xml:space="preserve">
<style type="text/css">
	.st0{fill:none;stroke:#4682B4;stroke-width:0.5;stroke-linecap:round;stroke-linejoin:round;}
</style>
<path class="st0" d="M9.8,53.6l-1.1-0.6l-1.1-0.9l-1.3-0.6l-0.9-0.6l-0.7-0.3l-1.5-0.1l-1.1-0.3l-0.9-0.9l-0.2-0.8l0.4-0.6l-0.6-0.5
	L0.6,47v-0.4L1,45.1l0.1-0.8l-0.6-0.9l0.8-0.6l0.9-1.2l0.8-0.9L3,39.9l-0.4-0.8l0.3-0.8l0.9-0.9l0-1.7l0,0l0-0.7l0.2-0.7l0.6-0.7
	L5,32.2l0.3-0.9l0.3-0.4l0.7-0.3l1.5-0.3l0.8-0.5l0.9-0.7l0.7-0.2l0.7-0.3l0.6-0.6l0.2-1l0.4-0.9L12,25.5l-0.3-1.2l0.2-0.7l0,0
	L11.9,23l0.2-1.2l0.5-0.8l0.8-1l0.2-1.5l-0.1-2.2l-0.2-0.9l-1-1.5l-1-1.2l-0.3-0.9l-0.1-2.7l0-0.2l0.2-2.1l0-2l0-0.5l0-0.7l0.2-0.3
	l0.4-0.2L12,2.9l0.3-0.7l-0.1-0.4l-0.4-0.4l0,0"/>
</svg>
