<?xml version="1.0" encoding="utf-8"?>
<!-- Generator: Adobe Illustrator 25.3.0, SVG Export Plug-In . SVG Version: 6.00 Build 0)  -->
<svg version="1.1" id="Layer_1" xmlns="http://www.w3.org/2000/svg" xmlns:xlink="http://www.w3.org/1999/xlink" x="0px" y="0px"
	 viewBox="0 0 14 52" style="enable-background:new 0 0 14 52;" xml:space="preserve">
<style type="text/css">
	.st0{fill:none;stroke:#4682B4;stroke-width:0.5;stroke-linecap:round;stroke-linejoin:round;}
</style>
<path class="st0" d="M11.8,50.8c0,0-0.2-1.4-0.3-1.8c-0.2-1-0.3-3.2-0.8-4.2c-0.3-0.8-1.5-2-2.1-2.6c-1.2-1.3-3.9-3.8-5.2-5
	c-0.8-0.7-2.7-1.7-3.1-2.6c-0.2-0.5-0.3-1.6,0-2.1c0.2-0.3,1.1-0.5,1.3-0.8c0.5-0.6,1.2-2.1,1.3-2.9c0.2-0.9-0.4-2.7-0.3-3.7
	C2.7,24.8,3,24,3.2,23.7c0.6-1.2,2.7-3,3.4-4.2c0.7-1.3,1.3-4.1,1.8-5.5c0.7-2,2.3-5.9,3.1-7.8c0.5-1.2,1.6-3.7,2.1-5l0,0"/>
</svg>
