<?xml version="1.0" encoding="utf-8"?>
<!-- Generator: Adobe Illustrator 25.3.0, SVG Export Plug-In . SVG Version: 6.00 Build 0)  -->
<svg version="1.1" id="Layer_1" xmlns="http://www.w3.org/2000/svg" xmlns:xlink="http://www.w3.org/1999/xlink" x="0px" y="0px"
	 viewBox="0 0 200 200" style="enable-background:new 0 0 200 200;" xml:space="preserve">
<style type="text/css">
	.st0{fill:none;stroke:#4682B4;stroke-width:0.5;stroke-linecap:round;stroke-linejoin:round;}
</style>
<path class="st0" d="M5,148.2c0,0,16.9-5.6,22.4-7.8c4.5-1.8,13.2-5.8,17.5-7.8c2.7-1.2,8.8-2.7,10.7-4.9c3.3-3.8,1.8-16.5,5.8-19.5
	c4.5-3.3,16.9,0.8,22.4,0c5-0.7,14.8-3.8,19.5-5.8c6.2-2.7,17.7-10,23.4-13.6c3.2-2.1,9.2-7,12.7-8.8c3.2-1.7,10-4.5,13.6-4.9
	c6.1-0.7,18.2,2.6,24.4,2.9c3.2,0.2,10,1.7,12.7,0c2.5-1.6,5.1-7.8,4.9-10.7c-0.2-3.2-4.4-8.6-6.8-10.7c-2.2-1.9-8-3.7-10.7-4.9l0,0
	"/>
</svg>
