<?xml version="1.0" encoding="utf-8"?>
<!-- Generator: Adobe Illustrator 25.3.0, SVG Export Plug-In . SVG Version: 6.00 Build 0)  -->
<svg version="1.1" id="Layer_1" xmlns="http://www.w3.org/2000/svg" xmlns:xlink="http://www.w3.org/1999/xlink" x="0px" y="0px"
	 viewBox="0 0 102 600" style="enable-background:new 0 0 102 600;" xml:space="preserve">
<style type="text/css">
	.st0{fill:none;stroke:#E42A29;stroke-width:0.5;stroke-linecap:round;stroke-linejoin:round;}
</style>
<path class="st0" d="M99.6,15c0,4-2.8,11.6-3.9,15.5C94.6,34.6,92.8,43,91,46.8c-1.5,3.2-6.2,8.7-8.2,11.6c-1.6,2.3-5.1,6.8-6,9.5
	c-0.8,2.2-1.1,7.1-1.3,9.5c-0.3,4.1,1.9,12.8,0,16.3c-1.4,2.6-7.3,5-9.9,6.5c-2.5,1.4-8.6,2.9-10.3,5.2c-1.8,2.5-1.2,9.1-2.2,12
	c-1,3.3-4.8,9.2-5.6,12.5c-1.1,4.4-0.7,13.6-0.9,18.1c-0.2,5.3,0.5,16-0.9,21.1c-0.7,2.5-3.8,6.7-4.7,9c-1.5,3.9-3.2,12.3-4.3,16.3
	c-0.6,2.3-2.3,6.7-2.6,9c-0.6,4.9,0.9,19.8,0.9,19.8l0,0l0.9,26.2l3.4,15.5c0,0,6.8,11.9,6.9,16.3c0.1,5-6.1,14-6.9,18.9
	c-0.8,5.1,1.4,15.5,0.9,20.6c-0.4,3.5-2.9,10.3-3.4,13.8c-0.5,3.4,0.4,10.5-0.9,13.8c-0.9,2.3-5.2,5.4-6,7.7c-1,3.1,0.2,9.7,0,12.9
	c-0.3,6.9-0.1,21.1-2.6,27.5c-0.8,2-4.4,4.9-5.2,6.9c-1.3,3.2-1,10.4-1.7,13.8c-0.8,3.9-2.9,11.7-4.3,15.5c-1.2,3.3-5.5,9.4-6,12.9
	c-0.7,5.2,2.3,15.5,3.4,20.6c1.8,8.3,8.1,24.3,8.6,32.7c0.2,3.2-1.7,12.9-1.7,12.9s-5.1,16.6-5.2,22.4c0,3.3,3.2,9.7,2.6,12.9
	c-1,5-9.2,12.5-11.2,17.2c-2,4.9-3.2,15.5-4.3,20.6l0,0"/>
</svg>
