<?xml version="1.0" encoding="utf-8"?>
<!-- Generator: Adobe Illustrator 25.3.0, SVG Export Plug-In . SVG Version: 6.00 Build 0)  -->
<svg version="1.1" id="Layer_1" xmlns="http://www.w3.org/2000/svg" xmlns:xlink="http://www.w3.org/1999/xlink" x="0px" y="0px"
	 viewBox="0 0 200 200" style="enable-background:new 0 0 200 200;" xml:space="preserve">
<style type="text/css">
	.st0{fill:none;stroke:#4682B4;}
</style>
<path class="st0" d="M194.1,5l-4,2.2h-8.5l-6.2,3.1l-3.6,5.8l-9.3,12.5l-2.7,7.6v3.6h-7.1l-3.1,4.4l-7.1,6.2l-7.6-0.9l-4-5.3h-9.8
	l-10.2-4l-11.1-0.9l-0.9,0.9L93.5,37l-3.1-1.3l-6.7,2.2l-6.2-3.1l-8.5-2.7l-13.3,1.8l-11.6,4.9v3.6l-3.6,4l-6.7,0.4h-3.1l-3.1,7.1
	l-1.3,5.8l-2.2,7.6l-5.3,11.6l-5.8,12l-5.8,9.3l1.3,3.6l-2.7,8.9l1.8,4l6.7,5.8l8,6.7l2.7,6.2l-1.3,10.7l2.7,4l5.3,11.1l5.3,6.2
	l4.4,10.7l3.6,7.6l1.8,9.3l5.8-7.1l9.3-3.6l8-3.6l11.1-7.6l9.3-8.5l1.8-4l6.2-4l6.7-11.1l2.7-8.5l2.7-6.7l5.3-3.1l6.2-0.9l5.8,2.7
	l5.8,3.1h5.8l8.9-0.4l4,2.7l3.6,1.8l9.3-4l4-0.4h6.7l7.6-5.3l0.9-7.6l-2.7-4.9l3.1-1.8l3.6-3.1l2.7-5.8l0.9-6.2l-3.6-6.2l-5.3-7.6
	l-1.8-11.1l-6.7-5.8l-6.2-8l-4.9-10.7l-2.7-5.8l-1.3-3.1l0,0"/>
</svg>
