<?xml version="1.0" encoding="utf-8"?>
<!-- Generator: Adobe Illustrator 25.3.0, SVG Export Plug-In . SVG Version: 6.00 Build 0)  -->
<svg version="1.1" id="Layer_1" xmlns="http://www.w3.org/2000/svg" xmlns:xlink="http://www.w3.org/1999/xlink" x="0px" y="0px"
	 viewBox="0 0 176 600" style="enable-background:new 0 0 176 600;" xml:space="preserve">
<style type="text/css">
	.st0{fill:none;stroke:#4682B4;stroke-width:0.5;stroke-linecap:round;}
</style>
<path class="st0" d="M171.8,15L171.8,15c-4,2.9-12,8.8-16,11.6c-4.6,3.2-14,9.4-18.7,12.5c-3.8,2.5-11,7.9-15.2,9.8
	c-3,1.3-9.3,3.2-12.5,3.6c-3.8,0.4-11.4-0.6-15.2-0.9c-6-0.4-18-1.6-24.1-1.8c-4-0.1-12.2-1.3-16,0c-3.2,1.1-8.9,5.2-10.7,8
	c-2.8,4.4-4,15.3-4.5,20.5c-0.7,7.5,1.7,22.8,0.9,30.3c-0.5,4.6-3.3,13.4-4.5,17.8l0,0c1.8,5.1,6.4,15.1,7.1,20.5
	c0.8,6.2-1.6,18.7-1.8,25c-0.3,8.2-0.4,24.7,0,33c0.4,8.3,1.9,24.7,2.7,33c0.8,9.1,3.1,27.4,3.6,36.5c0.3,6.5,0.4,19.4,0,25.8
	c-0.4,7.4-3.1,22-3.6,29.4c-0.2,3.6,1.4,11,0,14.3c-1.3,3-6.9,7.3-9.8,8.9c-2,1.1-7,1.4-8.9,2.7c-1.2,0.8-3.2,3.1-3.6,4.5
	c-0.6,2.1-0.2,6.9,0.9,8.9c0.7,1.3,4,2.2,4.5,3.6c0.9,2.3-2.5,7.4-1.8,9.8c0.6,1.8,4.9,3.1,6.2,4.5c1.1,1.2,3.4,3.8,3.6,5.3
	c0.4,3.8-4.2,10.6-5.3,14.3c-1.6,4.8-3.8,14.8-5.3,19.6c-1.7,5.2-5.9,15.4-8,20.5c-1.5,3.4-4.6,10-6.2,13.4
	c-1.3,2.7-4.8,7.8-5.3,10.7c-0.8,4.4,0.1,13.7,1.8,17.8c1.1,2.6,6.7,6.1,7.1,8.9c0.6,3.8-4.4,10.6-5.3,14.3
	c-0.8,3.3-2.3,10-1.8,13.4c0.6,3.6,3.6,10.8,6.2,13.4c2.6,2.6,9.9,5,13.4,6.2c3.9,1.4,13.5,1.1,16,4.5c2.2,2.8,1,10.8,0,14.3
	c-0.9,3.3-5.9,8.4-7.1,11.6c-0.9,2.4-3.9,8.8-1.8,10.3c3.5,2.3,10.6-6.9,14.3-8.9c4.3-2.4,13.3-6.9,17.8-8.9
	c5.7-2.5,17.6-6.1,23.2-8.9c6.6-3.4,20-10.5,25-16c3.3-3.7,6.4-13.5,8.9-17.8c1.6-2.8,6.7-7.5,7.1-10.7c0.6-5.2-7.4-14.4-7.1-19.6
	c0.3-5,7.8-13,8.9-17.8c1.6-6.9,0.6-21.4,0-28.5c-0.2-2.7-2.1-8-1.8-10.7c0.3-2.4,2.8-6.6,3.6-8.9c1.6-4.8,3.9-14.7,5.3-19.6
	c1.6-5.4,5.5-16,7.1-21.4c2.2-7,6-21.3,7.1-28.5c1-6.6,3.4-20.2,1.8-26.7c-0.6-2.5-4.7-6.4-5.3-8.9c-1.8-6.4-0.3-20.1,0-26.7
	c0.4-8.9,2.7-26.7,3.6-35.7c0.9-8.5,3.6-25.4,3.6-33.9c0-3.6,0.2-11.3-1.8-14.3c-1.4-2.2-7.3-3.3-8.9-5.3c-2.6-3.3-4-12-5.3-16l0,0
	c-1.6-4.6-3.1-14.6-6.2-18.3c-1-1.1-4.8-1.3-5.3-2.7c-1.2-3.1,4-9.2,4.5-12.5c0.5-3.5-1.3-10.7-0.9-14.3c0.6-5.1,4.5-14.8,6.2-19.6
	c2.2-6.1,9-17.6,9.8-24.1c0.4-3.1-1.3-9.4-1.8-12.5c-0.4-3.1-1.2-9.4-1.8-12.5c-0.7-3.6-3.1-10.6-3.6-14.3c-0.2-1.8-0.2-5.4,0-7.1
	c0.2-2,0.8-6.2,1.8-8c0.5-0.8,2-2,2.7-2.7l0,0"/>
</svg>
