<?xml version="1.0" encoding="utf-8"?>
<!-- Generator: Adobe Illustrator 25.3.0, SVG Export Plug-In . SVG Version: 6.00 Build 0)  -->
<svg version="1.1" id="Layer_1" xmlns="http://www.w3.org/2000/svg" xmlns:xlink="http://www.w3.org/1999/xlink" x="0px" y="0px"
	 viewBox="0 0 67 24" style="enable-background:new 0 0 67 24;" xml:space="preserve">
<style type="text/css">
	.st0{fill:none;stroke:#E42A29;stroke-width:0.5;stroke-linecap:round;stroke-linejoin:round;}
</style>
<path class="st0" d="M1.7,23.3c0-0.7,1.5-1.5,2.1-1.9c0.8-0.5,2.6-1.3,3.5-1.6c0.9-0.3,2.8-0.5,3.8-0.7c1.2-0.4,3.6-1.4,4.8-1.9
	c1.2-0.5,3.7-1.4,4.9-1.9c0.9-0.4,2.8-0.9,3.6-1.4c0.7-0.4,1.8-1.5,2.3-2c0.5-0.5,1.1-1.7,1.6-2.2C29,9,31,8.2,32,7.9
	c0.8-0.3,2.5-0.5,3.3-0.6c1-0.1,3.2-0.3,4.2-0.4c1.1-0.2,3.4-0.7,4.5-1c1.2-0.4,3.4-1.3,4.5-1.7c1.2-0.4,3.6-1.3,4.8-1.6
	c1-0.3,2.9-0.7,3.9-0.9c1.1-0.2,3.4-0.3,4.5-0.4c0.9-0.1,2.7-0.4,3.6-0.6l0,0"/>
</svg>
