<?xml version="1.0" encoding="utf-8"?>
<!-- Generator: Adobe Illustrator 25.3.0, SVG Export Plug-In . SVG Version: 6.00 Build 0)  -->
<svg version="1.1" id="Layer_1" xmlns="http://www.w3.org/2000/svg" xmlns:xlink="http://www.w3.org/1999/xlink" x="0px" y="0px"
	 viewBox="0 0 78 77" style="enable-background:new 0 0 78 77;" xml:space="preserve">
<style type="text/css">
	.st0{fill:none;stroke:#E42A29;stroke-width:0.5;stroke-linecap:round;stroke-linejoin:round;}
</style>
<path class="st0" d="M75.9,1.9c0,0.8-1.5,1.7-2,2.4c-0.6,0.9-1.3,3.1-2.3,3.7c-0.4,0.2-1.4-0.1-1.8,0.1c-0.5,0.2-1.4,1.1-1.8,1.5
	c-0.4,0.4-1.3,1.3-1.6,1.8c-0.3,0.6-0.4,2.1-0.7,2.8c-0.6,1-3,2.3-3.2,3.5c0,0.4,0.7,0.9,0.7,1.3c0,0.4-0.4,1.2-0.6,1.5
	c-0.2,0.3-0.9,0.6-1.1,0.9c-0.4,0.8,0.3,3-0.2,3.8c-0.4,0.6-2.1,0.7-2.6,1.3c-0.5,0.7-0.8,2.7-0.6,3.6c0.2,0.8,1.9,1.7,2.1,2.5
	c0.5,1.7-0.9,5.3-1.2,7.1l0,0c-0.1,0.9-0.2,2.6-0.5,3.5c-0.3,1-1.2,3.2-2.1,3.9c-0.8,0.6-2.9,0.4-3.9,0.7c-0.9,0.3-2.6,1.4-3.4,2
	c-1,0.8-2.7,2.8-3.4,3.9c-0.4,0.6-1.1,2-1.1,2.8c0.1,0.9,1.6,2.3,1.9,3.2c0.3,1,0.8,3.1,0.4,4.1c-0.5,1-2.8,1.6-3.7,2.3
	c-1.2,0.9-3.5,2.7-4.5,3.8c-0.5,0.6-1.1,2.2-1.8,2.7c-0.9,0.6-3.2,0.5-4.3,0.7c-2.2,0.5-6.4,3.1-8.5,2.4c-1.1-0.4-2-3-2.9-3.8
	c-1.7-1.6-5.7-4-7.9-4.9c-1.5-0.6-4.7-0.8-6.2-1.1c-1.4-0.2-4.1-0.6-5.4-0.8l0,0"/>
</svg>
