<?xml version="1.0" encoding="utf-8"?>
<!-- Generator: Adobe Illustrator 25.3.0, SVG Export Plug-In . SVG Version: 6.00 Build 0)  -->
<svg version="1.1" id="Layer_1" xmlns="http://www.w3.org/2000/svg" xmlns:xlink="http://www.w3.org/1999/xlink" x="0px" y="0px"
	 viewBox="0 0 64 128" style="enable-background:new 0 0 64 128;" xml:space="preserve">
<style type="text/css">
	.st0{fill:none;stroke:#4682B4;stroke-width:0.5;stroke-linecap:round;stroke-linejoin:round;}
</style>
<path class="st0" d="M1.7,124.8c0-0.2,0.7-0.2,0.9-0.2c0.2-0.1,0.6-0.2,0.8-0.3c0.2-0.1,0.7-0.3,1-0.4c0.1-0.1,0.4-0.2,0.5-0.2
	c0.2-0.1,0.6-0.6,0.8-0.7c0.1-0.1,0.4-0.4,0.6-0.5c0.2-0.1,0.6-0.3,0.8-0.4c0.4-0.1,1.2-0.4,1.6-0.5c0.4-0.1,1.3-0.4,1.8-0.5
	c0.3-0.1,0.9-0.3,1.2-0.5c0.2-0.1,0.6-0.3,0.7-0.4c0.2-0.2,0.5-0.6,0.6-0.8c0.1-0.1,0.4-0.4,0.6-0.5c0.2-0.1,0.7-0.4,1-0.4
	c0.2,0,0.7,0,0.9,0c0.3,0,0.8-0.2,1.1-0.2c0.3,0,0.8-0.1,1-0.2c0.2-0.1,0.7-0.3,0.9-0.4c0.3-0.1,0.8-0.3,1.1-0.4
	c0.2-0.1,0.6-0.3,0.8-0.4c0.3-0.1,0.8-0.3,1.1-0.4c0.2-0.1,0.6-0.5,0.8-0.7c0.1-0.1,0.3-0.5,0.3-0.6c0.1-0.5,0.1-1.5,0.1-2.1
	c0-0.7-0.1-2-0.2-2.7c0-0.4-0.2-1.2-0.1-1.6c0-0.1,0.2-0.4,0.2-0.5c0-0.2,0-0.7,0-0.9l0,0c0-0.3,0-0.8,0-1.1c0-0.4,0.1-1.3,0.2-1.7
	c0.1-0.4,0.2-1.2,0.3-1.7c0.1-0.5,0.3-1.4,0.4-1.8c0.1-0.4,0.2-1.1,0.3-1.5c0.1-0.3,0.3-1,0.4-1.4c0.1-0.3,0.4-0.9,0.5-1.2
	c0.1-0.3,0-1.1,0-1.4c0-0.6,0-1.8,0-2.4c0-0.3-0.2-0.8-0.2-1.1c-0.1-0.5-0.5-1.4-0.7-1.9c-0.1-0.3-0.4-1-0.5-1.3l0,0
	c-0.1-0.3-0.4-0.9-0.5-1.2c-0.1-0.3-0.3-0.8-0.3-1.1c0-0.2,0-0.7,0-0.9c0-0.5,0-1.4,0-1.9c0-0.5,0.1-1.4,0.2-1.9c0-0.3,0-0.8,0-1
	c0-0.5,0.1-1.6,0.2-2.1c0-0.4,0.2-1.3,0.2-1.7c0.1-0.5,0.3-1.4,0.2-1.9c0-0.2-0.2-0.7-0.4-0.8c-0.1-0.1-0.3-0.2-0.4-0.2
	c-0.3-0.1-1.1-0.2-1.4-0.2c-0.3,0-1,0.1-1.3,0c-0.3,0-0.8-0.2-1-0.4c0,0-0.1-0.1-0.1-0.2c0-0.2,0-0.5,0-0.6c0.1-0.2,0.4-0.5,0.5-0.7
	c0.1-0.1,0.3-0.3,0.4-0.5c0.1-0.3,0.2-0.9,0.2-1.2c0-0.1,0.1-0.4,0.2-0.5c0.1-0.2,0.5-0.6,0.5-0.6v-0.6l-0.1-1.4l-0.1-0.5v-0.4
	l0.2-0.6c0,0,0.4-0.4,0.4-0.6c0.1-0.3,0-0.8,0-1.1c0-0.1,0-0.3,0-0.4c0.1-0.2,0.5-0.5,0.7-0.7c0.2-0.2,0.4-0.8,0.5-1.1l0,0
	c0.1-0.3,0.3-0.8,0.3-1c0.1-0.3,0-1,0.2-1.2c0.1-0.1,0.4-0.1,0.5-0.1c0.1,0,0.3-0.1,0.4-0.1c0.2-0.1,0.6-0.5,0.7-0.6
	c0.2-0.2,0.5-0.6,0.6-0.8c0.2-0.3,0.4-0.8,0.5-1.1c0.1-0.4,0.3-1.1,0.4-1.5c0.1-0.4,0.2-1.1,0.2-1.5c0-0.4,0-1.2,0.1-1.5
	c0-0.4,0.2-1.3,0.2-1.7c0-0.4,0-1.2,0-1.5c0-0.2,0-0.6,0-0.8c0-0.2,0.3-0.6,0.4-0.8c0.1-0.2,0.1-0.5,0.2-0.7c0-0.1,0-0.4,0-0.5
	s-0.4-0.2-0.4-0.3c-0.1-0.1-0.1-0.3-0.1-0.4c0-0.1,0.2-0.3,0.3-0.4c0.3-0.3,1-0.7,1.3-1c0.3-0.2,0.9-0.6,1.1-0.8
	c0.2-0.2,0.5-0.6,0.6-0.9c0.1-0.3,0.3-0.9,0.4-1.2c0.1-0.2,0.2-0.5,0.3-0.6c0.2-0.2,0.5-0.5,0.8-0.6c0.3-0.1,0.8-0.1,1.1-0.2
	s0.8-0.1,1.1-0.2l0,0c0.3-0.1,0.9-0.2,1.2-0.3c0.2-0.1,0.7-0.1,0.8-0.2c0.2-0.1,0.6-0.5,0.8-0.6c0.2-0.1,0.6-0.4,0.7-0.6
	c0.1-0.1,0.4-0.3,0.4-0.4c0.1-0.3,0-0.9,0-1.1c0-0.4-0.2-1.2-0.2-1.6c0-0.4-0.1-1.2-0.2-1.7c0-0.4,0-1.1-0.1-1.4
	c0-0.4-0.3-1.2-0.2-1.5c0.1-0.2,0.4-0.5,0.5-0.6c0.1-0.2,0.4-0.6,0.5-0.8c0.1-0.2,0.3-0.8,0.5-1c0.1-0.1,0.4-0.3,0.5-0.4
	c0.3-0.2,0.8-0.4,1.1-0.6c0.3-0.2,0.8-0.6,1.1-0.7c0.2-0.2,0.8-0.5,1-0.6c0.2-0.1,0.8-0.4,1-0.5c0.3-0.1,0.9-0.3,1.1-0.4
	c0.2-0.1,0.5-0.3,0.6-0.4c0.1-0.2,0.2-0.6,0.3-0.8c0.1-0.4,0.5-1.1,0.6-1.5c0.1-0.2,0.2-0.6,0.3-0.8c0.1-0.2,0.5-0.5,0.6-0.7
	c0.3-0.3,1-0.8,1.3-1.1c0.3-0.3,0.8-0.9,1.1-1.3l0,0c0.2-0.2,0.5-0.6,0.6-0.7c0.2-0.2,0.7-0.6,0.9-0.8c0.3-0.2,1-0.6,1.3-0.8
	c0.2-0.2,0.5-0.5,0.6-0.7c0.2-0.3,0.4-1,0.6-1.3c0.2-0.4,0.7-1.1,0.9-1.4c0.2-0.3,0.5-1.1,0.7-1.4c0.2-0.3,0.6-0.9,0.8-1.2
	c0.2-0.3,0.5-1,0.7-1.3c0.2-0.3,0.6-0.8,0.8-1.1c0.3-0.3,0.8-1,1.1-1.3c0.2-0.2,0.7-0.4,0.9-0.6c0.3-0.2,0.8-0.5,1-0.6
	c0.3-0.2,0.9-0.5,1.3-0.7c0.2-0.1,0.5-0.3,0.7-0.4l0,0"/>
</svg>
