<?xml version="1.0" encoding="utf-8"?>
<!-- Generator: Adobe Illustrator 25.3.0, SVG Export Plug-In . SVG Version: 6.00 Build 0)  -->
<svg version="1.1" id="Layer_1" xmlns="http://www.w3.org/2000/svg" xmlns:xlink="http://www.w3.org/1999/xlink" x="0px" y="0px"
	 viewBox="0 0 68 169" style="enable-background:new 0 0 68 169;" xml:space="preserve">
<style type="text/css">
	.st0{fill:none;stroke:#E42A29;stroke-width:0.5;stroke-linecap:round;stroke-linejoin:round;}
</style>
<path class="st0" d="M1.8,164.8c0-0.7,0.8-1.9,1-2.5c0.3-0.7,0.8-2.2,1.2-2.8c0.2-0.3,0.9-0.6,1.2-0.8c0.6-0.3,2-0.8,2.7-0.9
	c0.6,0,1.8,0.7,2.3,0.5c0.6-0.2,1.2-1.7,1.7-2c0.5-0.3,1.6-0.6,2.2-0.6c0.7,0,1.9,0.9,2.6,0.8c0.6-0.1,1.7-0.8,2-1.2
	c0.3-0.4,0.4-1.6,0.6-2c0.2-0.4,1.1-1,1.2-1.5c0.3-0.7,0.1-2.2,0.2-2.9c0-0.7,0-2.1,0.2-2.7c0.2-0.4,1-1,1.2-1.5
	c0.3-0.7,0.1-2.2,0.3-2.9c0.3-0.8,1.4-2,1.8-2.7c0.5-1,1.3-3,1.7-4c0.3-0.6,0.5-1.9,1.1-2.3c0.5-0.3,1.7,0.1,2.3,0.2
	c1,0.1,3,0.4,3.9,0.2c0.7-0.2,2-1,2.5-1.5c0.8-0.8,2-2.7,2.6-3.7c0.3-0.6,0.6-1.9,0.9-2.5c0.5-0.8,1.8-2,2.3-2.7
	c0.5-0.6,1.3-1.9,1.8-2.5l0,0c0.2-0.4,0.9-1.1,0.9-1.6c0.1-0.6-0.5-1.6-0.7-2.1c-0.2-0.7-1-2-0.9-2.7c0.1-0.5,1-1.3,1.1-1.8
	s-0.9-1.4-0.8-2c0.1-0.6,1.5-1.1,1.7-1.6c0.3-0.6,0.1-2.1,0.2-2.7c0.1-0.9,0.1-2.9,0.8-3.5c0.4-0.4,1.7-0.1,2.1-0.5
	c0.6-0.6,0.5-2.5,0.5-3.4c0-0.8-0.2-2.4-0.4-3.2c-0.2-0.8-1.2-2.3-0.9-3c0.2-0.4,1.3-0.5,1.6-0.8c0.3-0.2,1-0.6,1.2-0.9
	c0.3-0.5,0-1.7,0.4-2.1c0.3-0.3,1.6-0.2,1.7-0.6c0.1-0.6-1.5-1.2-1.7-1.8c-0.1-0.3,0-1.1,0-1.4l0,0c0-0.9-0.4-2.9-0.1-3.7
	c0.1-0.3,0.8-0.8,0.9-1.1c0.3-0.6,0.3-2,0.3-2.7c0-0.6-0.2-1.8,0-2.3c0.2-0.6,1.3-1.5,1.5-2.1c0.3-0.8,0-2.5,0-3.4
	c0-1.2-0.3-3.7,0-4.9c0.2-0.8,1.3-2.2,1.7-2.9c0.2-0.4,0.8-1,0.9-1.4c0.1-0.7-0.5-1.9-0.7-2.6C54.6,56.6,54,55,54,54.2
	c0-0.7,0.5-2.2,0.6-2.9c0.2-0.9,0.7-2.7,0.9-3.6c0.3-1.3,0.6-4,0.9-5.3c0.1-0.5,0.4-1.6,0.5-2.1l0,0c0.4-0.6,1.1-1.9,1.4-2.6
	c0.4-1,1.2-3.1,1.5-4.1c0.3-0.9,0.7-2.6,0.9-3.5c0.3-1.2,0.9-3.4,1.2-4.6c0.3-1.3,1-3.9,1.3-5.2c0.3-1.5,1-4.4,1.2-5.9
	c0.2-1.3,0.5-3.9,0.7-5.1c0.2-1.3,0.7-3.7,0.9-5l0,0"/>
</svg>
