<?xml version="1.0" standalone="no"?><!DOCTYPE svg PUBLIC "-//W3C//DTD SVG 1.1//EN" "http://www.w3.org/Graphics/SVG/1.1/DTD/svg11.dtd"><svg width="581" height="600" version="1.1" xmlns="http://www.w3.org/2000/svg" xmlns:xlink="http://www.w3.org/1999/xlink"><path stroke-width="1" stroke="steelblue" fill="steelblue" d="M504.507440057816,15.000000000465661L508.1085308815818,39.17872053384781L511.70957375573926,73.64622299396433L515.8251129752025,95.76714098313823L524.0561434652191,125.09027574933134L532.2872219046112,154.9278059946373L546.6915372498333,169.84659173013642L566.2402886063792,190.9386653418187L559.038106959546,215.11736013670452L552.8648221043404,243.92606228287332L552.8648221043404,243.92606228287332L548.2346906405874,276.8499776700046L533.315926899435,310.8030571900308L506.56504184473306,356.5882709985599L480.3285572370514,387.9691610778682L466.9530907352455,414.7200678966474L449.4621329626534,441.98542594816536L423.7400967506692,457.93307218444534L416.53791510360315,472.8518375577405L396.474763300037,475.4240302841645L365.09389062947594,472.3374214209616L326.510836311616,467.707448303001L309.01987853925675,470.7940599049907L288.44223039015196,478.51069372030906L252.9458184998948,479.53958112816326L221.0505453827791,480.5684683313593L221.0505453827791,480.5684683313593L203.55939581268467,481.0829964557197L181.4384504246991,471.8230616315268L166.0052382873837,464.1064743241295L138.73990483675152,445.5865843896754L123.82109314599074,433.7544873743318L107.87348056212068,416.26350239641033L84.2091899854131,390.54145204648376L60.03049896215089,371.50715693086386L37.39510517776944,366.87720714486204L22.990789832780138,370.9927308023907L14.759711393387988,384.88261328218505L14.759711393387988,413.1768585362006L19.904147405410185,427.0667415240314L25.56298386421986,440.95664393506013L36.366208385443315,459.4764939029701L45.626135667786,474.9097271980718L52.82831731508486,493.9439835175872L56.943856535013765,508.3483461444266L54.37166250310838,539.7292259391397L40.48174760537222,564.9368106657639L29.67847513454035,583.9710769900121L29.67847513454035,585.0000000004657" /></svg>