<?xml version="1.0" encoding="utf-8"?>
<!-- Generator: Adobe Illustrator 25.3.0, SVG Export Plug-In . SVG Version: 6.00 Build 0)  -->
<svg version="1.1" id="Layer_1" xmlns="http://www.w3.org/2000/svg" xmlns:xlink="http://www.w3.org/1999/xlink" x="0px" y="0px"
	 viewBox="0 0 43 37" style="enable-background:new 0 0 43 37;" xml:space="preserve">
<style type="text/css">
	.st0{fill:none;stroke:#4682B4;stroke-width:0.5;stroke-linecap:round;stroke-linejoin:round;}
</style>
<path class="st0" d="M41.9,35.9c0-0.3-0.1-0.9-0.2-1.2c0-0.3-0.1-1-0.2-1.3c-0.1-0.4-0.2-1.3-0.4-1.7c-0.1-0.4-0.5-1-0.6-1.4
	c-0.1-0.3-0.3-0.9-0.4-1.1c-0.1-0.3-0.1-0.9-0.1-1.1c0-0.2,0.2-0.7,0.2-0.9c-0.1-0.2-0.5-0.6-0.7-0.8c-0.3-0.3-1.2-0.7-1.6-0.9
	c-0.3-0.1-0.8-0.4-1.1-0.5c-0.2-0.1-0.7-0.2-0.9-0.2c-0.3,0-0.9,0.5-1.3,0.5c-0.3,0-0.8,0-1.1-0.1c-0.2,0-0.6-0.2-0.7-0.3
	c-0.2-0.1-0.7-0.4-0.9-0.5c-0.3-0.2-0.9-0.7-1.2-0.8c-0.4-0.1-1.2-0.1-1.6-0.1c-0.7-0.1-2.2-0.3-2.9-0.5c-0.6-0.2-1.7-0.6-2.2-1
	c-0.5-0.4-1.1-1.4-1.5-1.8c-0.3-0.3-1.1-0.7-1.5-1c-0.3-0.3-0.9-0.9-1.3-1.1c-0.3-0.2-0.8-0.7-1.1-0.8c-0.4-0.2-1.4-0.3-1.8-0.4
	c-0.7-0.1-2.2,0-3,0c-0.3,0-0.9,0.1-1.2,0c-0.3-0.1-0.7-0.7-0.9-1c-0.4-0.4-1.1-1.3-1.5-1.8c-0.4-0.4-1.2-1.3-1.6-1.8
	c-0.5-0.5-1.4-1.4-1.9-1.8C6.5,10.1,5.5,9.4,5,9l0,0C4.7,8.7,4.1,8.2,3.8,8c-0.3-0.3-1-1.1-1.4-1.2C2.1,6.6,1.3,6.9,1.1,6.6
	C1,6.5,1.1,6.3,1.2,6.2c0.3-0.3,1.3,0.2,1.7,0.2c0.3,0,0.8-0.2,1-0.3C4.4,5.9,5.5,5.5,6,5.4C6.3,5.2,6.9,5,7.2,4.9
	C7.7,4.8,8.5,4.6,9,4.5c0.3-0.1,0.8-0.3,1.1-0.4c0.3-0.1,1-0.4,1.3-0.5c0.4-0.2,1.2-0.7,1.6-1c0.2-0.1,0.7-0.5,0.9-0.6
	c0.2-0.2,0.7-0.5,1-0.7c0.1,0,0.2-0.1,0.3-0.2l0,0"/>
</svg>
