<?xml version="1.0" encoding="utf-8"?>
<!-- Generator: Adobe Illustrator 25.3.0, SVG Export Plug-In . SVG Version: 6.00 Build 0)  -->
<svg version="1.1" id="Layer_1" xmlns="http://www.w3.org/2000/svg" xmlns:xlink="http://www.w3.org/1999/xlink" x="0px" y="0px"
	 viewBox="0 0 54 77" style="enable-background:new 0 0 54 77;" xml:space="preserve">
<style type="text/css">
	.st0{fill:none;stroke:#E42A29;stroke-width:0.5;stroke-linecap:round;stroke-linejoin:round;}
</style>
<path class="st0" d="M52.8,1.9c0,0.9-1.7,2.3-2.3,2.9c-0.5,0.4-1.6,1.1-2.1,1.5c-0.8,0.7-2.5,2.2-3.1,3.1c-0.3,0.5-0.5,1.8-0.8,2.3
	c-0.4,0.7-1.6,1.9-2.2,2.6l0,0c0.1,0.4,0.4,1.3,0.3,1.7c-0.1,0.3-0.5,0.9-0.8,1.2c-0.2,0.2-0.8,0.4-0.9,0.7c-0.1,0.3,0.1,1,0.1,1.3
	c0,0.4,0.1,1.3-0.1,1.6c-0.3,0.5-1.7,0.7-2.1,1.2c-0.2,0.3-0.2,1.2-0.3,1.5s-0.4,1.2-0.3,1.5c0.1,0.4,0.7,0.9,1,1.2s0.9,0.8,1,1.2
	c0.2,0.8-0.8,3.3-0.8,3.3s-0.1,2.1-0.3,2.8c-0.1,0.7-0.6,2.1-0.8,2.8C38,37,37.8,38.6,37.2,39c-0.5,0.5-2.1,0.4-2.8,0.6
	c-0.4,0.1-1.2,0.2-1.6,0.4c-0.6,0.3-1.7,1.1-2.3,1.6c-0.5,0.4-1.2,1.5-1.7,2c-0.3,0.3-1,0.9-1.2,1.3c-0.1,0.2,0,0.6-0.1,0.8
	c-0.1,0.3-0.3,1-0.4,1.3l0,0c0.1,0.3,0.3,0.9,0.4,1.3c0.2,0.5,0.8,1.3,0.9,1.8c0.1,0.5,0,1.4,0,1.9c0,0.3-0.1,1-0.3,1.3
	c-0.3,0.5-1.4,1.2-1.8,1.6c-0.7,0.6-2.1,1.7-2.8,2.2c-0.4,0.3-1.3,0.7-1.7,1.1c-0.5,0.5-1,2.1-1.6,2.5c-0.4,0.2-1.4,0.1-1.8,0.2
	c-0.4,0.1-1.4,0-1.8,0.3c-0.5,0.3-1,1.6-1.3,2.1c-0.4,0.7-1.3,2.1-1.8,2.7c-0.4,0.5-1.5,1.4-2,1.8c-0.6,0.5-1.7,1.7-2.3,2.1
	c-0.4,0.3-1.5,0.4-1.9,0.7c-0.6,0.4-1.4,1.5-1.9,2c-0.7,0.6-1.9,1.9-2.8,2.3c-0.3,0.2-1.1,0.3-1.5,0.3l0,0"/>
</svg>
