<?xml version="1.0" standalone="no"?><!DOCTYPE svg PUBLIC "-//W3C//DTD SVG 1.1//EN" "http://www.w3.org/Graphics/SVG/1.1/DTD/svg11.dtd"><svg width="324" height="307" version="1.1" xmlns="http://www.w3.org/2000/svg" xmlns:xlink="http://www.w3.org/1999/xlink"><path stroke-width="1" stroke="#4682b4" fill="steelblue" d="M102.80769309326479,205.80372645410716L105.28263276115013,204.56625666676518L106.3551066773066,201.76132498606603L108.74754829618905,197.8839194464781L113.11994176952567,193.51152593180905L113.69742775210534,192.35655410868276L114.43990971254425,190.70659426137354L115.09989362397982,188.89163847878626L113.53243177424656,186.58169474228907L111.63497796879437,182.86928521955906L110.3975081949252,181.96180739488955L110.56250417278397,179.98185567768905L110.23251221706641,177.17692397988776L108.33505841161423,176.10445005422844L105.77762069472692,174.53698823088234L105.20013483229377,171.07207277192902L104.95264080543211,170.7420808060433L102.89019066168157,165.95719709355944L101.48772478980709,162.73977542767898L96.86783740975488,159.85234572681384L90.92798208668455,155.14996036206048L86.72058459120672,152.34502865666946L82.67818319373418,153.8299924922012L81.27571732185925,154.40747841383381L79.54325949426675,152.427526607431L78.55328362711225,151.52004882593883L78.55328362711225,148.71511710840423L78.55328362711225,148.71511710840423L77.48080947066319,141.95028215799266L78.0582953330968,137.57788860895198L79.54325913382718,135.84543078536626L80.36823902312244,133.78298116260612L80.28574109426563,130.1530695754218L81.19321903256423,129.08059562400558L82.84317881115385,127.01814595915766L83.00817478901308,124.87319814821785L82.01819892185858,123.7182262572187L79.21326717810916,123.38823444117406L75.50085761620858,123.55323042842792L75.50085761620858,123.55323042842792L72.44843196574357,121.8207726923547L69.31350826627659,119.84082092275548L67.00356457625048,117.69587311150826L65.51860077551919,114.06596164456641L66.42607871381688,111.83851590307586L66.67357262053201,109.44607417596308L68.6535243548401,107.46612239470869L69.80849619985338,105.89866053165952L70.55097816029183,102.35124705641283L69.23101033742023,100.61878917372997L65.8485927312372,94.92642790899481L62.54867317405706,89.64655653727368L59.57874545244886,85.60415514921988L58.50627165643846,82.13923944064118L58.50627165643846,82.13923944064118L55.70133955224992,78.50932767778158L57.59879335770165,75.62189801754994L59.49624716315293,72.89946425330709L60.40372498130455,67.94958488782504L63.53864856062546,65.88713523134538L64.44612649892315,64.89715934444212L66.83856823795213,64.56716728283573L66.83856823795213,64.56716728283573L68.4885280165422,63.16470146494612L70.13848779513182,60.9372557490351L69.72599791055791,57.307344286089574L69.06601399912188,53.18244466300348L66.83856823795213,49.47003522481464L66.83856823795213,46.747601539935204L68.07603801182131,43.777673936424435L69.72599791055791,39.73527243134413L70.79847170656831,37.342830744282764L72.28343550729869,35.52787482273925L74.92337127319024,32.227955242192365L74.92337127319024,32.227955242192365L75.25336431022515,28.598043636512557L77.72830397811049,27.690565707698624L82.01819940244422,26.04060597064108L83.58566125217794,23.400670253658973L85.97810299120692,22.90568226636242L91.1754763538388,21.915706437686822L96.53784569432946,21.00822852751662L99.01278536221525,20.513240547607893L102.14770894153617,19.028276728739L105.61262447657509,16.88332913553768L110.56250393249138,14.325891362604125L113.61492958295639,12.345939678944887L118.2348169630086,9.788501861959048L120.95725065775514,8.881024105005054L125.824632064669,7.643554177858277L131.3519973830189,8.056044118819045L136.79686465236637,8.056044118819045L141.08676019684708,8.881024105005054L144.96416573660645,11.520959673927791L147.27410942663255,14.160895375109249L148.75907322736384,17.625810965797427L150.3265350770971,21.750710507882104L150.3265350770971,21.750710507882104L150.40903372683215,24.720638278804472L151.56400557184543,27.773063905323397L153.7089532840123,32.722943299910185L156.01889709418492,40.23026032544021L158.4938367620698,46.830099597942535L159.23631860236173,48.56255735575269" /><path stroke-width="1" stroke="#4682b4" fill="steelblue" d="M162.12374779438187,50.047521182441415L162.2062458433852,54.58491062133908L162.37124182124398,61.102251911074745L164.4336916045545,64.07217955963097L164.7636835602725,65.63964137849962L166.82613322343695,69.68204273898209L170.2910488786224,74.71442017985828L171.19852669677402,80.32428350252576L172.1885025639276,86.51163272428494L172.1885025639276,86.51163272428494L174.25095294797075,89.60530705558813L175.5709207708428,91.25526693616939L175.5709207708428,94.2251944926129L174.25095294797075,95.71015827474275L173.26097708081625,98.18509801540677L173.75596501439395,100.16504981878006L175.40592479298402,103.62996533354908L177.71586848300967,105.77491316279611L179.53082423945898,106.26990107661277L182.33575586306188,106.92988491174674L188.60560314185068,109.89981254110353L192.89549856618487,112.86974028218356L194.38046248706223,113.69472012792903L194.05047053134376,115.50967591553399L192.56550661046685,118.6445995312215L189.76057498686396,120.12956336499155L187.61562727469664,121.44953117043951L189.76057498686396,122.2745110493779L195.20544237635704,122.76949894525023L197.3503900885239,121.11953921278291L200.6503096457045,120.29455930194581L206.75516094663408,118.97459149909355L209.39509659237774,120.12956336499155L214.1799800704357,121.77952310699402L217.80989158333387,122.76949894525023L221.6047990740908,124.91444678917014L228.0396423307384,128.37936227514638L233.4845096000854,132.00927389268782L239.2593689452974,136.29916936918016L243.54926436963115,139.9290808492151L244.5392402367852,141.57904064379727L247.67416393625263,141.24904873730975L248.4991438255479,142.23902457852546L248.33414784768866,143.064004478053L249.65411567056117,144.38397228349004L249.65411567056117,144.38397228349004L251.96405851956206,148.01388360928559L254.43899818744694,151.31380317436196L256.5839460197608,154.11873484233547L260.2138575326585,156.59367462852242L261.53382535553055,158.0786384266612L262.35880524482536,159.8935942353919L261.3688293776713,162.36853380344928L261.69882133338933,165.83344942100484L262.6887972005434,167.81340122188703L265.16373686842826,168.96837305947338L265.65872480200596,172.10329661137803L268.1336645900378,173.09327259586917L271.1035921914995,174.57823645224016L274.40351174867965,175.4032163322745L277.5384354481471,175.89820419131865L281.9933268503405,180.35309564148793L284.4682665182254,182.993031348994L284.96325445180264,184.8079871401851L285.9532303189558,188.43789868982913L287.76818607540554,190.41785041842923L291.3980977084502,192.23280614869236L293.70804139847587,193.88276608151955L296.8429649777968,198.33765748379847L303.11281225658604,204.44250873146393L306.907719747343,207.74242833168682L313.34256300399056,212.5273116505632L313.34256300399056,212.5273116505632L314.8275262039888,215.12599839559425L315.89999999999964,218.42591793071188L314.66253022613,219.4983917978625L312.7650764206778,220.07587772584338L309.38265881449615,216.61096209028074L304.5152774075823,215.04350032036928L298.0804342710808,211.0835968082538L295.0280086206162,209.76362904980306L292.3055749258692,205.47373355349373L290.49061916942037,202.75129992305847L286.36571972294496,203.32878584142236L282.07582417846425,203.49378183099543L276.38346288225557,203.32878584142236L272.01106940891896,201.51383002592593L269.61862779003604,200.5238541180479L267.3086839798643,201.6788259534851L263.9262664938278,202.33880987158864L261.61632268365474,204.73125163375153L258.9763870379111,206.6287053852384L255.59396943172806,208.19616715573284L251.30407400739387,208.7736531683504L247.17917444077284,209.76362904980306L243.63176097687665,210.3411149766962L233.31951218047016,209.76362904980306L227.2146609996862,208.52615919674463L227.2146609996862,208.52615919674463L222.26478142362384,209.06239605222527L216.65491817641714,210.2173679419475L210.8800588312056,211.70233169742733L207.5801392740259,213.3522914751993L202.96025189397324,212.5273116505632L201.31029199523755,212.6923075404202L198.17536841591618,214.50726340907113L194.54545690301802,216.15722319924225L192.56550516870993,217.64218701603932L187.4506297349344,217.97217895863196L182.66574637702297,217.31219495231016L178.70584278826072,218.13717494162393L168.971079974433,219.29214673876686L162.0412489043547,218.4671669311174L152.63647804624497,217.97217895863196L144.71667098886655,216.6522110693877L135.80688806433363,215.0022513595577L127.88708112710128,214.177271478713L121.12224591473569,213.0222994935939L118.48231026899157,211.53733569721044L115.51238254738337,211.86732770456547L113.86242276879284,212.6923075404202L112.54245494592124,214.01227537222712L109.90251930017712,212.5273116505632L109.90251930017712,212.5273116505632" /><path stroke-width="1" stroke="#4682b4" fill="steelblue" d="M95.21787666999398,206.09246883400738L91.7529611349546,206.9174487331502L90.92798124565934,209.88737637531176L89.60801342278728,215.49723968092712L87.95805376434373,220.73586180860002L84.82313018502282,231.1306084677526L83.17317064672534,233.23430729926713L82.01819880171297,236.03923886962002L79.21326705796264,237.19421079782478L74.9233716336289,239.0091664945503L70.96346816501273,241.15411429068536L66.01358870909598,241.64910230972146L61.063709373325764,241.9790941251913L59.57874545244886,242.80407408850442L56.77381382884596,246.43398560169953L56.113829917409475,250.3938892006372L55.61884198383268,255.3437685736535L55.61884198383268,258.47869224489114L55.453846005973446,263.0985796380646L54.79386209453742,266.0685072629776L53.96888220524215,269.2034308520133L52.813910360229784,271.5133746193869L51.163950581639256,273.82331824929315L49.019002749325864,274.97829009054203L43.90412743569641,276.6282498879291L39.28424005564466,278.1132137949253L34.66435255544593,279.10318961658595L30.20946115325296,280.91814541210715L27.239533431644304,282.2381133227218L25.094585719477436,283.22808910366075L23.774617896605378,284.5480569720712L23.774617896605378,284.5480569720712" /><path stroke-width="1" stroke="#4682b4" fill="steelblue" d="M8.099999999999454,296.63401219939715L10.574939788031315,297.37649410749236L13.874859345211462,298.5314659392252L16.349799013096344,299.35644582214263L17.422272929253268,298.77895989797616L18.659742703122447,297.6239880128214L19.319726614558476,295.89153022798564L21.382176397869443,291.1891448570095L21.382176397869443,291.1891448570095" /></svg>