<?xml version="1.0" encoding="utf-8"?>
<!-- Generator: Adobe Illustrator 25.3.0, SVG Export Plug-In . SVG Version: 6.00 Build 0)  -->
<svg version="1.1" id="Layer_1" xmlns="http://www.w3.org/2000/svg" xmlns:xlink="http://www.w3.org/1999/xlink" x="0px" y="0px"
	 viewBox="0 0 43 54" style="enable-background:new 0 0 43 54;" xml:space="preserve">
<style type="text/css">
	.st0{fill:none;stroke:#3F9FD8;}
	.st1{fill:none;stroke:#E42A29;}
</style>
<path class="st0" d="M1.2,14.3l0,0.8L1,16.6l0.5,1.2l0.5,1.2l0.8,1.1L3,20.6v0.9l0.4,0.8l0.8,0.9l0.6,0.2l0.5,0.8l0.8,1.4l0,0
	l1.2,0.8l1.4,0.8l1.1,1l1.3,0.4l1,0.7l1.2,0.6l0.6,0.7l0.8,0.7l0.7,0.7v0.5l-0.3,0.8v0.6l-0.2,0.7l-0.1,1.3l0.2,0.9l0.8,1.2l0,0
	l0.2,0.5L15.8,39l0.5,1.1l0,0.5l0.2,0.6l-0.3,0.2l0.2,0.4l-0.2,0.8l0,2.1l-0.3,1l-0.5,1.1l-0.1,0.5l-0.5,1.1l-0.3,0.5l-0.5,0.5
	l-0.5,0.1l-0.2-0.4L13,48.3l-0.7-0.6L12,46.6l-1.2,0.2l-0.5-0.3l-0.9,0L9,46.7l0.1,0.5l0.4,0.5L9.6,48l-0.4,0.7l0,0.6L9.8,50
	l0.2,0.7l-0.5,0.6L9.4,52l0,0.7l0,0"/>
<path class="st0" d="M24.3,44.2l-0.9-0.1l-1.2-0.3l-0.9-0.5L20.5,43L20,42.4l-0.4-0.5l-0.9-0.5l-0.7-0.3l-0.3-0.8l-0.1-0.7l0.1-0.7
	l-0.2-0.5h-0.5l-0.2,0.2L16,38.5l0,0"/>
<path class="st1" d="M42,1.4l-1,0.8l-1.3,1l-1.1,0.8l-1.2,1.2l-1.5,1.4l-1.2,1.1l-1.1,1L33,10l-0.9,1.9l-0.9,2.3l-0.7,1.8l0,0
	l-0.6,1.2l-0.7,1.7l-0.4,1l-0.5,1.8l-0.8,2.2L27,25.2l-0.4,0.6l-0.5,0.9l-0.8,0.5l-1.4,0.9l-1.3,0.7l-1.4,0.6L20.8,30l-1.1,0.3
	l-1.1,0.5l-0.3,1.5l-0.2,1.1l0,0l-0.2,1.2l-0.3,1.4L17.4,37l-0.1,0.9l-0.5,0.8l0,0"/>
</svg>
