<?xml version="1.0" standalone="no"?><!DOCTYPE svg PUBLIC "-//W3C//DTD SVG 1.1//EN" "http://www.w3.org/Graphics/SVG/1.1/DTD/svg11.dtd"><svg width="323" height="600" version="1.1" xmlns="http://www.w3.org/2000/svg" xmlns:xlink="http://www.w3.org/1999/xlink"><path stroke-width="1" stroke="steelblue" fill="steelblue" d="M314.8604325564811,20.50845637116072L304.8450581371144,15.000000000007276L291.3243023063187,15.000000000007276L282.81123441450836,20.50845637116072L282.31046532889013,35.030749641660805L289.3212274224461,48.05073598216768L294.32891463212945,55.562266976518L292.32583974825684,70.08456037318683L291.8250713919333,77.5960911572547L294.82968371774405,81.10147250295631L295.8312211596858,90.11530889582718L299.83737092743104,95.62376524386127L298.83583348549655,101.13222144815518L300.83890836936916,108.64375167237085L299.83737092743104,115.65451412905168L294.82968371774405,124.16758282962473L292.32583974825684,127.1721947612823L293.8281462758059,148.20448170026793L281.30892788694837,174.24445553600526L278.3043155611449,177.74983656797122L275.8004723209524,181.2552172745527L275.29970323533416,192.77289808461865L267.28740369984007,207.79596038988893L252.26434207078637,212.30287856363066L243.75127344967768,216.8097967643189L229.7297492625621,229.8297838478502L233.73589903030734,243.35053931178118L225.222830409195,250.86207081881366L225.222830409195,250.86207081881366L223.7205216937582,268.8897429462668L214.70668471632234,273.89743111251664L210.19976586296252,282.4104999157498L207.19515353714814,295.9312552846568L201.18592888552666,305.94662887406594L200.18439144359218,317.4643075431886L200.18439144359218,328.481221631886L197.68054820339603,333.98967773085315L191.67132355177455,347.0096649517436L188.16594214035285,355.02196409901444L184.66056145822222,364.0358005529124L185.16132981453848,378.0573241068996L178.15056772097887,383.06501338754606L168.13519330161944,388.57346912644425L155.61597491276189,402.0942234182221L145.6006004933879,419.6211277541697L144.5990630514534,425.63035351829967L152.61136258695115,441.1541850067442L153.11213167256574,453.6734031744927L151.60982514501302,459.68262835275164L148.10444373358405,466.1926216074753L136.58676351595932,471.701077867252L132.07984466259222,477.710301462972L127.0721574529125,481.2156836380127L118.05832047548029,485.7226028800287L110.04602093998619,491.7318272123848L105.53910208662273,499.74412554710943L105.53910208662273,499.74412554710943L93.27025146673623,505.37777235471367L84.75718284562754,507.8816162463554L80.25026399226408,510.3854597935642L77.24565166645334,514.8923780753503L72.73873354238458,522.4039088360478L66.7295088907631,529.915440128214L55.71259702945463,540.4315834714398L46.69875932273135,548.4438831091684L38.686459787237254,554.4531076563144L32.17646677929952,557.4577197242943L23.16262907256896,561.4638698361523L13.147254653202253,571.9800134706602L8.1395674435189,578.990775416165L13.147254653202253,583.4976934528859L16.151866979012993,585.0000000000073L16.151866979012993,585.0000000000073" /></svg>