<?xml version="1.0" encoding="utf-8"?>
<!-- Generator: Adobe Illustrator 25.3.0, SVG Export Plug-In . SVG Version: 6.00 Build 0)  -->
<svg version="1.1" id="Layer_1" xmlns="http://www.w3.org/2000/svg" xmlns:xlink="http://www.w3.org/1999/xlink" x="0px" y="0px"
	 viewBox="0 0 265 500" style="enable-background:new 0 0 265 500;" xml:space="preserve">
<style type="text/css">
	.st0{fill:none;stroke:#E42A29;stroke-width:0.5;stroke-linecap:round;stroke-linejoin:round;}
</style>
<path class="st0" d="M258.3,40.8c0-0.7-1.8-1.1-2.4-1.3c-1.3-0.5-4.6-0.3-5.5-1.3c-1.2-1.3-0.8-5.1-1.1-6.8
	c-0.4-2.2-1.1-6.6-1.5-8.8c-0.5-2.5-0.2-8.4-2.2-9.9c-1.3-1-4.8,0.2-6.4,0.2c-1.5,0-4.7-0.2-6.2,0c-2.3,0.3-6.7,1.8-8.8,2.6
	c-2.5,1-6.9,4.2-9.5,4.9c-2.7,0.7-8.4,0-11.3,0c-3.1,0-9.3-0.1-12.4,0.2c-3.1,0.3-9.3,1.8-12.4,2.4c-3.2,0.7-9.4,2.5-12.6,2.9
	c-1.8,0.2-5.3,0.1-7.1,0c-2.5-0.1-7.6-0.6-10.2-0.9c-3.8-0.4-11.7-3.8-15.2-2.2c-1.5,0.7-2.8,4.1-3.8,5.5c-2,3.1-5.9,9.5-7.9,12.6
	c-2.3,3.5-7.5,10.1-9.7,13.7c-1.7,2.7-4.5,8.4-6.2,11c-1.6,2.5-6.4,6.8-7.1,9.7c-0.4,1.8,0.8,5.5,1.1,7.3c0.6,3.5,2,10.4,2.6,13.9
	l0,0c-0.1,0.9-0.2,2.8-0.4,3.8c-0.5,2.1-2.3,6-3.1,7.9c-1.4,3.4-4.4,10-6,13.2c-0.6,1.3-2,3.8-2.6,5.1c-0.8,1.5-2.5,4.3-3.3,5.7
	c-1.3,2.4-3.9,7.2-5.3,9.5c-1.1,1.8-3.7,5-4.6,6.8c-1,2-2,6.3-2.9,8.4c-1.1,2.7-4,7.9-5.1,10.6c-0.5,1.4-1.7,4.2-1.8,5.7
	c-0.1,2.5,1.5,7.3,2.2,9.7c0.8,2.6,2.8,7.6,3.8,10.2c0.9,2.4,3.2,7,3.5,9.5c0.3,2.3-0.6,7-0.7,9.3c-0.1,2.9,0.2,8.8,0.2,11.7l0,0
	c-0.2,1.6-0.5,4.8-0.7,6.4c-0.3,2.7-1.2,7.9-1.5,10.6c-0.2,1.8-0.8,5.3-0.9,7.1c-0.1,3.4,0.5,10.1,0.7,13.5
	c0.2,3.1,0.6,9.4,0.9,12.6c0.3,2.8,1.1,8.3,1.3,11c0.4,4.9,1.3,14.7,0.9,19.7c-0.2,2-1.2,5.8-1.5,7.7c-0.6,3.4-1.1,10.4-2.2,13.7
	c-1.2,3.5-5,9.8-6.8,13c-0.5,0.8-1.4,2.4-2,3.1c-0.4,0.5-1.7,1.2-2,1.8c-0.4,0.9,0.3,3,0,4c-0.3,1.3-2,3.5-2.6,4.6
	c-1.1,1.8-3.2,5.5-4.6,7.1c-1.4,1.5-4.8,3.9-6.6,4.9c-2.6,1.3-9.3,1.4-11,3.8c-0.9,1.2,0,4.3-0.2,5.7c-0.3,2.1-1.4,6.1-1.8,8.2
	c-0.5,2.4-1.1,7.3-1.5,9.7c-0.2,1.3-0.9,3.8-0.9,5.1c0,1.2,0.9,3.6,0.9,4.9c-0.1,2-1.6,5.6-2.2,7.5c-0.4,1.4-1.5,4.3-1.8,5.7
	c-0.3,2.1,0,6.5,0,8.6l0,0c-0.2,1.7-0.6,5-0.7,6.6c0,1.1,0.4,3.3,0.2,4.4c-0.2,1.4-1.3,4.2-1.8,5.5c-0.6,1.7-2,4.9-2.4,6.6
	c-0.5,2.1,0.1,6.5-0.9,8.4c-0.4,0.8-2,1.8-2.6,2.4c-1.3,1.2-3.8,3.7-4.9,5.1c-0.7,0.9-1.7,3-2.2,4c-0.6,1.3-1.8,3.9-2.2,5.3
	c-0.3,0.9-0.6,2.8-0.7,3.8c-0.1,0.6,0.3,1.9,0,2.4c-0.2,0.4-1.2,0.4-1.5,0.7c-0.6,0.6-1.1,2.1-1.3,2.9c-0.3,1,0,3.1-0.4,4
	c-0.3,0.6-1.5,1.5-2,2l0,0"/>
</svg>
