<?xml version="1.0" encoding="utf-8"?>
<!-- Generator: Adobe Illustrator 25.3.0, SVG Export Plug-In . SVG Version: 6.00 Build 0)  -->
<svg version="1.1" id="Layer_1" xmlns="http://www.w3.org/2000/svg" xmlns:xlink="http://www.w3.org/1999/xlink" x="0px" y="0px"
	 viewBox="0 0 365 242" style="enable-background:new 0 0 365 242;" xml:space="preserve">
<style type="text/css">
	.st0{fill:none;stroke:#E42A29;stroke-width:0.7;stroke-linecap:round;stroke-linejoin:round;}
</style>
<path class="st0" d="M355.9,5.9c0,2.5-7.1,2.3-9.4,3c-1.9,0.6-5.8,1.3-7.6,2.3c-1.6,0.9-4.6,3.3-5.3,4.9c-0.5,1.2-0.4,4,0,5.3
	c0.3,1,2,2.4,2.3,3.4c0.4,1.7,0.5,5.7-0.8,6.8c-1.1,0.9-4.3,0-5.7,0c-1.4,0-4.6-0.5-5.7,0.4c-1,0.8-0.7,3.7-1.1,4.9
	c-0.3,0.8-1.2,2.4-1.9,3c-1.3,1.1-4.7,2.7-6.4,2.6c-1.2-0.1-3-1.9-4.2-2.3c-1.6-0.5-5.1-0.6-6.8-0.4c-2.8,0.3-8.4,1.7-11,3
	c-1.6,0.8-4,3.9-5.7,4.5c-0.6,0.2-2.1,0.3-2.6,0c-1.4-0.7-2.5-4.1-3.8-4.9c-0.7-0.4-2.3-1-3-0.8c-0.6,0.2-0.9,2.1-1.5,2.3
	c-0.6,0.2-1.6-1.1-2.3-1.1c-1.2,0-3,1.9-4.2,2.3c-1.5,0.4-4.6-0.1-6,0.4c-2.2,0.7-6.6,2.7-7.9,4.5c-0.7,0.9-0.5,3.6-1.1,4.5
	c-0.8,1.1-3.2,2.7-4.5,3c-1.8,0.5-5.7,0-7.6-0.4c-2-0.4-5.7-2.2-7.6-3c-2.2-1-6.4-3.6-8.7-4.2c-1.6-0.4-4.8-0.6-6.4-0.4
	c-2.9,0.3-8.5,2.7-11.3,3.4c-4.3,1-13,2.2-17.4,3c-3.6,0.7-11.5,0.7-14.4,3c-1.9,1.6-2.8,6.8-3.8,9.1c-1.3,2.9-4.4,8.4-5.7,11.3
	c-0.9,2.1-2.2,6.5-3,8.7c-0.9,2.4-1.8,8.4-4.2,9.4c-0.8,0.4-2.7-0.5-3.4-1.1c-1.9-1.7-3.2-6.9-4.5-9.1c-1.2-1.9-5.3-7.2-5.3-7.2
	s-1.7-1.4-2.3-1.9c-0.5-0.4-1.5-1.1-1.9-1.5c-0.6-0.7-1.1-2.6-1.9-3c-0.5-0.3-1.7,0.2-2.3,0c-2.7-1.1-6.2-6.3-8.3-8.3
	c-0.8-0.8-2.9-2-3.4-3c-0.6-1.3,0.3-4.3,0-5.7c-0.4-1.6-2.2-4.6-3.2-5.9c-1.2-1.6-4.1-4.3-5.5-5.7c-1.4-1.4-4.4-4.1-5.7-5.7
	c-1.4-1.8-3-6.4-4.7-7.9c-1.6-1.5-6-2.8-7.9-3.8c-2.6-1.3-7.9-3.9-10.4-5.5c-1.1-0.7-3.3-2.1-4.2-3c-1-1.1-1.7-4.6-3-5.3
	c-0.9-0.4-3,0.5-4,0.6c-0.8,0.1-2.3,0.3-3,0.2c-0.9-0.2-2.5-1.4-3.4-1.5c-1.4-0.2-4.2,0.7-5.7,0.9c-1.7,0.3-5.1,0.7-6.8,0.9
	c-1.2,0.2-3.6,0.4-4.7,0.9c-0.7,0.3-1.9,1.4-2.5,1.9c-0.6,0.5-1.9,1.6-2.3,2.3c-0.9,1.7-1.1,5.5-1.5,7.4c-0.3,1.5-0.8,4.7-1.5,6
	c-0.8,1.4-3.3,3.5-4.3,4.7c-1.1,1.3-3.3,4.1-4.3,5.5c-0.7,1-2.1,3-2.8,4l0,0c-0.6,1.1-1.8,3.4-2.5,4.5c-0.6,1-2,2.8-2.6,3.8
	c-1.2,1.8-3.8,5.2-4.7,7.2c-0.3,0.7-0.7,2.1-0.9,2.8c-0.4,1.2-1.2,3.7-1.5,4.9c-0.4,1.5-1.1,4.7-1.3,6.2c-0.2,1.4-0.6,4.2-0.8,5.7
	c-0.2,1.9-0.2,5.7-0.4,7.6c-0.1,1.6-0.7,4.8-0.8,6.4c0,0.6,0.3,1.7,0.2,2.3c-0.2,0.7-1.6,1.6-1.7,2.3c-0.1,0.7,1,1.8,1.1,2.5
	c0.3,1.3,0.3,4,0.4,5.3c0,0.7,0.3,2.2,0,2.8c-0.3,0.6-1.4,1.4-1.9,1.9c-1,0.9-3.7,2.3-4.2,3.6c-0.2,0.4,0,1.3,0.2,1.7
	c0.5,0.8,2.3,1.9,3.2,2.3c1,0.4,3.3,0,4.2,0.6c0.8,0.5,2,2.3,2.3,3.2c0.2,0.8,0.1,2.5-0.2,3.2c-0.5,1.3-2.6,3.4-3.8,4.2
	c-1.2,0.8-4.4,0.9-5.3,2.1c-0.3,0.4-0.2,1.4-0.2,1.9c0,0.7-0.3,2.2,0,2.8c0.3,0.7,1.6,1.6,2.3,1.9c0.7,0.3,2.3,0.6,3,0.6
	c1,0,2.8-0.6,3.8-0.8c0.7-0.1,2.1-0.5,2.8-0.6c1,0,2.9,0.2,3.8,0.6c0.6,0.2,1.8,0.9,2.3,1.3c0.7,0.6,1.9,1.9,2.5,2.6
	c0.7,1,1.6,3.1,2.1,4.2c0.2,0.5,0.6,1.4,0.8,1.9l0,0c-0.2,0.7-0.5,2.1-0.9,2.6c-0.4,0.4-1.7,0.7-2.3,0.9c-0.9,0.4-2.6,1.4-3.4,1.9
	c-0.7,0.5-2.1,1.4-2.6,2.1c-0.3,0.4-0.7,1.2-0.8,1.7c-0.2,1,0.1,3,0.4,4c0.1,0.4,0.8,1.1,0.8,1.5c-0.1,0.5-1,1.2-1.3,1.5
	c-0.5,0.5-1.7,1.2-2.1,1.7c-0.7,0.9-1,3.2-1.7,4.2c-0.5,0.7-1.9,1.5-2.5,2.1c-0.9,1-2.2,3.5-2.8,4.7c-0.7,1.5-1.8,4.6-2.3,6.2
	c-0.3,1-0.8,3-0.8,4c0,1.2,0.7,3.5,0.9,4.7c0.3,1.1,0.8,3.4,1.1,4.5c0.4,1.3,1.8,3.8,2.1,5.1c0.2,0.8,0.5,2.6,0.2,3.4
	c-0.2,0.5-1.4,1-1.7,1.5c-0.2,0.4-0.5,1.3-0.6,1.7c-0.3,1.2-0.6,3.6-0.9,4.7c-0.5,1.6-2.1,4.7-2.8,6.2c-0.6,1.3-1.7,3.8-2.3,5.1
	c-0.5,1-2.1,2.8-1.9,3.8c0.3,1.1,2.8,2.1,3.8,2.6c1.1,0.6,3.4,1.7,4.5,2.3l0,0"/>
</svg>
