<?xml version="1.0" encoding="utf-8"?>
<!-- Generator: Adobe Illustrator 25.3.0, SVG Export Plug-In . SVG Version: 6.00 Build 0)  -->
<svg version="1.1" id="Layer_1" xmlns="http://www.w3.org/2000/svg" xmlns:xlink="http://www.w3.org/1999/xlink" x="0px" y="0px"
	 viewBox="0 0 365 600" style="enable-background:new 0 0 365 600;" xml:space="preserve">
<style type="text/css">
	.st0{fill:none;stroke:#E42A29;}
</style>
<path class="st0" d="M9.1,546.1c0-1.5,3.1-3.4,4.3-4.3c1.5-1.1,4.9-2.8,6.7-3.4c2.5-0.8,7.9-2,10.6-1.9c1.4,0.1,4,0.9,5.3,1.4
	c2.9,1.3,8,5,10.6,6.7c2.3,1.6,6.9,5,9.1,6.7c2.2,1.7,7.1,4.8,8.6,7.2c1.1,1.7,1.1,5.9,1.9,7.7c1.5,3.3,6.2,8.9,8.6,11.5
	c1.9,2,5.8,7.3,8.6,7.2c2.2-0.1,5.1-4.3,6.2-6.2c1.2-2,1.8-6.9,2.4-9.1c1-3.6,3.4-10.8,4.3-14.4c0.6-2.3,0.4-7.4,1.9-9.1
	c1.9-2.1,7.9-2.5,10.6-3.4c2.4-0.8,7.3-2.2,9.6-3.4c2.2-1.1,5.8-4.7,8.2-5.3c1.8-0.4,5.4,0.7,7.2,1c1,0.1,3,0.9,3.8,0.5
	c2.8-1.2,5.4-7.2,7.2-9.6c1.1-1.4,2.7-4.9,4.3-5.8c2.2-1.2,7.6-0.2,10.1-0.5c2.5-0.2,7.7-0.7,10.1-1.4c2.3-0.7,6.3-3.8,8.6-4.3
	c1.9-0.4,5.9,1.2,7.7,0.5c2-0.8,4.4-4.6,5.8-6.2c1.5-1.7,3.8-6,5.8-7.2c0.9-0.6,3.3-0.6,4.3-1c2.9-1.1,8.6-3.9,11-5.8
	c1.7-1.3,3.9-5.3,5.8-6.2c2.4-1.2,8.3,0.4,10.6-1c1.7-1,3.2-5.1,4.3-6.7c1.3-1.9,4.6-5.5,5.3-7.7c0.5-1.7-0.4-5.4,0-7.2
	c0.4-1.8,2.2-5,2.9-6.7c1.6-3.6,4.7-10.8,6.2-14.4c2.2-5.1,5.9-15.7,9.1-20.2c2.6-3.6,10-8.8,13-12c2.9-3.1,7.9-10.1,10.6-13.4
	c1.9-2.3,5.8-6.8,7.7-9.1l0,0c1.8-2.6,5.8-7.7,7.2-10.6c2-4,4.7-12.5,5.8-16.8c1.4-5.8,2.1-17.7,3.4-23.5c1.5-7.2,6.7-21.1,8.2-28.3
	c0.8-3.7,1.5-11.2,1.9-14.9c0.7-6.5,1.8-19.4,2.4-25.9c0.9-10,3-29.9,3.8-39.9c0.5-6.4,1.2-19.1,1.9-25.5c0.4-3.9,1.5-11.6,2.4-15.4
	c1-4.5,4.6-13.2,5.3-17.8c0.8-5.2,0.2-15.9,0.5-21.1c0.4-7.7,2.2-23,2.9-30.7l0,0c1-4.8,3-14.4,3.8-19.2c1.1-6.3,2.3-19.1,3.4-25.5
	c1-5.8,3.5-17.3,4.8-23c1.2-5.1,3.9-15.1,5.3-20.2c1.1-4.1,3.6-12.2,4.8-16.3l0,0"/>
</svg>
