<?xml version="1.0" standalone="no"?><!DOCTYPE svg PUBLIC "-//W3C//DTD SVG 1.1//EN" "http://www.w3.org/Graphics/SVG/1.1/DTD/svg11.dtd"><svg width="119" height="600" version="1.1" xmlns="http://www.w3.org/2000/svg" xmlns:xlink="http://www.w3.org/1999/xlink"><path stroke-width="1" stroke="#4682b4" fill="steelblue" d="M9.7424797747517,584.9999999999927L3.1081442457070807,579.1028135305169L8.268182990519563,571.7313300500864L7.531034598403494,555.882640482534L12.691073343215976,542.9825410607154L16.745389768242603,533.0310412134459L18.58826048014089,528.2395759461651L26.696892793417646,524.9224067554751L26.32831886574786,512.0223092182459L34.805525106690766,504.6508264106815L31.488357610556704,496.17361831267044L37.20125805203861,489.53928450525564L42.91415795674402,482.9049507893724L49.91706687668193,480.87778799422813L55.44568062271355,479.58777754964467L60.23714543985625,475.164890580927L65.02860972022245,467.79340702608897L65.02860972022245,458.5790490772888L65.02860972022245,457.4733284058093L67.24005489657065,456.36760647637493L72.03151917693322,449.1804095904372L76.82298399407591,441.9932130210218L77.37584515396884,433.8845805277706L77.92870685063463,425.77594756435064L77.92870685063463,417.29874229199777L84.93161684412553,406.6100870709124L83.08874559544711,399.23860728793807L83.82589398756318,395.92143694985134L82.72017488842539,391.8671224723912L80.69301694430396,391.4985470867796L80.69301694430396,384.4956374744688L78.8501462323984,382.4684791157779L79.21872016007183,380.25703487397186L77.74442337583969,379.88845966095687L78.11299784028233,373.43841213427004L79.21872016007183,364.2240562572515L75.71726543171462,356.6682853751299L71.66294900669163,352.7982570372078L70.55722668690214,345.05819765858905L70.372939454679,339.3452978789319L71.29437507901821,336.58099142449646L73.87439418303984,334.0009718339388L75.53297819949148,333.44811088259667L79.40300739229497,333.07953758867734L83.6416105127646,333.07953758867734L85.48448176144302,332.342388453304L85.85305568911281,328.10378637260874L88.4330753299073,324.78661685401676L91.56595613059471,319.0737179353855L91.56595613059471,316.1251232519462L93.04025452514907,313.7293914352085L94.69883907838084,305.43647085252087L93.2245422941487,302.85645121645575L92.85596782970242,299.35499642678406L91.75024550991657,297.51212537200263L90.46023542113107,290.8777898376138L91.75024550991657,284.4277412096235L95.80456139817034,278.161979804172L98.20029380673441,276.31910868519844L99.3060166633004,272.44907966866595L102.62318415943446,269.6847730181544L104.2817681758861,267.28904073674494L102.25461023176467,261.7604278374056L107.5067928610697,257.89039898564806L112.75897495360914,254.0203698330115L115.89185575429292,251.25606291557415L111.28467870614986,248.03103839246978L106.6775016580068,244.80601364733593L106.6775016580068,244.80601364733593L104.55820036615842,243.23957340067864L102.43889853753353,241.67313276186178L97.09457256050155,243.70029069519296L92.30310774336249,243.88457836265297L90.27594979923379,238.72453911798584L91.19738542357663,236.14451973587347L93.22454336769806,234.30164886642888L95.9888497039392,232.6430650476941L98.56886934473368,230.8001940248687L99.12173050462661,228.22017448936822L97.64743372039811,225.08729416754795L95.9888497039392,222.875848607855L93.59311783214434,222.875848607855L91.01309819134985,221.0329776334729L90.09166256701428,219.37439395514957L91.38167211902328,217.16294888713674L92.85596890325542,215.13579023816783L93.96169175981413,214.21435523440596L95.62027577626941,212.1871969563981L95.25170131182313,206.47429647800527L95.06741461637648,200.2085352383001L95.25170131182313,195.23278345375002L95.25170131182313,187.67701230547755L96.54171140060862,183.06983501014838L97.46314648817133,177.90979604095264L98.38458211251418,172.93404482947517L98.38458211251418,172.93404482947517L101.14888469132711,162.42968002267298L104.83462665190746,155.79534454921304L109.62609093227366,151.00387996523568L109.25751700460387,146.58098947084727L105.2032005795736,144.7381187510291L97.09456826630412,140.31522799503L88.98593595302373,136.26091186377016L85.30019399244702,135.89233748996776L80.50872917530796,129.2580021944923L74.24296811070599,128.15227972808862L63.922890084308165,128.15227972808862L59.49999973161175,125.20368619150759L57.28855455526718,121.51794410334696L56.551406163151114,115.25218218313603L56.551406163151114,110.82929213337047L51.022793490668846,107.14354979039854L51.022793490668846,103.45780795885003L53.60281259469048,100.14064015541226L53.97138705913312,95.71774983455543L53.60281259469048,90.1891370120029L51.022793490668846,87.60911737601054L52.86566420257441,84.29194947570431L60.23714812372782,78.02618853296735L64.66003847642423,70.28612977960802L66.50290972510265,65.86323971877573L64.29146454875809,60.70320110556713L63.922890084308165,56.64888446563418L68.71435490145086,52.22599398321836L70.92580007779907,47.434529328875215L71.29437454224535,40.431619910021254L71.29437454224535,35.64015551407647L72.40009686202757,30.848690600832924L76.08583882260791,25.32007763785441L78.29728399895612,20.897187260561623L79.77158078318826,17.948593784061813L85.30019399244702,14.999999999992724L85.6687679201168,15.737148614254693" /></svg>