<?xml version="1.0" encoding="utf-8"?>
<!-- Generator: Adobe Illustrator 25.3.0, SVG Export Plug-In . SVG Version: 6.00 Build 0)  -->
<svg version="1.1" id="Layer_1" xmlns="http://www.w3.org/2000/svg" xmlns:xlink="http://www.w3.org/1999/xlink" x="0px" y="0px"
	 viewBox="0 0 161 242" style="enable-background:new 0 0 161 242;" xml:space="preserve">
<style type="text/css">
	.st0{fill:none;stroke:#E42A29;stroke-width:0.7;stroke-linecap:round;}
</style>
<path class="st0" d="M4.2,6.1c0,3.2,7.6,5.6,10.2,7.4c3.2,2.2,9.6,6.7,13.1,8.5c2.9,1.5,9.1,3.6,12,5.1c3.7,2,13.2,5,14.2,9.1
	c0.5,2-3.2,5.5-4,7.4c-0.5,1.2-1.4,3.8-1.7,5.1c-0.6,2.2-1.2,6.8-1.7,9.1c-0.9,3.9-0.8,13-4,15.4c-1.7,1.3-6.7-1.7-8.5-0.6
	c-2,1.2-3.6,6.2-4,8.5c-0.4,2,0.4,6,0.6,8c0.3,3.4,3.5,10.7,1.7,13.7c-0.8,1.3-4.5,1.3-5.7,2.3c-2.6,2-7.9,7.6-7.4,10.8
	c0.4,2.5,6.1,4.5,8,6.3c4.3,4.1,13.6,12.2,15.9,17.6c1,2.4,0.5,7.7,0.6,10.2c0.2,3.8,0.5,11.5,0.6,15.4c0.1,4.3,0,12.8,0,17.1
	c0,1.3-0.7,4,0,5.1c1.1,1.6,6,1,7.4,2.3c1.6,1.5,1.7,6.5,3,8.3c1,1.4,4.5,2.8,5.5,4.2c1.1,1.4,1.9,5.1,2.8,6.6
	c1.1,1.7,3.8,4.7,5.4,5.8c3.1,2.1,10.7,3.3,13.9,5.2c1.5,0.9,3.6,4.4,5.4,4.6c4.3,0.6,11.6-7.8,15.8-7c2.4,0.5,4.4,6.7,6.8,7
	c2,0.2,4.9-3.5,6.7-4.6c1.7-1,5.2-3.2,7.1-3.6c2.7-0.5,8.3,1,11.1,1.2c4,0.4,12,0.9,15.9,1.1l0,0c1.4,4.3,4.3,12.8,5.7,17.1l0,0"/>
</svg>
