<?xml version="1.0" encoding="utf-8"?>
<!-- Generator: Adobe Illustrator 25.3.0, SVG Export Plug-In . SVG Version: 6.00 Build 0)  -->
<svg version="1.1" id="Layer_1" xmlns="http://www.w3.org/2000/svg" xmlns:xlink="http://www.w3.org/1999/xlink" x="0px" y="0px"
	 viewBox="0 0 600 256" style="enable-background:new 0 0 600 256;" xml:space="preserve">
<style type="text/css">
	.st0{fill:none;stroke:#E42A29;stroke-width:0.5;stroke-linecap:round;stroke-linejoin:round;}
</style>
<path class="st0" d="M15,249.8c0-1.8,3.4-4.4,4.6-5.8c1.1-1.4,3.5-4,4.7-5.4c1.2-1.3,3.5-4,4.7-5.4c1.6-1.8,4.7-5.5,6.3-7.3
	s4.7-5.5,6.3-7.3c2.1-2.4,6.4-7.1,8.5-9.4s6.3-7.1,8.5-9.4c1.5-1.6,4.8-4.6,6.4-6.1c1.6-1.5,4.8-4.6,6.4-6.1c1.4-1.3,4.2-4,5.8-5
	c1.5-0.9,4.8-2,6.4-2.5c1.4-0.4,4.2-0.7,5.6-0.8c0.8-0.1,2.5,0,3.3,0c0.9,0,2.8,0.2,3.7,0.2c1.9-0.1,5.8-0.6,7.7-1
	c1-0.2,2.7-1.1,3.7-1.2c2.4-0.3,7.1,0.8,9.5,1c1.7,0.1,5,0.2,6.6,0.3c1.7,0.1,5,0.8,6.6,0.3c1.3-0.4,3.2-2.7,4.6-3.1
	c2.3-0.7,7.2,0.3,9.5,0c2.1-0.3,6.3-1.3,8.3-2.1c1-0.4,2.8-1.6,3.7-2.1l0,0c1.1-0.3,3.3-1.2,4.5-1.3c1.3-0.1,4,0.3,5.4,0.4
	c1.8,0.1,5.3,0.2,7,0.4c2.8,0.3,8.4,1.2,11.2,1.7c1.9,0.3,5.6,1.1,7.5,1.4c2.8,0.6,8.4,1.7,11.2,2.3c2.5,0.5,7.4,1.4,9.9,1.9
	c2.7,0.5,8.2,1.1,11,1.7c2.6,0.5,7.6,1.7,10.1,2.3c2.1,0.5,6.4,1.4,8.5,1.9c1.8,0.4,5.4,1.1,7.2,1.4s5.6,0.7,7.2,1.4
	c1.7,0.8,4.2,3.7,5.8,4.8c1.9,1.2,6,3.2,8.1,4.1c0.8,0.4,2.4,1.4,3.3,1.4c1.5,0,4.2-1.5,5.6-2.1c1.3-0.5,3.6-2,5-2.1
	c1.3,0,3.6,1.7,5,1.9c1.7,0.2,5-0.7,6.6-1c2-0.4,5.9-1.4,7.9-2.1c2-0.7,6-2,7.7-3.3c1.1-0.8,2.4-3.4,3.3-4.3
	c1.4-1.5,4.5-4.2,6.2-5.2c1.7-1,5.6-2,7.5-2.7l0,0c2.1-0.8,6.4-2.5,8.5-3.3c3.2-1.2,12.6-5,12.6-5l14.7-6.6l12-5.4l10.8-4.3l9.3-6.6
	l8.5-6.6l9.9-7.9c0,0,4.2-1.3,5.6-1.7c1.9-0.5,5.5-1.8,7.5-1.9c1.4,0,4.2,0.9,5.6,1c1.9,0.2,5.6,0.5,7.5,0.2
	c1.3-0.2,3.9-1.2,5.2-1.7c1.7-0.7,5.1-2.2,6.6-3.1c1.7-1,4.4-4,6.2-4.8c2-0.8,6.4-0.6,8.5-1c2.6-0.6,7.6-2.5,10.1-3.1
	c2.8-0.7,8.6-1.4,11.4-2.3c1.6-0.5,4.5-2.1,6-2.9c2-1.1,6-3.5,7.9-4.8c1.3-0.9,3.7-2.9,5-3.9l0,0c1.2-1.2,3.7-3.4,4.8-4.8
	c1.9-2.5,4.6-8.3,6.2-11c1.5-2.6,4.9-7.5,6.4-10.1c1.1-1.8,3-5.6,3.9-7.5c1.4-2.9,3-9.5,5.2-11.8c1-1,3.7-1.9,5-2.5
	c1.4-0.6,4.2-1.6,5.6-2.3c1.7-0.8,5-2.5,6.4-3.7c1.4-1.2,3.7-4.1,4.8-5.6c0.5-0.7,0.9-2.6,1.7-3.1c0.8-0.6,3.1-0.2,3.9-0.6
	c0.8-0.4,1.8-2,2.5-2.7c1-1,2.8-3.1,3.9-3.9c0.7-0.6,2.5-1.2,3.1-1.9c0.5-0.7,0.9-2.5,1-3.3c0.1-0.8,0-2.5-0.2-3.3
	c-0.2-0.8-1.1-2.1-1-2.9c0-0.9,0.9-2.6,1.4-3.3c0.6-0.8,2.3-2,3.1-2.7c0.8-0.6,2.3-2.1,3.3-2.5c0.6-0.2,2,0,2.7-0.2
	c0.6-0.2,1.7-0.6,2.1-1c0.5-0.5,0.9-2,1-2.7c0.1-0.3,0-0.9,0-1.2"/>
</svg>
