<?xml version="1.0" encoding="utf-8"?>
<!-- Generator: Adobe Illustrator 25.3.0, SVG Export Plug-In . SVG Version: 6.00 Build 0)  -->
<svg version="1.1" id="Layer_1" xmlns="http://www.w3.org/2000/svg" xmlns:xlink="http://www.w3.org/1999/xlink" x="0px" y="0px"
	 viewBox="0 0 600 237" style="enable-background:new 0 0 600 237;" xml:space="preserve">
<style type="text/css">
	.st0{fill:none;stroke:#E42A29;stroke-width:0.5;stroke-linecap:round;stroke-linejoin:round;}
</style>
<path class="st0" d="M15,166c0,2,2.3,5.6,3.1,7.5c0.4,0.9,1.3,2.5,1.7,3.4s1.3,2.5,1.7,3.4c0.4,1.1,1,3.5,1.3,4.7
	c0.3,1.2,1,3.5,1.3,4.7c0.3,1.1,0.8,3.4,1.1,4.6s0.8,3.4,1.1,4.6c0.4,1.7,0.8,5.1,1.4,6.7c0.2,0.5,0.6,1.4,1,1.7
	c1,0.8,3.6,1.3,4.8,1.4c1.7,0.2,5.1-0.1,6.7,0c1.2,0.1,4.7,0.6,4.7,0.6s3.5,0.8,4.7,0.6c2.1-0.3,5.7-2.8,7.7-3.4
	c2.6-0.7,8.1-1,10.8-1.4c3.1-0.5,9.3-1.5,12.3-2.4c2.4-0.7,6.9-3.5,9.4-3.9c3.1-0.4,9.2,0.9,12.3,1.2c3.3,0.3,10,0.9,13.3,1.4
	c2.7,0.4,8,1.6,10.6,2.2c2.9,0.6,8.7,2,11.6,2.7c3.8,0.9,11.4,2.8,15.2,3.6c3.5,0.7,10.5,1.8,14,2.4c2.9,0.5,8.7,1.4,11.6,1.9
	c3.2,0.6,9.6,2.2,12.8,2.9c2.6,0.5,8.1,0.8,10.6,1.9c2,0.9,5,4.1,6.7,5.3c2.6,1.8,8,5.1,10.6,6.7l0,0c0.8-0.4,2.3-1.1,3.1-1.4
	c2.5-1,7.5-3.3,10.1-3.4c1,0,2.9,0.7,3.9,1c1,0.3,3,1.2,4.1,1.2c2.1,0,6-1.6,8-2.2c3.2-1,9.6-3.2,12.8-4.3c0.8-0.3,2.6-0.7,3.4-1.2
	c1.1-0.8,2.7-3.1,3.6-4.1c1.7-1.8,5.2-5.4,7.2-6.7c2.1-1.4,6.9-2.9,9.2-3.9c3.8-1.6,11.4-4.8,15.2-6.3c3.7-1.4,11.1-4.1,14.7-5.5
	c3.5-1.4,10.3-4.6,13.7-6c3.4-1.4,10.3-4,13.7-5.3c3.1-1.2,9.4-3.2,12.3-4.8c2.3-1.4,6.3-5.1,8.4-6.7c2.2-1.7,6.7-4.9,8.9-6.5
	c2-1.5,6-4.5,8-6c1.7-1.4,4.8-4.5,6.7-5.5c1.6-0.9,5-1.9,6.7-2.4c2.3-0.7,6.8-2.6,9.2-2.7c1.6,0,4.5,1.5,6,1.7
	c2,0.3,6.2,0.6,8.2,0.2c1.5-0.3,4.4-1.6,5.8-2.2c2.4-1,7.2-3.1,9.6-4.1l0,0c1.4-0.9,4-3,5.5-3.6c2.7-1.1,8.5-1.9,11.3-2.7
	c2.6-0.7,7.7-2.5,10.4-3.1c2.6-0.7,8-1.7,10.6-2.4c2-0.5,5.9-1.6,7.7-2.4c1.1-0.5,3.3-1.8,4.3-2.4c3-1.7,9.2-4.9,11.8-7.2
	c1.5-1.4,3.9-4.8,5.1-6.5c1-1.5,2.9-4.5,3.9-6c1.5-2.3,4.6-6.8,6-9.2c2-3.4,5.4-10.7,7.2-14.2c1.4-2.7,4.1-8.2,5.5-10.8
	c1-1.9,2.9-5.9,4.3-7.5c1.1-1.2,3.9-3,5.3-3.9c2.2-1.3,6.9-2.9,9.2-4.1c2.1-1.1,6.5-3.3,8.2-5.1c1.5-1.6,2.5-6.5,4.3-7.7
	c1.1-0.7,4-0.1,5.1-0.7c1.3-0.8,2.7-3.8,3.9-4.8c1.9-1.6,7.1-3,8.4-5.1c1-1.5,1.4-5.5,1-7.2c-0.2-1-2.2-2.4-2.2-3.4
	c0-1.8,2.6-4.7,3.9-6c1.1-1.2,3.8-3.1,5.3-3.6c1-0.3,3.4,0.5,4.3,0c1-0.5,2.3-2.6,2.7-3.6c0.4-1.1,0.2-3.4,0.2-4.6l0,0"/>
</svg>
