<?xml version="1.0" encoding="utf-8"?>
<!-- Generator: Adobe Illustrator 25.3.0, SVG Export Plug-In . SVG Version: 6.00 Build 0)  -->
<svg version="1.1" id="Layer_1" xmlns="http://www.w3.org/2000/svg" xmlns:xlink="http://www.w3.org/1999/xlink" x="0px" y="0px"
	 viewBox="0 0 324 455" style="enable-background:new 0 0 324 455;" xml:space="preserve">
<style type="text/css">
	.st0{fill:none;stroke:#E42A29;}
</style>
<path class="st0" d="M315.9,11.2c0,3.8-8.7,7.5-11.3,10.3c-4.9,5.3-13.8,16.6-17.8,22.5c-5.3,7.8-11.9,26.3-18.8,32.8
	c-5.9,5.7-21.9,11.1-29.1,15c-11.4,6.3-33.4,20.4-45,26.3c-8,4-24.4,11-32.8,14.1c-13.8,5-46.2,6.2-56.3,16.9
	c-4.1,4.4-4.3,17.6-5.6,23.5c-2.3,10.7-6.4,32.4-8.4,43.2c-1.9,9.8-3.8,30.1-7.5,39.4c-1.9,4.9-8.4,13.4-11.3,17.8
	c-3.7,5.9-11.4,17.5-15,23.5c-3.9,6.5-12,19.3-15,26.3c-1.9,4.3-4.4,13.3-5.6,17.8c-2.7,9.5-6.7,28.9-9.4,38.5
	c-3,10.7-10.2,31.6-13.1,42.2c-1.6,5.6-4.2,16.9-5.6,22.5l0,0"/>
</svg>
