<?xml version="1.0" encoding="utf-8"?>
<!-- Generator: Adobe Illustrator 25.3.0, SVG Export Plug-In . SVG Version: 6.00 Build 0)  -->
<svg version="1.1" id="Layer_1" xmlns="http://www.w3.org/2000/svg" xmlns:xlink="http://www.w3.org/1999/xlink" x="0px" y="0px"
	 viewBox="0 0 394 237" style="enable-background:new 0 0 394 237;" xml:space="preserve">
<style type="text/css">
	.st0{fill:none;stroke:#E42A29;stroke-width:0.5;stroke-linecap:round;stroke-linejoin:round;}
</style>
<path class="st0" d="M9.9,5.9c0,1.1,1.5,2.8,1.8,3.8c0.6,1.6,1.4,4.9,1.8,6.5c0.3,0.9,0.9,2.7,1,3.7c0.1,1.1-0.2,3.3-0.3,4.4
	s-0.3,3.3-0.3,4.4c-0.1,1.3-0.1,3.8-0.1,5.1s0,3.8-0.1,5.1c-0.1,1.3-1.3,4-0.5,5c0.9,1.1,4.1,0.6,5.5,0.8c1.6,0.2,4.9,0.9,6.5,0.8
	c1.4,0,4-0.7,5.3-1c1.7-0.4,5.1-1.6,6.8-1.7c1.1,0,3.1,0.6,4.2,0.7c1,0,3.1,0.1,4-0.3c1-0.4,2.2-2.4,3.2-2.8
	c1.3-0.5,4.1-0.3,5.5-0.3c1.8,0,5.9-0.8,7.3,0.3c0.9,0.7,0.7,3.2,1,4.3c0.3,1.4,1.3,4.1,1.3,5.5c0.1,1.3-0.4,4-0.7,5.3
	c-0.1,0.8-0.8,2.4-0.7,3.2c0.1,1.2,1.4,3.3,2,4.3c0.8,1.5,2.8,4.2,3.7,5.7c0.6,1.1,1.3,3.5,2.2,4.3c0.8,0.8,2.9,1.5,3.8,2l0,0
	c1.2,0.8,3.6,2.5,4.8,3.3c1.5,1,4.5,3,6,4c1.3,0.9,4.4,2.5,5.3,3.8c0.6,1,0.9,3.3,1,4.5c0.1,1.2-0.1,3.7-0.1,4.9s0,3.7-0.1,4.9
	c-0.1,1.9-0.9,5.8-0.5,7.7c0.2,1.1,1.3,3,2,3.8c0.5,0.7,1.7,2,2.5,2.3c1.3,0.5,4.1,0,5.5,0.2c1.6,0.2,4.9,1,6.5,1.3
	c1.9,0.3,5.9,0.7,7.8,1.2c1.7,0.4,5.1,1.3,6.7,2c1,0.5,2.9,1.7,3.8,2.3c0.7,0.6,1.8,2.4,2.7,2.5c1,0.1,2.6-1.4,3.5-1.8
	c1.4-0.8,4.2-2.4,5.7-3.2c1.6-0.8,4.7-2.3,6.3-3c2-0.8,6.2-3.5,8.3-3c0.8,0.2,1.5,1.8,2.2,2.3c0.9,0.7,2.8,1.9,3.8,2.3
	c1.9,0.7,6,1.2,8,1.7c2.3,0.6,7,1.7,9.3,2.5c1.9,0.6,5.5,2.3,7.3,3c2.2,0.9,6.5,2.5,8.7,3.3c1.4,0.6,4.2,2,5.7,2.3
	c1.9,0.4,5.8-0.1,7.7,0.3c1.6,0.4,4.5,2.3,6,3c1.7,0.8,5.1,2.6,7,3c1.5,0.3,4.7-0.1,6.3,0c1.4,0.1,4.3,0.5,5.7,1
	c1.3,0.5,3.4,2.3,4.7,3c1.1,0.6,3.5,1.4,4.7,2c1.7,0.9,4.6,3.4,6.3,4.3c1.4,0.7,4.5,1.8,6,2.3c1,0.4,3.1,1.1,4.2,1.5
	s3.1,1.1,4.2,1.5c1.1,0.5,3.3,1.4,4.3,2c1.3,0.8,3.5,2.7,4.7,3.7c0.8,0.7,2.5,2,3.3,2.7s2.3,2.3,3.3,2.7c1.5,0.6,4.8,0.4,6.3,0.7
	c1.4,0.3,4.3,1.2,5.7,1.7c0.9,0.3,2.7,1.1,3.7,1.5s2.7,1.1,3.7,1.5c1.2,0.5,3.7,1.8,5,2c1.3,0.1,3.9-0.6,5-1.3
	c0.8-0.6,1.5-2.7,2.3-3.3c0.5-0.4,1.7-0.8,2.3-1c0.7-0.3,2.2-1,3-1c1.1-0.1,3.3,0.7,4.3,1c0.9,0.2,2.7,0.8,3.7,1
	c0.7,0.2,2,0.5,2.7,0.7c1.2,0.2,3.6,0.4,4.8,0.5s3.6,0.4,4.8,0.5c1.2,0.1,3.5,0.3,4.7,0.7c0.9,0.3,2.5,1.2,3.3,1.7
	c0.7,0.4,2,1.4,2.7,1.8c0.7,0.5,1.9,1.5,2.7,1.8c1.3,0.6,4.3,1,5.7,1.3c1.2,0.3,3.5,1,4.7,1.3s3.5,1.1,4.7,1.3c1,0.2,3.1-0.1,4,0.3
	c0.7,0.3,1.6,1.9,2.3,2.3c0.9,0.6,3,1.3,4,1.7c0.7,0.3,2.1,0.9,2.8,1.2s2.1,0.9,2.8,1.2c0.9,0.3,2.9,0.9,3.8,1.2s2.9,0.9,3.8,1.2
	l0,0c-0.2,0.8-0.5,2.4-0.8,3.2c-0.5,1.2-1.7,3.5-2.3,4.7c-0.3,0.6-1.2,1.7-1.3,2.3c-0.1,0.5,0.4,1.5,0.2,2c-0.2,0.4-1.3,0.7-1.5,1.2
	c-0.3,0.6,0,1.9,0.2,2.5c0.2,0.8,1,2.2,1,3c0,0.8-0.7,2.2-0.9,2.9c-0.2,0.7-0.7,2.2-0.9,2.9c-0.2,0.7-0.7,2-0.9,2.7s-0.8,2-0.9,2.7
	c-0.3,1.3-0.5,4.1-0.7,5.5c-0.1,0.8-0.1,2.4-0.2,3.2c0,0.4,0,1.3,0,1.7c0.1,1.1,0.4,3.2,0.5,4.2l0,0"/>
</svg>
