<?xml version="1.0" encoding="utf-8"?>
<!-- Generator: Adobe Illustrator 25.3.0, SVG Export Plug-In . SVG Version: 6.00 Build 0)  -->
<svg version="1.1" id="Layer_1" xmlns="http://www.w3.org/2000/svg" xmlns:xlink="http://www.w3.org/1999/xlink" x="0px" y="0px"
	 viewBox="0 0 68 159" style="enable-background:new 0 0 68 159;" xml:space="preserve">
<style type="text/css">
	.st0{fill:none;stroke:#E42A29;stroke-width:0.5;stroke-linecap:round;stroke-linejoin:round;}
</style>
<path class="st0" d="M1.7,155.1c0-0.7,0.6-1.9,0.8-2.5c0.3-0.7,0.8-2.1,1.2-2.8c0.4-0.7,1.2-1.9,1.7-2.5c0.5-0.7,1.7-2,2.2-2.8
	c0.2-0.3,0.6-0.8,0.6-1.1c0-0.4-0.7-0.8-0.8-1.2c-0.1-0.4-0.2-1.4,0-1.8c0.1-0.3,0.7-0.6,1-0.8c0.6-0.4,2-1.1,2.8-1.2
	c0.4,0,1.2,0.3,1.6,0.3c0.2,0,0.8-0.1,1-0.2c0.6-0.3,1.5-1.6,2-2c0.2-0.2,0.7-0.7,1-0.8c0.3-0.1,1,0.2,1.3,0.4
	c0.5,0.2,1.5,0.6,2,0.9c0.5,0.3,1.4,1.3,2,1.2c0.4,0,1.1-0.7,1.4-1c0.7-0.5,2-1.5,2.5-2.1c0.5-0.6,1-2,1.5-2.5
	c0.3-0.3,1.2-0.8,1.7-1c0.5-0.2,1.7-0.4,2.2-0.4c0.4,0.1,1,0.6,1.4,0.7c0.5,0.1,1.7,0,2.2,0.2c0.3,0.1,0.8,0.3,1,0.4
	c0.3,0.2,0.8,1,1.2,1c0.3,0,0.7-0.8,0.9-1.1c0.4-0.5,1-1.7,1.6-2c0.3-0.1,0.9,0.1,1.2,0.1c0.3,0,1.1,0,1.3-0.2
	c0.6-0.4,0.8-2,1.1-2.7c0.3-0.7,0.6-2.2,1.2-2.8c0.2-0.2,1-0.3,1.2-0.5c0.2-0.2,0.3-0.9,0.4-1.2c0.1-0.5-0.2-1.4-0.1-1.9
	c0.1-0.5,0.9-1.4,1.2-1.9c0.2-0.5,0.7-1.5,0.8-2c0.2-0.8,0.5-2.5,0.5-3.3c0.1-0.8-0.1-2.3,0-3c0.1-0.4,0.3-1.2,0.5-1.5
	c0.3-0.4,1.4-0.8,1.8-1.1c0.3-0.2,0.8-0.7,0.9-1c0.1-0.2,0.1-0.5,0.1-0.7l0,0c0-0.4,0-1.1,0-1.4c0-1.1-0.4-3.2-0.3-4.3
	c0.1-0.7,0.6-1.9,0.9-2.5c0.5-0.9,1.9-2.3,2.4-3.1c0.2-0.3,0.6-1,0.7-1.3c0.1-0.3-0.1-0.9,0-1.2c0.1-0.4,0.4-1.1,0.6-1.3
	c0.2-0.2,0.8-0.5,1.1-0.6c0.2-0.1,0.8-0.3,1-0.5c0.4-0.4,0.9-1.3,1.2-1.8c0.4-0.6,0.9-1.9,1.5-2.3c0.3-0.2,1.2-0.1,1.5-0.3
	c0.6-0.3,1.2-1.5,1.6-2c0.4-0.6,1.3-1.7,1.6-2.3c0.2-0.4,0.8-1.1,0.6-1.5c-0.1-0.3-0.9-0.5-1.2-0.6c-0.5-0.3-1.5-0.8-2-1.1
	c-0.3-0.2-1.1-0.6-1.3-0.9c-0.4-0.5-0.5-1.8-0.6-2.4c-0.1-0.5-0.2-1.6-0.4-2c-0.5-0.8-2.1-1.8-2.8-2.3c-0.7-0.5-2.1-1.4-2.8-1.9
	c-0.6-0.5-2-1.3-2.5-2c-0.4-0.6-0.8-1.9-1.1-2.6l0,0c-0.3-0.8-1-2.4-1.3-3.2c-0.4-0.9-1.3-2.7-1.5-3.6c-0.2-0.9,0-2.7,0.1-3.6
	c0.1-1,0.4-2.9,0.6-3.8c0.2-1,0.9-3.1,1.2-4.1c0.4-1.3,1.1-3.8,1.5-5.1c0.2-0.7,0.7-2.1,0.9-2.8c0.3-1.3,0.8-3.9,0.9-5.2
	c0-1.2-0.4-3.7-0.4-4.9c-0.1-1,0-3-0.2-3.9c-0.3-1.5-1.6-4.2-2.3-5.5c-0.4-0.8-1.5-2.2-2-2.9l0,0c-0.4-0.5-1.3-1.6-1.8-2
	c-0.9-0.9-2.8-2.7-3.9-3.5c-0.7-0.5-2.2-1.1-2.9-1.5c-1.2-0.6-3.6-1.9-4.8-2.5C34.9,6,33.5,5.3,32.8,5c-0.6-0.3-1.9-0.8-2.6-1.1l0,0
	"/>
</svg>
