<?xml version="1.0" encoding="utf-8"?>
<!-- Generator: Adobe Illustrator 25.3.0, SVG Export Plug-In . SVG Version: 6.00 Build 0)  -->
<svg version="1.1" id="Layer_1" xmlns="http://www.w3.org/2000/svg" xmlns:xlink="http://www.w3.org/1999/xlink" x="0px" y="0px"
	 viewBox="0 0 273 600" style="enable-background:new 0 0 273 600;" xml:space="preserve">
<style type="text/css">
	.st0{fill:none;stroke:#E42A29;stroke-width:0.7;stroke-linecap:round;stroke-linejoin:round;}
</style>
<path class="st0" d="M7.1,581.9c0-1.9,4.6-3.3,6.1-4.4c2.2-1.5,6.6-4.4,8.8-5.9c2.1-1.4,6.7-3.9,8.3-5.9c0.9-1.1,1.6-3.9,2.2-5.1
	c0.8-1.7,2.1-5.2,3.2-6.6c1.1-1.3,3.9-3.3,5.3-4.2c1.8-1.3,5.5-3.5,7.3-4.7c1.6-1.1,5-3.3,6.4-4.7c1.4-1.4,4-4.6,5-6.3
	c0.6-1.1,1.7-3.4,1.9-4.7c0.2-1.4-0.6-4.3-0.7-5.7c-0.1-1.7-0.3-5.2-0.1-6.9c0.1-1,0.8-3.1,1-4.1c0.4-1.7,0.9-5.3,1.2-7l0,0"/>
<path class="st0" d="M265.6,15c0,2,0.4,5.9,0.3,7.9c-0.1,2.2-0.7,6.6-0.9,8.8c-0.2,2.8-0.2,8.4-0.6,11.1c-0.3,2.3-1.7,6.8-2,9.1
	c-0.5,3.3-0.8,9.9-0.9,13.2c-0.1,2.3,0,6.8,0,9.1c0,2.6,1,8.1,0,10.5c-0.8,1.8-4.2,4-5.6,5.3c-2.2,2.1-7.6,5.5-9.1,8.2
	c-0.6,1-0.5,3.5-0.9,4.7c-0.4,1.3-1.3,3.8-2,5c-1,1.6-3.8,4.3-5,5.9c-1.4,1.9-3.5,6.3-5.3,7.9c-0.9,0.9-3.6,1.7-4.4,2.6
	c-1.2,1.4-2,5.4-2.9,7c-1.1,1.8-3.9,5.1-5.3,6.7c-1.5,1.7-4.6,5.1-6.4,6.4c-1.3,1-4.8,1.6-5.9,2.9c-1.2,1.5-1.3,5.7-1.8,7.6
	c-0.5,1.7-1.1,5.2-2,6.7c-1,1.6-3.9,4-5.3,5.3c-1.9,1.8-5.9,5.3-7.9,7l0,0c-1.1,1.1-3.5,3.1-4.4,4.4c-1.1,1.6-2.7,5.2-3.5,7
	c-1.2,2.5-3.1,7.8-4.4,10.2c-1.4,2.8-4.9,8.1-6.4,10.8c-1.5,2.7-5.2,7.8-5.9,10.8c-0.3,1.2,1.1,4,0.3,5c-0.5,0.6-2.2,0.3-2.9,0.6
	c-1.1,0.5-3,2.1-3.8,2.9c-1.4,1.5-3.3,5.2-4.7,6.7c-1.6,1.8-5.6,4.7-7.3,6.4c-0.5,0.5-1.2,1.7-1.8,2c-1.2,0.8-4.2,1.1-5.3,2
	c-0.8,0.8-1.7,3-2,4.1c-0.3,0.9-0.5,2.8-0.6,3.8c-0.1,1.8,0.1,5.5,0.3,7.3c0.2,2.3,1,6.8,1.2,9.1c0.2,3.1,0.5,9.5,0,12.6
	c-0.3,1.7-1.6,4.8-2,6.4c-0.6,2-1.7,5.9-2,7.9c-0.2,1.2,0.4,3.7-0.3,4.7c-0.7,1-3.2,1.9-4.4,2c-0.7,0.1-2.1-1-2.6-0.6
	c-0.7,0.5-0.2,2.7-0.6,3.5c-0.6,1-2.7,2.4-3.5,3.2c-0.7,0.7-2,2.2-2.6,2.9c-0.7,0.8-2.7,2.2-2.6,3.2c0.1,0.6,1.5,0.9,1.8,1.5
	c0.5,1.1-0.1,3.5,0,4.7c0.1,1.4,1,4.1,1.2,5.6c0.1,0.9,0.4,2.9,0,3.8c-0.4,0.8-2,1.8-2.6,2.3s-1.9,1.8-2.6,2.3
	c-0.7,0.5-2.2,1.3-2.9,1.8s-2.4,1.1-2.9,1.8c-0.4,0.6-0.6,2.2-0.6,2.9c0.1,0.6,0.7,1.8,0.9,2.3l0,0c0.3,1.1,1.3,3.3,1.2,4.4
	c-0.1,0.8-1.2,2.1-1.5,2.9c-0.3,0.7-0.8,2-0.8,2.7c-0.1,0.7,0.3,2,0.4,2.6c0.1,0.8,0.2,2.5,0.5,3.2c0.2,0.5,1.4,1.2,1.5,1.8
	c0.2,0.9-1.2,2.6-1.2,3.5c0,0.6,0.8,1.6,1,2.2s0.8,1.7,1,2.2c0.4,0.9,1.3,2.5,1.8,3.4s1.8,2.4,1.8,3.4c-0.1,1.1-1.9,2.5-2.3,3.5
	c-0.3,0.7-0.2,2.3-0.6,2.9c-0.5,0.8-2.7,1.5-3.2,2.3c-0.4,0.6,0,2.3-0.3,2.9c-0.4,0.8-2.2,1.8-2.6,2.6c-0.4,0.8-0.4,2.6-0.6,3.5
	s-0.4,2.6-0.6,3.5c-0.2,0.9-0.8,2.6-1,3.5s-1.4,2.7-1,3.5c0.2,0.5,1.5,0.9,2,1.2l0,0c-0.3,0.7-1.4,2-1,2.6c0.4,0.6,2.2-0.3,2.7,0.1
	c0.6,0.5,1.1,2.2,1,2.9c-0.1,0.9-1.6,2.4-2,3.2c-0.3,0.6-0.9,1.8-1,2.5c-0.2,0.9,0.3,2.9-0.1,3.8c-0.5,1.4-2.9,3.3-3.8,4.5l0,0
	c0,0.8,0.1,2.2,0.1,3s0,2.3,0.1,3c0.1,0.9,0.4,2.6,0.6,3.5s0.8,2.6,0.6,3.5c-0.3,1.3-2.4,3.2-2.9,4.4c-0.3,0.7-0.5,2.2-0.7,2.9
	s-0.4,2.2-0.7,2.9c-0.4,0.9-1.8,2.4-2.3,3.2c-0.6,0.9-1.6,2.6-2,3.5c-0.7,1.3-1.7,4.2-2.3,5.6c-0.6,1.3-1.9,3.7-2.3,5
	c-0.6,1.8-1.2,5.5-1.8,7.3c-0.3,0.9-0.8,2.7-1.2,3.5c-0.4,0.9-1.2,2.7-1.8,3.5c-0.9,1.4-3.6,3.5-4.1,5c-0.2,0.6,0,1.8,0,2.3
	c0,1,0.6,2.9,0.3,3.8c-0.4,1-2.2,2.4-2.9,3.2c-0.6,0.7-1.7,2.1-2,2.9c-0.5,1.2-0.6,4-0.9,5.3c-0.2,1-0.7,2.9-0.9,3.8
	c-0.2,1-0.6,2.9-0.9,3.8c-0.3,1.3-1.2,3.7-1.6,5c-0.4,1.2-1.1,3.8-1.6,5c-0.4,0.9-1.2,2.7-1.6,3.7c-0.4,0.9-1.2,2.8-1.6,3.7
	c-0.5,1.2-1.8,3.4-2.3,4.5s-1.6,3.5-2.3,4.5c-1.2,1.6-4.3,4-5.9,5.3c-0.8,0.6-2.5,1.8-3.4,2.3s-2.6,1.7-3.4,2.3
	c-1,0.8-2.9,2.4-3.8,3.2c-1,0.8-2.8,2.5-3.8,3.2c-1.4,1-4.8,2.2-5.9,3.5c-0.6,0.8-0.7,3.1-1.2,4.1c-0.6,1.4-2.3,4.1-3.2,5.3
	c-0.8,1.1-2.8,2.9-3.8,3.8c-0.8,0.7-2.4,2-3.2,2.6c-0.8,0.7-2.4,2-3.2,2.6c-0.9,0.7-2.6,2.2-3.4,2.9c-0.9,0.7-2.6,2.2-3.4,2.9
	c-0.9,0.7-2.6,2.2-3.4,2.9s-2.6,2.2-3.4,2.9l0,0"/>
</svg>
