<?xml version="1.0" encoding="utf-8"?>
<!-- Generator: Adobe Illustrator 25.3.0, SVG Export Plug-In . SVG Version: 6.00 Build 0)  -->
<svg version="1.1" id="Layer_1" xmlns="http://www.w3.org/2000/svg" xmlns:xlink="http://www.w3.org/1999/xlink" x="0px" y="0px"
	 viewBox="0 0 77 151" style="enable-background:new 0 0 77 151;" xml:space="preserve">
<style type="text/css">
	.st0{fill:none;stroke:#E42A29;stroke-width:0.7;stroke-linecap:round;stroke-linejoin:round;}
</style>
<path class="st0" d="M1.9,111.3c1.3,0.7,3.6,0.8,4.8,1c1.4,0.2,4.2,1.2,5.5,0.7c0.6-0.3,1-1.7,1.5-2.2c0.7-0.6,2.3-1.6,3.2-1.8
	c1.1-0.3,3.4,0.1,4.5,0.2c1.9,0,5.9,0.9,7.5,0c1-0.5,2-2.8,2.5-3.8c0.7-1.2,1.7-3.9,2.2-5.2c0.9-2.6,2.8-7.9,3.2-10.7
	c0.3-2.2-0.2-6.7-0.8-8.9c-0.5-1.8-2.9-5-3.5-6.8c-0.4-1.2-0.5-3.8-0.7-5l0,0c0-1.2-0.5-3.6-0.2-4.7c0.3-0.9,1.8-2.2,2.3-3
	c0.8-1.1,2.7-3.2,3.2-4.5c0.3-0.8-0.2-2.6,0.2-3.3c0.3-0.7,1.8-1.5,2.2-2.2c0.7-1.4,0.5-4.6,0.5-6.2s-1-4.7-0.5-6.2
	c0.4-1.1,2.3-2.4,3.2-3.2c1.4-1.2,4.5-3.4,6-4.5c1.2-0.9,3.7-2.6,4.8-3.5c0.8-0.6,2.3-1.9,3-2.7c1.2-1.3,2.9-4.7,4.3-5.7
	c1.3-0.9,4.6-1.3,6.2-1.7c1.6-0.4,5.4-0.3,6.5-1.5c0.5-0.6,0.4-2.4,0.5-3.2c0.3-2.2,0.8-6.8,1-9l0,0"/>
<path class="st0" d="M26.6,120.7c0,1.4-0.2,4.1-0.3,5.4c-0.1,1.3-0.4,3.9-0.8,5.2c-0.3,1.2-1.4,3.5-1.9,4.7
	c-0.5,1.1-2.3,3.2-1.9,4.3c0.4,1,2.8,1.3,3.8,1.8c2,1.2,5.9,3.8,7.8,5.1l0,0"/>
</svg>
