<?xml version="1.0" encoding="utf-8"?>
<!-- Generator: Adobe Illustrator 25.3.0, SVG Export Plug-In . SVG Version: 6.00 Build 0)  -->
<svg version="1.1" id="Layer_1" xmlns="http://www.w3.org/2000/svg" xmlns:xlink="http://www.w3.org/1999/xlink" x="0px" y="0px"
	 viewBox="0 0 169 500" style="enable-background:new 0 0 169 500;" xml:space="preserve">
<style type="text/css">
	.st0{fill:none;stroke:#E42A29;stroke-width:0.5;stroke-linecap:round;stroke-linejoin:round;}
</style>
<path class="st0" d="M164.9,12.5c0,1.2-2.1,3.2-2.4,4.4c-0.2,0.9,0,2.7,0,3.6c0,1.6,0.8,5,0,6.4c-0.8,1.5-4.1,2.8-5.6,3.6
	c-1.4,0.8-4.1,2.3-5.6,2.8c-0.6,0.2-1.8,0.1-2.4,0.4c-1.4,0.6-3.6,3-4.8,4c-1.6,1.2-4.9,3.5-6.4,4.8c-0.7,0.6-1.9,2.3-2.8,2.8
	c-0.9,0.5-3.1,0.7-4,1.2c-0.8,0.4-2.1,1.7-2.8,2.4c-0.9,0.8-2.2,2.9-3.2,3.6c-1.2,0.8-4.2,1.5-5.6,2c-2.2,0.7-6.6,1.7-8.8,2.4
	c-3.2,1.1-9.8,3-12.4,5.2C96.8,63.2,95,67,94,68.7c-1.8,2.9-5.1,8.7-6.8,11.6c-1,1.8-3,5.4-4,7.2c-1.5,2.8-4.3,8.3-5.6,11.2
	c-1.8,4.1-5.3,12.4-6.4,16.7c-0.6,2.5-1.5,7.8-1.2,10.4c0.3,2.5,2.4,7.2,3.2,9.6c1,3.3,3.3,9.8,4,13.2c0.4,1.8,0.8,5.4,0.8,7.2
	c0,2.5-0.9,7.5-1.2,10c-0.5,4.6-0.9,13.8-1.2,18.3l0,0c0.2,3,0.6,9,0.8,12c0.3,4.3,0.9,12.9,1.2,17.1c0.3,3.8,1.1,11.4,1.2,15.1
	c0.1,4.3,0.2,13-0.8,17.1c-0.3,1.4-2,3.8-2.4,5.2c-0.7,2.2-0.6,7.1-1.6,9.2c-0.8,1.8-4,4.4-5.2,6c-1,1.3-3.4,3.9-3.6,5.6
	c-0.1,0.8,1.3,2.3,1.2,3.2c-0.2,1.4-2.4,3.6-3.2,4.8c-1.2,1.6-3.3,5-4.8,6.4c-1.7,1.6-5.8,3.8-7.6,5.2c-1.6,1.2-4.9,3.5-6,5.2
	c-1.6,2.4-2.8,8-3.6,10.8c-0.7,2.6-2,7.7-2.4,10.4c-0.2,1.3-0.3,3.9-0.4,5.2c-0.1,1.4,0.2,4.2,0,5.6c-0.3,1.9-1.1,5.8-2,7.6
	c-0.7,1.3-2.7,3.6-3.6,4.8c-1.8,2.5-5.9,7.1-6.8,10c-0.5,1.5,0.1,4.8,0,6.4c-0.1,2.5-1.6,7.6-0.8,10c0.4,1.3,2.8,2.9,3.6,4
	c0.4,0.6,1.7,1.7,1.6,2.4c-0.3,1.5-3.8,2.4-4.8,3.6c-0.9,1.1-1.7,3.9-2.4,5.2c-0.8,1.5-3.1,4.3-3.6,6c-0.4,1.3,0.4,4.3,0,5.6
	c-0.4,1.3-2.7,3.1-3.2,4.4c-0.7,1.8-0.6,5.7-0.8,7.6l0,0c-0.3,0.7-1,2.1-1.4,2.8c-0.5,0.7-1.9,1.8-2.2,2.6c-0.4,1-0.4,3.3-0.4,4.4
	c0,1.7,0.1,5.1,0,6.8c0,1.5-0.6,4.6-0.4,6.2c0.2,1.4,1.5,3.9,2,5.2c0.8,2.2,2.6,6.6,2.8,9c0.1,0.8,0,2.7-0.4,3.4
	c-0.5,0.8-2.2,1.7-3,2.2c-1,0.7-3.4,1.6-4.2,2.6c-0.7,0.9-1.1,3.3-1.4,4.4c-0.3,1.2-1.5,3.6-1.2,4.8c0.3,1,2.9,1.8,2.8,2.8
	c-0.1,0.8-2.5,1.2-2.6,2c0,0.4,1,0.8,1.2,1.2c0.4,1-0.5,3.3-0.2,4.4c0.3,0.9,2.4,2,2.4,3c0,0.8-1.7,1.9-2.2,2.6
	c-0.9,1.3-2.6,4.1-3,5.6c-0.4,1.4-0.3,4.5-0.4,6c0,0.1,0,0.4,0,0.6"/>
</svg>
