<?xml version="1.0" encoding="utf-8"?>
<!-- Generator: Adobe Illustrator 25.3.0, SVG Export Plug-In . SVG Version: 6.00 Build 0)  -->
<svg version="1.1" id="Layer_1" xmlns="http://www.w3.org/2000/svg" xmlns:xlink="http://www.w3.org/1999/xlink" x="0px" y="0px"
	 viewBox="0 0 368 137" style="enable-background:new 0 0 368 137;" xml:space="preserve">
<style type="text/css">
	.st0{fill:none;stroke:#E42A29;stroke-linecap:round;stroke-linejoin:round;}
</style>
<path class="st0" d="M9.2,133.6c0-0.9,1.9-1.7,2.5-2.4c0.9-1,2.6-3,3.5-4c0.8-0.9,2.3-2.7,3-3.6c0.9-1.1,2.6-3.5,3.6-4.6
	c1.1-1.3,3.5-3.7,4.6-5c1-1.2,3-3.7,4-4.8c1.1-1.3,3.5-3.7,4.7-5c1.1-1.2,3.3-3.7,4.4-4.8c1.1-1.1,3.4-3.4,4.6-4.4
	c0.9-0.8,2.8-2.2,3.7-3c0.7-0.7,1.9-2.3,2.8-2.8c0.7-0.4,2.2-0.7,2.9-1c1.2-0.4,3.6-1.2,4.8-1.4c1.1-0.1,3.3,0.3,4.4,0.3
	c1,0,3.1-0.1,4.1-0.3c0.7-0.1,2.1-0.5,2.8-0.7c0.6-0.2,1.6-0.6,2.2-0.7c1.1-0.1,3.2,0.4,4.3,0.6c1.3,0.2,3.8,0.5,5,0.6
	c1.2,0.1,3.5,0,4.7,0l0,0c0.3,0,1.1,0.1,1.4,0c0.5-0.1,1.2-0.8,1.6-1c0.3-0.2,0.9-0.8,1.3-0.9c0.6-0.2,2,0.1,2.6,0.1
	c0.9,0,2.7-0.4,3.7-0.5c1-0.1,3-0.2,3.9-0.4c1-0.3,2.9-1.3,3.9-1.7c0.9-0.4,2.7-1.3,3.7-1.5c2.1-0.3,6.4,0.7,8.5,1
	c2.6,0.4,7.9,1.3,10.5,1.7c3.1,0.5,9.2,1.6,12.3,2.2c2.3,0.4,6.8,1.3,9.1,1.7c2.3,0.4,7.1,1,9.4,1.7c1.6,0.4,4.5,1.8,6.1,2.2
	c2,0.5,6,0.8,8,1.1l0,0c0.3,0.2,0.9,0.5,1.2,0.7c1.2,0.7,3.4,2.4,4.6,3.2c1.1,0.8,3.2,2.9,4.6,3.1c0.8,0.1,2.2-0.7,3-1
	c1.2-0.4,3.6-1.8,4.9-1.8c0.7,0,2,0.5,2.6,0.8c0.5,0.2,1.4,0.7,1.9,0.7c1,0,3-1,4-1.2c1-0.3,3.1-0.7,4.1-1c1.4-0.4,4.3-1.2,5.5-2
	c0.8-0.5,2-2.2,2.6-2.9c0.7-0.7,2-2.3,2.7-2.9c0.4-0.3,1.2-0.9,1.7-1.2c1-0.5,3.3-1.2,4.4-1.6c1.5-0.6,4.4-1.8,5.9-2.4
	c1.9-0.7,5.6-2.1,7.5-2.8l0,0c0.7-0.3,2.1-0.8,2.8-1.1c1.3-0.5,3.8-1.3,5-1.8c1.6-0.7,4.8-2.2,6.4-2.9c1.3-0.6,3.9-1.7,5.3-2.2
	c1.4-0.6,4.3-1.5,5.7-2.1c0.5-0.3,1.6-0.9,2.1-1.2c0.9-0.6,2.6-1.7,3.5-2.4c0.7-0.6,2.1-1.8,2.8-2.4c0.7-0.6,2.2-1.9,2.9-2.6
	c1.2-0.9,3.6-2.7,4.8-3.6c0.6-0.5,1.7-1.6,2.4-2c0.6-0.4,1.8-1.1,2.5-1.3c1-0.4,3-0.8,4-1.1l0,0c0.4-0.1,1.1-0.3,1.5-0.4
	c0.5-0.2,1.5-0.7,2-0.8c0.4-0.1,1.1-0.1,1.5,0c0.6,0.1,1.7,0.5,2.2,0.6c0.5,0.2,1.6,0.5,2.1,0.6c0.6,0.1,1.9,0.1,2.6,0.1
	c0.8-0.1,2.3-0.5,3-0.8c0.8-0.3,2.2-1.3,2.9-1.7c0.7-0.4,2.2-1.1,3-1.5c0.8-0.4,2.2-1.3,3-1.7c0.4-0.2,1.1-0.5,1.5-0.6
	c0.6-0.2,2-0.5,2.6-0.7c1-0.3,2.9-0.8,3.9-1c1-0.2,3.1-0.6,4.1-0.8c1-0.3,3.1-0.9,4.1-1.2c1.2-0.3,3.5-0.9,4.6-1.3
	c0.4-0.1,1.3-0.5,1.7-0.6l0,0c0.7-0.3,2-1,2.7-1.4c1.1-0.6,3.1-2,4.1-2.7c0.9-0.6,2.8-1.6,3.7-2.2c0.5-0.4,1.4-1.2,1.8-1.7
	c0.6-0.7,1.6-2.4,2.1-3.2c0.7-1,2-3,2.6-3.9c0.5-0.7,1.5-2.2,2-3c0.5-0.9,1.5-2.8,2-3.7c0.9-1.6,2.5-4.9,3.4-6.5l0,0
	c0.4-0.9,1.3-2.8,1.8-3.7c0.5-1,1.8-3,2.4-4.1c0.2-0.4,0.6-1.2,0.8-1.6l0,0"/>
</svg>
