<?xml version="1.0" encoding="utf-8"?>
<!-- Generator: Adobe Illustrator 25.3.0, SVG Export Plug-In . SVG Version: 6.00 Build 0)  -->
<svg version="1.1" id="Layer_1" xmlns="http://www.w3.org/2000/svg" xmlns:xlink="http://www.w3.org/1999/xlink" x="0px" y="0px"
	 viewBox="0 0 370 137" style="enable-background:new 0 0 370 137;" xml:space="preserve">
<style type="text/css">
	.st0{fill:none;stroke:#E42A29;stroke-linecap:round;stroke-linejoin:round;}
</style>
<path class="st0" d="M9.2,133.4c0-1,1.9-2.2,2.5-2.9c1.5-1.7,4.5-4.9,6-6.5c1.4-1.6,4.1-5,5.6-6.7c1.8-2,5.4-5.8,7.2-7.8
	c1.5-1.7,4.6-5.1,6.1-6.8c1.1-1.2,3.4-3.7,4.6-4.9c1.6-1.6,4.9-4.6,6.5-6.1c1-0.9,2.6-3.1,3.8-3.8c0.9-0.5,3-0.8,4-1.1
	c1.2-0.3,3.5-1.4,4.7-1.4c0.6,0,1.8,0.6,2.4,0.7c0.5,0.1,1.6,0.3,2.1,0.3c0.6,0,1.9-0.5,2.5-0.7c1.2-0.3,3.6-1,4.9-1.1
	c1.2-0.1,3.5,0.3,4.7,0.4c1.3,0.1,3.9,0.5,5.1,0.6c1.4,0.1,4.2,0.4,5.6,0.1c0.8-0.2,2.1-1.1,2.8-1.4c0.5-0.2,1.4-0.5,1.9-0.6
	c1.3-0.2,3.9,0,5.1,0l0,0c0.9-0.2,2.6-0.6,3.5-0.8c1.2-0.4,3.5-1.5,4.7-1.9c0.9-0.3,2.7-1.1,3.6-1.3c1.1-0.1,3.3,0.3,4.4,0.4
	c2,0.2,5.9,0.7,7.9,1c1.8,0.2,5.3,0.8,7.1,1.1c1.7,0.3,5.1,1.1,6.8,1.4c2.3,0.4,6.9,1.2,9.2,1.7c1.7,0.3,5.1,1.1,6.8,1.4
	c2,0.4,6.1,1.1,8.1,1.5c2.2,0.5,6.6,1.5,8.8,1.9c1.2,0.2,3.6,0.7,4.7,1.1c1.1,0.4,2.9,1.8,3.9,2.4c1.2,0.7,3.6,2.2,4.7,3.1
	c0.7,0.5,0.8,1.5,1.4,2.1l0.9,0.1c0.7-0.2,2.2-0.7,2.9-0.9c0.9-0.4,2.7-1.6,3.6-1.9c0.5-0.2,1.5-0.6,2.1-0.6
	c0.7,0.1,1.9,1.3,2.6,1.4c0.7,0.1,2.2-0.3,2.9-0.4c1.1-0.2,3.1-0.9,4.2-1.3c1.5-0.4,4.4-1.3,5.8-1.8c0.5-0.2,1.6-0.4,2.1-0.7
	c0.6-0.4,1.4-1.6,1.8-2.1c0.6-0.7,1.8-2.2,2.5-2.9c0.5-0.5,1.6-1.5,2.2-1.8c0.9-0.5,3-1,4-1.4c1.4-0.5,4.2-1.4,5.6-1.9
	c2.1-0.8,6.4-2.6,8.5-3.5c2.2-0.9,6.6-2.8,8.8-3.8l0,0c1.3-0.5,4-1.5,5.3-2.1c1.7-0.8,4.8-2.8,6.5-3.5c1.6-0.7,5.2-1.4,6.8-2.2
	c1.2-0.6,3.2-2.4,4.3-3.2c1.4-1.1,4.3-3.2,5.7-4.3c1.2-1,3.6-3.2,4.9-4.2c0.8-0.7,2.4-2.2,3.3-2.6c0.9-0.5,2.8-0.9,3.8-1.1
	c1.3-0.4,4-1.2,5.4-1.3c0.8,0,2.3,0.3,3.1,0.4c1,0.1,2.9,0.6,3.9,0.6c1,0,3.1-0.2,4-0.6c1-0.4,2.6-1.7,3.5-2.2
	c0.9-0.5,2.8-1.1,3.6-1.5c0.6-0.3,1.6-1.3,2.2-1.5c1.6-0.7,5.1-1.2,6.8-1.7c1.6-0.4,4.8-1.5,6.4-1.9c1.2-0.3,3.7-0.7,4.9-1
	c1.3-0.3,3.8-0.7,5-1.3c1.2-0.6,3.3-2.5,4.4-3.2c1-0.6,3.1-1.6,4-2.2c0.7-0.5,2.1-1.5,2.6-2.1c1-1.1,2.2-3.9,3.1-5.1
	c0.7-1,2.2-2.9,2.9-3.9l0,0c0.3-0.5,1-1.5,1.3-1.9c0.7-1.2,2.2-3.7,2.8-5c0.6-1.2,1.5-3.7,2.1-4.9c0.7-1.5,2.1-4.5,2.9-5.8
	c0.4-0.6,1.3-1.7,1.7-2.2l0,0"/>
</svg>
