<?xml version="1.0" encoding="utf-8"?>
<!-- Generator: Adobe Illustrator 25.3.0, SVG Export Plug-In . SVG Version: 6.00 Build 0)  -->
<svg version="1.1" id="Layer_1" xmlns="http://www.w3.org/2000/svg" xmlns:xlink="http://www.w3.org/1999/xlink" x="0px" y="0px"
	 viewBox="0 0 52 11" style="enable-background:new 0 0 52 11;" xml:space="preserve">
<style type="text/css">
	.st0{fill:none;stroke:#4682B4;}
</style>
<path class="st0" d="M1.4,10.7l1.3-0.9L5,8.5l1.5-0.9L8,6.8L9.7,6l1.5-0.6l1.8-0.6l2.3-0.3L17,4.2l0.6,0.1l1.3,0.3l0.9,0.2l0.7,0
	L21,4.4l0.2-0.5L20.8,3l-0.3-0.3l0.2-0.6l0.4-0.5L22,1l1.9-0.3l2-0.3l1.6,0.2l1.5,0.7L31.3,2l1.2,0.4l2.1,0.1l0,0l1.3,0l1.3,0h2.6
	h2.4l1.5-0.2H45l1.7,0.4l1.5,0.7l1.5,0.4l0.9,0.3l0,0"/>
</svg>
