<?xml version="1.0" encoding="utf-8"?>
<!-- Generator: Adobe Illustrator 25.3.0, SVG Export Plug-In . SVG Version: 6.00 Build 0)  -->
<svg version="1.1" id="Layer_1" xmlns="http://www.w3.org/2000/svg" xmlns:xlink="http://www.w3.org/1999/xlink" x="0px" y="0px"
	 viewBox="0 0 485 600" style="enable-background:new 0 0 485 600;" xml:space="preserve">
<style type="text/css">
	.st0{fill:none;stroke:#4682B4;stroke-miterlimit:10;}
	.st1{fill:none;stroke:#4783B5;stroke-miterlimit:10;}
</style>
<path class="st0" d="M419.7,53.7L408.4,15"/>
<path class="st0" d="M165.2,201.6l52.7,6.5v0.8"/>
<path class="st0" d="M317.6,41.1L337,52.4l0,0"/>
<path class="st0" d="M314.3,76l30.4-28.5l16.6-7.7l10.9-4.9l15.8-9.7l14.6-7.3l5.7-2.8l4.5,0.8l0,0l22.8,11.5l13,4.9v13v17.8
	l4.9,4.9l6.5,9.7l3.2,14.6l9.7,27.6l-4.9,19.5l-6.5,9.7l-1.8,3.1l-7.2,11.4l-7.2,11.4l-16.2,11.3l-11.3,6.5l-13,11.3l-9.7,9.7h-4.9
	l-6.5,6.5l1.6,13l1.6,8.1l-9.7,11.3l-8.1,11.3l3.2,14.6l-4.9,9.7l-11.3,6.5l-1.6,8.1v17.8l-6.5,11.3l-14.6,3.2L327,345v14.6l1.6,6.5
	l8.1,6.5l9.7,11.3l4.9,9.7l-8.1,16.2l-9.7,22.7l-8.1,29.2l-4.9,22.7l-6.5,16.2l-21.1,4.9l-27.6,16.2l-13,9.7l-17.8,21.1L218.4,585"
	/>
<path class="st1" d="M101.2,518.2l-8.1-11.3l-16.2-8.1l-13-4.9l-22.7-9.7L26.7,468l-8.1-24.3l-6.5-27.6l6.5-29.2l14.6-16.2l22.7-13
	l17.8-13l16.2-17.8l14.6-27.6l8.1-22.7l4.9-11.3l13-19.5l8.1-8.1h21.1l25.9,0.2l20.7-8.1l11.8-21.3h29.2l29.2-8.1l34-13l22.7-9.7
	h17.8l14.2,1l10.1-12.4l4.9-3.2l17.8-1.6l19.5-4.9l13-4.9h9.7h16.2l3.4,0.2v0.2"/>
</svg>
