<?xml version="1.0" encoding="utf-8"?>
<!-- Generator: Adobe Illustrator 25.3.0, SVG Export Plug-In . SVG Version: 6.00 Build 0)  -->
<svg version="1.1" id="Layer_1" xmlns="http://www.w3.org/2000/svg" xmlns:xlink="http://www.w3.org/1999/xlink" x="0px" y="0px"
	 viewBox="0 0 600 476" style="enable-background:new 0 0 600 476;" xml:space="preserve">
<style type="text/css">
	.st0{fill:none;stroke:#4682B4;}
</style>
<path class="st0" d="M84.8,58.1l-5.5,1.7L73.2,62L66,66.4L59.3,72l-5,6.7l-5,6.1l-5,7.8l-4.4,8.3l-2.2,6.1l-1.1,8.3v9.4l-0.6,6.7
	l-2.2,9.4l-2.2,8.9L30,162.3l-1.7,15l-1.1,13.3l-3.3,9.4l-3.3,12.2l-3.9,11.6l-1.7,9.4l2.2,11.1l3.9,13.3v9.4l0.6,13.3V292l0,0
	l-1.1,8.3l5,3.9l5.5,3.9l4.4,2.8l2.2,5.5l1.1,5l0.6,3.9l0,0"/>
<path class="st0" d="M262.7,367.4l-0.8,10.8L261,381v5l-0.3,3.9l-1.7,3.3l-5,3.6l-13.3,4.7l-11.4,4.2l-9.7,5.8l-6.9,5.8l-6.7,6.9
	l-5,6.4L197,437l-2.8,5.5l-1.7,4.7l-1.1,3.3v0.3"/>
<path class="st0" d="M186.2,464.2l7.2-6.7l7.8-8.9l5-8.3l4.4-10.5l7.8-9.4l12.2-8.9l13.3-5.5l13.3-7.2l6.7-5l3.3-11.6l2.2-9.4
	l-1.1-5.5l2.8-4.4l2.2-11.1l-0.6-17.2l4.4-6.1l4.4-5.5l-4.4-7.8l-7.8-12.7l-3.3-1.1l2.2-7.8l2.8-11.6l7.2-3.9l3.3-3.3l2.2-9.4v-9.4
	l5.5-4.4l6.1-5l-1.1-6.7l-1.7-6.1l0.6-3.3l7.2-7.8l4.4-5.5l2.8-3.3l-0.6-5l-2.8-2.8v-5l3.9-2.8l2.8-1.1l2.8-0.6l2.8-0.6v-4.4l5-3.3
	l7.2-6.1l3.9-3.3l4.4-1.7l5.8-3.9l5.8-3.9l3.3-7.8l5.5-8.3l3.3-4.4l3.9-6.1v-4.4l0.6-15v-10l1.7-7.2l3.3-7.2v-5.5l-2.8-7.2l0.6-4.4
	l2.2-3.9l-2.2-6.1l-3.9-6.1l-0.6-3.3v-3.9l0.6-4.4l0,0"/>
<path class="st0" d="M585,52l-20.5-8.3l-24.4-3.9l-28.3-0.6l-33.3,2.2l-15-0.6l-19.4-10l-11.6-6.7l-21.1,2.8L396,31l-7.8,7.2v4.4
	l3.3,2.8l-1.7,4.4l-6.7,3.3h-18.3l0,0L342.2,54l-19.1,6.9l-7.8,3.9l-12.5,5.5l-15.8,10l-13.3,7.5l-8.3,8.3l-6.7,4.7l0,0"/>
<path class="st0" d="M112.1,405.4l5.5-1.1l7.2-1.9l6.1-1.4l5-1.4l2.8-1.4l3.6-4.2l4.2-7.8l7.5-10l2.8-4.4l4.7-3l6.7-4.2l6.9-2.5
	l6.4-0.6l11.4-1.1l7.8-1.7l5-0.3h6.9l6.7-0.6l8-0.3l5.5,0.8l5,1.1l5,1.1l6.4,2.8l2.5,1.4l0,0"/>
<path class="st0" d="M48,337.2l-0.3,4.7v4.7l0.3,8.6l0.8,6.7l2.8,10.8l3,7.8l3.6,5l5.5,5.8l3.6,3.9l3,1.7l4.7,1.1l5,1.1l4.7,0.8
	l2.8,0.8l8.6,1.4l2.8,1.7l0,0"/>
<path class="st0" d="M109.8,262.9v2.8l0.3,4.7l1.4,4.4l3,4.4l2.5,2.5l4.2,2.2l6.1,2.2l5,1.4l3,1.9l4.7,6.1l3,5.3l2.2,4.2l1.9,3.9
	l3.9,5.8l4.7,5l3.6,5.5l1.9,3v3l0.3,5.3v5.3l-0.6,3.6l-1.1,3.6l-1.1,4.4l0,0"/>
<path class="st0" d="M313.5,50.1l-6.1-6.7l-4.4-6.1h-10h-4.4l-8.3-5.5l-7.2-1.1l-5.5-5l-7.8-3.3l-6.7-1.1H247l-6.1-2.8l-4.4-0.6h-5
	h-6.1l-8.3-4.4l-6.7-1.7h-3.9h-4.4l-3.9,1.1l-3.3,4.4v5l0.6,8.3l1.1,9.4l-1.1,10l0.6,9.4l-1.1,8.9l-1.1,17.2v7.2l-5,8.9l-1.7,6.1
	v8.3l-1.1,8.3l-6.7,9.4l-10.5,10.5l-11.6,11.1l-5,8.9l-5.5,10l-5,13.9l-3.3,5.5l-5,4.4l-3.9,3.9v7.2v8.3l-1.7,8.9l-5.5,9.4
	l-4.4,10.5l-3.3,7.8l-3.3,5.5l-1.7,3.9l-5.5,11.6l-8.3,11.1l-9.4,8.3l-8.9,5l-11.1,6.1l-6.1,2.8l-5,2.2l-3.9,2.8l-2.2,3.3l-1.1,9.4
	l-0.6,1.1"/>
<path class="st0" d="M72.9,266.3h5h7.2l10-1.7l7.2-2.2h5.5l0,0"/>
</svg>
