<?xml version="1.0" encoding="utf-8"?>
<!-- Generator: Adobe Illustrator 25.3.0, SVG Export Plug-In . SVG Version: 6.00 Build 0)  -->
<svg version="1.1" id="Layer_1" xmlns="http://www.w3.org/2000/svg" xmlns:xlink="http://www.w3.org/1999/xlink" x="0px" y="0px"
	 viewBox="0 0 161 476" style="enable-background:new 0 0 161 476;" xml:space="preserve">
<style type="text/css">
	.st0{fill:none;stroke:#4682B4;}
</style>
<path class="st0" d="M49.4,269.5l2.1-2.1l2.9-1.9l2.4-2.7l1.6-2.1v-1.6l-0.8-1.3v-1.1l0.5-1.3l2.1-1.6v-2.4l0.5-2.1l0.8-3.2l1.1-2.9
	l0.8-2.1l0.5-1.1l2.1-0.5l2.1-0.5l1.6-0.8l1.6-1.1l1.3-0.8l1.3-0.5l1.6-1.6l0.8-1.3l0.5-5.1l-0.5-2.9l0.5-2.7l0.5-1.3l1.9-2.7
	l1.3-2.1l-0.5-3.2l0.3-3.5l-1.3-2.4l-1.1-1.9l-1.6-2.1l-1.6-2.4l-0.3-3.5v-4v-4.3L75,185l0.3-2.4l1.3-1.1l1.1-2.1l-0.8-1.1l1.3-2.4
	l1.3-1.9l0.8-2.1v-1.3l-1.1-1.3h-1.1h-2.4l-2.1,0.5h-2.4l-2.1-1.3l-1.6-2.1l-0.8-1.3l-1.6-1.3l0,0"/>
<path class="st0" d="M36.6,441l1.1-3.5l0.3-2v-3.1l0.1-2.1l1.1-2l0.9-2.8l0.5-1.6l0.7-2.3l0.9-0.8l2.1-0.5v-0.9v-2.5v-1.2l0.1-0.5
	l1.5-0.8l1.1-0.9l-0.1-1.5l-0.5-1.1l0.3-1.2l0.8-1.2l2.1-2l0.9-1.1l2.1-0.7l2-0.7l2-2.1l1.2-3.2l0.1-1.6L58,396l1.3-0.7l1.6-3.9
	l0.8-2.4l0.3-2.3v-2l-0.1-1.3l0,0l1.5-3.6l1.2-2l-0.3-0.9l-0.4-1.7l0.4-0.9l-0.7-1.6l-0.3-1.9l-0.5-0.7l-0.8-1.3l0.7-1.7v-2.9
	l-0.8-1.9l-1.1-1.7l-0.8-1.7l-0.3-2.5v-2.1l0.9-1.1l2.5-0.1l0.8-0.1l0.9-1.6l1.7-2.4l0.4-2.1l0.8-2v-2l-0.8-2.7l-0.1-2.9l0.7-2
	l0.8-1.3l1.2-1.1l0.1-0.8l1.6-2.7l0,0l-0.3-1.3l0.5-1.2l1.7-0.7l1.1-0.7l0.3-1.6l-0.9-1.2l-0.9-0.8l-1.3-0.5l-0.8-0.1h-1.1h-1.5
	l-0.8,0.1h-0.7l-0.5-1.3l0.5-1.3l1.1-0.3l1.2-0.9l0.7-0.5l0.3-1.2l-0.8-0.8l-1.2-0.5l-0.9-0.4l-0.3-0.8l0.1-0.9l0.7-0.5l0.8-0.4
	v-2.7l1.2-3.3l-0.1-0.5l0,0v-4.8l0.3-3.7l1.3-2.9l2.1-4l1.6-2.4l1.9-1.9l1.3-1.1l0.5-1.9l0.3-1.9l0.3-1.6l1.1-1.3l1.6-0.8l1.6-0.5
	l1.1-0.3l0.5-0.8v-1.6l0.5-1.3l1.1-2.7l1.3-1.9l1.1-1.3l0.8-2.4l-0.5-1.9l-1.9-4.3l-1.3-2.4l-0.5-1.3l-1.1-2.9l-2.4-3.2l-1.3-1.9
	l-0.8-3.2v-2.7l0.8-3.2l1.1-2.4l-0.8-2.1l-1.3-1.3l-1.6-1.1h-0.5l0,0"/>
<path class="st0" d="M56.6,464.1l-0.9-1.6l-1.5-1.7l-1.5-1.1l-1.1-2l-2-2.5l-1.3-2.5l-0.9-0.9l-1.7-1.2l-1.7-1.2l-2.8-0.4l-1.5-0.3
	l-1.2-0.8l-0.9-2.3l-0.4-1.3l0,0"/>
<path class="st0" d="M157.1,11.9l-2.8,0.9l-3.5,0.8l-1.7,0.8l-2.1,0.8l-1.7,1.7l-2,2.1l-1.2,1.1l-0.4,1.6v1.6l-2.3,0.7l-2.5,0.9
	l-1.5,0.5l-3.5,1.9l-1.3,1.2l-1.7,1.9l-1.3,2.3l-0.7,2.5l-0.1,2.4l0.3,3.7v2.4v1.9l-0.4,1.3l-1.1,2.3l-0.7,0.8l-0.9,0.4l-1.2,0.1
	l-1.5,0.9l-0.5,1.1l-0.3,2v1.6l0.1,1.6l-0.1,1.2l-0.5,1.2l-0.3,0.7l-0.1,1.3l0.5,0.8l0.7,1.5l0.1,1.5l-0.4,1.6l-1.3,2.1l-0.9,1.6
	l-0.5,1.7l-0.1,1.6v1.6l-0.4,1.2l-1.1,1.1l-2.4,0.5l-2.5,0.5l-2.4,1.1l-1.9,1.1v0.1"/>
<path class="st0" d="M36.4,162.9L40,161l2.1-0.8l2.4-1.6l1.1-1.3l1.9-4.3l1.3-4.5l1.9-4.3l1.9-4.5l0.5-3.5l1.1-1.1V133l-1.9-1.3
	l-1.1-2.9l-1.3-2.7v-2.1l0.8-3.2v-1.3l-1.3-1.6l-1.3-1.6l0.5-2.9l-1.1-2.7l-1.3-2.7l0.8-5.6l0.8-4.5l0.8-2.4l-0.8-1.6l1.9-1.9
	l3.7-0.8l2.9,0.5l2.1,1.6l2.7,0.8h2.1h2.7l1.3-0.5l1.3-1.3l1.6-0.8l1.9-0.5l1.9-1.6l1.3-1.9l1.3-2.1l1.6-1.6h2.1h1.3H83l0.5,1.3
	l1.6,1.1l1.3,1.6h2.1h2.7l3.5-1.1l0.3-1.3l1.1-0.8l1.9-0.3l1.6-0.3l1.6-0.3l0,0"/>
<path class="st0" d="M117.7,222.9l1.3-3.1l0.9-1.3l0.8-0.9l1.1-1.3l0.3-1.2l0.1-1.7l0.3-1.9l0.3-1.2l0.4-0.5l0.8-1.3l0.5-1.2v-1.9
	l-0.9-3.9l-0.3-2.1l0.1-1.5l1.2-1.6l0.9-1.3v-2v-2.7l0.9-2l0.7-0.8l1.1-1.2l1.1-2.5l1.3-3.9l0.5-2.1v-1.6l-1.3-1.5l-1.2-2l-0.5-1.7
	l-0.1-2.5l0.1-2.1l-0.9-2.4l-1.5-1.3l-1.2-1.3l-0.7-1.6l-0.3-1.5l-1-2.9l-1.4-1.7l-1.5-2.6l-1.3-1.5l-0.7-0.9l-0.5-1.9l-0.1-1.7
	l0.5-1.5l1.9-2.4l0.9-1.3l1.1-1.1l1-0.9l1.4-1l0.5-1.5v-1.5l-0.4-1.4l-0.5-1.3l0.3-0.2l0.7-0.8l0.1-0.9l-0.5-0.5l-0.5-0.4l-0.1-1.9
	l0.2-2.3l0.3-1.1l-0.2-2.1l-0.6-0.9l-0.1-0.7l0.6-1.3l1.1-1.7l0.9-2.1l0.6-1.5l0.7-2.4l0.6-2.3l0.1-2l-0.4-2.3l0,0l-2.3-1.3
	l-1.9-1.3l-2.3-1.7l-2.3-0.8l-2.7-1.3l-3.2-1.1l-2.8-1.6l-2.8-1.7l-1.6-2l-0.5-2.4l-0.4-2.9l0,0"/>
<path class="st0" d="M3.9,196.5l0.7,2l1.1,2l0.5,0.9l1.2,0.1h1.9h1.5l1.9,1.2l1.3,0.5l1.2-0.4l1.1-1.2l1.7-0.1l2.1-1.3l0.8-0.7
	l2-0.5l3.1-1.2l2.5-1.9l1.6-1.1l1.6-2.5l1.5-2.4l2-1.3l2.9-2l1.3-1.5l0.5-2l-0.8-4.6l-0.8-4.6l-0.8-4.6l-0.7-4"/>
<path class="st0" d="M57.6,171.8l2.3-3.1l0.9-1.5l1.3-1.5l0.7-1.2l0.8-1.7v-2v-2.1l0.7-0.9l1.6-2.7l0.9-1.3l0.4-1.2l-0.3-1.7
	l-1.1-1.6l-1.2-0.5l-2.1-0.5l-1.9-0.9l-3.1-2.4l-2-1.6l-0.8-1.2l-0.9-2.3l0,0"/>
</svg>
