<?xml version="1.0" encoding="utf-8"?>
<!-- Generator: Adobe Illustrator 25.3.0, SVG Export Plug-In . SVG Version: 6.00 Build 0)  -->
<svg version="1.1" id="Layer_1" xmlns="http://www.w3.org/2000/svg" xmlns:xlink="http://www.w3.org/1999/xlink" x="0px" y="0px"
	 viewBox="0 0 125 194" style="enable-background:new 0 0 125 194;" xml:space="preserve">
<style type="text/css">
	.st0{fill:none;stroke:#4682B4;}
</style>
<path class="st0" d="M121.9,11.5l-6.6-1.8l-3.6-0.9h-3l-3-0.3h-5.7L93,8.8l-4.2-0.3l-3.6-1.8l-3.9-1.5L79.6,5h-3.3l-5.7,1.5
	l-2.1,1.2l-0.3,1.2l2.1,1.5l-0.6,1.2l-2.1,1.2l-3-0.3l-1.2-0.6h-1.2L61.7,13v1.5l0.9,2.1l0.3,0.3l0.6,1.2l0.3,0.9l-0.6,0.9l-0.3,0.6
	l0.9,1.5l0.6,0.6l-0.9,2.1l-0.9,0.9L62,27.3v2.1v3l0.6,2.1v0.6l-2.7,3.9l-1.5,3L57.5,44l-1.5,1.2l-2.4,0.9l-1.8,2.1l-1.8,0.6
	l-0.9,1.8l-1.5,0.6L46.8,52l-0.6,1.2l0.6,0.9l1.2,0.6l-1.8,2.1L45,57.4l-0.9,1.5l-0.6,0.9l-0.3,1.5l0.9,1.2l-0.3,1.2l-1.2,0.9
	l-0.9,1.2l-0.9,1.8v1.8l-0.6,2.4l-0.6,0.6l-2.4,1.8l-1.2,2.7v2.1l1.5,1.8l0.9,1.2l0.3,0.9l0.6,1.5L39.1,86l-0.6,0.9L37,90.2
	l-0.3,1.8l0,0"/>
<path class="st0" d="M36.1,97.9l2.7,3.3l2.1,2.4l3,3l0.3,1.8l0.3,3l-0.9,2.4v4.5l-0.3,3.6l-0.6,3.3l-1.2,3.3l-0.6,2.4l0.9,2.4
	l1.5,2.1v2.7l-1.2,5.7l-0.9,3.3l-0.3,2.1v3.6l1.2,2.1l1.5,5.7l0.9,6l0.6,6l0.9,4.8l-0.3,5.1l-0.3,3.6l-0.9,3.6"/>
<path class="st0" d="M35.1,97.2l-0.3,3.9v1.2v1.5l-0.3,0.6l-2.5,0.3h-1.5l-1.3,0.4l-1.9,0.9l-2.1,0.9l-1.3,0.7l-1.6,1.5l-1.8,2.2
	l-1.5,1.2l-1.3,2.7l-0.3,1l-1.3,2.5l0,0"/>
<path class="st0" d="M14.9,121.6l-1.5,1.8l-1.3,1.6l-1.9,1.8l-1.8,2.5l-2.1,1.8l-0.7,1.3l-0.6,1.6l-0.6,3l-0.9,3.6v3.1l-0.3,3.7v1.5
	l0.6,1.5l1.2,1.2l0.6,2.1l0.7,1.9l0.1,1.5l0.3,1.6v2.5l-0.1,4.2l-0.3,1.8l-0.6,1.8l-1,2.5l0,0"/>
</svg>
