<?xml version="1.0" encoding="utf-8"?>
<!-- Generator: Adobe Illustrator 25.3.0, SVG Export Plug-In . SVG Version: 6.00 Build 0)  -->
<svg version="1.1" id="Layer_1" xmlns="http://www.w3.org/2000/svg" xmlns:xlink="http://www.w3.org/1999/xlink" x="0px" y="0px"
	 viewBox="0 0 600 244" style="enable-background:new 0 0 600 244;" xml:space="preserve">
<style type="text/css">
	.st0{fill:none;stroke:#4682B4;}
</style>
<path class="st0" d="M417.7,205.9l-12.1-17.5L393.5,171l-16.1-13.4l-18.8-10.7l-20.1-5.4l-26.8-8.1l-26.8-5.4l-13.4-2.7l-13.4-8.1
	l-28.2-25.5l-36.2-29.5l-30.9-22.8L143.9,22L127.8,9.9l-16.1-4H72.7l-25.5,8.1L25.7,38.1l-8.1,20.1L15,79.7l2.7,25.5l17.5,16.1
	l32.2,26.8l20.1,10.7l0,0"/>
<path class="st0" d="M36.5,238.1L49.9,222l13.4-17.5l12.1-10.7l17.5-14.8l25.5-6.7h20.1l20.1,4l17.5,8.1l26.8,18.8l17.5,5.4
	l48.3-1.3l30.9-1.3h41.6l18.8,2.7l14.8,4l20.1,10.7"/>
<path class="st0" d="M420.9,233.9l25.2-0.7l27.2,1l22.8-1.3l25.2-3l30.9-9.1l32.9-6.4l0,0"/>
</svg>
