<?xml version="1.0" encoding="utf-8"?>
<!-- Generator: Adobe Illustrator 25.3.0, SVG Export Plug-In . SVG Version: 6.00 Build 0)  -->
<svg version="1.1" id="Layer_1" xmlns="http://www.w3.org/2000/svg" xmlns:xlink="http://www.w3.org/1999/xlink" x="0px" y="0px"
	 viewBox="0 0 191 600" style="enable-background:new 0 0 191 600;" xml:space="preserve">
<style type="text/css">
	.st0{fill:none;stroke:#4682B4;}
</style>
<path class="st0" d="M36.9,176.3l9.7,3.5l9.1,4.6l4.9,2.5l4.9,2.5l7.2,4.8l4.4,2.3l2.5,1.5l0,0"/>
<path class="st0" d="M64.9,81.5l4.3,1.5l2,0.3l2.5,1l1.2,0.2l2,0.2l2.6-0.2l2.5-0.5l2.3-0.5l2.6-1.5l2.3-1.3l1.3-1l2.3-1.6l1.3-0.2
	l2.5,0.7l2.1,1.2l2.3,1.3l0,0"/>
<path class="st0" d="M4.6,585l4.9-5.3l1.6-5.9l2.3-6.6l2-4.6l5.9-5.6l5.3-6.6l2.6-5.3l1-8.2l-2.6-6.6l-1.6-9.6l2-7.6l2.6-4l3-4l3-3
	l0.7-3.3v-2.6l3-3.3l3.3-1.6l1.6-3.6l-2.6-5.3l-3.6-3.3h-3h-4h-5.3l-2.3-3l1.6-3.6l3.3-2l2.6-2l0.3-4.3l-2.6-1.6l-2-0.3l-2.6-1.3
	l-0.7-2.6l1-2.6l2.6-1.6l1.6-4l0,0l0.2-5.6l0.2-5.6l1-11.2l2-7.6l5.6-7.6l2.6-5.6l0.7-8.2l4.3-6.9l3.3-3.6l3.3-3.3l1.6-5.9l1-7.6
	l3.3-2.6l6.3-3l5.6-1.6l0.3-6.6l2-3.6l0,0l4.9-8.9l4-6.9l1.3-4.6l-2.6-8.2l-3-3.6l-4.3-6.3l-2.3-3l-0.3-4.6l-3-4.6l-4.6-4.9
	l-4.3-7.2l-2-6.3l-0.3-4.6l2.3-8.2l2.3-7.9l0.3-4.9l-2.6-5.3l-5.9-2.3l-3.3-1.6l0.3-8.6l-0.3-5.3l-0.7-2.3l2-4l3.6-4.9l3-4.9l2-7.2
	l-0.7-6.3l-0.3-4l2.3-1.6l8.6-1.3h5.9l10.5,1.3l10.5,3l8.2,0.7l5.3,1l10.5,4.9l7.2,2.6l7.6,3.6l5.6,3.3l6.3,2.3l5.6,0.3l4-0.3l3.6-3
	l2.3-4.6l0.7-5.9l0.3-0.3"/>
<path class="st0" d="M163.7,205.1l3-4.3l3-5.3l-0.3-5.6l-1.6-7.9v-5.3l1.3-7.6l1.6-2.3l1.3-3.3V160l-1-3l-3.3-4l-3-2.3l-3-3.6
	l-1.6-1.6l-1.3-1.3l-3-2.6l-1.6-1.3l0,0"/>
<path class="st0" d="M172.6,154l2.3-4.3l2.3-3l3-3.6l2.3-4l2.3-6.9l1.6-7.9v-4l-1-3l-1-3.3l-3-2.3l-3-4.9l-0.7-3l-2.3-3.6l-0.3-0.3"
	/>
<path class="st0" d="M171.6,94.7l3.6-3.6l0.3-4.9l-2.6-4l-2.3-2.6l-2.6-3.3l-2-4.9l-1.3-3.6l-3.6-3.3l-2.6-0.7l-4.3,1l-3.6,2.6
	l-2.6,1.3l-4.6,0.7h-4l-4.6-1.3l-3.6-0.2l0,0l-5.9,1.2l-4,1.3l-2.3,2l-2,0.3l-2.3,0.7l-3,2.3l-2,1l-3,1.3l-1,0.7l0,0"/>
<path class="st0" d="M92.4,123.7l1.6,3l2,2.3l2,3.3v2.3l-1,3l-2.3,2l-4.9,3.6l-2.3,2.3l-5.6,2.6l-4,1.3l-2.6,1.6l-5.6,2.6l-3.3,3.6
	l-2,1l-3.3,1l-4.6,3.6l-5.9,3.6l-4.9,2.3l-4.9,1.3l-5.7,2.9l0,0l-3.2,1.4l-4.4,2.6l-4.8,3.8l-3.3,3.1l-4.3,3"/>
<path class="st0" d="M101.3,15l0.7,3.6l0.3,5.6l1,6.3v5.3l0.3,5.3v1.3l-1.6,3.6l-0.3,3.6l-0.3,4.9l-3.3,2l-1.3,1.3v2.3l1.3,0.7
	l2,1.3l1,4.6v5.6v4.6l1,4.6l1.3,6.6l-0.3,4.9l0.3,2.6l1.3,8.6l-1,4l0.3,3l0.3,2.6v3l-3.3,3l-3,2l0,0"/>
</svg>
