<?xml version="1.0" encoding="utf-8"?>
<!-- Generator: Adobe Illustrator 25.3.0, SVG Export Plug-In . SVG Version: 6.00 Build 0)  -->
<svg version="1.1" id="Layer_1" xmlns="http://www.w3.org/2000/svg" xmlns:xlink="http://www.w3.org/1999/xlink" x="0px" y="0px"
	 viewBox="0 0 261 600" style="enable-background:new 0 0 261 600;" xml:space="preserve">
<style type="text/css">
	.st0{fill:none;stroke:#E42A29;stroke-width:0.5;stroke-linecap:round;stroke-linejoin:round;}
</style>
<path class="st0" d="M254.3,15c0,0.6-1.2,1.3-1.6,1.6c-0.5,0.4-1.4,1.2-2,1.5c-0.9,0.5-2.8,1.1-3.8,1.5c-2.1,0.9-6.8,2-8.4,3.6
	c-0.5,0.5-0.9,2-1.2,2.6c-0.6,1.4-1.4,4.8-2.6,5.8c-0.7,0.6-2.9,0-3.6,0.7c-0.6,0.6-0.6,2.5-0.8,3.3c-0.6,2-2.8,5.7-3.1,7.7
	c-0.1,0.9,0.3,2.8,0.3,3.8c0,1,0,3-0.3,3.9c-0.2,0.7-1.4,1.8-1.6,2.5c-0.5,1.1-0.8,3.4-1,4.6c-0.3,1.6-0.7,4.8-1,6.4
	c-0.2,1-0.7,3.1-0.7,4.1c0,1,0.5,2.8,0.7,3.8c0.1,0.7,0.4,2.2,0.3,3c-0.1,1.6-1,4.8-1.5,6.4c-0.4,1.5-1.5,4.5-2,6.1
	c-0.5,1.7-1.4,5.1-1.8,6.7l0,0c-0.5,0.7-1.6,2.2-2.1,3c-1.1,1.5-3.4,4.5-4.4,6.1c-1,1.6-3,4.8-3.9,6.4c-0.9,1.5-2.9,4.5-3.8,6.1
	c-0.5,1-1.6,3-2,4.1c-0.4,1.1-1,3.4-1.2,4.6c-0.1,0.9,0,2.7,0,3.6c-0.1,1.9-0.4,5.8-0.5,7.7c-0.1,1.9-0.6,5.9,0,7.7
	c0.3,1,2,2.6,2.6,3.5c0.8,1,2.2,3.1,3,4.1c0.7,1,2.9,2.7,2.8,3.9c-0.1,1.2-2.5,2.8-3.5,3.6c-1.6,1.5-4.6,4.8-6.6,5.6
	c-1.6,0.6-5.2,0.1-6.9,0.3c-2.1,0.2-6.2,1.1-8.2,1.5c-0.7,0.1-2.3,0.4-3,0.7c-0.9,0.4-2.6,1.6-3.5,2.1c-0.8,0.5-3.2,1.1-3.1,2
	c0.1,1.4,3.7,1.6,4.9,2.3c1.4,0.8,4,2.7,5.3,3.6c1.6,1.2,5.5,3.1,6.4,4.9c0.3,0.7,0,2.3,0,3.1c0,1.3,0.6,4.1,0,5.3
	c-0.4,0.8-2.3,1.5-3.1,2l0,0c-0.4,0.9-1.5,2.6-1.5,3.6c0,0.6,0.9,1.6,1,2.1c0.2,1.1-0.3,3.5-0.5,4.6c-0.1,1.1,0,3.4-0.7,4.3
	c-0.4,0.4-1.8,0.4-2.1,0.8c-0.3,0.5-0.1,1.9,0,2.5c0.1,0.6,1,1.5,1,2.1c0,0.5-0.4,1.5-0.8,1.8c-0.4,0.3-1.4,0.3-1.8,0.5
	c-0.5,0.3-1.3,1-1.5,1.5c-0.1,0.4,0.4,1.2,0.2,1.5c-0.4,0.6-2.3,0.1-2.6,0.7c-0.3,0.5,0.6,1.5,0.7,2c0.1,0.8-0.8,2.4-0.5,3.1
	c0.1,0.3,0.9,0.5,1,0.8c0.4,0.9-0.1,2.8-0.3,3.8c-0.2,1.2-1.2,3.6-1.5,4.8c-0.3,1.1-1.1,3.3-1,4.4c0.1,0.9,0.9,2.7,1.5,3.5
	c0.4,0.6,1.8,1.3,2.3,1.8c0.8,0.7,2.1,2.2,2.8,3c0.7,0.7,2,2.2,2.6,3c0.5,0.6,1.6,1.8,2,2.5c0.3,0.6,0.7,2.1,0.8,2.8
	c0.3,1.5,0.3,4.4,0.3,5.9c0,0.7,0,2.2-0.2,3c-0.3,1.1-1.4,3.2-1.8,4.3c-0.5,1.3-1.2,3.8-1.6,5.1c-0.3,1-0.8,3.2-1.3,4.1
	c-0.4,0.7-1.5,2-2.1,2.5c-1,0.7-3.4,1.3-4.4,2c-0.8,0.5-2.2,1.8-2.8,2.5c-1,1.1-2.8,3.6-3.5,4.9c-0.6,1.2-1.2,3.9-1.6,5.3l0,0
	c-0.2,0.8-0.5,2.5-0.7,3.3c-0.1,0.7-0.5,2.1-0.2,2.6c0.4,0.6,2,0.6,2.6,1c0.6,0.4,1.6,1.5,2,2.1c0.2,0.3,0.6,1,0.5,1.3
	c-0.2,0.7-1.9,0.9-2.5,1.3c-0.9,0.6-3.5,1.5-3.5,2.6c0,0.5,1.3,0.8,1.6,1.2c0.5,0.5,1.3,1.8,1.5,2.5c0.2,1-0.2,3.2-0.3,4.3
	c-0.1,0.4-0.4,1.1-0.3,1.5c0,0.7,0.4,2.2,1,2.6c0.5,0.3,1.8-0.2,2.3,0.2c0.5,0.4,1,1.7,0.8,2.3c-0.2,0.7-1.6,1.6-2.1,2.1
	c-0.5,0.6-1.5,1.7-2,2.3c-0.6,0.8-1.7,2.3-2.3,3.1c-0.6,0.8-2,2.3-2.3,3.3c-0.3,0.9,0.2,2.7,0.2,3.6c0,1.4-0.1,4.3-0.2,5.8
	c-0.1,1.7-0.3,5.2-0.3,6.9c0,1.4,0.3,4.1,0.3,5.4c0,0.9,0,2.7-0.2,3.6c-0.1,0.5-0.1,1.7-0.5,2c-0.7,0.6-2.9-0.5-3.6,0
	c-0.3,0.2-0.4,1-0.5,1.3c-0.2,0.9,0,2.7,0,3.6c0,1.6,0.1,4.9,0,6.6c-0.1,1-0.7,3.1-0.7,4.1c0.1,1,1,2.8,1.3,3.8
	c0.4,1,1.2,2.8,1.5,3.8c0.2,0.5,0.2,1.6,0.5,2c0.6,0.8,2.5,1.6,3.3,2.1c0.5,0.4,1.8,0.9,2.1,1.5c0.2,0.3,0.4,1.2,0.2,1.5
	c-0.4,0.4-1.7,0-2.3,0c-0.9,0-2.8-0.1-3.6,0.3c-0.3,0.1-0.9,0.7-1,1c-0.2,0.7,0.4,2.1,0.2,2.8c-0.2,0.4-1,0.8-1.3,1.2
	c-0.4,0.5-0.9,1.7-1.2,2.3l0,0c-0.1,0.9,0,2.8-0.5,3.6c-0.3,0.6-1.6,1.2-2.1,1.6c-1,0.8-2.9,2.4-3.9,3.1c-1.4,1-5.3,2.3-5.8,3.9
	c-0.2,0.7,1,2,1.3,2.6c0.4,0.9,1.2,2.6,1.6,3.5c0.4,0.7,1.3,2.2,1.5,3c0.2,0.9,0.2,2.7,0.3,3.6c0.1,0.8,0.3,2.5,0.3,3.3
	c0,1.2-0.4,3.6-0.3,4.8c0.1,0.7,0.4,2,0.7,2.6c0.2,0.5,0.9,1.3,1,1.8c0.2,1-0.2,3-0.3,3.9c-0.2,1.4-0.6,4.3-0.8,5.8
	c-0.1,0.7-0.3,2.1-0.7,2.8c-0.4,0.8-1.5,2.4-2.3,3c-0.8,0.6-2.8,0.9-3.8,1.2c-1,0.2-3,0.2-3.9,0.7c-0.3,0.1-0.8,0.5-1,0.8
	c-0.6,1-0.6,3.3-0.8,4.4c-0.2,0.9-0.7,2.7-1,3.6c-0.4,1.3-1.8,3.9-1.6,5.3c0,0.5,0.8,1.5,1,2c0.1,0.4,0.4,1.2,0.3,1.6
	c0,0.5-0.5,1.5-0.7,2c-0.2,0.7-0.7,2-0.7,2.6c0,0.5,0.6,1.4,0.5,1.8c-0.1,0.5-1.1,1.2-1.5,1.5c-0.6,0.5-2.2,0.9-2.8,1.5
	c-0.5,0.5-1.2,1.8-1.5,2.5c-0.3,0.8-0.9,2.4-1,3.3c-0.1,0.7-0.3,2.1,0,2.8c0.2,0.4,1.1,0.9,1.3,1.3c0.4,0.7,0.5,2.2,0.7,3
	c0.1,0.5,0.3,1.6,0.2,2.1c-0.1,0.4-0.8,1-1.2,1.3c-0.6,0.5-1.8,1.1-2.5,1.5c-0.4,0.3-1.6,0.5-1.8,1c-0.2,0.6,0.9,1.8,1.2,2.5l0,0
	c0.1,0.7,0.5,2.2,0.5,3c-0.1,0.9-0.9,2.4-1,3.3c-0.1,0.6,0.1,1.7,0.2,2.3c0.2,1.1,0.7,3.1,1.2,4.1c0.6,1.4,2.5,3.8,3.1,5.1
	c0.4,0.8,1.4,2.5,1.3,3.5c0,0.6-0.9,1.6-1.2,2.1c-0.8,1.5-2.6,4.3-3.5,5.8c-0.8,1.3-2.2,4-3.1,5.3c-1,1.4-3,4.2-4.3,5.3
	c-0.6,0.5-2.3,1-2.8,1.6c-0.6,0.8-0.4,3-1,3.8c-0.5,0.7-2.1,1.4-2.8,2c-0.6,0.4-1.7,1.2-2.1,1.8c-0.8,1.1-1.2,4-1.6,5.3
	c-0.7,2.1-2.2,6.4-3.1,8.4c-0.4,0.8-1.3,2.4-1.8,3.1c-0.9,1.2-3.5,3.1-4.4,4.3c-0.8,1-2.1,3.2-2.8,4.3c-0.9,1.5-2.4,4.6-3.3,6.1
	c-0.5,0.9-1.4,3.1-2.3,3.6c-0.6,0.4-2.2,0.2-3,0c-1.7-0.4-4.5-3.2-6.2-3.1c-0.7,0-1.9,1.2-2.5,1.6c-0.6,0.4-1.7,1.7-2.5,1.8
	c-1.2,0.2-3.4-1.4-4.6-1.8c-0.7-0.2-2.2-0.8-3-0.8c-0.8,0-2.3,0.9-3.1,0.8c-0.7-0.1-1.9-0.8-2.5-1.2c-0.9-0.6-2.5-1.9-3.3-2.6
	c-0.6-0.5-2-1.5-2.3-2.3c-0.2-0.5,0.1-1.6,0.2-2.1c0.2-1,1.3-3.1,1-4.1c-0.3-0.7-1.9-1.3-2.5-1.8c-0.5-0.4-1.7-1.2-2-1.8
	c-0.3-0.8,0.2-2.7,0.3-3.6c0.1-1.3,0.6-3.9,0.5-5.3c-0.1-1.4-0.9-4-1.3-5.3c-0.7-1.9-2.6-5.4-3.3-7.2c-0.7-1.9-1.9-5.8-2.5-7.7
	c-0.7-2.2-1.9-6.7-2.6-8.9c-0.8-2.4-3-7-3.8-9.4c-0.8-2.3-1.9-6.9-2.6-9.2c-0.7-2.4-2.3-7.3-3.1-9.7c-0.6-1.8-1.8-5.4-2.5-7.2l0,0
	c-0.5-1.6-1.5-4.8-2.1-6.4c-0.8-2.2-3-6.5-3.8-8.7c-0.4-1.2-0.5-3.9-1.3-4.8c-0.5-0.5-2.2-0.4-2.6-1c-0.5-0.6,0-2.4-0.3-3.1
	c-0.6-1.1-2.4-3-3.6-3.3c-0.6-0.2-2,0.7-2.6,0.5c-0.5-0.2-1.1-1.3-1.3-1.8c-0.2-0.7,0.3-2.4,0-3.1c-0.4-1.2-2.4-2.8-3.1-3.8
	c-1.2-1.5-3.4-4.7-4.4-6.2c-0.9-1.3-2.3-4-3.3-5.3C8.7,446,7,445,6.7,444.1c-0.2-0.6,0-1.8,0-2.5c0-0.8-0.4-2.5,0-3.1
	c0.6-0.9,2.8-1.6,3.8-2c1-0.4,3.2-1,4.3-1.3c1.2-0.3,3.5-1.1,4.8-1.3c1.7-0.3,5.2,0.3,6.7-0.3c0.9-0.3,2.2-1.7,3-2.3
	c0.9-0.6,2.7-1.8,3.6-2.5c0.9-0.7,2.5-2.2,3.5-2.8c0.5-0.3,1.8-0.7,2.1-1.2c0.5-0.7,0.3-2.5,0.5-3.3c0.2-1,1.2-2.8,1.3-3.8
	c0.1-0.9-0.4-2.6-0.5-3.5l0,0c-0.1-1.2-0.9-3.7-0.3-4.8c0.5-0.8,2.5-1.1,3.3-1.5c1-0.4,3.1-1.2,4.1-1.6c0.7-0.3,2.4-0.6,3-1.2
	c0.5-0.5,1.1-1.8,1.5-2.5c0.4-0.7,0.9-2.1,1.5-2.6c0.6-0.5,2.1-0.9,2.8-1.3c1-0.6,2.8-1.9,3.6-2.6c0.9-0.8,2.5-2.6,3.5-3.5
	c1.1-1,3.3-3,4.6-3.8c0.6-0.4,2.1-1,2.8-1.2c1.2-0.2,3.7-0.5,4.8,0c0.7,0.4,1.3,2.2,2,2.6c0.5,0.3,1.9,0.3,2.5,0.5
	c1.1,0.3,3.4,0.6,4.3,1.3c0.9,0.6,1.7,2.7,2.3,3.6c1,1.5,3.4,4.1,4.4,5.6c1,1.4,2.5,4.4,3.5,5.8c0.9,1.3,2.9,3.5,3.8,4.8
	c0.6,0.9,1.2,2.9,2,3.6c0.7,0.6,2.4,1.4,3.3,1.5c0.8,0.1,2.4-0.3,3-0.8c0.6-0.7,0.5-2.7,0.7-3.6c0.2-1.1,0.5-3.4,0.8-4.4
	c0.4-1.2,1.7-3.4,2-4.6c0.3-1.6,0.1-5.1,0.8-6.6c0.3-0.5,1.4-1.1,1.8-1.6c0.5-0.7,1.3-2.4,1.5-3.3c0.1-0.7-0.1-2.1,0-2.8
	c0.1-0.9,0.2-2.8,0.8-3.5c0.4-0.5,1.8-0.5,2.5-0.7c0.7-0.1,2.1,0,2.6-0.5c0.7-0.6,0.8-2.7,1.2-3.6c0.3-0.7,1-2.2,1.5-2.8
	c0.4-0.5,1.5-1,2-1.5c0.6-0.6,1.8-2,2-2.8c0.2-0.8-0.4-2.5-0.5-3.3c-0.2-1.3-0.4-3.9-1-5.1c-0.2-0.4-0.9-1.1-1.3-1.3
	c-0.3-0.1-1.1,0.1-1.3-0.2c-0.6-0.6-0.4-2.6-0.5-3.5c-0.1-0.9-0.5-2.7-0.7-3.6c-0.2-0.9-0.9-2.7-0.8-3.6c0.1-0.7,1-1.8,1.3-2.5
	c0.4-0.8,1.2-2.4,1.3-3.3c0.1-0.8-1.1-2.5-0.7-3.1c0.2-0.3,1.4,0,1.6-0.3c0.5-0.6-0.1-2.3-0.2-3.1c-0.1-2.3,0.1-6.8,0-9
	c-0.1-1.5-0.5-4.6-0.7-6.1l0,0"/>
</svg>
