<?xml version="1.0" encoding="utf-8"?>
<!-- Generator: Adobe Illustrator 25.3.0, SVG Export Plug-In . SVG Version: 6.00 Build 0)  -->
<svg version="1.1" id="Layer_1" xmlns="http://www.w3.org/2000/svg" xmlns:xlink="http://www.w3.org/1999/xlink" x="0px" y="0px"
	 viewBox="0 0 600 535" style="enable-background:new 0 0 600 535;" xml:space="preserve">
<style type="text/css">
	.st0{fill:none;stroke:#4682B4;}
</style>
<path class="st0" d="M548.2,521.9l28.9-35l2.6-30.6l-38.5-22.8l-72.7-33.3l-34.1-17.5l-12.3-48.2l0.9-0.9"/>
<path class="st0" d="M209.4,330.1l37.6-26.3l44.7-25.4l32.4-10.5l38.5,7l28.9,7l0,0"/>
<path class="st0" d="M15,13.1l25.4,33.3l22.8,36.8l42,39.4l29.8,31.5l-7.9,51.7l14,12.3l5.3,62.2l19.3,28l14.9,48.2l44.7,18.4
	l81.4,8.8l68.3-24.5l21.9-14.9l0,0"/>
<path class="st0" d="M404.6,299.5l37.6-4.4l34.1-35.9l18.4-29.8l-1.8-42l29.8-27.1l35.9-37.6l26.3-18.4l0,0"/>
</svg>
