<?xml version="1.0" encoding="utf-8"?>
<!-- Generator: Adobe Illustrator 25.3.0, SVG Export Plug-In . SVG Version: 6.00 Build 0)  -->
<svg version="1.1" id="Layer_1" xmlns="http://www.w3.org/2000/svg" xmlns:xlink="http://www.w3.org/1999/xlink" x="0px" y="0px"
	 viewBox="0 0 345 535" style="enable-background:new 0 0 345 535;" xml:space="preserve">
<style type="text/css">
	.st0{fill:none;stroke:#B82025;stroke-miterlimit:10;}
</style>
<path class="st0" d="M336.6,13.4l-10.5,3.5l-6.5,2l-8.5,3.2l-12,5.2L287,25.6l-9.2-0.2l-7.5,1.2l-8.7,1.2l-5.5,1.5l-2.5,4l-5.7,3.7
	l-6.5,4l-8.5,7l-7.2,5.2l-5,11L216.9,76l-6.5,10.2l-3.2,6l-3.2,10l-3.5,11.2l-0.7,11l0.2,5.5l-1.5,4l-4,0.2l-3.5,6.5l-3.5,4l-1,3.5
	l1.2,7l1.5,1.7l-1,6l-0.7,4v6.7l-1.5,3l-5.2,1.2l-4,0.5l0,0"/>
<path class="st0" d="M121.6,45.5l2.7,5.7l4.2,6.2l7,2.2l9.5-1.7l5-0.2l1.5,5.5l-1.5,7l1.2,4l5.2,3.5l2.5,6.5l5.5,6.5l9.2,2.2
	l9.7,1.5l6,4.2l8.2,9.5l0.7,10.7l0.2,8.2l-1.5,4.7l-3.7,1l-4,7.2l-4.5,5.2v6.2l0,0l1.5,5.7l-0.5,5l-1.2,5.5l0.2,3.2l-1.7,3.2l-5,1.2
	l0,0"/>
<path class="st0" d="M109.7,145.5l7,4.5l6,4l3,3.2l1.7,8.5l-5-0.2l-2.2,2l-4.2,0.2l-2.5,2.5l-4-2.7l-4.2-1l-4.7,5.2l0.2,6.2l-4,2
	l0.2,2.2l-8.5,2.2l-4.2-2.2l-4.2,4.2l3.5,3.5h-8.2l0.5,5l0,0"/>
<path class="st0" d="M114.4,143.1l9.2,5.5l4.7,3.7l-0.5,6.5l4.5,6.5l4.2-3.7l1.7,1.7l-1.2,2.5l3,3.5l2.2-0.5l1.2,6l5.7,1.7l2.2-2.7
	h4l2.5-1.7l4.7-0.2l11,6l0,0"/>
<path class="st0" d="M165.3,244.6l2-10l-3-2l-1-8.7l2.2-2.2v-2l-1.2-2.7l5.2-4.2v-2.5l3.7-3.5v-2l4.7-0.5l2.2-5.5l-2.7-6.5v-6l2-2.5
	l-1.2-3.2l0,0"/>
<path class="st0" d="M76.2,198.7l-1,8.5l-1.5,10l-1.2,12l-1.5,8l-7,8l-9.7,6.2l0,0"/>
<path class="st0" d="M8.4,293.2l6.5-6l7.5-6.7l4-7.2l9.5-9V255l0.7-8.5l5.2-5.5l0.5-4.5l6-12.5l5-10l2.5-7.5v-11l4.5-4.5l5.2-1.7
	l3.7,2l4.2,7l0,0"/>
<path class="st0" d="M197.9,317.9l-4.5-5.7l-4-7l0.5-13.7l-7.2-5.2l-3.5-2.2v-2.5l-7-6.5l-1-9.7l-4.7-13.2l0,0"/>
<path class="st0" d="M162.3,256l-1,9.5l0.2,8l-3,6l2.7,7.2v3.7l-3.5,3.2v8.5l5.7,12v5.5l4.2,7.2l-3.5,17.7v0.2"/>
<path class="st0" d="M163.3,353.3l-3,10.7l0,0"/>
<path class="st0" d="M158,373.2l-1,8.2l0.5,5.2l3.2,6.7l0.7,5l-2.5,7l-6,5.2l-7.2,6.2l-2.2,7l-0.5,9l0,0"/>
<path class="st0" d="M142.1,436.1l-4.5,8.5l-2.7,4.5l-1,10l-0.5,4.7l7.2,3.7l5.7,2.5l2.5,1.2l0.2,3l-6.7,7.2l-1.7,1.7l-3.5,0.2v2.5
	h-3.7l-0.7,2.5l4.5,1.5l7.7,12.5l8.7,14l4,5.2l0,0"/>
</svg>
