<?xml version="1.0" encoding="utf-8"?>
<!-- Generator: Adobe Illustrator 25.3.0, SVG Export Plug-In . SVG Version: 6.00 Build 0)  -->
<svg version="1.1" id="Layer_1" xmlns="http://www.w3.org/2000/svg" xmlns:xlink="http://www.w3.org/1999/xlink" x="0px" y="0px"
	 viewBox="0 0 345 191" style="enable-background:new 0 0 345 191;" xml:space="preserve">
<style type="text/css">
	.st0{fill:none;stroke:#4682B4;}
</style>
<path class="st0" d="M8.6,186.1l14.7-5.3l18.1-3.7l15.9-0.9l23.4-2.2l16.2-1.4l16.2-1.4l16.2-1.6l16.2-1.6l18.7-3.7l14.4-11.2
	l11.6-10.6l14.4-3.1l16.2-0.9l11.9,2.2l16.6,8.7l10.6,1.2l7.2-1.9l7.5,2.2l3.1,3.1l15.8,0l15.8,3.8l0,0"/>
<path class="st0" d="M285.8,32.4l4.1,6.9l5,6.6L298,48l8.4,5.6l5.6,0.9l7.5,3.7l2.8,5.3h6.9l4.1,0.9l3.1,4.4l-1.2,6.2l-5,3.7
	l2.5,7.8l-6.6,5.9l-0.6,11.9l-6.2,1.6l-4.1,12.8l6.6,8.1l2.2,5l-3.7,3.4l-4.1,21.9l0,0"/>
<path class="st0" d="M283.3,33.3l-6.2,8.7l-5.9,0.3L268,38l-7.2-1.2l-6.2-3.7l0,0"/>
<path class="st0" d="M258.6,23.6l-9.4,6.2l-5,0.3l-4.1-1.9l-4.7-12.5l-6.9-8.4l-8.4-1.6l-19.7-0.9l-9.7,5.6l-10,10l-5,6.6l-10.9,7.2
	l-11.9,14.1l-8.4,8.7l-13.4,6.9L109.3,72L95,76.1l-7.8,2.2l-3.7,7.8L77.3,100l-6.1,13.9l-6.7,12.5l-6.7,12.5l-14.1,15.9l-16.2,10.5
	l-12.8,13.5l0,0"/>
<path class="st0" d="M49.4,97.9l11.1-0.9l10.5-1.1l9.8-5.2l0,0"/>
<path class="st0" d="M223.8,13.7l8.3-0.6l0,0"/>
</svg>
