<?xml version="1.0" encoding="utf-8"?>
<!-- Generator: Adobe Illustrator 25.3.0, SVG Export Plug-In . SVG Version: 6.00 Build 0)  -->
<svg version="1.1" id="Layer_1" xmlns="http://www.w3.org/2000/svg" xmlns:xlink="http://www.w3.org/1999/xlink" x="0px" y="0px"
	 viewBox="0 0 97 255" style="enable-background:new 0 0 97 255;" xml:space="preserve">
<style type="text/css">
	.st0{fill:none;stroke:#4682B4;}
</style>
<path class="st0" d="M35.1,248.6v-2.7l-0.2-2.4l1.5-2.6l1.1-2.9l0.1-3l0.3-1.6l1.2-2.2l-0.6-1v-0.8l0.5-0.3v-0.7l-0.6-0.4l-0.4-1
	l0.1-0.9l-0.6-0.8l0.3-2.2l0,0"/>
<path class="st0" d="M2.5,238.7l1.1,0.7l1.2,0.4l1.4-0.4l1.5-1.6l2.2-1.9l1.8-1.5l2.7-0.2l1.9-0.2l1-0.5l0-0.8l-0.3-0.4l0,0l3.8-0.1
	l2.8-2.4l3.1-2.2l1.8-0.4l1.3-0.8l1.7-1.2h2.7l1.4-0.5l1.9-1.6l0.1-1.8l-0.4-3.7l-0.3-1.3l0.6-1.6l1.6-1l0.2-1.5l1.2-2.2l0,0
	l0.8-2.9l-1-2.9l0.2-2.3l2-2l0-0.6l1.2-1.4l-0.2-1.9l2.4-1.5l-0.2-1.4l-1.7-1.3l-1-0.2l-0.8,0.5l-1.3,0.1l-0.6-0.9l-0.1-0.9l0.9-0.4
	l1.4-1.1l0-0.8l-0.5-1h-1l-1-0.5v-0.7l1.2-0.9l0,0l0.6-7l0.7-4.2l1.8-3.4L48,166l0.3-2.8l1.6-2l2.6-0.8v-2.7l2.7-3.2l1.1-3.3
	l4.1-3.3l7-5.2l0,0l3.9-3.2l1.3-1.8l-1.5-4.6l1.1-3.1l2.2-6.1l1.6-1l0.8-2.6l1.7-1.7l0.1-3.1l1.6-2.8l0,0l-0.9-6l1.7-2.2v-3.3
	l2.6-3.6l0,0l0.7-2.7l0.4-4l-1.3-0.9l-1.1-2.7l-0.2-3.1l-2.5-4L79,77.5l-3.6-5.3v-1.8l2.7-5.6l1.8-1.3v-0.7l0.7-0.7l-0.7-2l0.4-1.3
	L79,58.2l0.7-4.7l-0.4-2l2.5-5.6l0.2-2.2l-1.1-1.6l0.4-1.5l2.2-1.3l0.2-5.6l-0.5-8.7l-0.5-7.3l-0.2-3.4l0.7-4.2l2.4-1.1l4.2,0.4
	l2.7-1.1l2.2-2"/>
</svg>
