<?xml version="1.0" encoding="utf-8"?>
<!-- Generator: Adobe Illustrator 25.3.0, SVG Export Plug-In . SVG Version: 6.00 Build 0)  -->
<svg version="1.1" id="Layer_1" xmlns="http://www.w3.org/2000/svg" xmlns:xlink="http://www.w3.org/1999/xlink" x="0px" y="0px"
	 viewBox="0 0 97 128" style="enable-background:new 0 0 97 128;" xml:space="preserve">
<style type="text/css">
	.st0{fill:none;stroke:#4682B4;}
</style>
<path class="st0" d="M2.4,35l0.8-7.2l4.2-5.3l4.9-1.3l5.3-4.9l7.8-2.3l7.4-2.7L36.7,8l3.8-1.7l6.1-0.4L54,3.3l5.5,0.2l3.6,6.3
	l3.6,6.8l6.8,2.3l6.3,2.5l7.8,5.9l3.2,4l1.5,3.6l-1.7,7l-1.7,2.5l-1.3,6.8l4,2.1l2.7,2.7l-3,3.2l-1.7,0.4l-0.2,1.1H88l-0.2,1.5
	l2.1,0.2l0.4,6.6l3.4,3l0.8,3.2l-0.6,1.9l-6.1,10.1L81.7,97l-1.5,2.3l0,0l-0.2,4.9l-1.1,8.5l-0.6,9.7v2.3l0,0"/>
</svg>
