<?xml version="1.0" encoding="utf-8"?>
<!-- Generator: Adobe Illustrator 25.3.0, SVG Export Plug-In . SVG Version: 6.00 Build 0)  -->
<svg version="1.1" id="Layer_1" xmlns="http://www.w3.org/2000/svg" xmlns:xlink="http://www.w3.org/1999/xlink" x="0px" y="0px"
	 viewBox="0 0 41 36" style="enable-background:new 0 0 41 36;" xml:space="preserve">
<style type="text/css">
	.st0{fill:none;stroke:#4682B4;}
</style>
<path class="st0" d="M1,34.9l0.9-1.7l1.4-2.9l1.1-2.6l0,0l1.5-3.3l0.9-2l1.7-2.1l0.8-2l0.5-1.9l0.9-2.1l0.4-1.3l0.3-1.3L12,8.9l0,0
	l0.2-1.5l0.6-1.2l0.5-1l0.6-2L14.6,2l1.7,0h2.4l2.1-0.1l0,0"/>
<path class="st0" d="M40,5l-1.5-0.7H38l-0.7,0.1l-0.8-0.6L34.4,3l-1.6-0.7l-1.6-1.2l-2-0.1l-0.9,0.6l-3.2,0l-1.2,0.2l-1.1,0.4l0,0"
	/>
</svg>
