<?xml version="1.0" standalone="no"?><!DOCTYPE svg PUBLIC "-//W3C//DTD SVG 1.1//EN" "http://www.w3.org/Graphics/SVG/1.1/DTD/svg11.dtd"><svg width="365" height="600" version="1.1" xmlns="http://www.w3.org/2000/svg" xmlns:xlink="http://www.w3.org/1999/xlink"><path stroke-width="1" stroke="#4682b4" fill="steelblue" d="M242.13598521304448,571.1675835338428L242.13598521304448,567.5137376034527L246.3118093425037,564.3818694719776L246.05082014436448,562.0329683118234L242.13598521304448,558.6401110389634L241.61400719686208,555.508242969614L238.48213909976948,553.681320030124L240.3090619663617,548.9835175996814L241.61400719686208,544.0247266302558L246.57279816054688,541.1538474615227L247.09477617672928,531.4972540726994L253.35851275100867,527.5824189199848L253.35851275100867,524.7115398014448L250.74862267009667,521.5796713053442L258.57829291282906,512.7060451034577L255.96840283191887,509.05219886378836L257.27334768232504,504.8763745609758L262.49312784414906,505.398352602695L261.97114982796666,502.5274735360417L268.7568644184248,496.26373750364655L275.8035674468392,494.4368141241757L280.240380774434,484.5192319407106L283.6332380696658,476.95055081485043L283.6332380696658,472.7747264947593L282.589282037301,466.7719793653432L287.8090621991214,457.1153859350634L285.98213895244044,454.24450645386423L286.7651061667584,452.41758368337287L285.7211501343936,448.7637372516165" /><path stroke-width="1" stroke="#4682b4" fill="steelblue" d="M285.7211501343936,448.7637372516165L282.589282037301,439.89011025899345L282.8502712354366,439.6291210779109" /><path stroke-width="1" stroke="#4682b4" fill="steelblue" d="M199.59477670415254,474.07967075239867L204.03159003174915,470.4258246416757L209.77334820975375,467.2939565920278L218.9079636829847,466.7719784709752L227.5206007599445,463.11813219452233L232.7403809217667,460.76923120664287L236.6552162331791,459.986264057743L244.74587567404888,453.722527627162L251.27060068627725,448.7637368042342L260.66620535765105,444.5879125052943L266.92994155183624,442.76098926106533L269.53983163274825,440.67307729564345" /><path stroke-width="1" stroke="#4682b4" fill="steelblue" d="M351.49039119603367,15L352.79533642653587,28.049450387596153L353.8392924589007,40.5769229762609L353.5783032607651,51.01648319703236L353.8392924589007,58.84615369045969L355.6662153254929,63.02197797480221L355.1442373093105,66.93681305609061L348.3585230989411,73.20054916582012L345.2266550018485,76.59340626489939L345.2266550018485,76.59340626489939" /><path stroke-width="1" stroke="#4682b4" fill="steelblue" d="M275.5425888912996,18.653846238728875L277.8914901541666,24.39560412744686L283.6332483321694,27.788461266271042L285.7211603968972,32.22527438169709L281.8063250854866,38.22802167907321L275.80357808944063,45.013736211300056L274.23764404089343,47.623626322651035L274.75962205707583,58.585164877229545L276.3255561056212,67.71978026101533L281.5453362674398,70.8516483688818L285.7211603968972,75.02747238292432L296.1607207205416,76.07142858492807L307.12225944046077,77.37637344410359L307.38324825850395,89.12087882102969L307.38324825850395,89.12087882102969" /><path stroke-width="1" stroke="#4682b4" fill="steelblue" d="M334.52610357960475,78.94230782948762L328.0013785673764,85.72802196862904L320.9546751588696,91.2087914292988L310.7761036532702,97.472527526068L307.90522475431317,102.69230769284331L308.6881915885406,109.47802222531391L316.5178618312748,116.78571440721316L318.34478507795757,123.57142882953303L318.34478507795757,131.6620878735921L318.34478507795757,136.62087918290672L315.9958838150924,141.57967059935982L311.82005968563317,146.0164833973795L311.0370928514076,152.8021976639975L311.55907086759,160.37087920383783L311.82005968563317,163.763736311128L317.5618178636396,166.63461555611866L317.5618178636396,166.63461555611866L320.95467287831343,172.89835077288262L318.8667608135838,179.94505417286018L316.2568707326718,188.29670277773766L317.82280478122084,194.8214277232073L323.3035741411768,204.2170323877035L327.479398270636,207.6098896042804L327.479398270636,212.30769173111366L332.6991784324582,220.39835093747024L335.83104652954717,226.66208742359413L335.83104652954717,232.92582353991747L335.3090685133684,236.3186804782854L331.6552224000934,239.97252665632004L326.6964310563162,248.5851641761692L327.2184090724986,253.2829663717148L325.9134642220906,254.5879115515836L319.1277500117212,257.19780164540134L319.1277500117212,257.19780164540134L315.2129120396603,260.85164769275616L313.9079671892505,267.1153842285821L311.5590659263835,272.8571423520334L305.8173077483807,278.07692270882944L303.9903845016961,282.5137358592292L299.8145603722387,288.51648280810514L297.4656594894659,296.3461535289389L295.6387362427813,308.0906587629761L294.8557694085557,318.2692302554078L294.8557694085557,324.0109883630612L294.8557694085557,324.0109883630612L290.94093219667775,328.18681346894846L290.94093219667775,330.53571461055435L296.68269037468235,332.1016488456644L297.46565758900033,335.75549485710326L291.46291021286015,340.7142863578774L291.20192139481514,344.1071434809237L294.07280029377216,345.9340664409701L297.46565758900033,345.4120883609103L300.07554766991416,344.1071434809237L305.03433901368953,346.97802241129284L306.86126188028175,350.3708795220882L306.6002730622349,352.7197808512301L300.33653648795735,357.6785720019834L300.85851450413975,361.59340690269346L297.72664640704716,365.50824205132994L297.98763560518273,367.5961542192017L292.50686624522314,373.5989016566655L291.72389941099755,381.1675830945842L295.37774552427254,389.78022020782555L291.46291021286015,393.6950553710867L292.24587742717995,398.6538467493556L288.0700532977262,407.2664838455039L282.5892839377666,411.44230797765704L283.63323997012776,420.8379124184812L283.63323997012776,420.8379124184812" /><path stroke-width="1" stroke="#4682b4" fill="steelblue" d="M9.333784674508934,585L15.075542852509898,581.3461538278643L21.600268244832478,574.560439743318L27.603015620974475,562.2939561972144L34.127740633206486,552.1153846442539L40.39147720748588,537.5000000344862L48.22114745021645,517.4038460505544L54.74587284254085,502.2664835610067L62.83653190331643,486.0851649248543L66.75136721472882,480.60439546352245L75.8859826879634,479.82142877858314L85.02059816119981,479.038461580838L97.80905936761337,478.51648371027477L111.90246618462515,479.56043957098336L116.33927913212574,479.82142877858314L119.21015841117514,477.4725274332777L122.86400452444832,475.9065934642804L129.12774071863714,469.9038462661265L132.25960881572973,466.51098917464515L132.25960881572973,466.51098917464515L136.95741324192568,461.291209114137L144.00411627033645,458.15934115471646L154.44367697407324,457.8983520274196L162.53433603484882,458.15934115471646L168.2760945929458,454.76648405192464L173.7568635728112,451.37362693379146L178.7156549165884,451.37362693379146L182.89147904604397,451.63461568749153L188.37224840600356,447.19780263917346L192.02609451928038,445.6318685831957L195.67994063255537,440.1510995793651L202.98763285910536,435.1923079489079L212.38323715038314,432.8434069075174L223.34477587030233,429.9725278648948L237.9601603234005,428.92857206459666L237.9601603234005,428.92857206459666L243.96290921991204,429.71153859491824L249.96565659605403,431.79945082057566L257.79532683878824,430.7554947167264L264.58104104915583,429.97252741731063L264.58104104915583,429.97252741731063" /></svg>