<?xml version="1.0" encoding="utf-8"?>
<!-- Generator: Adobe Illustrator 25.3.0, SVG Export Plug-In . SVG Version: 6.00 Build 0)  -->
<svg version="1.1" id="Layer_1" xmlns="http://www.w3.org/2000/svg" xmlns:xlink="http://www.w3.org/1999/xlink" x="0px" y="0px"
	 viewBox="0 0 281 272" style="enable-background:new 0 0 281 272;" xml:space="preserve">
<style type="text/css">
	.st0{fill:none;stroke:#4682B4;stroke-miterlimit:10;}
</style>
<path class="st0" d="M7.4,265.2l5.4-1l4.7-1l3.9-1.6l1.8-2.1l-2.9-3.4l1-2.1l7.3-3.4l7-0.5l6-0.8l6.5,2.3l5.4,3.4l6,0.8l12.4,0.3
	h13.7l6.2-0.3l3.6,0.3"/>
<path class="st0" d="M7.4,262.6l1.8-7l-0.8-4.7l0.8-4.9l-2.1-5.2l0.3-5.4l3.6-2.9l4.1-5.4l2.1-4.9l0.3-4.4l3.6-2.6l-1.8-5.7
	l-2.3-6.2l0.5-4.4l1.6-3.1l3.6-2.9l0.8-3.6l2.3-1.8l0.3-5.7l6.2-4.7l0,0l-0.3-3.1l-2.9-3.9l-3.1-1.8l-3.6,1.6l-5.2-0.8v-3.6l5.7-5.2
	v-3.1l-2.3-1.8h-2.9l-1.3-1.6l3.9-5.4v-3.9l-1-1.6l1.6-1.8l0.3-8.8l2.1-9.9l0.5-6.5l5.2-7.3l5.4-7.5l5.2-6l1.4-6.5l1.4-6.5l8-1.3
	l0,0l2.3-3.1l-1-4.7l4.7-7l3.9-6.2l3.9-6l2.9-4.1l0,0"/>
<path class="st0" d="M81.1,39.5l5.4-4l7.9-5.7l5.4-4.7l7-7l15.8-8.8l10-2.5l9.7,1.7l12.7,6.2L162,17l10.9,1.3l0,0"/>
<path class="st0" d="M273.8,219l-6-8l-7-7l-11.2-12.4l-3.9-5.2l-9.6-4.7l4.4-8l-2.3-7.5l5.7-21.3l0.8-11.4l-3.4-4.9l0.8-6.7l2.1-2.3
	l0.3-1.6l-1.8-1.6v-1.8l4.9-1.8l1.3-2.3l-0.8-2.1l3.6-2.3l1-3.9l5.7-2.1l0.3-3.1L257,82.4l-1-6l-9.6-5.4l0,0l-4.9-4.1l-0.8-8
	l-8.3-4.1l-0.3-14l-6-4.4l-10.9,2.3l-3.9,2.1h-5.2l-5.4-5.2l0.3-3.1l-4.7-5.4l-1.8-0.3l0,0"/>
</svg>
