<?xml version="1.0" encoding="utf-8"?>
<!-- Generator: Adobe Illustrator 25.3.0, SVG Export Plug-In . SVG Version: 6.00 Build 0)  -->
<svg version="1.1" id="Layer_1" xmlns="http://www.w3.org/2000/svg" xmlns:xlink="http://www.w3.org/1999/xlink" x="0px" y="0px"
	 viewBox="0 0 600 264" style="enable-background:new 0 0 600 264;" xml:space="preserve">
<style type="text/css">
	.st0{fill:none;stroke:#4682B4;}
</style>
<path class="st0" d="M15,257.3l13.8-8.1L39.3,237l10.5-17l14.6-25.1l4.9-16.2l8.1-21.9l12.2-23.5l12.2-24.3l8.1-17l15.4-0.8
	l27.6-3.2l26.8,2.4h8.1l13-11.4l17-16.6l10.1-5.3l16.2-0.4l13.8-0.4l9.3-6.1l9.3-4.5l9.3,1.2l11.4-5.3l7.7-5.7l5.3-9.3l14.2-6.1
	l22.3-6.9l13.4-2.4l16.2-1.2l10.9,1.6l4.9,3.2l10.1,1.2l6.1-3.6l8.5,3.2l14.2-3.2l12.2-2.4l-0.4,0.8"/>
<path class="st0" d="M226.2,130.3l-0.4-8.1v-11.4V93.4V81.2l2-6.9l3.6-6.1l0,0"/>
<path class="st0" d="M483.2,9.2l8.5-2.4l6.9,0.8l12.2,4.9l8.1,3.6l10.5,1.6h18.2l20.7-0.8h11.4l5.3,1.2l0,0"/>
</svg>
