<?xml version="1.0" encoding="utf-8"?>
<!-- Generator: Adobe Illustrator 25.3.0, SVG Export Plug-In . SVG Version: 6.00 Build 0)  -->
<svg version="1.1" id="Layer_1" xmlns="http://www.w3.org/2000/svg" xmlns:xlink="http://www.w3.org/1999/xlink" x="0px" y="0px"
	 viewBox="0 0 600 260" style="enable-background:new 0 0 600 260;" xml:space="preserve">
<style type="text/css">
	.st0{fill:none;stroke:#4682B4;}
</style>
<path class="st0" d="M403.2,253.3l2.7-23.9l-8.2-27.3l-19.8-13.7l-30.1-10.3l0,0"/>
<path class="st0" d="M319.8,165.2l-23.2-8.9l-21.9-5.5l-12.3,3.4l-13,11.6l-17.1-2.1l0,0"/>
<path class="st0" d="M163.3,145.3h-49.2l-23.9,2.1l-26.7,7.5l-48.5,13l0,0"/>
<path class="st0" d="M446.9,6.7l-9.6,20.5L436,49l5.5,21.9l6.8,10.9v17.8l2.7,19.1"/>
<path class="st0" d="M466.1,132.4L585,127h-8.2"/>
<path class="st0" d="M431.9,133.8l-84.7,5.5l0,0"/>
<path class="st0" d="M395,57.2l20.5,27.3l0,0"/>
</svg>
