<?xml version="1.0" encoding="utf-8"?>
<!-- Generator: Adobe Illustrator 25.3.0, SVG Export Plug-In . SVG Version: 6.00 Build 0)  -->
<svg version="1.1" id="Layer_1" xmlns="http://www.w3.org/2000/svg" xmlns:xlink="http://www.w3.org/1999/xlink" x="0px" y="0px"
	 viewBox="0 0 93 46" style="enable-background:new 0 0 93 46;" xml:space="preserve">
<style type="text/css">
	.st0{fill:none;stroke:#4682B4;}
</style>
<path class="st0" d="M26.7,42.6L25,40.7l-0.9-3.9L21,33.5l-3.4-2.6l-2.6-0.8l-3.4-4L9.3,23h0.6"/>
<path class="st0" d="M5.3,40.5l1.2,1.4l1.9,0.2l2.5,1.6l1.6,1.4h1.9l6.1-0.8l0,0"/>
<path class="st0" d="M4.3,18.9L4,22.3l-1.7,4l0.8,5.4l0,0l0.2,4.7l0,0"/>
<path class="st0" d="M84.3,34.7l0.5-3.8l0.6-3.5l1.6-2.7l0,0"/>
<path class="st0" d="M26.7,39.1l1.7,1.7l1.6,0.8l3,0.6l2.8-0.3l3.9-2.3l3-3.3h4.8l5.9-2l9.2-2.8l4.8-2l1.2,1.6l2.3-2.3l1.9-2.2
	l2.8,0.9l4.2-1.6l5-0.3l2.3-1.2l1.4-5.3l-0.3-5.9l2.2-3.6l0.3-6.2L89.3,1l0,0"/>
</svg>
