<?xml version="1.0" encoding="utf-8"?>
<!-- Generator: Adobe Illustrator 25.3.0, SVG Export Plug-In . SVG Version: 6.00 Build 0)  -->
<svg version="1.1" id="Layer_1" xmlns="http://www.w3.org/2000/svg" xmlns:xlink="http://www.w3.org/1999/xlink" x="0px" y="0px"
	 viewBox="0 0 93 166" style="enable-background:new 0 0 93 166;" xml:space="preserve">
<style type="text/css">
	.st0{fill:none;stroke:#4682B4;}
</style>
<path class="st0" d="M18.1,100v-2.7l-0.1-2.7l0.5-2.9l0.5-3.4l0.6-2.7L20,83l0.3-3l0.5-3.1l1.1-1.9l0.5-1.7l0.1-2.7l0.2-4l0,0
	l0.2-2.1l-0.5-2.6l-0.1-1.3l1.2-1.3l0,0"/>
<path class="st0" d="M25.1,58l0.4-1.2l0.7-1l1.2-1.3l0.4-1.2l-0.1-2.7l-0.4-2l0.7-1.5l1.4-2.6l0.9-2.6l0.7-1.6l0,0l0.9-2.1l0.5-2.3
	l-0.4-2v-1.2l0.4-0.7L32.3,30l0.6-1.2v-3.4v-0.8l0.9-1.2l0.4-0.9l0.1-2.7v-0.9V19l0.7-0.7l1.6-0.9l1.1-0.7l2.1-0.5l1.5-0.4l1-1.1
	l0.7-0.1l1.7-1.6l1.3-1.9l0.6-0.9l1.5-1l3.2-1.5l3-1.3L57,5.3l2.5-0.9l0,0"/>
<path class="st0" d="M61.2,4.2l-0.3,2.4l-0.1,2.2l0.2,1.5l-0.2,0.4l1.5,1l0,0"/>
<path class="st0" d="M76.6,16.7l1.6,0.5l1.8,0.2l1.3-0.1l2.3,0.5L83.6,19l-0.3,1.8l0.1,1.9l-0.3,1.6l-0.3,0.7l1.1,0.5l1.8,0.9
	l1.4,0.2l2.4,0.4l1.1,0.1l0,0"/>
<path class="st0" d="M56,47.3l1-1l0.7-1.1l0.5-1.8l0.6-1.1l1.2-0.4l1.1-0.2v-1.5l0.5-1.2l1-1.2l0.5-0.9l0.1-1.3L63,34.7l-1.2-1.9
	l-0.9-2.1l-1.1-1.3l-1.1-1.7l-0.2-1.8L59,24l0.6-1.5l-0.9-1.2l-1.1-0.6l-0.4-1v-2.3l0.4-1.2l1.1-1.8l0.7-1.3l0,0"/>
<path class="st0" d="M60.9,10.9l1.4-0.9l1.6-0.8l0.7-0.9l0.6-1.8l-0.2-1.2l-0.3-0.7l0,0"/>
<path class="st0" d="M55.8,47.9l-1,1.3l-0.5,1.8l-0.4,2.6l-0.2,2.4l0.1,1.5l-0.9,1l0.2,0.5l1.2,0.2l0.2,0.9l-0.6,0.8l-0.7,0.5v0.7
	l0.4,0.5h0.6L55,62l1,0.7l0.3,1.5l-1.4,1l0.1,0.9l-0.8,1l-0.1,0.7l-0.9,0.9l-0.3,1.8l0.7,2.1v1.2L52.8,75L52.1,77l-1.3,0.9l-0.1,0.6
	l0.4,1.4l-0.2,3.3l0,0"/>
<path class="st0" d="M2.9,133.8l-0.2,1.9l-0.2,2.4l0.6,2.6l0.7,1.9l1.2,1.9l0.9,2.6l0.5,2.6l-0.2,2.6l-0.6,3.4v2.6l0.1,1.8v1.8l0,0"
	/>
<path class="st0" d="M3.4,132.4l1.2-1l1.8-1.2l1.5-1.3l1.7-1.7l1.3-2.9l0.6-2.9l-0.1-2.4v-3.2v-2.1l1.1-2.8l1-2.1l1-2.1l2.1-3.3
	l1.1-2.1l0,0"/>
</svg>
