<?xml version="1.0" encoding="utf-8"?>
<!-- Generator: Adobe Illustrator 25.3.0, SVG Export Plug-In . SVG Version: 6.00 Build 0)  -->
<svg version="1.1" id="Layer_1" xmlns="http://www.w3.org/2000/svg" xmlns:xlink="http://www.w3.org/1999/xlink" x="0px" y="0px"
	 viewBox="0 0 339 189" style="enable-background:new 0 0 339 189;" xml:space="preserve">
<style type="text/css">
	.st0{fill:none;stroke:#E42A29;stroke-linecap:round;stroke-linejoin:round;}
</style>
<path class="st0" d="M8.5,184.2c0-6.2,7.3-17.1,9.9-22.8c3.8-8.3,12.4-24.3,15.8-32.7c2.6-6.4,5.5-20.2,8.8-26.3
	c2.8-5.2,9.3-16,14.6-18.7c5.2-2.6,17.5-0.5,23.4-0.6c9.9-0.2,39.7-0.6,39.7-0.6h35.7c0,0,19.8,0.9,26.3,0c6.5-0.9,18.8-5.6,25.1-7
	c7.2-1.7,22-3.6,29.2-5.3c5.6-1.3,16.5-5.6,22.2-6.4c4.9-0.7,14.9,0.1,19.9,0c7.9-0.2,24.7,2.2,31.6-1.8c3.7-2.1,6.9-10.6,9.4-14
	c2.5-3.5,9.5-9.3,10.5-13.4c1-4.2-1.7-12.8-2.9-17c-0.8-2.8-2.5-8.7-4.7-10.5c-2-1.6-7.5-1.8-9.9-2.3l0,0"/>
</svg>
