<?xml version="1.0" encoding="utf-8"?>
<!-- Generator: Adobe Illustrator 25.3.0, SVG Export Plug-In . SVG Version: 6.00 Build 0)  -->
<svg version="1.1" id="Path" xmlns="http://www.w3.org/2000/svg" xmlns:xlink="http://www.w3.org/1999/xlink" x="0px" y="0px"
	 viewBox="0 0 120 69" style="enable-background:new 0 0 120 69;" xml:space="preserve">
<style type="text/css">
	.st0{fill:none;stroke:#4682B4;}
</style>
<path class="st0" d="M104.4,26.3l2-0.7l2.3-1.1l1.6-1.3l0.6-2.3v-3.4l0.6-1.6l1.6-3l2-3l0.8-1.7L115.5,6L113.9,5l-3.6-1.4l-2.1-1
	l-1.9-0.3L103.8,3H103l-1.6-0.5l-3.2-0.7l-4.9-0.1l-3.9,0.9L83.8,4l-4.2,1l-4.2,1.9l-3.6,0.9l-2.7-0.2l-2.5-1l0,0"/>
<path class="st0" d="M98.1,62.6l-1.2-2.8l-0.5-2.6l0.3-3.8l1.3-2.9l0.7-1.2l0.2-1.7l0.5-0.9l1.5-0.5l0.7-0.5v-2.3l-0.1-1.2l0.9-0.7
	l1.4-1.1l-0.8-1.9l-0.3-0.5l1.4-1.3l1.1-1.3l0.8-0.7l2.5-0.8l2.9-1.1l1.4-0.6l0.9-3.2l0.4-2.4l1-2.5h-0.1"/>
<path class="st0" d="M117,21.6h-2.8l-2.4,0.2l-2.1,0.5l-2.9,0.4l-2.2,1l0,0"/>
<path class="st0" d="M3,67.3L3,67.3l4.9-4.5l3.1-2.7l2.9-2.5l1.6-2.5l1.4-4.1l2.1-4.1l1.6-3.3l1.6-4.3l1.2-3.5l1-3.1l1.9-3.5
	l1.4-2.7l1.4-2.5l2.5-0.6l2.1,0.2l4.1,2.1l5.1,2.5l3.9,1.4l4.5,1.4l5.1,1.4l3,0.5l2.3-0.9l2.8-0.8l2.9-0.7l1.6-0.5l2.5-0.3l2.6,0.2
	h0.9l1.1-0.7v-1.5l0.6-0.8l-0.2-1l0.5-1.4l2-1.2l0.9-0.6l1.7,0.3l1.6,0.1l0.8-0.5l0.8-0.8l1.3,0.5l0.4-0.4l1.2-0.2l1,0.2l-0.2,1
	l0.4,0.1l0.6-0.5l1.7-1.1l0.5,0.5l-1.1,1l1,0.9l1.7,0.1l1.9,0.3L96,25l1.7,0.5L99,26l0.6-0.3l0.7-0.5l0.6,0.4l-0.4,0.8l0.1,0.2
	l1-0.3h0.9l0.2,0.5l2,2l0,0"/>
<path class="st0" d="M60.9,18.4l-1,2.9l-0.2,4.3l-0.2,4.5l0.4,2.5l0,0"/>
<path class="st0" d="M116.2,21.9l-1.6,0.6l-1.6,1l0.4,2.2l-0.1,0.8l-1.4,0.5l0,0"/>
</svg>
