<?xml version="1.0" encoding="utf-8"?>
<!-- Generator: Adobe Illustrator 25.3.0, SVG Export Plug-In . SVG Version: 6.00 Build 0)  -->
<svg version="1.1" id="Path" xmlns="http://www.w3.org/2000/svg" xmlns:xlink="http://www.w3.org/1999/xlink" x="0px" y="0px"
	 viewBox="0 0 120 346" style="enable-background:new 0 0 120 346;" xml:space="preserve">
<style type="text/css">
	.st0{fill:none;stroke:#E51F1F;}
</style>
<g id="Path_1_">
	<path class="st0" d="M3.2,197.7l1.2-1.4l1.7,0.1l1.6-0.9l1.7-0.6h1l1.6,0.9l1.4,0.4l2.1,1.4l1.2,1.2l0.3,1.9l0,0"/>
	<path class="st0" d="M17.1,202.4l1.8-0.5l2.1-0.8l1.8-1.4l1-1l3-1l3.5-1.3l2.9-1l2.2-1.9l1.2-0.8l1.7-0.3l2.3-0.3l1.4-0.5l3.4-1.2
		l1.7-0.5l1.6,0.1l1,0.4l0.9,2.1l1.8,2.6l1.7,3.1l1.3,0.6l2.3,1l4,1.2l3,1.9l3,2.9l1.7,1.3l0.1,1.6l0.1,0.9l0,0"/>
	<path class="st0" d="M54.5,337.4l0.1-1.3l0.1-0.9l0.8-1.8l0.5-2.2l-0.1-1.8l-0.1-1.7l-0.1-1.2l-1.6-1.6l-0.5-1.2l0.4-1.3l-0.1-1
		l0.8-1l0.5-0.8l-0.3-0.8l-0.6-1v-1.6l0.4-0.6l-0.9-2.1l-0.8-1.2l-0.9-0.5v-1l-0.6-1.6l-0.1-0.9l-0.5-1l0.1-0.8L52,306l0.5-0.9
		l1.6,0.1V304l1-0.8l1.3-0.6l0.9-0.1l1-1l1.6-0.8l0.5-0.9v-2.2l0.9-1.6l0.1,0.6l0.8-0.3l0.6-1.8l-0.5-1.3l0.1-1l1.3-0.5l1.4-0.4
		l2.3,0.4l0.8-0.4l-0.9-1l-0.3-0.5l-3.6-2.2l0.3-1.4l-1.6-5.1l-1-1.4l0.1-3.4l0.5-3.6l-0.3-2.2l0.5-1.6l-0.9-3.5l0.3-2.6l0.3-3.5
		l0.6-4.3l0.5-5.7l1.4-2.3l1.8-3.4l2.1-3l2.6-3.8l0.5-0.6v-3l0,0l-1.9-1.9l-0.6-1.6V227l-1.8-1.3h0.8l0.5-0.8l0.9-0.1l1.3-1.7
		l0.6-0.4v-0.9l-1.8-0.9l-1.8-0.8l-0.1-1.8l0.1-2.2l1.2-2.5l0.8-2.9l0.6-2.2l1.7-1.8l2.2-2.3l0.6-1.4l-0.1-1.4l-1-2.2l0.4-2.7l1-4.5
		l1.2-5.2l0.5-2.2l-1.2-2.9l-1.4-3.4l-0.6-2.1l0,0l0.3-1l1.3-0.5v-1.4l-1.2-1.7l0.9-1.2l-0.1-2.6v-1.6l0.9-2.1l0.4-1.9l0.1-1.9
		l-0.9-1.3v-0.9v-0.6l0.5-1l-0.4-1l1.3-0.8l0.1-0.9l1.3-1.7l1-0.4l0.6-1.4l-0.6-1v-3.8l1.3-0.1l1.2-0.6l0.1-2.6l0.1-2.6l-0.6-1.9
		l2.6-3.5l0.9-0.3l0.1-3.2v-1.9l1.3-2.6l0.6-3.1l2.1-3l1.3-3.6l0.9-3.6l2.3-1.2l1.9-2.2h0.6l2.6-1.6l1.3-2.7l1.3-4.4l-0.1-4l1.4-4
		l1.3-4.2l1.2-3.9l-0.1-3.6l0.6-5.4l0.9-5.4l0.3-4.2l0.3-4.3l-0.4-4l1-2.5l0,0l1.7-5.2l1.8-4.9l0.4-2.7l-1.2-2.9L110,38l0.6-2.7
		l0.5-5.6l0.5-3.1l1.3-2.2l0.3-3.2l0.4-2.9l0.9-2.5l1.2-3l1-1.6l0.1-1.4l-0.1-1.2l0,0"/>
</g>
</svg>
