<?xml version="1.0" encoding="utf-8"?>
<!-- Generator: Adobe Illustrator 25.3.0, SVG Export Plug-In . SVG Version: 6.00 Build 0)  -->
<svg version="1.1" id="Layer_1" xmlns="http://www.w3.org/2000/svg" xmlns:xlink="http://www.w3.org/1999/xlink" x="0px" y="0px"
	 viewBox="0 0 28 69" style="enable-background:new 0 0 28 69;" xml:space="preserve">
<style type="text/css">
	.st0{fill:none;stroke:#E02222;}
</style>
<path class="st0" d="M1,67.3l-0.1-1.2l-0.2-1.7l0.4-0.6L1.6,63l-0.2-1.4L0.8,60l-0.2-1.4l0.2-1.5l-0.1-1.5l-0.2-1.1l0.5-0.9l0.6-0.2
	L2.6,51l0.2-1l-0.3-1l0,0l-0.1-1.2l0.4-1l0.6-0.7l0.3-0.6l0.4-0.6L4,44l1.1-0.4l0.1-0.7l-0.4-0.6l-0.7-0.5H3.5L2.7,42l-0.3-0.4
	l0.3-0.8l0.9-0.5l-0.3-0.7l-1.1-0.4l0.1-0.4l0.8-0.6l-0.1-2.7l0.4-2.6l0.2-1l1.2-1.4l1-1.3l0.5-0.7l0,0l0.2-1L7,25.7L8.9,25v-1.4
	l1.1-1.4l0.6-0.7l0.3-0.9l1.2-1.1l1.9-1.5l1.9-1.6l1.9-1.3l1.5-1.4l0.5-0.6l-0.3-1.2L19,10.3l0.5-1.7l0.7-2.1l0.2-0.6l1.1-0.4
	l1.2,0.2L25,5.8h2l0.4-0.4V3.5V1.7l0,0"/>
</svg>
