<?xml version="1.0" encoding="utf-8"?>
<!-- Generator: Adobe Illustrator 25.3.0, SVG Export Plug-In . SVG Version: 6.00 Build 0)  -->
<svg version="1.1" id="Layer_1" xmlns="http://www.w3.org/2000/svg" xmlns:xlink="http://www.w3.org/1999/xlink" x="0px" y="0px"
	 viewBox="0 0 28 54" style="enable-background:new 0 0 28 54;" xml:space="preserve">
<style type="text/css">
	.st0{fill:none;stroke:#4682B4;stroke-width:0.5;stroke-miterlimit:10;}
</style>
<path class="st0" d="M14.7,11.7L15,12l0.1,0.3v0.4l0.5,0.6l0.2,0.2l0,0.5L16,15l0.1,0.4l-0.2,0.5l-0.1,0.8l0.1,0.6l0.8,0.1l1,0.3
	l0.4,0.2l0.6,0.6l0.8,0.4l0.8,0.4l0.3,0.2l0.8,0.4l0.7,0.6l0.5,0.4l0.5,0.4l0.2,0.6l0.2,0.6l0,0"/>
<path class="st0" d="M14.3,7.1l-0.5,0.5l0.2,0.2L14,8v0.3l0.2,0.2l-0.1,0.4l-0.1,0.3l0,0.4l0.3,0.4l0.1,0.3V11l0.1,0.4"/>
<path class="st0" d="M0.9,52.5l0.5-0.1l0.5-0.2L2.3,52l0.4-0.3l0.3-0.2l0.3-0.1l0.7-0.2L4.4,51l0.5-0.1l0.5-0.3l0.4-0.4l0.4-0.2
	l0.5-0.1l0.7-0.1l0.6-0.2l0.7-0.2l0.7-0.1l0.6,0.1l0.6,0.1l0.2,0.1l0.3,0.3l0.4,0.1l0.6,0.2l0.1,0.1l0.1,0.3l0.1,0l0.2-0.2l0.3-0.5
	l0.6-0.5l0.5,0l0.1,0.2l0.3-0.2l0,0l0.4-0.4l0.1,0.1l0,0.4l0.2,0.2l0.4,0l0.5-0.2l0.2-0.4l0.2-0.4l0.2,0l0.6-0.3l0.5-0.3l0.6-0.6
	l0,0"/>
<path class="st0" d="M25.5,29.7l-0.2,0.3L25,30.3l-0.2,0.3l-0.6,0.2h-0.6l-1-0.1h-0.4l-0.6,0.3L21,31.2L20.7,31l-0.2-0.1l-0.4,0.1
	l0,0"/>
<path class="st0" d="M27.2,1.5L27.3,2l-0.2,0.4L26.9,3l-0.3,0.7L26.3,4l0,0.4l-0.1,0.3v0.4v0.4L26,6l-0.2,0.3l-0.1,0.5l-0.1,1.1
	l0,0.6l-0.1,0.3l-0.1,0.4l0.1,0.5l0.2,0.4l0,0.4l-0.2,0.8l-0.3,0.9l-0.3,1l-0.3,0.8v0.7v0.8l0,0.8l-0.1,0.8l-0.2,1.2v0.8l0,0l-0.2,1
	l0,0.6l0.1,0.4l-0.2,0.8l-0.3,1.2l-0.3,1.1l-0.2,0.4v0.5l-0.1,0.9l-0.3,1l-0.4,0.6L21.8,28l-0.2,0l-0.2,0.3l-0.5,0.3L20.4,29
	l-0.2,0.8l-0.3,0.8l-0.6,1L19,32.7l-0.2,0.6v1.1l-0.4,0.3L18,35.2l-0.1,0.3l0.1,0.5l-0.1,0.4l0,0.6l-0.1,0.3l-0.4,0.1L17.3,38v0.4
	l0.1,0.3l0,0.3l-0.2,0.2L17,39.3l-0.2,0.2L16.7,40l-0.3,0.2l0.1,0.2l-0.1,0.2l-0.1,0.6l0.2,0.1v0.6l-0.1,0.9l-0.2,0.3l0,0.8l0.1,0.3
	L16,44.4l0.1,0.5v0.2l-0.2,0.3v0.7l0.4,0.6l0.7,0.1l0,0"/>
<path class="st0" d="M0.8,52.2l0-0.5l0.3-0.5l0-0.5l-0.4-0.8l0.1-0.6l0.1-0.5l-0.2-0.5L1,47.9l0.1,0l0-0.2l0.3-0.5l0-0.2l0.2,0
	l0-0.3l-0.2-0.6l0.2-0.4L1.9,45L2,44.5l0.4-0.3l0-0.2l-0.3-0.4l-0.4,0.1l-0.3-0.1l0.1-0.3l0.4-0.2l0-0.3l-0.3,0l-0.2-0.2l0.2-0.2
	l0.1-0.6L1.7,41l0.1-0.8l0.5-0.7l0.4-0.6L3.1,38l0.6-0.2l0-0.5l0.6-0.9l0,0l0.1-0.3l0.6-0.5L6,34.9l1-0.8l0.5-0.4l-0.2-0.5l-0.2-0.5
	l0.2-0.5l0.3-1l0.4-0.2l0.6,0L9.4,31h0.6l0.3-0.2h0.4l0.8-0.3l0.3,0.1l0.4,0.1l0.4-0.2l0.9-0.1l0.9-0.1l0.4-0.5l0.3-0.4l0.7,0h0.6
	l0,0l0.7,0.2l0.5,0.4l0.9,0.4h0.6l0.3,0l0.3,0l0-0.3l0,0"/>
<path class="st0" d="M20.1,29.8l0.3-1l0.8-0.4l0.3-0.5l0.3-0.1l0.4-0.2l0.4-0.5l0.8-0.1l0.9-0.1l0.5-0.4l0.5-0.4l0-0.6l0.4-0.4
	l0.4-0.4l0.4-0.4l0,0"/>
<path class="st0" d="M21.8,28.2l0.5-0.3l0.2-0.1l0.2-0.4l0.3-0.1l0.5,0l0.7-0.1l0.3-0.1l0.3-0.2l0.3-0.2l0.3-0.2l0-0.3l0-0.3
	l0.3-0.3l0.3-0.3l0.4-0.5l0.4-0.5l0,0"/>
</svg>
