<?xml version="1.0" encoding="utf-8"?>
<!-- Generator: Adobe Illustrator 25.3.0, SVG Export Plug-In . SVG Version: 6.00 Build 0)  -->
<svg version="1.1" id="path" xmlns="http://www.w3.org/2000/svg" xmlns:xlink="http://www.w3.org/1999/xlink" x="0px" y="0px"
	 viewBox="0 0 46 166" style="enable-background:new 0 0 46 166;" xml:space="preserve">
<style type="text/css">
	.st0{fill:none;stroke:#EA1B1B;stroke-miterlimit:10;}
</style>
<g id="Path">
	<path class="st0" d="M27.9,151.3l-0.4-0.3l-0.9,0l0,0"/>
	<path class="st0" d="M1.3,152.8l1,0.9l1,0.9l-0.1,1.1l-0.1,1.1l1,1l0,1.1l0,1.1l0,1.1l0,1.1l0,0"/>
	<path class="st0" d="M4.5,161.7l1.4-0.7l1.9-0.9l1-0.2l1.4-0.9l1.4-1.4h0.7l1.9-0.9l2.5-0.9l2.2-0.7l1.4-0.6l1.4-1.2l1.6-1.2
		l1.6-0.4l3-0.1h1l1.4-1l1-0.7l2-0.2l1.7-0.1l0.5-0.4l0.9-2.3l0.7-2.7l-0.6-1.4l-0.1-2.7l-0.2-2.8l0.5-1.7l0.2-3l0.5-3.1l0.7-4.6
		l1-3l0.9-2.7v-2l0.7-0.9l1.4-0.5h1.1l1.9,1l0,0"/>
	<path class="st0" d="M37.3,4.2l-2,2.3l-0.2,2.4l-0.3,0.7v0.7l0.9,0.1l-0.1,0.5l-0.5,0.4V12l0.4,0.6l-0.2,1.8l0,0l0.1,1.7l0.1,1.7
		l0.1,1.7l0.1,1.7l0.3,0.6l-0.1,1.2l-0.1,1.2L35.3,25l0.1,1.2l-0.6,0.2l-0.6,0.2l-0.2,0.6l0.3,0.4l-0.1,0.9l0.6,0.5l0,0.4l-0.7,2
		l-0.7,1.8l-0.8,1.4l0.6,1.1l0,1.1l-0.3,2l0.6,0.5l-0.3,1.2l0.6,0.8l-0.3,0.3v0.8l0,0l-1.5,1l-2.1,3.7l0.9,2.3l1.9,2.8l0,0l0.4,1.8
		l1.1,1.3l0.3,0.3L34.2,57l-1.4,1l0.2,1l-0.3,1l-0.4,0.2l-0.9,0.2l-1,0.1l-0.2,0.4l-0.6,0.2L29,60.9l-0.7-0.5l-1.8,0.2l-1.6-0.9
		h-1.1L23,60.5l-0.7,0.9l-0.4,0.8L21.6,63v0.5l-1,0.7l-0.2,0.6l-0.5,0.4l-0.5,0.4l0,0l-0.7,0.5L18,66.7l-1.1,0.8l-1.1,0.2l-1.9,1.6
		l-0.9,0.2L12,70.2L11,70.9l-0.8,1.7l0.2,1.3l1.1,1.2l1.1,1.2l0.2,1.3l0,0l0,2.8l-0.8,1.4l-0.7,1.2l-0.2,1.9l0.4,2.2l1.1,0.5
		l0.6,1.1L12.8,90l-0.9,2.4l0.6,0.8l0.1,0.6l0.7,1.8l0.6,0.7l0.8,0.6l0.4,1.9l1.8,2.7l0.1,1.8l-0.4,0.9l-1.8,2.3l0.1,1.4l-0.1,0.3
		l-2.2,0.9l-0.3,0.5l-0.6,2.5l0,0l-1.1,1l-0.6,1.1l-0.6,1l-1.1,1.1l-0.5,1.4l-0.5,2.7l-0.1,2.5L7,123.1v0.2l0.2,0.2L7,124.7l-0.8,1
		l0.1,0.5l1.3,0.5l0.1,0.7l-1.4,1l-0.1,1.3l0.6,0.1l1-0.1l0.5-0.2l0.9,0.4l0.6,0.7l0.2,0.9l-1.3,0.9l-0.2,1.1l-0.5,0.9l-0.4,0.7
		l-1.1,1.4l-0.2,1.2l0.6,1.8l0.1,1.2l0,0l0,0.8l-0.6,1.7l-0.1,1.6l0.1,0.9l1.7,1.7l2.6,1.2l2.4,0.4l2.7,1.3l7.7-0.1l0,0l0.6,0.1"/>
	<path class="st0" d="M1.3,152.1l1.5-0.8l1.5-0.8l0.1-1.4l0.1-1.4L4,147.3l0.1-1.4l0.3-0.8l0.9-0.4l0.6-1.6l0.6-1.6l0,0"/>
</g>
</svg>
